%TF.GenerationSoftware,KiCad,Pcbnew,8.0.1-8.0.1-1~ubuntu22.04.1*%
%TF.CreationDate,2024-04-08T23:00:13-07:00*%
%TF.ProjectId,gps_interposer,6770735f-696e-4746-9572-706f7365722e,rev?*%
%TF.SameCoordinates,Original*%
%TF.FileFunction,Soldermask,Top*%
%TF.FilePolarity,Negative*%
%FSLAX46Y46*%
G04 Gerber Fmt 4.6, Leading zero omitted, Abs format (unit mm)*
G04 Created by KiCad (PCBNEW 8.0.1-8.0.1-1~ubuntu22.04.1) date 2024-04-08 23:00:13*
%MOMM*%
%LPD*%
G01*
G04 APERTURE LIST*
G04 Aperture macros list*
%AMRoundRect*
0 Rectangle with rounded corners*
0 $1 Rounding radius*
0 $2 $3 $4 $5 $6 $7 $8 $9 X,Y pos of 4 corners*
0 Add a 4 corners polygon primitive as box body*
4,1,4,$2,$3,$4,$5,$6,$7,$8,$9,$2,$3,0*
0 Add four circle primitives for the rounded corners*
1,1,$1+$1,$2,$3*
1,1,$1+$1,$4,$5*
1,1,$1+$1,$6,$7*
1,1,$1+$1,$8,$9*
0 Add four rect primitives between the rounded corners*
20,1,$1+$1,$2,$3,$4,$5,0*
20,1,$1+$1,$4,$5,$6,$7,0*
20,1,$1+$1,$6,$7,$8,$9,0*
20,1,$1+$1,$8,$9,$2,$3,0*%
G04 Aperture macros list end*
%ADD10C,3.900000*%
%ADD11C,4.100000*%
%ADD12RoundRect,0.237500X0.250000X0.237500X-0.250000X0.237500X-0.250000X-0.237500X0.250000X-0.237500X0*%
%ADD13RoundRect,0.237500X-0.250000X-0.237500X0.250000X-0.237500X0.250000X0.237500X-0.250000X0.237500X0*%
%ADD14RoundRect,0.237500X-0.237500X0.250000X-0.237500X-0.250000X0.237500X-0.250000X0.237500X0.250000X0*%
%ADD15RoundRect,0.237500X0.237500X-0.250000X0.237500X0.250000X-0.237500X0.250000X-0.237500X-0.250000X0*%
%ADD16R,1.700000X1.700000*%
%ADD17O,1.700000X1.700000*%
%ADD18R,0.750000X2.100000*%
G04 APERTURE END LIST*
D10*
%TO.C,H4*%
X162900000Y-77900000D03*
D11*
X162900000Y-77900000D03*
%TD*%
D12*
%TO.C,R29*%
X183525000Y-112600000D03*
X181700000Y-112600000D03*
%TD*%
D10*
%TO.C,H5*%
X162890000Y-69900000D03*
D11*
X162890000Y-69900000D03*
%TD*%
D13*
%TO.C,R32*%
X204075000Y-106300000D03*
X205900000Y-106300000D03*
%TD*%
D12*
%TO.C,R28*%
X183600000Y-111000000D03*
X181775000Y-111000000D03*
%TD*%
D14*
%TO.C,R25*%
X179400000Y-99100000D03*
X179400000Y-100925000D03*
%TD*%
D10*
%TO.C,H8*%
X162890000Y-104100000D03*
D11*
X162890000Y-104100000D03*
%TD*%
D10*
%TO.C,H1*%
X217100000Y-77900000D03*
D11*
X217100000Y-77900000D03*
%TD*%
D15*
%TO.C,R31*%
X170000000Y-99825000D03*
X170000000Y-98000000D03*
%TD*%
D10*
%TO.C,H3*%
X162900000Y-112100000D03*
D11*
X162900000Y-112100000D03*
%TD*%
D14*
%TO.C,R22*%
X170000000Y-101600000D03*
X170000000Y-103425000D03*
%TD*%
D12*
%TO.C,R30*%
X183525000Y-106300000D03*
X181700000Y-106300000D03*
%TD*%
D14*
%TO.C,R23*%
X181200000Y-99100000D03*
X181200000Y-100925000D03*
%TD*%
D16*
%TO.C,J3*%
X207700000Y-110700000D03*
D17*
X205160000Y-110700000D03*
%TD*%
D10*
%TO.C,H2*%
X217100000Y-112100000D03*
D11*
X217100000Y-112100000D03*
%TD*%
D10*
%TO.C,H7*%
X217090000Y-104100000D03*
D11*
X217090000Y-104100000D03*
%TD*%
D10*
%TO.C,H6*%
X217090000Y-69900000D03*
D11*
X217090000Y-69900000D03*
%TD*%
D14*
%TO.C,R33*%
X174200000Y-108475000D03*
X174200000Y-110300000D03*
%TD*%
D18*
%TO.C,J1*%
X172100000Y-99010000D03*
X172100000Y-102610000D03*
X173370000Y-99010000D03*
X173370000Y-102610000D03*
X174640000Y-99010000D03*
X174640000Y-102610000D03*
X175910000Y-99010000D03*
X175910000Y-102610000D03*
X177180000Y-99010000D03*
X177180000Y-102610000D03*
%TD*%
D16*
%TO.C,U3*%
X186060000Y-113020000D03*
D17*
X186060000Y-110480000D03*
X186060000Y-107940000D03*
X186060000Y-105400000D03*
X186060000Y-102860000D03*
X186060000Y-100320000D03*
X186060000Y-97780000D03*
X186060000Y-95240000D03*
X186060000Y-92700000D03*
X188600000Y-92700000D03*
X191140000Y-92700000D03*
X193680000Y-92700000D03*
X196220000Y-92700000D03*
X198760000Y-92700000D03*
X201300000Y-92700000D03*
X201300000Y-95240000D03*
X201300000Y-97780000D03*
X201300000Y-100320000D03*
X201300000Y-102860000D03*
X201300000Y-105400000D03*
X201300000Y-107940000D03*
X201300000Y-110480000D03*
X201300000Y-113020000D03*
%TD*%
D14*
%TO.C,R26*%
X179500000Y-102800000D03*
X179500000Y-104625000D03*
%TD*%
%TO.C,R24*%
X181200000Y-102800000D03*
X181200000Y-104625000D03*
%TD*%
M02*
