%TF.GenerationSoftware,KiCad,Pcbnew,8.0.1-8.0.1-1~ubuntu22.04.1*%
%TF.CreationDate,2024-04-08T23:00:13-07:00*%
%TF.ProjectId,gps_interposer,6770735f-696e-4746-9572-706f7365722e,rev?*%
%TF.SameCoordinates,Original*%
%TF.FileFunction,Paste,Bot*%
%TF.FilePolarity,Positive*%
%FSLAX46Y46*%
G04 Gerber Fmt 4.6, Leading zero omitted, Abs format (unit mm)*
G04 Created by KiCad (PCBNEW 8.0.1-8.0.1-1~ubuntu22.04.1) date 2024-04-08 23:00:13*
%MOMM*%
%LPD*%
G01*
G04 APERTURE LIST*
G04 Aperture macros list*
%AMRoundRect*
0 Rectangle with rounded corners*
0 $1 Rounding radius*
0 $2 $3 $4 $5 $6 $7 $8 $9 X,Y pos of 4 corners*
0 Add a 4 corners polygon primitive as box body*
4,1,4,$2,$3,$4,$5,$6,$7,$8,$9,$2,$3,0*
0 Add four circle primitives for the rounded corners*
1,1,$1+$1,$2,$3*
1,1,$1+$1,$4,$5*
1,1,$1+$1,$6,$7*
1,1,$1+$1,$8,$9*
0 Add four rect primitives between the rounded corners*
20,1,$1+$1,$2,$3,$4,$5,0*
20,1,$1+$1,$4,$5,$6,$7,0*
20,1,$1+$1,$6,$7,$8,$9,0*
20,1,$1+$1,$8,$9,$2,$3,0*%
G04 Aperture macros list end*
%ADD10RoundRect,0.237500X-0.250000X-0.237500X0.250000X-0.237500X0.250000X0.237500X-0.250000X0.237500X0*%
%ADD11RoundRect,0.150000X0.512500X0.150000X-0.512500X0.150000X-0.512500X-0.150000X0.512500X-0.150000X0*%
%ADD12RoundRect,0.237500X0.250000X0.237500X-0.250000X0.237500X-0.250000X-0.237500X0.250000X-0.237500X0*%
%ADD13RoundRect,0.237500X-0.300000X-0.237500X0.300000X-0.237500X0.300000X0.237500X-0.300000X0.237500X0*%
%ADD14R,0.740000X2.400000*%
%ADD15RoundRect,0.150000X-0.150000X0.512500X-0.150000X-0.512500X0.150000X-0.512500X0.150000X0.512500X0*%
%ADD16RoundRect,0.237500X-0.237500X0.250000X-0.237500X-0.250000X0.237500X-0.250000X0.237500X0.250000X0*%
G04 APERTURE END LIST*
D10*
%TO.C,R3*%
X196800000Y-106700000D03*
X198625000Y-106700000D03*
%TD*%
D11*
%TO.C,U2*%
X194800000Y-105075000D03*
X194800000Y-106025000D03*
X194800000Y-106975000D03*
X192525000Y-106975000D03*
X192525000Y-106025000D03*
X192525000Y-105075000D03*
%TD*%
D10*
%TO.C,R8*%
X175475000Y-94700000D03*
X177300000Y-94700000D03*
%TD*%
D12*
%TO.C,R5*%
X198625000Y-109700000D03*
X196800000Y-109700000D03*
%TD*%
D10*
%TO.C,R14*%
X188435000Y-110700000D03*
X190260000Y-110700000D03*
%TD*%
D11*
%TO.C,U7*%
X194800000Y-94800000D03*
X194800000Y-95750000D03*
X194800000Y-96700000D03*
X192525000Y-96700000D03*
X192525000Y-95750000D03*
X192525000Y-94800000D03*
%TD*%
D12*
%TO.C,R4*%
X198625000Y-105200000D03*
X196800000Y-105200000D03*
%TD*%
D10*
%TO.C,R9*%
X171800000Y-94700000D03*
X173625000Y-94700000D03*
%TD*%
D11*
%TO.C,U1*%
X194800000Y-110300000D03*
X194800000Y-111250000D03*
X194800000Y-112200000D03*
X192525000Y-112200000D03*
X192525000Y-111250000D03*
X192525000Y-110300000D03*
%TD*%
D13*
%TO.C,C4*%
X196875000Y-97700000D03*
X198600000Y-97700000D03*
%TD*%
D10*
%TO.C,R13*%
X188435000Y-112700000D03*
X190260000Y-112700000D03*
%TD*%
%TO.C,R12*%
X196800000Y-101200000D03*
X198625000Y-101200000D03*
%TD*%
D11*
%TO.C,U5*%
X194800000Y-99750000D03*
X194800000Y-100700000D03*
X194800000Y-101650000D03*
X192525000Y-101650000D03*
X192525000Y-100700000D03*
X192525000Y-99750000D03*
%TD*%
D10*
%TO.C,R20*%
X192975000Y-98200000D03*
X194800000Y-98200000D03*
%TD*%
D12*
%TO.C,R10*%
X194800000Y-103200000D03*
X192975000Y-103200000D03*
%TD*%
D14*
%TO.C,J2*%
X172140000Y-106950000D03*
X172140000Y-110850000D03*
X173410000Y-106950000D03*
X173410000Y-110850000D03*
X174680000Y-106950000D03*
X174680000Y-110850000D03*
X175950000Y-106950000D03*
X175950000Y-110850000D03*
X177220000Y-106950000D03*
X177220000Y-110850000D03*
%TD*%
D15*
%TO.C,U4*%
X173400000Y-90425000D03*
X174350000Y-90425000D03*
X175300000Y-90425000D03*
X175300000Y-92700000D03*
X174350000Y-92700000D03*
X173400000Y-92700000D03*
%TD*%
D10*
%TO.C,R27*%
X196800000Y-96200000D03*
X198625000Y-96200000D03*
%TD*%
D16*
%TO.C,R7*%
X176975000Y-90375000D03*
X176975000Y-92200000D03*
%TD*%
D10*
%TO.C,R16*%
X188260000Y-100700000D03*
X190085000Y-100700000D03*
%TD*%
%TO.C,R6*%
X196800000Y-111200000D03*
X198625000Y-111200000D03*
%TD*%
%TO.C,R1*%
X192800000Y-108700000D03*
X194625000Y-108700000D03*
%TD*%
%TO.C,R15*%
X188260000Y-102700000D03*
X190085000Y-102700000D03*
%TD*%
D13*
%TO.C,C1*%
X172675000Y-88200000D03*
X174400000Y-88200000D03*
%TD*%
D12*
%TO.C,R2*%
X194625000Y-113750000D03*
X192800000Y-113750000D03*
%TD*%
D13*
%TO.C,C2*%
X196800000Y-108200000D03*
X198525000Y-108200000D03*
%TD*%
D12*
%TO.C,R21*%
X198625000Y-94700000D03*
X196800000Y-94700000D03*
%TD*%
%TO.C,R11*%
X198625000Y-99700000D03*
X196800000Y-99700000D03*
%TD*%
M02*
