M48
; DRILL file {KiCad 8.0.1-8.0.1-1~ubuntu22.04.1} date 2024-04-08T23:00:18-0700
; FORMAT={-:-/ absolute / inch / decimal}
; #@! TF.CreationDate,2024-04-08T23:00:18-07:00
; #@! TF.GenerationSoftware,Kicad,Pcbnew,8.0.1-8.0.1-1~ubuntu22.04.1
; #@! TF.FileFunction,Plated,1,2,PTH
FMAT,2
INCH
; #@! TA.AperFunction,Plated,PTH,ViaDrill
T1C0.0157
; #@! TA.AperFunction,Plated,PTH,ComponentDrill
T2C0.0394
; #@! TA.AperFunction,Plated,PTH,ComponentDrill
T3C0.1457
%
G90
G05
T1
X6.7244Y-4.3022
X6.7438Y-3.9557
X6.752Y-3.437
X6.7717Y-3.815
X6.7726Y-4.4652
X6.7772Y-4.1378
X6.7874Y-3.6496
X6.8199Y-3.9537
X6.8253Y-4.4316
X6.8307Y-3.5079
X6.8307Y-3.811
X6.8504Y-4.1024
X6.8504Y-4.1417
X6.8687Y-4.4313
X6.8809Y-3.9567
X6.9016Y-3.8268
X6.9266Y-4.3992
X6.9567Y-3.689
X7.0157Y-4.3661
X7.0236Y-3.9724
X7.1063Y-3.9439
X7.155Y-4.3552
X7.4744Y-4.128
X7.5089Y-3.8705
X7.5184Y-3.7362
X7.5318Y-4.3781
X7.5386Y-4.1412
X7.5394Y-3.9331
X7.5394Y-4.2441
X7.563Y-4.3189
X7.6299Y-4.4173
X7.6339Y-3.5512
X7.6969Y-4.2441
X7.7441Y-3.5512
X7.748Y-3.9252
X7.748Y-4.1417
X7.7756Y-3.8661
X7.7824Y-3.7557
X7.7892Y-4.3392
T2
X7.3252Y-3.6496
X7.3252Y-3.7496
X7.3252Y-3.8496
X7.3252Y-3.9496
X7.3252Y-4.0496
X7.3252Y-4.1496
X7.3252Y-4.2496
X7.3252Y-4.3496
X7.3252Y-4.4496
X7.4252Y-3.6496
X7.5252Y-3.6496
X7.6252Y-3.6496
X7.7252Y-3.6496
X7.8252Y-3.6496
X7.9252Y-3.6496
X7.9252Y-3.7496
X7.9252Y-3.8496
X7.9252Y-3.9496
X7.9252Y-4.0496
X7.9252Y-4.1496
X7.9252Y-4.2496
X7.9252Y-4.3496
X7.9252Y-4.4496
X8.0772Y-4.3583
X8.1772Y-4.3583
T3
X6.413Y-2.752
X6.413Y-4.0984
X6.4134Y-3.0669
X6.4134Y-4.4134
X8.5469Y-2.752
X8.5469Y-4.0984
X8.5472Y-3.0669
X8.5472Y-4.4134
M30
