%TF.GenerationSoftware,KiCad,Pcbnew,8.0.1-8.0.1-1~ubuntu22.04.1*%
%TF.CreationDate,2024-04-08T23:00:13-07:00*%
%TF.ProjectId,gps_interposer,6770735f-696e-4746-9572-706f7365722e,rev?*%
%TF.SameCoordinates,Original*%
%TF.FileFunction,Copper,L2,Bot*%
%TF.FilePolarity,Positive*%
%FSLAX46Y46*%
G04 Gerber Fmt 4.6, Leading zero omitted, Abs format (unit mm)*
G04 Created by KiCad (PCBNEW 8.0.1-8.0.1-1~ubuntu22.04.1) date 2024-04-08 23:00:13*
%MOMM*%
%LPD*%
G01*
G04 APERTURE LIST*
G04 Aperture macros list*
%AMRoundRect*
0 Rectangle with rounded corners*
0 $1 Rounding radius*
0 $2 $3 $4 $5 $6 $7 $8 $9 X,Y pos of 4 corners*
0 Add a 4 corners polygon primitive as box body*
4,1,4,$2,$3,$4,$5,$6,$7,$8,$9,$2,$3,0*
0 Add four circle primitives for the rounded corners*
1,1,$1+$1,$2,$3*
1,1,$1+$1,$4,$5*
1,1,$1+$1,$6,$7*
1,1,$1+$1,$8,$9*
0 Add four rect primitives between the rounded corners*
20,1,$1+$1,$2,$3,$4,$5,0*
20,1,$1+$1,$4,$5,$6,$7,0*
20,1,$1+$1,$6,$7,$8,$9,0*
20,1,$1+$1,$8,$9,$2,$3,0*%
G04 Aperture macros list end*
%TA.AperFunction,ConnectorPad*%
%ADD10C,3.900000*%
%TD*%
%TA.AperFunction,ComponentPad*%
%ADD11C,4.100000*%
%TD*%
%TA.AperFunction,ComponentPad*%
%ADD12R,1.700000X1.700000*%
%TD*%
%TA.AperFunction,ComponentPad*%
%ADD13O,1.700000X1.700000*%
%TD*%
%TA.AperFunction,SMDPad,CuDef*%
%ADD14RoundRect,0.237500X-0.250000X-0.237500X0.250000X-0.237500X0.250000X0.237500X-0.250000X0.237500X0*%
%TD*%
%TA.AperFunction,SMDPad,CuDef*%
%ADD15RoundRect,0.150000X0.512500X0.150000X-0.512500X0.150000X-0.512500X-0.150000X0.512500X-0.150000X0*%
%TD*%
%TA.AperFunction,SMDPad,CuDef*%
%ADD16RoundRect,0.237500X0.250000X0.237500X-0.250000X0.237500X-0.250000X-0.237500X0.250000X-0.237500X0*%
%TD*%
%TA.AperFunction,SMDPad,CuDef*%
%ADD17RoundRect,0.237500X-0.300000X-0.237500X0.300000X-0.237500X0.300000X0.237500X-0.300000X0.237500X0*%
%TD*%
%TA.AperFunction,SMDPad,CuDef*%
%ADD18R,0.740000X2.400000*%
%TD*%
%TA.AperFunction,SMDPad,CuDef*%
%ADD19RoundRect,0.150000X-0.150000X0.512500X-0.150000X-0.512500X0.150000X-0.512500X0.150000X0.512500X0*%
%TD*%
%TA.AperFunction,SMDPad,CuDef*%
%ADD20RoundRect,0.237500X-0.237500X0.250000X-0.237500X-0.250000X0.237500X-0.250000X0.237500X0.250000X0*%
%TD*%
%TA.AperFunction,ViaPad*%
%ADD21C,0.800000*%
%TD*%
%TA.AperFunction,Conductor*%
%ADD22C,0.250000*%
%TD*%
G04 APERTURE END LIST*
D10*
%TO.P,H4,1,1*%
%TO.N,GND*%
X162900000Y-77900000D03*
D11*
X162900000Y-77900000D03*
%TD*%
D10*
%TO.P,H5,1,1*%
%TO.N,GND*%
X162890000Y-69900000D03*
D11*
X162890000Y-69900000D03*
%TD*%
D10*
%TO.P,H8,1,1*%
%TO.N,GND*%
X162890000Y-104100000D03*
D11*
X162890000Y-104100000D03*
%TD*%
D10*
%TO.P,H1,1,1*%
%TO.N,GND*%
X217100000Y-77900000D03*
D11*
X217100000Y-77900000D03*
%TD*%
D10*
%TO.P,H3,1,1*%
%TO.N,GND*%
X162900000Y-112100000D03*
D11*
X162900000Y-112100000D03*
%TD*%
D12*
%TO.P,J3,1,Pin_1*%
%TO.N,GND*%
X207700000Y-110700000D03*
D13*
%TO.P,J3,2,Pin_2*%
%TO.N,Net-(J3-Pin_2)*%
X205160000Y-110700000D03*
%TD*%
D10*
%TO.P,H2,1,1*%
%TO.N,GND*%
X217100000Y-112100000D03*
D11*
X217100000Y-112100000D03*
%TD*%
D10*
%TO.P,H7,1,1*%
%TO.N,GND*%
X217090000Y-104100000D03*
D11*
X217090000Y-104100000D03*
%TD*%
D10*
%TO.P,H6,1,1*%
%TO.N,GND*%
X217090000Y-69900000D03*
D11*
X217090000Y-69900000D03*
%TD*%
D12*
%TO.P,U3,1,GPIO0/SPI0_RX/I2C0_SDA/UART0_TX*%
%TO.N,Net-(U3-GPIO0{slash}SPI0_RX{slash}I2C0_SDA{slash}UART0_TX)*%
X186060000Y-113020000D03*
D13*
%TO.P,U3,2,GPIO1/SPI0_CSn/I2C0_SCL/UART0_RX*%
%TO.N,Net-(U3-GPIO1{slash}SPI0_CSn{slash}I2C0_SCL{slash}UART0_RX)*%
X186060000Y-110480000D03*
%TO.P,U3,3,GPIO2/SPI0_SCLK/I2C1_SDA*%
%TO.N,/1PPS_M_3V3*%
X186060000Y-107940000D03*
%TO.P,U3,4,GPIO3/SPI0_TX/I2C1_SCLK*%
%TO.N,unconnected-(U3-GPIO3{slash}SPI0_TX{slash}I2C1_SCLK-Pad4)*%
X186060000Y-105400000D03*
%TO.P,U3,5,GPIO4/SPI0_RX_I2C0_SDA/UART1_TX*%
%TO.N,Net-(U3-GPIO4{slash}SPI0_RX_I2C0_SDA{slash}UART1_TX)*%
X186060000Y-102860000D03*
%TO.P,U3,6,GPIO5/SPI0_CSn/I2C0_SCL/UART1_RX*%
%TO.N,Net-(U3-GPIO5{slash}SPI0_CSn{slash}I2C0_SCL{slash}UART1_RX)*%
X186060000Y-100320000D03*
%TO.P,U3,7,GPIO6/SPI0_SCK/I2C1_SDA*%
%TO.N,unconnected-(U3-GPIO6{slash}SPI0_SCK{slash}I2C1_SDA-Pad7)*%
X186060000Y-97780000D03*
%TO.P,U3,8,GPIO7/SPI0_TX/I2C1_SCL*%
%TO.N,unconnected-(U3-GPIO7{slash}SPI0_TX{slash}I2C1_SCL-Pad8)*%
X186060000Y-95240000D03*
%TO.P,U3,9,GPIO8/SPI1_RX/I2C0_SDA/UART1_TX*%
%TO.N,unconnected-(U3-GPIO8{slash}SPI1_RX{slash}I2C0_SDA{slash}UART1_TX-Pad9)*%
X186060000Y-92700000D03*
%TO.P,U3,10,GPIO9/SPI1_CSn/I2C0_SCL/UART1_RX*%
%TO.N,unconnected-(U3-GPIO9{slash}SPI1_CSn{slash}I2C0_SCL{slash}UART1_RX-Pad10)*%
X188600000Y-92700000D03*
%TO.P,U3,11,GPIO10/SPI1_SCK/I2C1_SDA*%
%TO.N,unconnected-(U3-GPIO10{slash}SPI1_SCK{slash}I2C1_SDA-Pad11)*%
X191140000Y-92700000D03*
%TO.P,U3,12,GPIO11/SPI1_TX/I2C1_SCL*%
%TO.N,unconnected-(U3-GPIO11{slash}SPI1_TX{slash}I2C1_SCL-Pad12)*%
X193680000Y-92700000D03*
%TO.P,U3,13,GPIO12/SPI1_RX/I1C0_SDA/UART0_TX*%
%TO.N,unconnected-(U3-GPIO12{slash}SPI1_RX{slash}I1C0_SDA{slash}UART0_TX-Pad13)*%
X196220000Y-92700000D03*
%TO.P,U3,14,GPIO13/SPI1_CSN/I2C0/SCL/UART0_RX*%
%TO.N,unconnected-(U3-GPIO13{slash}SPI1_CSN{slash}I2C0{slash}SCL{slash}UART0_RX-Pad14)*%
X198760000Y-92700000D03*
%TO.P,U3,15,GPIO14/SPI1_SCK/I2C1_SDA*%
%TO.N,unconnected-(U3-GPIO14{slash}SPI1_SCK{slash}I2C1_SDA-Pad15)*%
X201300000Y-92700000D03*
%TO.P,U3,16,GPIO15/SPI1_TX/I2C1_SCL*%
%TO.N,unconnected-(U3-GPIO15{slash}SPI1_TX{slash}I2C1_SCL-Pad16)*%
X201300000Y-95240000D03*
%TO.P,U3,17,GPIO26/ADC0/I2C1_SDA*%
%TO.N,unconnected-(U3-GPIO26{slash}ADC0{slash}I2C1_SDA-Pad17)*%
X201300000Y-97780000D03*
%TO.P,U3,18,GPIO27/ADC1/I2C1_SCL*%
%TO.N,unconnected-(U3-GPIO27{slash}ADC1{slash}I2C1_SCL-Pad18)*%
X201300000Y-100320000D03*
%TO.P,U3,19,GPIO28/ADC2*%
%TO.N,unconnected-(U3-GPIO28{slash}ADC2-Pad19)*%
X201300000Y-102860000D03*
%TO.P,U3,20,GPIO29/ADC3*%
%TO.N,unconnected-(U3-GPIO29{slash}ADC3-Pad20)*%
X201300000Y-105400000D03*
%TO.P,U3,21,3V3*%
%TO.N,Net-(U3-3V3)*%
X201300000Y-107940000D03*
%TO.P,U3,22,GND*%
%TO.N,GND*%
X201300000Y-110480000D03*
%TO.P,U3,23,VSYS*%
%TO.N,Net-(J3-Pin_2)*%
X201300000Y-113020000D03*
%TD*%
D14*
%TO.P,R3,1*%
%TO.N,GND*%
X196800000Y-106700000D03*
%TO.P,R3,2*%
%TO.N,Net-(U2-DIR)*%
X198625000Y-106700000D03*
%TD*%
D15*
%TO.P,U2,1,VCCA*%
%TO.N,+3V0*%
X194800000Y-105075000D03*
%TO.P,U2,2,GND*%
%TO.N,GND*%
X194800000Y-106025000D03*
%TO.P,U2,3,A*%
%TO.N,/TXD_M*%
X194800000Y-106975000D03*
%TO.P,U2,4,B*%
%TO.N,/TXD_M_3V3*%
X192525000Y-106975000D03*
%TO.P,U2,5,DIR*%
%TO.N,Net-(U2-DIR)*%
X192525000Y-106025000D03*
%TO.P,U2,6,VCCB*%
%TO.N,+3.3V*%
X192525000Y-105075000D03*
%TD*%
D14*
%TO.P,R8,1*%
%TO.N,Net-(U4-DIR)*%
X175475000Y-94700000D03*
%TO.P,R8,2*%
%TO.N,+3.3V*%
X177300000Y-94700000D03*
%TD*%
D16*
%TO.P,R5,1*%
%TO.N,Net-(U1-DIR)*%
X198625000Y-109700000D03*
%TO.P,R5,2*%
%TO.N,+3V0*%
X196800000Y-109700000D03*
%TD*%
D14*
%TO.P,R14,1*%
%TO.N,Net-(U3-GPIO1{slash}SPI0_CSn{slash}I2C0_SCL{slash}UART0_RX)*%
X188435000Y-110700000D03*
%TO.P,R14,2*%
%TO.N,/TXD_M_3V3*%
X190260000Y-110700000D03*
%TD*%
D15*
%TO.P,U7,1,VCCA*%
%TO.N,+3V0*%
X194800000Y-94800000D03*
%TO.P,U7,2,GND*%
%TO.N,GND*%
X194800000Y-95750000D03*
%TO.P,U7,3,A*%
%TO.N,/RXD_C*%
X194800000Y-96700000D03*
%TO.P,U7,4,B*%
%TO.N,/RXD_C_3V3*%
X192525000Y-96700000D03*
%TO.P,U7,5,DIR*%
%TO.N,Net-(U7-DIR)*%
X192525000Y-95750000D03*
%TO.P,U7,6,VCCB*%
%TO.N,+3.3V*%
X192525000Y-94800000D03*
%TD*%
D16*
%TO.P,R4,1*%
%TO.N,Net-(U2-DIR)*%
X198625000Y-105200000D03*
%TO.P,R4,2*%
%TO.N,+3V0*%
X196800000Y-105200000D03*
%TD*%
D14*
%TO.P,R9,1*%
%TO.N,GND*%
X171800000Y-94700000D03*
%TO.P,R9,2*%
%TO.N,Net-(U4-DIR)*%
X173625000Y-94700000D03*
%TD*%
D15*
%TO.P,U1,1,VCCA*%
%TO.N,+3V0*%
X194800000Y-110300000D03*
%TO.P,U1,2,GND*%
%TO.N,GND*%
X194800000Y-111250000D03*
%TO.P,U1,3,A*%
%TO.N,/RXD_M_3V0*%
X194800000Y-112200000D03*
%TO.P,U1,4,B*%
%TO.N,/RXD_M_3V3*%
X192525000Y-112200000D03*
%TO.P,U1,5,DIR*%
%TO.N,Net-(U1-DIR)*%
X192525000Y-111250000D03*
%TO.P,U1,6,VCCB*%
%TO.N,+3.3V*%
X192525000Y-110300000D03*
%TD*%
D17*
%TO.P,C4,1*%
%TO.N,+3V0*%
X196875000Y-97700000D03*
%TO.P,C4,2*%
%TO.N,GND*%
X198600000Y-97700000D03*
%TD*%
D14*
%TO.P,R13,1*%
%TO.N,Net-(U3-GPIO0{slash}SPI0_RX{slash}I2C0_SDA{slash}UART0_TX)*%
X188435000Y-112700000D03*
%TO.P,R13,2*%
%TO.N,/RXD_M_3V3*%
X190260000Y-112700000D03*
%TD*%
%TO.P,R12,1*%
%TO.N,GND*%
X196800000Y-101200000D03*
%TO.P,R12,2*%
%TO.N,Net-(U5-DIR)*%
X198625000Y-101200000D03*
%TD*%
D15*
%TO.P,U5,1,VCCA*%
%TO.N,+3V0*%
X194800000Y-99750000D03*
%TO.P,U5,2,GND*%
%TO.N,GND*%
X194800000Y-100700000D03*
%TO.P,U5,3,A*%
%TO.N,/TXD_C_3V0*%
X194800000Y-101650000D03*
%TO.P,U5,4,B*%
%TO.N,/TXD_C_3V3*%
X192525000Y-101650000D03*
%TO.P,U5,5,DIR*%
%TO.N,Net-(U5-DIR)*%
X192525000Y-100700000D03*
%TO.P,U5,6,VCCB*%
%TO.N,+3.3V*%
X192525000Y-99750000D03*
%TD*%
D14*
%TO.P,R20,1*%
%TO.N,/RXD_C_3V3*%
X192975000Y-98200000D03*
%TO.P,R20,2*%
%TO.N,/RXD_C*%
X194800000Y-98200000D03*
%TD*%
D16*
%TO.P,R10,1*%
%TO.N,/TXD_C_3V0*%
X194800000Y-103200000D03*
%TO.P,R10,2*%
%TO.N,/TXD_C_3V3*%
X192975000Y-103200000D03*
%TD*%
D18*
%TO.P,J2,1,Pin_1*%
%TO.N,/TXD_C*%
X172140000Y-106950000D03*
%TO.P,J2,2,Pin_2*%
%TO.N,/RXD_C*%
X172140000Y-110850000D03*
%TO.P,J2,3,Pin_3*%
%TO.N,+3V0*%
X173410000Y-106950000D03*
%TO.P,J2,4,Pin_4*%
%TO.N,/1PPS_C*%
X173410000Y-110850000D03*
%TO.P,J2,5,Pin_5*%
%TO.N,GND*%
X174680000Y-106950000D03*
%TO.P,J2,6,Pin_6*%
%TO.N,/BATT_C*%
X174680000Y-110850000D03*
%TO.P,J2,7,Pin_7*%
%TO.N,/RSVD7_C*%
X175950000Y-106950000D03*
%TO.P,J2,8,Pin_8*%
%TO.N,/RTCM_IN_C*%
X175950000Y-110850000D03*
%TO.P,J2,9,Pin_9*%
%TO.N,/ANT_BIAS_C*%
X177220000Y-106950000D03*
%TO.P,J2,10,Pin_10*%
%TO.N,/RSVD10_C*%
X177220000Y-110850000D03*
%TD*%
D19*
%TO.P,U4,1,VCCA*%
%TO.N,+3.3V*%
X173400000Y-90425000D03*
%TO.P,U4,2,GND*%
%TO.N,GND*%
X174350000Y-90425000D03*
%TO.P,U4,3,A*%
%TO.N,/1PPS_M_3V3*%
X175300000Y-90425000D03*
%TO.P,U4,4,B*%
%TO.N,/1PPS_M*%
X175300000Y-92700000D03*
%TO.P,U4,5,DIR*%
%TO.N,Net-(U4-DIR)*%
X174350000Y-92700000D03*
%TO.P,U4,6,VCCB*%
%TO.N,+3V0*%
X173400000Y-92700000D03*
%TD*%
D14*
%TO.P,R27,1*%
%TO.N,GND*%
X196800000Y-96200000D03*
%TO.P,R27,2*%
%TO.N,Net-(U7-DIR)*%
X198625000Y-96200000D03*
%TD*%
D20*
%TO.P,R7,1*%
%TO.N,/1PPS_M_3V3*%
X176975000Y-90375000D03*
%TO.P,R7,2*%
%TO.N,/1PPS_M*%
X176975000Y-92200000D03*
%TD*%
D14*
%TO.P,R16,1*%
%TO.N,Net-(U3-GPIO5{slash}SPI0_CSn{slash}I2C0_SCL{slash}UART1_RX)*%
X188260000Y-100700000D03*
%TO.P,R16,2*%
%TO.N,/RXD_C_3V3*%
X190085000Y-100700000D03*
%TD*%
%TO.P,R6,1*%
%TO.N,GND*%
X196800000Y-111200000D03*
%TO.P,R6,2*%
%TO.N,Net-(U1-DIR)*%
X198625000Y-111200000D03*
%TD*%
%TO.P,R1,1*%
%TO.N,/TXD_M_3V3*%
X192800000Y-108700000D03*
%TO.P,R1,2*%
%TO.N,/TXD_M*%
X194625000Y-108700000D03*
%TD*%
%TO.P,R15,1*%
%TO.N,Net-(U3-GPIO4{slash}SPI0_RX_I2C0_SDA{slash}UART1_TX)*%
X188260000Y-102700000D03*
%TO.P,R15,2*%
%TO.N,/TXD_C_3V3*%
X190085000Y-102700000D03*
%TD*%
D17*
%TO.P,C1,1*%
%TO.N,+3V0*%
X172675000Y-88200000D03*
%TO.P,C1,2*%
%TO.N,GND*%
X174400000Y-88200000D03*
%TD*%
D16*
%TO.P,R2,1*%
%TO.N,/RXD_M_3V0*%
X194625000Y-113750000D03*
%TO.P,R2,2*%
%TO.N,/RXD_M_3V3*%
X192800000Y-113750000D03*
%TD*%
D17*
%TO.P,C2,1*%
%TO.N,+3V0*%
X196800000Y-108200000D03*
%TO.P,C2,2*%
%TO.N,GND*%
X198525000Y-108200000D03*
%TD*%
D16*
%TO.P,R21,1*%
%TO.N,Net-(U7-DIR)*%
X198625000Y-94700000D03*
%TO.P,R21,2*%
%TO.N,+3V0*%
X196800000Y-94700000D03*
%TD*%
%TO.P,R11,1*%
%TO.N,Net-(U5-DIR)*%
X198625000Y-99700000D03*
%TO.P,R11,2*%
%TO.N,+3V0*%
X196800000Y-99700000D03*
%TD*%
D21*
%TO.N,/RXD_M*%
X170800000Y-109275000D03*
X181737500Y-110622984D03*
%TO.N,GND*%
X174775000Y-100500000D03*
%TO.N,+3V0*%
X173225000Y-100422984D03*
X196800000Y-105200000D03*
X172400000Y-92700000D03*
X196800000Y-99700000D03*
X174000000Y-105200000D03*
X171500000Y-87300000D03*
X197672518Y-95395876D03*
X197500000Y-98200000D03*
%TO.N,/1PPS_M*%
X174000000Y-104200000D03*
%TO.N,/TXD_M*%
X173500000Y-96800000D03*
X175300000Y-97200000D03*
X195500000Y-107800000D03*
X172000000Y-96900000D03*
X191500000Y-107800000D03*
%TO.N,/1PPS_C*%
X173361838Y-112561838D03*
%TO.N,/ANT_BIAS_C*%
X178400000Y-100900000D03*
%TO.N,/RTCM_IN_C*%
X175935508Y-111739492D03*
%TO.N,/RXD_C*%
X190725000Y-98309478D03*
X172023417Y-113415450D03*
%TO.N,/RSVD7_C*%
X180500000Y-100175000D03*
%TO.N,/RSVD10_C*%
X178200000Y-110900000D03*
%TO.N,/BATT_C*%
X174464770Y-112554923D03*
%TO.N,/TXD_C*%
X171292604Y-100475975D03*
X172140000Y-105100000D03*
%TO.N,+3.3V*%
X190966727Y-94900001D03*
X176700000Y-93700000D03*
X173500000Y-89100000D03*
X196700000Y-90200000D03*
X191500000Y-99900000D03*
X193900000Y-90200000D03*
X191481371Y-105185355D03*
X192100000Y-109700000D03*
%TO.N,Net-(U1-DIR)*%
X197844725Y-110214433D03*
X191308431Y-111202529D03*
%TO.N,/TXD_C_3V0*%
X189850000Y-104850000D03*
%TO.N,/RXD_M_3V0*%
X193800000Y-112200000D03*
%TD*%
D22*
%TO.N,/RXD_M*%
X170800000Y-109275000D02*
X173661396Y-109275000D01*
X173886396Y-109050000D02*
X180164516Y-109050000D01*
X180164516Y-109050000D02*
X181737500Y-110622984D01*
X173661396Y-109275000D02*
X173886396Y-109050000D01*
%TO.N,GND*%
X199810000Y-103510000D02*
X199400000Y-103100000D01*
X199887500Y-103587500D02*
X199810000Y-103510000D01*
X174680000Y-107780000D02*
X173960000Y-108500000D01*
X162890000Y-94700000D02*
X162890000Y-77910000D01*
X199810000Y-108990000D02*
X199887500Y-108912500D01*
X197600000Y-112700000D02*
X199080000Y-112700000D01*
X198525000Y-108200000D02*
X198139576Y-108200000D01*
X162900000Y-112100000D02*
X162900000Y-104110000D01*
X199080000Y-112700000D02*
X201300000Y-110480000D01*
X198800000Y-97900000D02*
X199210000Y-97900000D01*
X217100000Y-112100000D02*
X217100000Y-109900000D01*
X194850000Y-111200000D02*
X194800000Y-111250000D01*
X198600000Y-97700000D02*
X198300000Y-97700000D01*
X196300000Y-100700000D02*
X196800000Y-101200000D01*
X174500000Y-69900000D02*
X217090000Y-69900000D01*
X201300000Y-110480000D02*
X202980000Y-108800000D01*
X196800000Y-106700000D02*
X196125000Y-106025000D01*
X196800000Y-106860424D02*
X196800000Y-106700000D01*
X166000000Y-112100000D02*
X162900000Y-112100000D01*
X196800000Y-106700000D02*
X196800000Y-107000000D01*
X169600000Y-108500000D02*
X166000000Y-112100000D01*
X217100000Y-77900000D02*
X217100000Y-104090000D01*
X202980000Y-108800000D02*
X205800000Y-108800000D01*
X196800000Y-111200000D02*
X196800000Y-111900000D01*
X198920000Y-108100000D02*
X199810000Y-108990000D01*
X162890000Y-69900000D02*
X174500000Y-69900000D01*
X217100000Y-109900000D02*
X217090000Y-109890000D01*
X198139576Y-108200000D02*
X196800000Y-106860424D01*
X162890000Y-104100000D02*
X162890000Y-94700000D01*
X196125000Y-106025000D02*
X194800000Y-106025000D01*
X199810000Y-108990000D02*
X201300000Y-110480000D01*
X217100000Y-75700000D02*
X217090000Y-75690000D01*
X196800000Y-111900000D02*
X197600000Y-112700000D01*
X198300000Y-97700000D02*
X196800000Y-96200000D01*
X217100000Y-104090000D02*
X217090000Y-104100000D01*
X199887500Y-108912500D02*
X199887500Y-103587500D01*
X174775000Y-106855000D02*
X174775000Y-100500000D01*
X174680000Y-106950000D02*
X174680000Y-107780000D01*
X162900000Y-77900000D02*
X162900000Y-69910000D01*
X162900000Y-104110000D02*
X162890000Y-104100000D01*
X199810000Y-98410000D02*
X199500000Y-98100000D01*
X198600000Y-97700000D02*
X198800000Y-97900000D01*
X171800000Y-94700000D02*
X162890000Y-94700000D01*
X199400000Y-103100000D02*
X198700000Y-103100000D01*
X215700000Y-110700000D02*
X217100000Y-112100000D01*
X207700000Y-110700000D02*
X215700000Y-110700000D01*
X196350000Y-95750000D02*
X196800000Y-96200000D01*
X199810000Y-98500000D02*
X199810000Y-98410000D01*
X194800000Y-100700000D02*
X196300000Y-100700000D01*
X205800000Y-108800000D02*
X207700000Y-110700000D01*
X173960000Y-108500000D02*
X169600000Y-108500000D01*
X162900000Y-69910000D02*
X162890000Y-69900000D01*
X196800000Y-111200000D02*
X194850000Y-111200000D01*
X174350000Y-70050000D02*
X174500000Y-69900000D01*
X174680000Y-106950000D02*
X174775000Y-106855000D01*
X199810000Y-103510000D02*
X199810000Y-98500000D01*
X162890000Y-77910000D02*
X162900000Y-77900000D01*
X217090000Y-75690000D02*
X217090000Y-69900000D01*
X194800000Y-95750000D02*
X196350000Y-95750000D01*
X217100000Y-77900000D02*
X217100000Y-75700000D01*
X199210000Y-97900000D02*
X199810000Y-98500000D01*
X198700000Y-103100000D02*
X196800000Y-101200000D01*
X174350000Y-90425000D02*
X174350000Y-70050000D01*
X217090000Y-109890000D02*
X217090000Y-104100000D01*
%TO.N,+3V0*%
X196976642Y-94700000D02*
X197672518Y-95395876D01*
X196875000Y-109625000D02*
X196800000Y-109700000D01*
X196875000Y-108200000D02*
X196875000Y-109625000D01*
X173410000Y-106950000D02*
X173410000Y-105500000D01*
X196800000Y-94700000D02*
X196976642Y-94700000D01*
X196875000Y-97700000D02*
X197000000Y-97700000D01*
X196200000Y-110300000D02*
X196800000Y-109700000D01*
X173710000Y-105200000D02*
X174000000Y-105200000D01*
X194925000Y-105200000D02*
X194800000Y-105075000D01*
X173974695Y-105200000D02*
X174000000Y-105200000D01*
X194335424Y-109700000D02*
X193812500Y-109177076D01*
X173410000Y-105500000D02*
X173710000Y-105200000D01*
X173225000Y-104300000D02*
X173225000Y-100422984D01*
X194800000Y-99750000D02*
X196750000Y-99750000D01*
X173225000Y-104450305D02*
X173974695Y-105200000D01*
X196800000Y-109700000D02*
X194335424Y-109700000D01*
X196800000Y-105200000D02*
X194925000Y-105200000D01*
X197000000Y-97700000D02*
X197500000Y-98200000D01*
X194137501Y-105075000D02*
X194800000Y-105075000D01*
X194800000Y-110300000D02*
X196200000Y-110300000D01*
X196750000Y-99750000D02*
X196800000Y-99700000D01*
X193812500Y-109177076D02*
X193812500Y-105400001D01*
X172400000Y-88200000D02*
X171500000Y-87300000D01*
X172400000Y-92700000D02*
X173400000Y-92700000D01*
X194800000Y-94800000D02*
X196700000Y-94800000D01*
X196700000Y-94800000D02*
X196800000Y-94700000D01*
X172675000Y-88200000D02*
X172400000Y-88200000D01*
X173225000Y-104300000D02*
X173225000Y-104450305D01*
X193812500Y-105400001D02*
X194137501Y-105075000D01*
%TO.N,/1PPS_M*%
X175096016Y-96300000D02*
X174000000Y-97396016D01*
X178500000Y-95800000D02*
X178000000Y-96300000D01*
X176475000Y-92700000D02*
X176975000Y-92200000D01*
X178500000Y-93725000D02*
X178500000Y-95800000D01*
X175300000Y-92700000D02*
X176475000Y-92700000D01*
X178000000Y-96300000D02*
X175096016Y-96300000D01*
X174000000Y-97396016D02*
X174000000Y-104200000D01*
X175300000Y-92700000D02*
X175300000Y-92311592D01*
X176975000Y-92200000D02*
X178500000Y-93725000D01*
%TO.N,/TXD_M*%
X175700000Y-97200000D02*
X175300000Y-97200000D01*
X176000000Y-96900000D02*
X175700000Y-97200000D01*
X185215000Y-109115000D02*
X182600000Y-106500000D01*
X194625000Y-108700000D02*
X194625000Y-107150000D01*
X182600000Y-106500000D02*
X182600000Y-99400000D01*
X194800000Y-107100000D02*
X195500000Y-107800000D01*
X180100000Y-96900000D02*
X176000000Y-96900000D01*
X194625000Y-107150000D02*
X194800000Y-106975000D01*
X190185000Y-109115000D02*
X185215000Y-109115000D01*
X194800000Y-106975000D02*
X194800000Y-107100000D01*
X182600000Y-99400000D02*
X180100000Y-96900000D01*
X173500000Y-96800000D02*
X172100000Y-96800000D01*
X172100000Y-96800000D02*
X172000000Y-96900000D01*
X191500000Y-107800000D02*
X190185000Y-109115000D01*
%TO.N,/1PPS_C*%
X173410000Y-110850000D02*
X173410000Y-112513676D01*
X173410000Y-112513676D02*
X173361838Y-112561838D01*
%TO.N,/ANT_BIAS_C*%
X178400000Y-100900000D02*
X178400000Y-106000000D01*
X178400000Y-106000000D02*
X177450000Y-106950000D01*
X177450000Y-106950000D02*
X177220000Y-106950000D01*
%TO.N,/RTCM_IN_C*%
X175950000Y-111725000D02*
X175935508Y-111739492D01*
X175950000Y-110850000D02*
X175950000Y-111725000D01*
%TO.N,/RXD_C*%
X172140000Y-113298867D02*
X172023417Y-113415450D01*
X194800000Y-98200000D02*
X194264576Y-98200000D01*
X172140000Y-110850000D02*
X172140000Y-113298867D01*
X194800000Y-98200000D02*
X194800000Y-96700000D01*
X194264576Y-98200000D02*
X193464576Y-99000000D01*
X191415522Y-99000000D02*
X190725000Y-98309478D01*
X193464576Y-99000000D02*
X191415522Y-99000000D01*
%TO.N,/RSVD7_C*%
X180400000Y-100275000D02*
X180500000Y-100175000D01*
X175950000Y-106950000D02*
X175950000Y-107780000D01*
X180400000Y-107300000D02*
X180400000Y-100275000D01*
X179225000Y-108475000D02*
X180400000Y-107300000D01*
X175950000Y-107780000D02*
X176645000Y-108475000D01*
X176645000Y-108475000D02*
X179225000Y-108475000D01*
%TO.N,/RSVD10_C*%
X178200000Y-110900000D02*
X177270000Y-110900000D01*
X177270000Y-110900000D02*
X177220000Y-110850000D01*
%TO.N,/BATT_C*%
X174680000Y-110850000D02*
X174680000Y-112339693D01*
X174680000Y-112339693D02*
X174464770Y-112554923D01*
%TO.N,/TXD_C*%
X172140000Y-101323371D02*
X172140000Y-106950000D01*
X171292604Y-100475975D02*
X172140000Y-101323371D01*
%TO.N,Net-(J3-Pin_2)*%
X202840000Y-113020000D02*
X205160000Y-110700000D01*
X201300000Y-113020000D02*
X202840000Y-113020000D01*
%TO.N,+3.3V*%
X192525000Y-94800000D02*
X191862501Y-94800000D01*
X173500000Y-89100000D02*
X173500000Y-90325000D01*
X191762500Y-94900001D02*
X190966727Y-94900001D01*
X173500000Y-90325000D02*
X173400000Y-90425000D01*
X192100000Y-109700000D02*
X192100000Y-109875000D01*
X192100000Y-109875000D02*
X192525000Y-110300000D01*
X196700000Y-90200000D02*
X193900000Y-90200000D01*
X192525000Y-105075000D02*
X191591726Y-105075000D01*
X177300000Y-94300000D02*
X176700000Y-93700000D01*
X191591726Y-105075000D02*
X191481371Y-105185355D01*
X191500000Y-99900000D02*
X192375000Y-99900000D01*
X192375000Y-99900000D02*
X192525000Y-99750000D01*
X177300000Y-94700000D02*
X177300000Y-94300000D01*
X191862501Y-94800000D02*
X191762500Y-94900001D01*
%TO.N,/TXD_M_3V3*%
X191785000Y-108700000D02*
X190260000Y-110225000D01*
X192800000Y-107250000D02*
X192525000Y-106975000D01*
X192800000Y-108700000D02*
X192800000Y-107250000D01*
X192800000Y-108700000D02*
X191785000Y-108700000D01*
X190260000Y-110225000D02*
X190260000Y-110700000D01*
%TO.N,/RXD_M_3V3*%
X192025000Y-112700000D02*
X192525000Y-112200000D01*
X190260000Y-112700000D02*
X192025000Y-112700000D01*
X192800000Y-113750000D02*
X192800000Y-112475000D01*
X192800000Y-112475000D02*
X192525000Y-112200000D01*
%TO.N,Net-(U2-DIR)*%
X193650972Y-104450000D02*
X191020711Y-104450000D01*
X191020711Y-104450000D02*
X190706371Y-104764340D01*
X193700972Y-104400000D02*
X193650972Y-104450000D01*
X191225000Y-106025000D02*
X192525000Y-106025000D01*
X198625000Y-105200000D02*
X197825000Y-104400000D01*
X197825000Y-104400000D02*
X193700972Y-104400000D01*
X190706371Y-105506371D02*
X191225000Y-106025000D01*
X198625000Y-106700000D02*
X198625000Y-105200000D01*
X190706371Y-104764340D02*
X190706371Y-105506371D01*
X198625000Y-105200000D02*
X198359158Y-105200000D01*
%TO.N,Net-(U1-DIR)*%
X198625000Y-111200000D02*
X198625000Y-109700000D01*
X192477529Y-111202529D02*
X192525000Y-111250000D01*
X191308431Y-111202529D02*
X192477529Y-111202529D01*
X198359158Y-109700000D02*
X197844725Y-110214433D01*
X198625000Y-109700000D02*
X198359158Y-109700000D01*
%TO.N,/1PPS_M_3V3*%
X184300000Y-95400000D02*
X184300000Y-107500000D01*
X175350000Y-90375000D02*
X175300000Y-90425000D01*
X184740000Y-107940000D02*
X186060000Y-107940000D01*
X176975000Y-90375000D02*
X179275000Y-90375000D01*
X176975000Y-90375000D02*
X175350000Y-90375000D01*
X184300000Y-107500000D02*
X184740000Y-107940000D01*
X179275000Y-90375000D02*
X184300000Y-95400000D01*
%TO.N,Net-(U4-DIR)*%
X173625000Y-94700000D02*
X175475000Y-94700000D01*
X174350000Y-93975000D02*
X174350000Y-92700000D01*
X173625000Y-94700000D02*
X174350000Y-93975000D01*
%TO.N,/TXD_C_3V3*%
X192525000Y-101650000D02*
X191135000Y-101650000D01*
X191135000Y-101650000D02*
X190085000Y-102700000D01*
X192975000Y-103200000D02*
X192975000Y-102100000D01*
X192975000Y-102100000D02*
X192525000Y-101650000D01*
%TO.N,Net-(U5-DIR)*%
X198089576Y-99700000D02*
X198625000Y-99700000D01*
X192525000Y-100700000D02*
X193187499Y-100700000D01*
X194211592Y-99000000D02*
X196210424Y-99000000D01*
X196310424Y-98900000D02*
X197289576Y-98900000D01*
X197289576Y-98900000D02*
X198089576Y-99700000D01*
X193812500Y-99399092D02*
X194211592Y-99000000D01*
X196210424Y-99000000D02*
X196310424Y-98900000D01*
X193812500Y-100074999D02*
X193812500Y-99399092D01*
X193187499Y-100700000D02*
X193812500Y-100074999D01*
X198625000Y-99700000D02*
X198625000Y-101200000D01*
%TO.N,Net-(U3-GPIO0{slash}SPI0_RX{slash}I2C0_SDA{slash}UART0_TX)*%
X186380000Y-112700000D02*
X186060000Y-113020000D01*
X188435000Y-112700000D02*
X186380000Y-112700000D01*
%TO.N,Net-(U3-GPIO1{slash}SPI0_CSn{slash}I2C0_SCL{slash}UART0_RX)*%
X186280000Y-110700000D02*
X186060000Y-110480000D01*
X188435000Y-110700000D02*
X186280000Y-110700000D01*
%TO.N,Net-(U3-GPIO4{slash}SPI0_RX_I2C0_SDA{slash}UART1_TX)*%
X188260000Y-102700000D02*
X186220000Y-102700000D01*
X186220000Y-102700000D02*
X186060000Y-102860000D01*
%TO.N,/RXD_C_3V3*%
X190085000Y-100700000D02*
X189950000Y-100565000D01*
X192975000Y-97150000D02*
X192525000Y-96700000D01*
X192975000Y-98200000D02*
X192975000Y-97150000D01*
X189950000Y-97988462D02*
X191238462Y-96700000D01*
X189950000Y-100565000D02*
X189950000Y-97988462D01*
X191238462Y-96700000D02*
X192525000Y-96700000D01*
%TO.N,Net-(U3-GPIO5{slash}SPI0_CSn{slash}I2C0_SCL{slash}UART1_RX)*%
X188260000Y-100700000D02*
X186440000Y-100700000D01*
X186440000Y-100700000D02*
X186060000Y-100320000D01*
%TO.N,Net-(U7-DIR)*%
X197289576Y-93900000D02*
X192000000Y-93900000D01*
X192375000Y-95600000D02*
X192525000Y-95750000D01*
X198625000Y-96200000D02*
X198625000Y-95235424D01*
X190156371Y-95285660D02*
X190156371Y-94614340D01*
X198625000Y-95235424D02*
X197289576Y-93900000D01*
X190870711Y-93900000D02*
X192000000Y-93900000D01*
X198625000Y-94700000D02*
X198625000Y-96200000D01*
X190156371Y-94614340D02*
X190870711Y-93900000D01*
X191862501Y-95750000D02*
X192525000Y-95750000D01*
X190620711Y-95750000D02*
X190156371Y-95285660D01*
X192525000Y-95750000D02*
X190620711Y-95750000D01*
%TO.N,/TXD_C_3V0*%
X194062500Y-103132426D02*
X194732426Y-103132426D01*
X194062500Y-103132426D02*
X194062500Y-103402076D01*
X193464576Y-104000000D02*
X190700000Y-104000000D01*
X190700000Y-104000000D02*
X189850000Y-104850000D01*
X194732426Y-103132426D02*
X194800000Y-103200000D01*
X194800000Y-103200000D02*
X194800000Y-101650000D01*
X194062500Y-103402076D02*
X193464576Y-104000000D01*
%TO.N,/RXD_M_3V0*%
X194800000Y-113575000D02*
X194625000Y-113750000D01*
X194800000Y-112200000D02*
X194800000Y-113575000D01*
X194800000Y-112200000D02*
X193800000Y-112200000D01*
%TD*%
%TA.AperFunction,Conductor*%
%TO.N,GND*%
G36*
X219943039Y-67019685D02*
G01*
X219988794Y-67072489D01*
X220000000Y-67124000D01*
X220000000Y-114776000D01*
X219980315Y-114843039D01*
X219927511Y-114888794D01*
X219876000Y-114900000D01*
X195235608Y-114900000D01*
X195168569Y-114880315D01*
X195122814Y-114827511D01*
X195112870Y-114758353D01*
X195141895Y-114694797D01*
X195183208Y-114663616D01*
X195189009Y-114660910D01*
X195189016Y-114660908D01*
X195335850Y-114570340D01*
X195457840Y-114448350D01*
X195548408Y-114301516D01*
X195602674Y-114137753D01*
X195613000Y-114036677D01*
X195612999Y-113463324D01*
X195612898Y-113462338D01*
X195602674Y-113362247D01*
X195594533Y-113337679D01*
X195548408Y-113198484D01*
X195508620Y-113133978D01*
X195490181Y-113066588D01*
X195511103Y-112999924D01*
X195564745Y-112955154D01*
X195566378Y-112954565D01*
X195572894Y-112951745D01*
X195572898Y-112951744D01*
X195714365Y-112868081D01*
X195830581Y-112751865D01*
X195914244Y-112610398D01*
X195960098Y-112452569D01*
X195963000Y-112415694D01*
X195963000Y-112164117D01*
X195982685Y-112097078D01*
X196035489Y-112051323D01*
X196104647Y-112041379D01*
X196152098Y-112058579D01*
X196236192Y-112110450D01*
X196236199Y-112110453D01*
X196399847Y-112164680D01*
X196500851Y-112174999D01*
X196549999Y-112174998D01*
X196550000Y-112174998D01*
X196550000Y-111450000D01*
X196005500Y-111450000D01*
X195991819Y-111463681D01*
X195930496Y-111497166D01*
X195904138Y-111500000D01*
X195694315Y-111500000D01*
X195631194Y-111482732D01*
X195615289Y-111473326D01*
X195572898Y-111448256D01*
X195572897Y-111448255D01*
X195572896Y-111448255D01*
X195572893Y-111448254D01*
X195415073Y-111402402D01*
X195415067Y-111402401D01*
X195378201Y-111399500D01*
X195378194Y-111399500D01*
X194674000Y-111399500D01*
X194606961Y-111379815D01*
X194561206Y-111327011D01*
X194550000Y-111275500D01*
X194550000Y-111224500D01*
X194569685Y-111157461D01*
X194622489Y-111111706D01*
X194674000Y-111100500D01*
X195378186Y-111100500D01*
X195378194Y-111100500D01*
X195415069Y-111097598D01*
X195415071Y-111097597D01*
X195415073Y-111097597D01*
X195510095Y-111069990D01*
X195572898Y-111051744D01*
X195631194Y-111017268D01*
X195694315Y-111000000D01*
X195769500Y-111000000D01*
X195783181Y-110986319D01*
X195844504Y-110952834D01*
X195870862Y-110950000D01*
X196926000Y-110950000D01*
X196993039Y-110969685D01*
X197038794Y-111022489D01*
X197050000Y-111074000D01*
X197050000Y-112174999D01*
X197099140Y-112174999D01*
X197099154Y-112174998D01*
X197200152Y-112164680D01*
X197363800Y-112110453D01*
X197363811Y-112110448D01*
X197510533Y-112019948D01*
X197624464Y-111906017D01*
X197685787Y-111872532D01*
X197755479Y-111877516D01*
X197799827Y-111906017D01*
X197914150Y-112020340D01*
X198060984Y-112110908D01*
X198224747Y-112165174D01*
X198325823Y-112175500D01*
X198924176Y-112175499D01*
X198924184Y-112175498D01*
X198924187Y-112175498D01*
X198979530Y-112169844D01*
X199025253Y-112165174D01*
X199189016Y-112110908D01*
X199335850Y-112020340D01*
X199457840Y-111898350D01*
X199548408Y-111751516D01*
X199602674Y-111587753D01*
X199613000Y-111486677D01*
X199612999Y-110913324D01*
X199611787Y-110901463D01*
X199602674Y-110812247D01*
X199594310Y-110787007D01*
X199548408Y-110648484D01*
X199548404Y-110648478D01*
X199548403Y-110648475D01*
X199485088Y-110545826D01*
X199466133Y-110515096D01*
X199447693Y-110447705D01*
X199466134Y-110384903D01*
X199476693Y-110367785D01*
X199548408Y-110251516D01*
X199602674Y-110087753D01*
X199613000Y-109986677D01*
X199612999Y-109413324D01*
X199606530Y-109350000D01*
X199602674Y-109312247D01*
X199576349Y-109232805D01*
X199548408Y-109148484D01*
X199457840Y-109001650D01*
X199456472Y-109000282D01*
X199455833Y-108999112D01*
X199453362Y-108995987D01*
X199453896Y-108995564D01*
X199422987Y-108938959D01*
X199427971Y-108869267D01*
X199438615Y-108847503D01*
X199497950Y-108751307D01*
X199497953Y-108751300D01*
X199552180Y-108587652D01*
X199562499Y-108486654D01*
X199562500Y-108486641D01*
X199562500Y-108450000D01*
X198399000Y-108450000D01*
X198331961Y-108430315D01*
X198286206Y-108377511D01*
X198275000Y-108326000D01*
X198275000Y-108074000D01*
X198294685Y-108006961D01*
X198347489Y-107961206D01*
X198399000Y-107950000D01*
X199562499Y-107950000D01*
X199562499Y-107913360D01*
X199562498Y-107913345D01*
X199552180Y-107812347D01*
X199497953Y-107648699D01*
X199497950Y-107648692D01*
X199438615Y-107552497D01*
X199420174Y-107485104D01*
X199441096Y-107418441D01*
X199456479Y-107399711D01*
X199457840Y-107398350D01*
X199548408Y-107251516D01*
X199602674Y-107087753D01*
X199613000Y-106986677D01*
X199612999Y-106413324D01*
X199612426Y-106407719D01*
X199602674Y-106312247D01*
X199584461Y-106257285D01*
X199548408Y-106148484D01*
X199548404Y-106148478D01*
X199548403Y-106148475D01*
X199466134Y-106015097D01*
X199447693Y-105947705D01*
X199466134Y-105884903D01*
X199479235Y-105863664D01*
X199548408Y-105751516D01*
X199602674Y-105587753D01*
X199613000Y-105486677D01*
X199612999Y-104913324D01*
X199606530Y-104850000D01*
X199602674Y-104812247D01*
X199586024Y-104762001D01*
X199548408Y-104648484D01*
X199457840Y-104501650D01*
X199335850Y-104379660D01*
X199189016Y-104289092D01*
X199025253Y-104234826D01*
X199025251Y-104234825D01*
X198924184Y-104224500D01*
X198924177Y-104224500D01*
X198585452Y-104224500D01*
X198518413Y-104204815D01*
X198497771Y-104188181D01*
X198315198Y-104005608D01*
X198315178Y-104005586D01*
X198223733Y-103914141D01*
X198160768Y-103872070D01*
X198121286Y-103845688D01*
X198121287Y-103845688D01*
X198121285Y-103845687D01*
X198081039Y-103829017D01*
X198040792Y-103812347D01*
X198040003Y-103812020D01*
X198007453Y-103798537D01*
X197997427Y-103796543D01*
X197947029Y-103786518D01*
X197886610Y-103774500D01*
X197886607Y-103774500D01*
X197886606Y-103774500D01*
X195887512Y-103774500D01*
X195820473Y-103754815D01*
X195774718Y-103702011D01*
X195764774Y-103632853D01*
X195769806Y-103611496D01*
X195770001Y-103610907D01*
X195777674Y-103587753D01*
X195788000Y-103486677D01*
X195787999Y-102913324D01*
X195777674Y-102812247D01*
X195723408Y-102648484D01*
X195637985Y-102509992D01*
X195619546Y-102442601D01*
X195640468Y-102375938D01*
X195680402Y-102338166D01*
X195714365Y-102318081D01*
X195830581Y-102201865D01*
X195914244Y-102060398D01*
X195914245Y-102060393D01*
X195914297Y-102060306D01*
X195965366Y-102012622D01*
X196034108Y-102000118D01*
X196086128Y-102017888D01*
X196236192Y-102110450D01*
X196236199Y-102110453D01*
X196399847Y-102164680D01*
X196500851Y-102174999D01*
X196549999Y-102174998D01*
X196550000Y-102174998D01*
X196550000Y-101074000D01*
X196569685Y-101006961D01*
X196622489Y-100961206D01*
X196674000Y-100950000D01*
X196926000Y-100950000D01*
X196993039Y-100969685D01*
X197038794Y-101022489D01*
X197050000Y-101074000D01*
X197050000Y-102174999D01*
X197099140Y-102174999D01*
X197099154Y-102174998D01*
X197200152Y-102164680D01*
X197363800Y-102110453D01*
X197363811Y-102110448D01*
X197510533Y-102019948D01*
X197624464Y-101906017D01*
X197685787Y-101872532D01*
X197755479Y-101877516D01*
X197799827Y-101906017D01*
X197914150Y-102020340D01*
X198060984Y-102110908D01*
X198224747Y-102165174D01*
X198325823Y-102175500D01*
X198924176Y-102175499D01*
X198924184Y-102175498D01*
X198924187Y-102175498D01*
X198979530Y-102169844D01*
X199025253Y-102165174D01*
X199189016Y-102110908D01*
X199335850Y-102020340D01*
X199457840Y-101898350D01*
X199548408Y-101751516D01*
X199602674Y-101587753D01*
X199613000Y-101486677D01*
X199612999Y-100913324D01*
X199612279Y-100906280D01*
X199602674Y-100812247D01*
X199548408Y-100648484D01*
X199548404Y-100648478D01*
X199548403Y-100648475D01*
X199483516Y-100543277D01*
X199466133Y-100515096D01*
X199447693Y-100447705D01*
X199466134Y-100384903D01*
X199476693Y-100367785D01*
X199548408Y-100251516D01*
X199602674Y-100087753D01*
X199613000Y-99986677D01*
X199612999Y-99413324D01*
X199610703Y-99390851D01*
X199602674Y-99312247D01*
X199548408Y-99148484D01*
X199457840Y-99001650D01*
X199335850Y-98879660D01*
X199335846Y-98879657D01*
X199227704Y-98812954D01*
X199180979Y-98761006D01*
X199169758Y-98692044D01*
X199197601Y-98627962D01*
X199227704Y-98601877D01*
X199360539Y-98519943D01*
X199482444Y-98398038D01*
X199482447Y-98398034D01*
X199572948Y-98251311D01*
X199572953Y-98251300D01*
X199627180Y-98087652D01*
X199637499Y-97986654D01*
X199637500Y-97986641D01*
X199637500Y-97950000D01*
X198474000Y-97950000D01*
X198406961Y-97930315D01*
X198361206Y-97877511D01*
X198350000Y-97826000D01*
X198350000Y-97574000D01*
X198369685Y-97506961D01*
X198422489Y-97461206D01*
X198474000Y-97450000D01*
X199637499Y-97450000D01*
X199637499Y-97413360D01*
X199637498Y-97413345D01*
X199627180Y-97312347D01*
X199572953Y-97148699D01*
X199572948Y-97148688D01*
X199478654Y-96995815D01*
X199481325Y-96994166D01*
X199460435Y-96942410D01*
X199473464Y-96873766D01*
X199478302Y-96865176D01*
X199548403Y-96751524D01*
X199548402Y-96751524D01*
X199548408Y-96751516D01*
X199602674Y-96587753D01*
X199613000Y-96486677D01*
X199612999Y-95913324D01*
X199611883Y-95902402D01*
X199602674Y-95812247D01*
X199589178Y-95771520D01*
X199548408Y-95648484D01*
X199548404Y-95648478D01*
X199548403Y-95648475D01*
X199466134Y-95515097D01*
X199447693Y-95447705D01*
X199466134Y-95384903D01*
X199470691Y-95377516D01*
X199548408Y-95251516D01*
X199602674Y-95087753D01*
X199613000Y-94986677D01*
X199612999Y-94413324D01*
X199602674Y-94312247D01*
X199548408Y-94148484D01*
X199548404Y-94148478D01*
X199548403Y-94148475D01*
X199470690Y-94022483D01*
X199458247Y-94002311D01*
X199439807Y-93934920D01*
X199460729Y-93868256D01*
X199492661Y-93835641D01*
X199631401Y-93738495D01*
X199798495Y-93571401D01*
X199928425Y-93385842D01*
X199983002Y-93342217D01*
X200052500Y-93335023D01*
X200114855Y-93366546D01*
X200131575Y-93385842D01*
X200261501Y-93571396D01*
X200261506Y-93571402D01*
X200428597Y-93738493D01*
X200428603Y-93738498D01*
X200614158Y-93868425D01*
X200657783Y-93923002D01*
X200664977Y-93992500D01*
X200633454Y-94054855D01*
X200614158Y-94071575D01*
X200428597Y-94201505D01*
X200261505Y-94368597D01*
X200125965Y-94562169D01*
X200125964Y-94562171D01*
X200026098Y-94776335D01*
X200026094Y-94776344D01*
X199964938Y-95004586D01*
X199964936Y-95004596D01*
X199944341Y-95239999D01*
X199944341Y-95240000D01*
X199964936Y-95475403D01*
X199964938Y-95475413D01*
X200026094Y-95703655D01*
X200026096Y-95703659D01*
X200026097Y-95703663D01*
X200083346Y-95826434D01*
X200125965Y-95917830D01*
X200125967Y-95917834D01*
X200261501Y-96111395D01*
X200261506Y-96111402D01*
X200428597Y-96278493D01*
X200428603Y-96278498D01*
X200614158Y-96408425D01*
X200657783Y-96463002D01*
X200664977Y-96532500D01*
X200633454Y-96594855D01*
X200614158Y-96611575D01*
X200428597Y-96741505D01*
X200261505Y-96908597D01*
X200125965Y-97102169D01*
X200125964Y-97102171D01*
X200026098Y-97316335D01*
X200026094Y-97316344D01*
X199964938Y-97544586D01*
X199964936Y-97544596D01*
X199944341Y-97779999D01*
X199944341Y-97780000D01*
X199964936Y-98015403D01*
X199964938Y-98015413D01*
X200026094Y-98243655D01*
X200026096Y-98243659D01*
X200026097Y-98243663D01*
X200125965Y-98457830D01*
X200125967Y-98457834D01*
X200261501Y-98651395D01*
X200261506Y-98651402D01*
X200428597Y-98818493D01*
X200428603Y-98818498D01*
X200614158Y-98948425D01*
X200657783Y-99003002D01*
X200664977Y-99072500D01*
X200633454Y-99134855D01*
X200614158Y-99151575D01*
X200428597Y-99281505D01*
X200261505Y-99448597D01*
X200125965Y-99642169D01*
X200125964Y-99642171D01*
X200026098Y-99856335D01*
X200026094Y-99856344D01*
X199964938Y-100084586D01*
X199964936Y-100084596D01*
X199944341Y-100319999D01*
X199944341Y-100320000D01*
X199964936Y-100555403D01*
X199964938Y-100555413D01*
X200026094Y-100783655D01*
X200026096Y-100783659D01*
X200026097Y-100783663D01*
X200108887Y-100961206D01*
X200125965Y-100997830D01*
X200125967Y-100997834D01*
X200261501Y-101191395D01*
X200261506Y-101191402D01*
X200428597Y-101358493D01*
X200428603Y-101358498D01*
X200614158Y-101488425D01*
X200657783Y-101543002D01*
X200664977Y-101612500D01*
X200633454Y-101674855D01*
X200614158Y-101691575D01*
X200428597Y-101821505D01*
X200261505Y-101988597D01*
X200125965Y-102182169D01*
X200125964Y-102182171D01*
X200026098Y-102396335D01*
X200026094Y-102396344D01*
X199964938Y-102624586D01*
X199964936Y-102624596D01*
X199944341Y-102859999D01*
X199944341Y-102860000D01*
X199964936Y-103095403D01*
X199964938Y-103095413D01*
X200026094Y-103323655D01*
X200026096Y-103323659D01*
X200026097Y-103323663D01*
X200078583Y-103436219D01*
X200125965Y-103537830D01*
X200125967Y-103537834D01*
X200261501Y-103731395D01*
X200261506Y-103731402D01*
X200428597Y-103898493D01*
X200428603Y-103898498D01*
X200614158Y-104028425D01*
X200657783Y-104083002D01*
X200664977Y-104152500D01*
X200633454Y-104214855D01*
X200614158Y-104231575D01*
X200428597Y-104361505D01*
X200261505Y-104528597D01*
X200125965Y-104722169D01*
X200125964Y-104722171D01*
X200026098Y-104936335D01*
X200026094Y-104936344D01*
X199964938Y-105164586D01*
X199964936Y-105164596D01*
X199944341Y-105399999D01*
X199944341Y-105400000D01*
X199964936Y-105635403D01*
X199964938Y-105635413D01*
X200026094Y-105863655D01*
X200026096Y-105863659D01*
X200026097Y-105863663D01*
X200088063Y-105996549D01*
X200125965Y-106077830D01*
X200125967Y-106077834D01*
X200261501Y-106271395D01*
X200261506Y-106271402D01*
X200428597Y-106438493D01*
X200428603Y-106438498D01*
X200614158Y-106568425D01*
X200657783Y-106623002D01*
X200664977Y-106692500D01*
X200633454Y-106754855D01*
X200614158Y-106771575D01*
X200428597Y-106901505D01*
X200261505Y-107068597D01*
X200125965Y-107262169D01*
X200125964Y-107262171D01*
X200026098Y-107476335D01*
X200026094Y-107476344D01*
X199964938Y-107704586D01*
X199964936Y-107704596D01*
X199944341Y-107939999D01*
X199944341Y-107940000D01*
X199964936Y-108175403D01*
X199964938Y-108175413D01*
X200026094Y-108403655D01*
X200026096Y-108403659D01*
X200026097Y-108403663D01*
X200066124Y-108489500D01*
X200125965Y-108617830D01*
X200125967Y-108617834D01*
X200219422Y-108751300D01*
X200261505Y-108811401D01*
X200428599Y-108978495D01*
X200583194Y-109086744D01*
X200614594Y-109108730D01*
X200658219Y-109163307D01*
X200665413Y-109232805D01*
X200633890Y-109295160D01*
X200614595Y-109311880D01*
X200428922Y-109441890D01*
X200428920Y-109441891D01*
X200261891Y-109608920D01*
X200261886Y-109608926D01*
X200126400Y-109802420D01*
X200126399Y-109802422D01*
X200026570Y-110016507D01*
X200026567Y-110016513D01*
X199969364Y-110229999D01*
X199969364Y-110230000D01*
X200866988Y-110230000D01*
X200834075Y-110287007D01*
X200800000Y-110414174D01*
X200800000Y-110545826D01*
X200834075Y-110672993D01*
X200866988Y-110730000D01*
X199969364Y-110730000D01*
X200026567Y-110943486D01*
X200026570Y-110943492D01*
X200126399Y-111157578D01*
X200261894Y-111351082D01*
X200428917Y-111518105D01*
X200614595Y-111648119D01*
X200658219Y-111702696D01*
X200665412Y-111772195D01*
X200633890Y-111834549D01*
X200614595Y-111851269D01*
X200428594Y-111981508D01*
X200261505Y-112148597D01*
X200125965Y-112342169D01*
X200125964Y-112342171D01*
X200026098Y-112556335D01*
X200026094Y-112556344D01*
X199964938Y-112784586D01*
X199964936Y-112784596D01*
X199944341Y-113019999D01*
X199944341Y-113020000D01*
X199964936Y-113255403D01*
X199964938Y-113255413D01*
X200026094Y-113483655D01*
X200026096Y-113483659D01*
X200026097Y-113483663D01*
X200099707Y-113641519D01*
X200125965Y-113697830D01*
X200125967Y-113697834D01*
X200234281Y-113852521D01*
X200261505Y-113891401D01*
X200428599Y-114058495D01*
X200525384Y-114126265D01*
X200622165Y-114194032D01*
X200622167Y-114194033D01*
X200622170Y-114194035D01*
X200836337Y-114293903D01*
X200836343Y-114293904D01*
X200836344Y-114293905D01*
X200864749Y-114301516D01*
X201064592Y-114355063D01*
X201241034Y-114370500D01*
X201299999Y-114375659D01*
X201300000Y-114375659D01*
X201300001Y-114375659D01*
X201358966Y-114370500D01*
X201535408Y-114355063D01*
X201763663Y-114293903D01*
X201977830Y-114194035D01*
X202171401Y-114058495D01*
X202338495Y-113891401D01*
X202473652Y-113698377D01*
X202528229Y-113654752D01*
X202575227Y-113645500D01*
X202901607Y-113645500D01*
X202962029Y-113633481D01*
X203022452Y-113621463D01*
X203065321Y-113603706D01*
X203136286Y-113574312D01*
X203187509Y-113540084D01*
X203238733Y-113505858D01*
X203325858Y-113418733D01*
X203325858Y-113418731D01*
X203336066Y-113408524D01*
X203336068Y-113408521D01*
X204644583Y-112100005D01*
X214544958Y-112100005D01*
X214565103Y-112420221D01*
X214565104Y-112420228D01*
X214625230Y-112735417D01*
X214724382Y-113040575D01*
X214724384Y-113040580D01*
X214860998Y-113330897D01*
X214861001Y-113330903D01*
X215032921Y-113601806D01*
X215128773Y-113717671D01*
X215627060Y-113219384D01*
X215706112Y-113322407D01*
X215877593Y-113493888D01*
X215980613Y-113572937D01*
X215479175Y-114074375D01*
X215479176Y-114074377D01*
X215730928Y-114257285D01*
X215730946Y-114257297D01*
X216012116Y-114411871D01*
X216012124Y-114411875D01*
X216310444Y-114529987D01*
X216621233Y-114609784D01*
X216621242Y-114609786D01*
X216939556Y-114649999D01*
X216939570Y-114650000D01*
X217260430Y-114650000D01*
X217260443Y-114649999D01*
X217578757Y-114609786D01*
X217578766Y-114609784D01*
X217889555Y-114529987D01*
X218187875Y-114411875D01*
X218187883Y-114411871D01*
X218469053Y-114257297D01*
X218469063Y-114257290D01*
X218720822Y-114074375D01*
X218720823Y-114074375D01*
X218219386Y-113572938D01*
X218322407Y-113493888D01*
X218493888Y-113322407D01*
X218572938Y-113219385D01*
X219071225Y-113717672D01*
X219167068Y-113601819D01*
X219339002Y-113330896D01*
X219475615Y-113040580D01*
X219475617Y-113040575D01*
X219574769Y-112735417D01*
X219634895Y-112420228D01*
X219634896Y-112420221D01*
X219655042Y-112100005D01*
X219655042Y-112099994D01*
X219634896Y-111779778D01*
X219634895Y-111779771D01*
X219574769Y-111464582D01*
X219475617Y-111159424D01*
X219475615Y-111159419D01*
X219339001Y-110869102D01*
X219338998Y-110869096D01*
X219167078Y-110598193D01*
X219071224Y-110482326D01*
X218572937Y-110980612D01*
X218493888Y-110877593D01*
X218322407Y-110706112D01*
X218219385Y-110627060D01*
X218720823Y-110125623D01*
X218720822Y-110125621D01*
X218469071Y-109942714D01*
X218469053Y-109942702D01*
X218187883Y-109788128D01*
X218187875Y-109788124D01*
X217889555Y-109670012D01*
X217578766Y-109590215D01*
X217578757Y-109590213D01*
X217260443Y-109550000D01*
X216939556Y-109550000D01*
X216621242Y-109590213D01*
X216621233Y-109590215D01*
X216310444Y-109670012D01*
X216012124Y-109788124D01*
X216012116Y-109788128D01*
X215730946Y-109942702D01*
X215730928Y-109942714D01*
X215479176Y-110125622D01*
X215479175Y-110125623D01*
X215980613Y-110627061D01*
X215877593Y-110706112D01*
X215706112Y-110877593D01*
X215627061Y-110980614D01*
X215128773Y-110482326D01*
X215032924Y-110598188D01*
X214861001Y-110869096D01*
X214860998Y-110869102D01*
X214724384Y-111159419D01*
X214724382Y-111159424D01*
X214625230Y-111464582D01*
X214565104Y-111779771D01*
X214565103Y-111779778D01*
X214544958Y-112099994D01*
X214544958Y-112100005D01*
X204644583Y-112100005D01*
X204704353Y-112040235D01*
X204765674Y-112006752D01*
X204824125Y-112008143D01*
X204826943Y-112008898D01*
X204924592Y-112035063D01*
X205095319Y-112050000D01*
X205159999Y-112055659D01*
X205160000Y-112055659D01*
X205160001Y-112055659D01*
X205199234Y-112052226D01*
X205395408Y-112035063D01*
X205623663Y-111973903D01*
X205837830Y-111874035D01*
X206031401Y-111738495D01*
X206153717Y-111616178D01*
X206215036Y-111582696D01*
X206284728Y-111587680D01*
X206340662Y-111629551D01*
X206357577Y-111660528D01*
X206406646Y-111792088D01*
X206406649Y-111792093D01*
X206492809Y-111907187D01*
X206492812Y-111907190D01*
X206607906Y-111993350D01*
X206607913Y-111993354D01*
X206742620Y-112043596D01*
X206742627Y-112043598D01*
X206802155Y-112049999D01*
X206802172Y-112050000D01*
X207450000Y-112050000D01*
X207450000Y-111133012D01*
X207507007Y-111165925D01*
X207634174Y-111200000D01*
X207765826Y-111200000D01*
X207892993Y-111165925D01*
X207950000Y-111133012D01*
X207950000Y-112050000D01*
X208597828Y-112050000D01*
X208597844Y-112049999D01*
X208657372Y-112043598D01*
X208657379Y-112043596D01*
X208792086Y-111993354D01*
X208792093Y-111993350D01*
X208907187Y-111907190D01*
X208907190Y-111907187D01*
X208993350Y-111792093D01*
X208993354Y-111792086D01*
X209043596Y-111657379D01*
X209043598Y-111657372D01*
X209049999Y-111597844D01*
X209050000Y-111597827D01*
X209050000Y-110950000D01*
X208133012Y-110950000D01*
X208165925Y-110892993D01*
X208200000Y-110765826D01*
X208200000Y-110634174D01*
X208165925Y-110507007D01*
X208133012Y-110450000D01*
X209050000Y-110450000D01*
X209050000Y-109802172D01*
X209049999Y-109802155D01*
X209043598Y-109742627D01*
X209043596Y-109742620D01*
X208993354Y-109607913D01*
X208993350Y-109607906D01*
X208907190Y-109492812D01*
X208907187Y-109492809D01*
X208792093Y-109406649D01*
X208792086Y-109406645D01*
X208657379Y-109356403D01*
X208657372Y-109356401D01*
X208597844Y-109350000D01*
X207950000Y-109350000D01*
X207950000Y-110266988D01*
X207892993Y-110234075D01*
X207765826Y-110200000D01*
X207634174Y-110200000D01*
X207507007Y-110234075D01*
X207450000Y-110266988D01*
X207450000Y-109350000D01*
X206802155Y-109350000D01*
X206742627Y-109356401D01*
X206742620Y-109356403D01*
X206607913Y-109406645D01*
X206607906Y-109406649D01*
X206492812Y-109492809D01*
X206492809Y-109492812D01*
X206406649Y-109607906D01*
X206406645Y-109607913D01*
X206357578Y-109739470D01*
X206315707Y-109795404D01*
X206250242Y-109819821D01*
X206181969Y-109804969D01*
X206153715Y-109783819D01*
X206102357Y-109732461D01*
X206031401Y-109661505D01*
X206031397Y-109661502D01*
X206031396Y-109661501D01*
X205837834Y-109525967D01*
X205837830Y-109525965D01*
X205766727Y-109492809D01*
X205623663Y-109426097D01*
X205623659Y-109426096D01*
X205623655Y-109426094D01*
X205395413Y-109364938D01*
X205395403Y-109364936D01*
X205160001Y-109344341D01*
X205159999Y-109344341D01*
X204924596Y-109364936D01*
X204924586Y-109364938D01*
X204696344Y-109426094D01*
X204696335Y-109426098D01*
X204482171Y-109525964D01*
X204482169Y-109525965D01*
X204288597Y-109661505D01*
X204121505Y-109828597D01*
X203985965Y-110022169D01*
X203985964Y-110022171D01*
X203892435Y-110222746D01*
X203889053Y-110229999D01*
X203886098Y-110236335D01*
X203886094Y-110236344D01*
X203824938Y-110464586D01*
X203824936Y-110464596D01*
X203804341Y-110699999D01*
X203804341Y-110700000D01*
X203824936Y-110935403D01*
X203824938Y-110935413D01*
X203851856Y-111035872D01*
X203850193Y-111105722D01*
X203819762Y-111155646D01*
X202644095Y-112331314D01*
X202582772Y-112364799D01*
X202513080Y-112359815D01*
X202457147Y-112317943D01*
X202454839Y-112314756D01*
X202338494Y-112148597D01*
X202171402Y-111981506D01*
X202171401Y-111981505D01*
X201985405Y-111851269D01*
X201941781Y-111796692D01*
X201934588Y-111727193D01*
X201966110Y-111664839D01*
X201985405Y-111648119D01*
X202171082Y-111518105D01*
X202338105Y-111351082D01*
X202473600Y-111157578D01*
X202573429Y-110943492D01*
X202573432Y-110943486D01*
X202630636Y-110730000D01*
X201733012Y-110730000D01*
X201765925Y-110672993D01*
X201800000Y-110545826D01*
X201800000Y-110414174D01*
X201765925Y-110287007D01*
X201733012Y-110230000D01*
X202630636Y-110230000D01*
X202630635Y-110229999D01*
X202573432Y-110016513D01*
X202573429Y-110016507D01*
X202473600Y-109802422D01*
X202473599Y-109802420D01*
X202338113Y-109608926D01*
X202338108Y-109608920D01*
X202171078Y-109441890D01*
X201985405Y-109311879D01*
X201941780Y-109257302D01*
X201934588Y-109187804D01*
X201966110Y-109125449D01*
X201985406Y-109108730D01*
X202171401Y-108978495D01*
X202338495Y-108811401D01*
X202474035Y-108617830D01*
X202573903Y-108403663D01*
X202635063Y-108175408D01*
X202655659Y-107940000D01*
X202635063Y-107704592D01*
X202575542Y-107482455D01*
X202573905Y-107476344D01*
X202573904Y-107476343D01*
X202573903Y-107476337D01*
X202474035Y-107262171D01*
X202466575Y-107251516D01*
X202338494Y-107068597D01*
X202171402Y-106901506D01*
X202171396Y-106901501D01*
X201985842Y-106771575D01*
X201942217Y-106716998D01*
X201935023Y-106647500D01*
X201966546Y-106585145D01*
X201985842Y-106568425D01*
X202093658Y-106492931D01*
X202171401Y-106438495D01*
X202338495Y-106271401D01*
X202474035Y-106077830D01*
X202573903Y-105863663D01*
X202635063Y-105635408D01*
X202655659Y-105400000D01*
X202635063Y-105164592D01*
X202573903Y-104936337D01*
X202474035Y-104722171D01*
X202455668Y-104695939D01*
X202338494Y-104528597D01*
X202171402Y-104361506D01*
X202171396Y-104361501D01*
X201985842Y-104231575D01*
X201942217Y-104176998D01*
X201935023Y-104107500D01*
X201938812Y-104100005D01*
X214534958Y-104100005D01*
X214555103Y-104420221D01*
X214555104Y-104420228D01*
X214615230Y-104735417D01*
X214714382Y-105040575D01*
X214714384Y-105040580D01*
X214850998Y-105330897D01*
X214851001Y-105330903D01*
X215022921Y-105601806D01*
X215118773Y-105717671D01*
X215617060Y-105219384D01*
X215696112Y-105322407D01*
X215867593Y-105493888D01*
X215970613Y-105572937D01*
X215469175Y-106074375D01*
X215469176Y-106074377D01*
X215720928Y-106257285D01*
X215720946Y-106257297D01*
X216002116Y-106411871D01*
X216002124Y-106411875D01*
X216300444Y-106529987D01*
X216611233Y-106609784D01*
X216611242Y-106609786D01*
X216929556Y-106649999D01*
X216929570Y-106650000D01*
X217250430Y-106650000D01*
X217250443Y-106649999D01*
X217568757Y-106609786D01*
X217568766Y-106609784D01*
X217879555Y-106529987D01*
X218177875Y-106411875D01*
X218177883Y-106411871D01*
X218459053Y-106257297D01*
X218459063Y-106257290D01*
X218710822Y-106074375D01*
X218710823Y-106074375D01*
X218209386Y-105572938D01*
X218312407Y-105493888D01*
X218483888Y-105322407D01*
X218562938Y-105219385D01*
X219061225Y-105717672D01*
X219157068Y-105601819D01*
X219329002Y-105330896D01*
X219465615Y-105040580D01*
X219465617Y-105040575D01*
X219564769Y-104735417D01*
X219624895Y-104420228D01*
X219624896Y-104420221D01*
X219645042Y-104100005D01*
X219645042Y-104099994D01*
X219624896Y-103779778D01*
X219624895Y-103779771D01*
X219564769Y-103464582D01*
X219465617Y-103159424D01*
X219465615Y-103159419D01*
X219329001Y-102869102D01*
X219328998Y-102869096D01*
X219157078Y-102598193D01*
X219061224Y-102482326D01*
X218562937Y-102980612D01*
X218483888Y-102877593D01*
X218312407Y-102706112D01*
X218209385Y-102627060D01*
X218710823Y-102125623D01*
X218710822Y-102125621D01*
X218459071Y-101942714D01*
X218459053Y-101942702D01*
X218177883Y-101788128D01*
X218177875Y-101788124D01*
X217879555Y-101670012D01*
X217568766Y-101590215D01*
X217568757Y-101590213D01*
X217250443Y-101550000D01*
X216929556Y-101550000D01*
X216611242Y-101590213D01*
X216611233Y-101590215D01*
X216300444Y-101670012D01*
X216002124Y-101788124D01*
X216002116Y-101788128D01*
X215720946Y-101942702D01*
X215720928Y-101942714D01*
X215469176Y-102125622D01*
X215469175Y-102125623D01*
X215970613Y-102627061D01*
X215867593Y-102706112D01*
X215696112Y-102877593D01*
X215617061Y-102980614D01*
X215118773Y-102482326D01*
X215022924Y-102598188D01*
X214851001Y-102869096D01*
X214850998Y-102869102D01*
X214714384Y-103159419D01*
X214714382Y-103159424D01*
X214615230Y-103464582D01*
X214555104Y-103779771D01*
X214555103Y-103779778D01*
X214534958Y-104099994D01*
X214534958Y-104100005D01*
X201938812Y-104100005D01*
X201966546Y-104045145D01*
X201985842Y-104028425D01*
X202024623Y-104001270D01*
X202171401Y-103898495D01*
X202338495Y-103731401D01*
X202474035Y-103537830D01*
X202573903Y-103323663D01*
X202635063Y-103095408D01*
X202655659Y-102860000D01*
X202635063Y-102624592D01*
X202573903Y-102396337D01*
X202474035Y-102182171D01*
X202469364Y-102175499D01*
X202338494Y-101988597D01*
X202171402Y-101821506D01*
X202171396Y-101821501D01*
X201985842Y-101691575D01*
X201942217Y-101636998D01*
X201935023Y-101567500D01*
X201966546Y-101505145D01*
X201985842Y-101488425D01*
X202063132Y-101434306D01*
X202171401Y-101358495D01*
X202338495Y-101191401D01*
X202474035Y-100997830D01*
X202573903Y-100783663D01*
X202635063Y-100555408D01*
X202655659Y-100320000D01*
X202635063Y-100084592D01*
X202573903Y-99856337D01*
X202474035Y-99642171D01*
X202471700Y-99638835D01*
X202338494Y-99448597D01*
X202171402Y-99281506D01*
X202171396Y-99281501D01*
X201985842Y-99151575D01*
X201942217Y-99096998D01*
X201935023Y-99027500D01*
X201966546Y-98965145D01*
X201985842Y-98948425D01*
X202084048Y-98879660D01*
X202171401Y-98818495D01*
X202338495Y-98651401D01*
X202474035Y-98457830D01*
X202573903Y-98243663D01*
X202635063Y-98015408D01*
X202655659Y-97780000D01*
X202655419Y-97777262D01*
X202644348Y-97650722D01*
X202635063Y-97544592D01*
X202573903Y-97316337D01*
X202474035Y-97102171D01*
X202434500Y-97045708D01*
X202338494Y-96908597D01*
X202171402Y-96741506D01*
X202171396Y-96741501D01*
X201985842Y-96611575D01*
X201942217Y-96556998D01*
X201935023Y-96487500D01*
X201966546Y-96425145D01*
X201985842Y-96408425D01*
X202067195Y-96351461D01*
X202171401Y-96278495D01*
X202338495Y-96111401D01*
X202474035Y-95917830D01*
X202573903Y-95703663D01*
X202635063Y-95475408D01*
X202655659Y-95240000D01*
X202635063Y-95004592D01*
X202573903Y-94776337D01*
X202474035Y-94562171D01*
X202467428Y-94552734D01*
X202338494Y-94368597D01*
X202171402Y-94201506D01*
X202171396Y-94201501D01*
X201985842Y-94071575D01*
X201942217Y-94016998D01*
X201935023Y-93947500D01*
X201966546Y-93885145D01*
X201985842Y-93868425D01*
X202040664Y-93830038D01*
X202171401Y-93738495D01*
X202338495Y-93571401D01*
X202474035Y-93377830D01*
X202573903Y-93163663D01*
X202635063Y-92935408D01*
X202655659Y-92700000D01*
X202635063Y-92464592D01*
X202573903Y-92236337D01*
X202474035Y-92022171D01*
X202468425Y-92014158D01*
X202338494Y-91828597D01*
X202171402Y-91661506D01*
X202171395Y-91661501D01*
X201977834Y-91525967D01*
X201977830Y-91525965D01*
X201898880Y-91489150D01*
X201763663Y-91426097D01*
X201763659Y-91426096D01*
X201763655Y-91426094D01*
X201535413Y-91364938D01*
X201535403Y-91364936D01*
X201300001Y-91344341D01*
X201299999Y-91344341D01*
X201064596Y-91364936D01*
X201064586Y-91364938D01*
X200836344Y-91426094D01*
X200836335Y-91426098D01*
X200622171Y-91525964D01*
X200622169Y-91525965D01*
X200428597Y-91661505D01*
X200261505Y-91828597D01*
X200131575Y-92014158D01*
X200076998Y-92057783D01*
X200007500Y-92064977D01*
X199945145Y-92033454D01*
X199928425Y-92014158D01*
X199798494Y-91828597D01*
X199631402Y-91661506D01*
X199631395Y-91661501D01*
X199437834Y-91525967D01*
X199437830Y-91525965D01*
X199358880Y-91489150D01*
X199223663Y-91426097D01*
X199223659Y-91426096D01*
X199223655Y-91426094D01*
X198995413Y-91364938D01*
X198995403Y-91364936D01*
X198760001Y-91344341D01*
X198759999Y-91344341D01*
X198524596Y-91364936D01*
X198524586Y-91364938D01*
X198296344Y-91426094D01*
X198296335Y-91426098D01*
X198082171Y-91525964D01*
X198082169Y-91525965D01*
X197888597Y-91661505D01*
X197721505Y-91828597D01*
X197591575Y-92014158D01*
X197536998Y-92057783D01*
X197467500Y-92064977D01*
X197405145Y-92033454D01*
X197388425Y-92014158D01*
X197258494Y-91828597D01*
X197091402Y-91661506D01*
X197091395Y-91661501D01*
X196897834Y-91525967D01*
X196897830Y-91525965D01*
X196818880Y-91489150D01*
X196683663Y-91426097D01*
X196683659Y-91426096D01*
X196683655Y-91426094D01*
X196455413Y-91364938D01*
X196455403Y-91364936D01*
X196220001Y-91344341D01*
X196219999Y-91344341D01*
X195984596Y-91364936D01*
X195984586Y-91364938D01*
X195756344Y-91426094D01*
X195756335Y-91426098D01*
X195542171Y-91525964D01*
X195542169Y-91525965D01*
X195348597Y-91661505D01*
X195181505Y-91828597D01*
X195051575Y-92014158D01*
X194996998Y-92057783D01*
X194927500Y-92064977D01*
X194865145Y-92033454D01*
X194848425Y-92014158D01*
X194718494Y-91828597D01*
X194551402Y-91661506D01*
X194551395Y-91661501D01*
X194357834Y-91525967D01*
X194357830Y-91525965D01*
X194278880Y-91489150D01*
X194143663Y-91426097D01*
X194143659Y-91426096D01*
X194143655Y-91426094D01*
X193915413Y-91364938D01*
X193915403Y-91364936D01*
X193680001Y-91344341D01*
X193679999Y-91344341D01*
X193444596Y-91364936D01*
X193444586Y-91364938D01*
X193216344Y-91426094D01*
X193216335Y-91426098D01*
X193002171Y-91525964D01*
X193002169Y-91525965D01*
X192808597Y-91661505D01*
X192641505Y-91828597D01*
X192511575Y-92014158D01*
X192456998Y-92057783D01*
X192387500Y-92064977D01*
X192325145Y-92033454D01*
X192308425Y-92014158D01*
X192178494Y-91828597D01*
X192011402Y-91661506D01*
X192011395Y-91661501D01*
X191817834Y-91525967D01*
X191817830Y-91525965D01*
X191738880Y-91489150D01*
X191603663Y-91426097D01*
X191603659Y-91426096D01*
X191603655Y-91426094D01*
X191375413Y-91364938D01*
X191375403Y-91364936D01*
X191140001Y-91344341D01*
X191139999Y-91344341D01*
X190904596Y-91364936D01*
X190904586Y-91364938D01*
X190676344Y-91426094D01*
X190676335Y-91426098D01*
X190462171Y-91525964D01*
X190462169Y-91525965D01*
X190268597Y-91661505D01*
X190101505Y-91828597D01*
X189971575Y-92014158D01*
X189916998Y-92057783D01*
X189847500Y-92064977D01*
X189785145Y-92033454D01*
X189768425Y-92014158D01*
X189638494Y-91828597D01*
X189471402Y-91661506D01*
X189471395Y-91661501D01*
X189277834Y-91525967D01*
X189277830Y-91525965D01*
X189198880Y-91489150D01*
X189063663Y-91426097D01*
X189063659Y-91426096D01*
X189063655Y-91426094D01*
X188835413Y-91364938D01*
X188835403Y-91364936D01*
X188600001Y-91344341D01*
X188599999Y-91344341D01*
X188364596Y-91364936D01*
X188364586Y-91364938D01*
X188136344Y-91426094D01*
X188136335Y-91426098D01*
X187922171Y-91525964D01*
X187922169Y-91525965D01*
X187728597Y-91661505D01*
X187561505Y-91828597D01*
X187431575Y-92014158D01*
X187376998Y-92057783D01*
X187307500Y-92064977D01*
X187245145Y-92033454D01*
X187228425Y-92014158D01*
X187098494Y-91828597D01*
X186931402Y-91661506D01*
X186931395Y-91661501D01*
X186737834Y-91525967D01*
X186737830Y-91525965D01*
X186658880Y-91489150D01*
X186523663Y-91426097D01*
X186523659Y-91426096D01*
X186523655Y-91426094D01*
X186295413Y-91364938D01*
X186295403Y-91364936D01*
X186060001Y-91344341D01*
X186059999Y-91344341D01*
X185824596Y-91364936D01*
X185824586Y-91364938D01*
X185596344Y-91426094D01*
X185596335Y-91426098D01*
X185382171Y-91525964D01*
X185382169Y-91525965D01*
X185188597Y-91661505D01*
X185021505Y-91828597D01*
X184885965Y-92022169D01*
X184885964Y-92022171D01*
X184786098Y-92236335D01*
X184786094Y-92236344D01*
X184724938Y-92464586D01*
X184724936Y-92464596D01*
X184704341Y-92699999D01*
X184704341Y-92700000D01*
X184724936Y-92935403D01*
X184724938Y-92935413D01*
X184786094Y-93163655D01*
X184786096Y-93163659D01*
X184786097Y-93163663D01*
X184845508Y-93291070D01*
X184885965Y-93377830D01*
X184885967Y-93377834D01*
X184960412Y-93484151D01*
X185021501Y-93571396D01*
X185021506Y-93571402D01*
X185188597Y-93738493D01*
X185188603Y-93738498D01*
X185374158Y-93868425D01*
X185417783Y-93923002D01*
X185424977Y-93992500D01*
X185393454Y-94054855D01*
X185374158Y-94071575D01*
X185188597Y-94201505D01*
X185021505Y-94368597D01*
X184885965Y-94562169D01*
X184885964Y-94562171D01*
X184789331Y-94769402D01*
X184743159Y-94821841D01*
X184675965Y-94840993D01*
X184609084Y-94820777D01*
X184589268Y-94804678D01*
X179984590Y-90200000D01*
X192994540Y-90200000D01*
X193014326Y-90388256D01*
X193014327Y-90388259D01*
X193072818Y-90568277D01*
X193072821Y-90568284D01*
X193167467Y-90732216D01*
X193269185Y-90845185D01*
X193294129Y-90872888D01*
X193447265Y-90984148D01*
X193447270Y-90984151D01*
X193620192Y-91061142D01*
X193620197Y-91061144D01*
X193805354Y-91100500D01*
X193805355Y-91100500D01*
X193994644Y-91100500D01*
X193994646Y-91100500D01*
X194179803Y-91061144D01*
X194352730Y-90984151D01*
X194505871Y-90872888D01*
X194508788Y-90869647D01*
X194511600Y-90866526D01*
X194571087Y-90829879D01*
X194603748Y-90825500D01*
X195996252Y-90825500D01*
X196063291Y-90845185D01*
X196088400Y-90866526D01*
X196094126Y-90872885D01*
X196094130Y-90872889D01*
X196247265Y-90984148D01*
X196247270Y-90984151D01*
X196420192Y-91061142D01*
X196420197Y-91061144D01*
X196605354Y-91100500D01*
X196605355Y-91100500D01*
X196794644Y-91100500D01*
X196794646Y-91100500D01*
X196979803Y-91061144D01*
X197152730Y-90984151D01*
X197305871Y-90872888D01*
X197432533Y-90732216D01*
X197527179Y-90568284D01*
X197585674Y-90388256D01*
X197605460Y-90200000D01*
X197585674Y-90011744D01*
X197527179Y-89831716D01*
X197432533Y-89667784D01*
X197305871Y-89527112D01*
X197305870Y-89527111D01*
X197152734Y-89415851D01*
X197152729Y-89415848D01*
X196979807Y-89338857D01*
X196979802Y-89338855D01*
X196834001Y-89307865D01*
X196794646Y-89299500D01*
X196605354Y-89299500D01*
X196572897Y-89306398D01*
X196420197Y-89338855D01*
X196420192Y-89338857D01*
X196247270Y-89415848D01*
X196247265Y-89415851D01*
X196094130Y-89527110D01*
X196094126Y-89527114D01*
X196088400Y-89533474D01*
X196028913Y-89570121D01*
X195996252Y-89574500D01*
X194603748Y-89574500D01*
X194536709Y-89554815D01*
X194511600Y-89533474D01*
X194505873Y-89527114D01*
X194505869Y-89527110D01*
X194352734Y-89415851D01*
X194352729Y-89415848D01*
X194179807Y-89338857D01*
X194179802Y-89338855D01*
X194034001Y-89307865D01*
X193994646Y-89299500D01*
X193805354Y-89299500D01*
X193772897Y-89306398D01*
X193620197Y-89338855D01*
X193620192Y-89338857D01*
X193447270Y-89415848D01*
X193447265Y-89415851D01*
X193294129Y-89527111D01*
X193167466Y-89667785D01*
X193072821Y-89831715D01*
X193072818Y-89831722D01*
X193014327Y-90011740D01*
X193014326Y-90011744D01*
X192994540Y-90200000D01*
X179984590Y-90200000D01*
X179765198Y-89980608D01*
X179765178Y-89980586D01*
X179673733Y-89889141D01*
X179610373Y-89846806D01*
X179571286Y-89820688D01*
X179571287Y-89820688D01*
X179571285Y-89820687D01*
X179531039Y-89804017D01*
X179490792Y-89787347D01*
X179457452Y-89773537D01*
X179457448Y-89773536D01*
X179457444Y-89773535D01*
X179388338Y-89759789D01*
X179388337Y-89759789D01*
X179336611Y-89749500D01*
X179336607Y-89749500D01*
X179336606Y-89749500D01*
X177917191Y-89749500D01*
X177850152Y-89729815D01*
X177811652Y-89690596D01*
X177795340Y-89664150D01*
X177673351Y-89542161D01*
X177673350Y-89542160D01*
X177526516Y-89451592D01*
X177362753Y-89397326D01*
X177362751Y-89397325D01*
X177261678Y-89387000D01*
X176688330Y-89387000D01*
X176688312Y-89387001D01*
X176587247Y-89397325D01*
X176423484Y-89451592D01*
X176423481Y-89451593D01*
X176276651Y-89542159D01*
X176207505Y-89611305D01*
X176146181Y-89644789D01*
X176076490Y-89639804D01*
X176020556Y-89597933D01*
X176013092Y-89586744D01*
X175968083Y-89510638D01*
X175968076Y-89510629D01*
X175851870Y-89394423D01*
X175851862Y-89394417D01*
X175710396Y-89310755D01*
X175710393Y-89310754D01*
X175552573Y-89264902D01*
X175552567Y-89264901D01*
X175515701Y-89262000D01*
X175515694Y-89262000D01*
X175205343Y-89262000D01*
X175138304Y-89242315D01*
X175092549Y-89189511D01*
X175082605Y-89120353D01*
X175111630Y-89056797D01*
X175140245Y-89032462D01*
X175160537Y-89019945D01*
X175282444Y-88898038D01*
X175282447Y-88898034D01*
X175372948Y-88751311D01*
X175372953Y-88751300D01*
X175427180Y-88587652D01*
X175437499Y-88486654D01*
X175437500Y-88486641D01*
X175437500Y-88450000D01*
X174274000Y-88450000D01*
X174206961Y-88430315D01*
X174161206Y-88377511D01*
X174150000Y-88326000D01*
X174150000Y-87225000D01*
X174650000Y-87225000D01*
X174650000Y-87950000D01*
X175437499Y-87950000D01*
X175437499Y-87913360D01*
X175437498Y-87913345D01*
X175427180Y-87812347D01*
X175372953Y-87648699D01*
X175372948Y-87648688D01*
X175282447Y-87501965D01*
X175282444Y-87501961D01*
X175160538Y-87380055D01*
X175160534Y-87380052D01*
X175013811Y-87289551D01*
X175013800Y-87289546D01*
X174850152Y-87235319D01*
X174749154Y-87225000D01*
X174650000Y-87225000D01*
X174150000Y-87225000D01*
X174150000Y-87224999D01*
X174050860Y-87225000D01*
X174050844Y-87225001D01*
X173949847Y-87235319D01*
X173786199Y-87289546D01*
X173786188Y-87289551D01*
X173639465Y-87380052D01*
X173625532Y-87393985D01*
X173564208Y-87427468D01*
X173494516Y-87422482D01*
X173450172Y-87393982D01*
X173435851Y-87379661D01*
X173435850Y-87379660D01*
X173306701Y-87300000D01*
X173289018Y-87289093D01*
X173289013Y-87289091D01*
X173287569Y-87288612D01*
X173125253Y-87234826D01*
X173125251Y-87234825D01*
X173024184Y-87224500D01*
X173024177Y-87224500D01*
X172509176Y-87224500D01*
X172442137Y-87204815D01*
X172396382Y-87152011D01*
X172387118Y-87118088D01*
X172387027Y-87118108D01*
X172386686Y-87116505D01*
X172385856Y-87113465D01*
X172385676Y-87111754D01*
X172385674Y-87111745D01*
X172385672Y-87111740D01*
X172327179Y-86931716D01*
X172232533Y-86767784D01*
X172105871Y-86627112D01*
X172105870Y-86627111D01*
X171952734Y-86515851D01*
X171952729Y-86515848D01*
X171779807Y-86438857D01*
X171779802Y-86438855D01*
X171634001Y-86407865D01*
X171594646Y-86399500D01*
X171405354Y-86399500D01*
X171372897Y-86406398D01*
X171220197Y-86438855D01*
X171220192Y-86438857D01*
X171047270Y-86515848D01*
X171047265Y-86515851D01*
X170894129Y-86627111D01*
X170767466Y-86767785D01*
X170672821Y-86931715D01*
X170672818Y-86931722D01*
X170614327Y-87111740D01*
X170614326Y-87111744D01*
X170594540Y-87300000D01*
X170614326Y-87488256D01*
X170614327Y-87488259D01*
X170672818Y-87668277D01*
X170672821Y-87668284D01*
X170767467Y-87832216D01*
X170894129Y-87972888D01*
X171047265Y-88084148D01*
X171047270Y-88084151D01*
X171220192Y-88161142D01*
X171220197Y-88161144D01*
X171405354Y-88200500D01*
X171464548Y-88200500D01*
X171531587Y-88220185D01*
X171552229Y-88236819D01*
X171600681Y-88285271D01*
X171634166Y-88346594D01*
X171637000Y-88372951D01*
X171637000Y-88486668D01*
X171637001Y-88486687D01*
X171647325Y-88587752D01*
X171683609Y-88697249D01*
X171701592Y-88751516D01*
X171792160Y-88898350D01*
X171914150Y-89020340D01*
X172060984Y-89110908D01*
X172224747Y-89165174D01*
X172325823Y-89175500D01*
X172490825Y-89175499D01*
X172557864Y-89195183D01*
X172603619Y-89247987D01*
X172612885Y-89281922D01*
X172612976Y-89281903D01*
X172613312Y-89283485D01*
X172614145Y-89286535D01*
X172614325Y-89288253D01*
X172614326Y-89288257D01*
X172672821Y-89468286D01*
X172678156Y-89477526D01*
X172694630Y-89545426D01*
X172677503Y-89602646D01*
X172648256Y-89652101D01*
X172648254Y-89652106D01*
X172602402Y-89809926D01*
X172602401Y-89809932D01*
X172599500Y-89846798D01*
X172599500Y-91003201D01*
X172602401Y-91040067D01*
X172602402Y-91040073D01*
X172648254Y-91197893D01*
X172648255Y-91197896D01*
X172731917Y-91339362D01*
X172731923Y-91339370D01*
X172848129Y-91455576D01*
X172848140Y-91455585D01*
X172848455Y-91455771D01*
X172848650Y-91455980D01*
X172854298Y-91460361D01*
X172853591Y-91461272D01*
X172896136Y-91506843D01*
X172908637Y-91575585D01*
X172881988Y-91640173D01*
X172854078Y-91664356D01*
X172854298Y-91664639D01*
X172849092Y-91668676D01*
X172848455Y-91669229D01*
X172848140Y-91669414D01*
X172848133Y-91669420D01*
X172726497Y-91791056D01*
X172665174Y-91824540D01*
X172613035Y-91824664D01*
X172565143Y-91814484D01*
X172494646Y-91799500D01*
X172305354Y-91799500D01*
X172272897Y-91806398D01*
X172120197Y-91838855D01*
X172120192Y-91838857D01*
X171947270Y-91915848D01*
X171947265Y-91915851D01*
X171794129Y-92027111D01*
X171667466Y-92167785D01*
X171572821Y-92331715D01*
X171572818Y-92331722D01*
X171529645Y-92464596D01*
X171514326Y-92511744D01*
X171494540Y-92700000D01*
X171514326Y-92888256D01*
X171514327Y-92888259D01*
X171572818Y-93068277D01*
X171572821Y-93068284D01*
X171667467Y-93232216D01*
X171752148Y-93326263D01*
X171794129Y-93372888D01*
X171947265Y-93484148D01*
X171947267Y-93484149D01*
X171947270Y-93484151D01*
X172020182Y-93516614D01*
X172073418Y-93561863D01*
X172093739Y-93628712D01*
X172074694Y-93695935D01*
X172057427Y-93717572D01*
X172050000Y-93724999D01*
X172050000Y-95674999D01*
X172099140Y-95674999D01*
X172099154Y-95674998D01*
X172200152Y-95664680D01*
X172363800Y-95610453D01*
X172363811Y-95610448D01*
X172510533Y-95519948D01*
X172624464Y-95406017D01*
X172685787Y-95372532D01*
X172755479Y-95377516D01*
X172799827Y-95406017D01*
X172914150Y-95520340D01*
X173060984Y-95610908D01*
X173224747Y-95665174D01*
X173305028Y-95673375D01*
X173369719Y-95699771D01*
X173409870Y-95756951D01*
X173412734Y-95826762D01*
X173377400Y-95887039D01*
X173318206Y-95918023D01*
X173220197Y-95938855D01*
X173220192Y-95938857D01*
X173047270Y-96015848D01*
X173047265Y-96015851D01*
X172894130Y-96127110D01*
X172894126Y-96127114D01*
X172888400Y-96133474D01*
X172828913Y-96170121D01*
X172796252Y-96174500D01*
X172573747Y-96174500D01*
X172506708Y-96154815D01*
X172500862Y-96150818D01*
X172452734Y-96115851D01*
X172452729Y-96115848D01*
X172279807Y-96038857D01*
X172279802Y-96038855D01*
X172134001Y-96007865D01*
X172094646Y-95999500D01*
X171905354Y-95999500D01*
X171872897Y-96006398D01*
X171720197Y-96038855D01*
X171720192Y-96038857D01*
X171547270Y-96115848D01*
X171547265Y-96115851D01*
X171394129Y-96227111D01*
X171267466Y-96367785D01*
X171172821Y-96531715D01*
X171172818Y-96531722D01*
X171116439Y-96705241D01*
X171114326Y-96711744D01*
X171094540Y-96900000D01*
X171114326Y-97088256D01*
X171114327Y-97088259D01*
X171172818Y-97268277D01*
X171172821Y-97268284D01*
X171267467Y-97432216D01*
X171368646Y-97544586D01*
X171394129Y-97572888D01*
X171547265Y-97684148D01*
X171547270Y-97684151D01*
X171720192Y-97761142D01*
X171720197Y-97761144D01*
X171905354Y-97800500D01*
X171905355Y-97800500D01*
X172094644Y-97800500D01*
X172094646Y-97800500D01*
X172279803Y-97761144D01*
X172452730Y-97684151D01*
X172605871Y-97572888D01*
X172701638Y-97466527D01*
X172761125Y-97429879D01*
X172793788Y-97425500D01*
X172796252Y-97425500D01*
X172863291Y-97445185D01*
X172888400Y-97466526D01*
X172894126Y-97472885D01*
X172894130Y-97472889D01*
X173047265Y-97584148D01*
X173047270Y-97584151D01*
X173220191Y-97661142D01*
X173220193Y-97661142D01*
X173220197Y-97661144D01*
X173276282Y-97673064D01*
X173337761Y-97706255D01*
X173371539Y-97767418D01*
X173374500Y-97794354D01*
X173374500Y-99398484D01*
X173354815Y-99465523D01*
X173302011Y-99511278D01*
X173250500Y-99522484D01*
X173130354Y-99522484D01*
X173097897Y-99529382D01*
X172945197Y-99561839D01*
X172945192Y-99561841D01*
X172772270Y-99638832D01*
X172772265Y-99638835D01*
X172619129Y-99750095D01*
X172492466Y-99890769D01*
X172397821Y-100054699D01*
X172397818Y-100054706D01*
X172368124Y-100146096D01*
X172328686Y-100203772D01*
X172264328Y-100230970D01*
X172195481Y-100219055D01*
X172144006Y-100171811D01*
X172132262Y-100146096D01*
X172119785Y-100107697D01*
X172119784Y-100107696D01*
X172119783Y-100107691D01*
X172025137Y-99943759D01*
X171898475Y-99803087D01*
X171879214Y-99789093D01*
X171745338Y-99691826D01*
X171745333Y-99691823D01*
X171572411Y-99614832D01*
X171572406Y-99614830D01*
X171426605Y-99583840D01*
X171387250Y-99575475D01*
X171197958Y-99575475D01*
X171165501Y-99582373D01*
X171012801Y-99614830D01*
X171012796Y-99614832D01*
X170839874Y-99691823D01*
X170839869Y-99691826D01*
X170686733Y-99803086D01*
X170560070Y-99943760D01*
X170465425Y-100107690D01*
X170465422Y-100107697D01*
X170412947Y-100269200D01*
X170406930Y-100287719D01*
X170387144Y-100475975D01*
X170406930Y-100664231D01*
X170406931Y-100664234D01*
X170465422Y-100844252D01*
X170465425Y-100844259D01*
X170560071Y-101008191D01*
X170574756Y-101024500D01*
X170686733Y-101148863D01*
X170839869Y-101260123D01*
X170839874Y-101260126D01*
X171012796Y-101337117D01*
X171012801Y-101337119D01*
X171197958Y-101376475D01*
X171257152Y-101376475D01*
X171324191Y-101396160D01*
X171344833Y-101412794D01*
X171478181Y-101546142D01*
X171511666Y-101607465D01*
X171514500Y-101633823D01*
X171514500Y-104401312D01*
X171494815Y-104468351D01*
X171482650Y-104484284D01*
X171407466Y-104567784D01*
X171312821Y-104731715D01*
X171312818Y-104731722D01*
X171254327Y-104911740D01*
X171254326Y-104911744D01*
X171234540Y-105100000D01*
X171254326Y-105288256D01*
X171254327Y-105288259D01*
X171312526Y-105467378D01*
X171314521Y-105537219D01*
X171310777Y-105549029D01*
X171275908Y-105642516D01*
X171269501Y-105702116D01*
X171269500Y-105702135D01*
X171269500Y-108197870D01*
X171269501Y-108197876D01*
X171275908Y-108257482D01*
X171281674Y-108272941D01*
X171286657Y-108342633D01*
X171253170Y-108403955D01*
X171191846Y-108437439D01*
X171122155Y-108432453D01*
X171115055Y-108429551D01*
X171079806Y-108413857D01*
X171079802Y-108413855D01*
X170934001Y-108382865D01*
X170894646Y-108374500D01*
X170705354Y-108374500D01*
X170672897Y-108381398D01*
X170520197Y-108413855D01*
X170520192Y-108413857D01*
X170347270Y-108490848D01*
X170347265Y-108490851D01*
X170194129Y-108602111D01*
X170067466Y-108742785D01*
X169972821Y-108906715D01*
X169972818Y-108906722D01*
X169918304Y-109074500D01*
X169914326Y-109086744D01*
X169894540Y-109275000D01*
X169914326Y-109463256D01*
X169914327Y-109463259D01*
X169972818Y-109643277D01*
X169972821Y-109643284D01*
X170067467Y-109807216D01*
X170189470Y-109942714D01*
X170194129Y-109947888D01*
X170347265Y-110059148D01*
X170347270Y-110059151D01*
X170520192Y-110136142D01*
X170520197Y-110136144D01*
X170705354Y-110175500D01*
X170705355Y-110175500D01*
X170894644Y-110175500D01*
X170894646Y-110175500D01*
X171079803Y-110136144D01*
X171095063Y-110129349D01*
X171164310Y-110120063D01*
X171227587Y-110149689D01*
X171264803Y-110208822D01*
X171269500Y-110242628D01*
X171269500Y-112097870D01*
X171269501Y-112097876D01*
X171275908Y-112157483D01*
X171326202Y-112292328D01*
X171326203Y-112292329D01*
X171326204Y-112292331D01*
X171412454Y-112407546D01*
X171464810Y-112446739D01*
X171506682Y-112502672D01*
X171514500Y-112546006D01*
X171514500Y-112608940D01*
X171494815Y-112675979D01*
X171463385Y-112709258D01*
X171417546Y-112742561D01*
X171290883Y-112883235D01*
X171196238Y-113047165D01*
X171196235Y-113047172D01*
X171137744Y-113227190D01*
X171137743Y-113227194D01*
X171117957Y-113415450D01*
X171137743Y-113603706D01*
X171137744Y-113603709D01*
X171196235Y-113783727D01*
X171196238Y-113783734D01*
X171290884Y-113947666D01*
X171417546Y-114088338D01*
X171570682Y-114199598D01*
X171570687Y-114199601D01*
X171743609Y-114276592D01*
X171743614Y-114276594D01*
X171928771Y-114315950D01*
X171928772Y-114315950D01*
X172118061Y-114315950D01*
X172118063Y-114315950D01*
X172303220Y-114276594D01*
X172476147Y-114199601D01*
X172629288Y-114088338D01*
X172755950Y-113947666D01*
X172850596Y-113783734D01*
X172909091Y-113603706D01*
X172917163Y-113526898D01*
X172943746Y-113462287D01*
X173001043Y-113422302D01*
X173070862Y-113419641D01*
X173078803Y-113421932D01*
X173082034Y-113422982D01*
X173174613Y-113442660D01*
X173267192Y-113462338D01*
X173267193Y-113462338D01*
X173456482Y-113462338D01*
X173456484Y-113462338D01*
X173641641Y-113422982D01*
X173814568Y-113345989D01*
X173845176Y-113323749D01*
X173910979Y-113300269D01*
X173979034Y-113316093D01*
X173990943Y-113323746D01*
X174000794Y-113330903D01*
X174012039Y-113339073D01*
X174012040Y-113339074D01*
X174184962Y-113416065D01*
X174184967Y-113416067D01*
X174370124Y-113455423D01*
X174370125Y-113455423D01*
X174559414Y-113455423D01*
X174559416Y-113455423D01*
X174744573Y-113416067D01*
X174917500Y-113339074D01*
X175070641Y-113227811D01*
X175197303Y-113087139D01*
X175291949Y-112923207D01*
X175350444Y-112743179D01*
X175359506Y-112656949D01*
X175386089Y-112592339D01*
X175443386Y-112552354D01*
X175496077Y-112546624D01*
X175527220Y-112549972D01*
X175564395Y-112559980D01*
X175655705Y-112600636D01*
X175840862Y-112639992D01*
X175840863Y-112639992D01*
X176030152Y-112639992D01*
X176030154Y-112639992D01*
X176215311Y-112600636D01*
X176303840Y-112561220D01*
X176354276Y-112550499D01*
X176367871Y-112550499D01*
X176367872Y-112550499D01*
X176427483Y-112544091D01*
X176541667Y-112501502D01*
X176611358Y-112496519D01*
X176628330Y-112501502D01*
X176742517Y-112544091D01*
X176742516Y-112544091D01*
X176749444Y-112544835D01*
X176802127Y-112550500D01*
X177637872Y-112550499D01*
X177697483Y-112544091D01*
X177832331Y-112493796D01*
X177947546Y-112407546D01*
X178033796Y-112292331D01*
X178084091Y-112157483D01*
X178090500Y-112097873D01*
X178090499Y-111924499D01*
X178110183Y-111857461D01*
X178162987Y-111811706D01*
X178214499Y-111800500D01*
X178294644Y-111800500D01*
X178294646Y-111800500D01*
X178479803Y-111761144D01*
X178652730Y-111684151D01*
X178805871Y-111572888D01*
X178932533Y-111432216D01*
X179027179Y-111268284D01*
X179085674Y-111088256D01*
X179105460Y-110900000D01*
X179085674Y-110711744D01*
X179027179Y-110531716D01*
X178932533Y-110367784D01*
X178805871Y-110227112D01*
X178780697Y-110208822D01*
X178652734Y-110115851D01*
X178652729Y-110115848D01*
X178479807Y-110038857D01*
X178479802Y-110038855D01*
X178334001Y-110007865D01*
X178294646Y-109999500D01*
X178214499Y-109999500D01*
X178147460Y-109979815D01*
X178101705Y-109927011D01*
X178090499Y-109875500D01*
X178090499Y-109799500D01*
X178110184Y-109732461D01*
X178162988Y-109686706D01*
X178214499Y-109675500D01*
X179854064Y-109675500D01*
X179921103Y-109695185D01*
X179941745Y-109711819D01*
X180798538Y-110568612D01*
X180832023Y-110629935D01*
X180834178Y-110643331D01*
X180840777Y-110706112D01*
X180851826Y-110811240D01*
X180851827Y-110811243D01*
X180910318Y-110991261D01*
X180910321Y-110991268D01*
X181004967Y-111155200D01*
X181113286Y-111275500D01*
X181131629Y-111295872D01*
X181284765Y-111407132D01*
X181284770Y-111407135D01*
X181457692Y-111484126D01*
X181457697Y-111484128D01*
X181642854Y-111523484D01*
X181642855Y-111523484D01*
X181832144Y-111523484D01*
X181832146Y-111523484D01*
X182017303Y-111484128D01*
X182190230Y-111407135D01*
X182343371Y-111295872D01*
X182470033Y-111155200D01*
X182564679Y-110991268D01*
X182623174Y-110811240D01*
X182642960Y-110622984D01*
X182623174Y-110434728D01*
X182564679Y-110254700D01*
X182470033Y-110090768D01*
X182343371Y-109950096D01*
X182333194Y-109942702D01*
X182190234Y-109838835D01*
X182190229Y-109838832D01*
X182017307Y-109761841D01*
X182017302Y-109761839D01*
X181871501Y-109730849D01*
X181832146Y-109722484D01*
X181832145Y-109722484D01*
X181772952Y-109722484D01*
X181705913Y-109702799D01*
X181685271Y-109686165D01*
X180654714Y-108655608D01*
X180654694Y-108655586D01*
X180563251Y-108564143D01*
X180539796Y-108548471D01*
X180493518Y-108517549D01*
X180493519Y-108517549D01*
X180493517Y-108517547D01*
X180460806Y-108495690D01*
X180460802Y-108495688D01*
X180449117Y-108490848D01*
X180374135Y-108459790D01*
X180369279Y-108457778D01*
X180314877Y-108413938D01*
X180292812Y-108347644D01*
X180310091Y-108279945D01*
X180329049Y-108255540D01*
X180798729Y-107785860D01*
X180798733Y-107785858D01*
X180885858Y-107698733D01*
X180919433Y-107648484D01*
X180937254Y-107621813D01*
X180937256Y-107621810D01*
X180954311Y-107596287D01*
X180954311Y-107596286D01*
X180954312Y-107596285D01*
X180992408Y-107504312D01*
X181001463Y-107482452D01*
X181025500Y-107361606D01*
X181025500Y-100969462D01*
X181045185Y-100902423D01*
X181076615Y-100869144D01*
X181086665Y-100861841D01*
X181105871Y-100847888D01*
X181232533Y-100707216D01*
X181327179Y-100543284D01*
X181385674Y-100363256D01*
X181405460Y-100175000D01*
X181385674Y-99986744D01*
X181327179Y-99806716D01*
X181232533Y-99642784D01*
X181105871Y-99502112D01*
X181105870Y-99502111D01*
X180952734Y-99390851D01*
X180952729Y-99390848D01*
X180779807Y-99313857D01*
X180779802Y-99313855D01*
X180627583Y-99281501D01*
X180594646Y-99274500D01*
X180405354Y-99274500D01*
X180372897Y-99281398D01*
X180220197Y-99313855D01*
X180220192Y-99313857D01*
X180047270Y-99390848D01*
X180047265Y-99390851D01*
X179894129Y-99502111D01*
X179767466Y-99642785D01*
X179672821Y-99806715D01*
X179672818Y-99806722D01*
X179614345Y-99986684D01*
X179614326Y-99986744D01*
X179594540Y-100175000D01*
X179614326Y-100363256D01*
X179614327Y-100363259D01*
X179672818Y-100543277D01*
X179672821Y-100543284D01*
X179757887Y-100690623D01*
X179774500Y-100752622D01*
X179774500Y-106989548D01*
X179754815Y-107056587D01*
X179738181Y-107077229D01*
X179002229Y-107813181D01*
X178940906Y-107846666D01*
X178914548Y-107849500D01*
X178214500Y-107849500D01*
X178147461Y-107829815D01*
X178101706Y-107777011D01*
X178090500Y-107725500D01*
X178090499Y-107245451D01*
X178110183Y-107178412D01*
X178126813Y-107157775D01*
X178798729Y-106485860D01*
X178798733Y-106485858D01*
X178885858Y-106398733D01*
X178937607Y-106321285D01*
X178954312Y-106296285D01*
X178984561Y-106223256D01*
X179001463Y-106182452D01*
X179025500Y-106061606D01*
X179025500Y-101598687D01*
X179045185Y-101531648D01*
X179057350Y-101515715D01*
X179076870Y-101494035D01*
X179132533Y-101432216D01*
X179227179Y-101268284D01*
X179285674Y-101088256D01*
X179305460Y-100900000D01*
X179285674Y-100711744D01*
X179227179Y-100531716D01*
X179132533Y-100367784D01*
X179005871Y-100227112D01*
X179005870Y-100227111D01*
X178852734Y-100115851D01*
X178852729Y-100115848D01*
X178679807Y-100038857D01*
X178679802Y-100038855D01*
X178534001Y-100007865D01*
X178494646Y-99999500D01*
X178305354Y-99999500D01*
X178272897Y-100006398D01*
X178120197Y-100038855D01*
X178120192Y-100038857D01*
X177947270Y-100115848D01*
X177947265Y-100115851D01*
X177794129Y-100227111D01*
X177667466Y-100367785D01*
X177572821Y-100531715D01*
X177572818Y-100531722D01*
X177515798Y-100707214D01*
X177514326Y-100711744D01*
X177494540Y-100900000D01*
X177514326Y-101088256D01*
X177514327Y-101088259D01*
X177572818Y-101268277D01*
X177572821Y-101268284D01*
X177667467Y-101432216D01*
X177710772Y-101480310D01*
X177742650Y-101515715D01*
X177772880Y-101578706D01*
X177774500Y-101598687D01*
X177774500Y-105126143D01*
X177754815Y-105193182D01*
X177702011Y-105238937D01*
X177641228Y-105248790D01*
X177641194Y-105249434D01*
X177641194Y-105249500D01*
X177641190Y-105249500D01*
X177641181Y-105249678D01*
X177637881Y-105249500D01*
X177637873Y-105249500D01*
X177637864Y-105249500D01*
X176802129Y-105249500D01*
X176802123Y-105249501D01*
X176742516Y-105255908D01*
X176628333Y-105298496D01*
X176558641Y-105303480D01*
X176541667Y-105298496D01*
X176427482Y-105255908D01*
X176427483Y-105255908D01*
X176367883Y-105249501D01*
X176367881Y-105249500D01*
X176367873Y-105249500D01*
X176367864Y-105249500D01*
X175532129Y-105249500D01*
X175532123Y-105249501D01*
X175472516Y-105255908D01*
X175357618Y-105298763D01*
X175287926Y-105303747D01*
X175270952Y-105298763D01*
X175157379Y-105256403D01*
X175157372Y-105256401D01*
X175097844Y-105250000D01*
X175022365Y-105250000D01*
X174955326Y-105230315D01*
X174909571Y-105177511D01*
X174899045Y-105138965D01*
X174885674Y-105011744D01*
X174827179Y-104831716D01*
X174815938Y-104812247D01*
X174814039Y-104808958D01*
X174786927Y-104761999D01*
X174770454Y-104694101D01*
X174786927Y-104638001D01*
X174827179Y-104568284D01*
X174885674Y-104388256D01*
X174905460Y-104200000D01*
X174885674Y-104011744D01*
X174827179Y-103831716D01*
X174732533Y-103667784D01*
X174701081Y-103632853D01*
X174657350Y-103584284D01*
X174627120Y-103521292D01*
X174625500Y-103501312D01*
X174625500Y-98066389D01*
X174645185Y-97999350D01*
X174697989Y-97953595D01*
X174767147Y-97943651D01*
X174822385Y-97966071D01*
X174847266Y-97984148D01*
X174847269Y-97984150D01*
X174847270Y-97984151D01*
X175020192Y-98061142D01*
X175020197Y-98061144D01*
X175205354Y-98100500D01*
X175205355Y-98100500D01*
X175394644Y-98100500D01*
X175394646Y-98100500D01*
X175579803Y-98061144D01*
X175752730Y-97984151D01*
X175905871Y-97872888D01*
X176026965Y-97738400D01*
X176050225Y-97718269D01*
X176098733Y-97685858D01*
X176185858Y-97598733D01*
X176185859Y-97598730D01*
X176192925Y-97591665D01*
X176192931Y-97591658D01*
X176222775Y-97561816D01*
X176284099Y-97528333D01*
X176310453Y-97525500D01*
X179789548Y-97525500D01*
X179856587Y-97545185D01*
X179877229Y-97561819D01*
X181938181Y-99622771D01*
X181971666Y-99684094D01*
X181974500Y-99710452D01*
X181974500Y-106438393D01*
X181974500Y-106561607D01*
X181979022Y-106584341D01*
X181989790Y-106638476D01*
X181998537Y-106682452D01*
X182012347Y-106715792D01*
X182012347Y-106715793D01*
X182045685Y-106796281D01*
X182045687Y-106796284D01*
X182063270Y-106822598D01*
X182063271Y-106822600D01*
X182114140Y-106898731D01*
X182114141Y-106898732D01*
X182114142Y-106898733D01*
X182201267Y-106985858D01*
X182201268Y-106985858D01*
X182208335Y-106992925D01*
X182208334Y-106992925D01*
X182208337Y-106992927D01*
X184729141Y-109513732D01*
X184729142Y-109513733D01*
X184816267Y-109600858D01*
X184854404Y-109626340D01*
X184899210Y-109679952D01*
X184907917Y-109749277D01*
X184888403Y-109797330D01*
X184888671Y-109797485D01*
X184887559Y-109799409D01*
X184887092Y-109800561D01*
X184885965Y-109802171D01*
X184885964Y-109802173D01*
X184786097Y-110016335D01*
X184786094Y-110016344D01*
X184724938Y-110244586D01*
X184724936Y-110244596D01*
X184704341Y-110479999D01*
X184704341Y-110480000D01*
X184724936Y-110715403D01*
X184724938Y-110715413D01*
X184786094Y-110943655D01*
X184786096Y-110943659D01*
X184786097Y-110943663D01*
X184854754Y-111090897D01*
X184885965Y-111157830D01*
X184885967Y-111157834D01*
X185021501Y-111351395D01*
X185021506Y-111351402D01*
X185143430Y-111473326D01*
X185176915Y-111534649D01*
X185171931Y-111604341D01*
X185130059Y-111660274D01*
X185099083Y-111677189D01*
X184967669Y-111726203D01*
X184967664Y-111726206D01*
X184852455Y-111812452D01*
X184852452Y-111812455D01*
X184766206Y-111927664D01*
X184766202Y-111927671D01*
X184715908Y-112062517D01*
X184709501Y-112122116D01*
X184709500Y-112122135D01*
X184709500Y-113917870D01*
X184709501Y-113917876D01*
X184715908Y-113977483D01*
X184766202Y-114112328D01*
X184766206Y-114112335D01*
X184852452Y-114227544D01*
X184852455Y-114227547D01*
X184967664Y-114313793D01*
X184967671Y-114313797D01*
X185102517Y-114364091D01*
X185102516Y-114364091D01*
X185109444Y-114364835D01*
X185162127Y-114370500D01*
X186957872Y-114370499D01*
X187017483Y-114364091D01*
X187152331Y-114313796D01*
X187267546Y-114227546D01*
X187353796Y-114112331D01*
X187404091Y-113977483D01*
X187410500Y-113917873D01*
X187410500Y-113506052D01*
X187430185Y-113439013D01*
X187482989Y-113393258D01*
X187552147Y-113383314D01*
X187615703Y-113412339D01*
X187622181Y-113418371D01*
X187724150Y-113520340D01*
X187870984Y-113610908D01*
X188034747Y-113665174D01*
X188135823Y-113675500D01*
X188734176Y-113675499D01*
X188734184Y-113675498D01*
X188734187Y-113675498D01*
X188789530Y-113669844D01*
X188835253Y-113665174D01*
X188999016Y-113610908D01*
X189145850Y-113520340D01*
X189259819Y-113406371D01*
X189321142Y-113372886D01*
X189390834Y-113377870D01*
X189435181Y-113406371D01*
X189549150Y-113520340D01*
X189695984Y-113610908D01*
X189859747Y-113665174D01*
X189960823Y-113675500D01*
X190559176Y-113675499D01*
X190559184Y-113675498D01*
X190559187Y-113675498D01*
X190614530Y-113669844D01*
X190660253Y-113665174D01*
X190824016Y-113610908D01*
X190970850Y-113520340D01*
X191092840Y-113398350D01*
X191101442Y-113384404D01*
X191153390Y-113337679D01*
X191206981Y-113325500D01*
X191688767Y-113325500D01*
X191755806Y-113345185D01*
X191801561Y-113397989D01*
X191811799Y-113460147D01*
X191812161Y-113460166D01*
X191812076Y-113461827D01*
X191812123Y-113462113D01*
X191812000Y-113463323D01*
X191812000Y-113463324D01*
X191812000Y-113463328D01*
X191812000Y-114036669D01*
X191812001Y-114036687D01*
X191822325Y-114137752D01*
X191852080Y-114227544D01*
X191874069Y-114293903D01*
X191876592Y-114301515D01*
X191876593Y-114301518D01*
X191909619Y-114355061D01*
X191967160Y-114448350D01*
X192089150Y-114570340D01*
X192235984Y-114660908D01*
X192235986Y-114660908D01*
X192235987Y-114660909D01*
X192241792Y-114663616D01*
X192294233Y-114709786D01*
X192313388Y-114776979D01*
X192293175Y-114843861D01*
X192240012Y-114889197D01*
X192189392Y-114900000D01*
X160124000Y-114900000D01*
X160056961Y-114880315D01*
X160011206Y-114827511D01*
X160000000Y-114776000D01*
X160000000Y-112100005D01*
X160344958Y-112100005D01*
X160365103Y-112420221D01*
X160365104Y-112420228D01*
X160425230Y-112735417D01*
X160524382Y-113040575D01*
X160524384Y-113040580D01*
X160660998Y-113330897D01*
X160661001Y-113330903D01*
X160832921Y-113601806D01*
X160928773Y-113717671D01*
X161427060Y-113219384D01*
X161506112Y-113322407D01*
X161677593Y-113493888D01*
X161780613Y-113572937D01*
X161279175Y-114074375D01*
X161279176Y-114074377D01*
X161530928Y-114257285D01*
X161530946Y-114257297D01*
X161812116Y-114411871D01*
X161812124Y-114411875D01*
X162110444Y-114529987D01*
X162421233Y-114609784D01*
X162421242Y-114609786D01*
X162739556Y-114649999D01*
X162739570Y-114650000D01*
X163060430Y-114650000D01*
X163060443Y-114649999D01*
X163378757Y-114609786D01*
X163378766Y-114609784D01*
X163689555Y-114529987D01*
X163987875Y-114411875D01*
X163987883Y-114411871D01*
X164269053Y-114257297D01*
X164269063Y-114257290D01*
X164520822Y-114074375D01*
X164520823Y-114074375D01*
X164019386Y-113572938D01*
X164122407Y-113493888D01*
X164293888Y-113322407D01*
X164372938Y-113219385D01*
X164871225Y-113717672D01*
X164967068Y-113601819D01*
X165139002Y-113330896D01*
X165275615Y-113040580D01*
X165275617Y-113040575D01*
X165374769Y-112735417D01*
X165434895Y-112420228D01*
X165434896Y-112420221D01*
X165455042Y-112100005D01*
X165455042Y-112099994D01*
X165434896Y-111779778D01*
X165434895Y-111779771D01*
X165374769Y-111464582D01*
X165275617Y-111159424D01*
X165275615Y-111159419D01*
X165139001Y-110869102D01*
X165138998Y-110869096D01*
X164967078Y-110598193D01*
X164871224Y-110482326D01*
X164372937Y-110980612D01*
X164293888Y-110877593D01*
X164122407Y-110706112D01*
X164019385Y-110627060D01*
X164520823Y-110125623D01*
X164520822Y-110125621D01*
X164269071Y-109942714D01*
X164269053Y-109942702D01*
X163987883Y-109788128D01*
X163987875Y-109788124D01*
X163689555Y-109670012D01*
X163378766Y-109590215D01*
X163378757Y-109590213D01*
X163060443Y-109550000D01*
X162739556Y-109550000D01*
X162421242Y-109590213D01*
X162421233Y-109590215D01*
X162110444Y-109670012D01*
X161812124Y-109788124D01*
X161812116Y-109788128D01*
X161530946Y-109942702D01*
X161530928Y-109942714D01*
X161279176Y-110125622D01*
X161279175Y-110125623D01*
X161780613Y-110627061D01*
X161677593Y-110706112D01*
X161506112Y-110877593D01*
X161427061Y-110980614D01*
X160928773Y-110482326D01*
X160832924Y-110598188D01*
X160661001Y-110869096D01*
X160660998Y-110869102D01*
X160524384Y-111159419D01*
X160524382Y-111159424D01*
X160425230Y-111464582D01*
X160365104Y-111779771D01*
X160365103Y-111779778D01*
X160344958Y-112099994D01*
X160344958Y-112100005D01*
X160000000Y-112100005D01*
X160000000Y-104100005D01*
X160334958Y-104100005D01*
X160355103Y-104420221D01*
X160355104Y-104420228D01*
X160415230Y-104735417D01*
X160514382Y-105040575D01*
X160514384Y-105040580D01*
X160650998Y-105330897D01*
X160651001Y-105330903D01*
X160822921Y-105601806D01*
X160918773Y-105717671D01*
X161417060Y-105219384D01*
X161496112Y-105322407D01*
X161667593Y-105493888D01*
X161770613Y-105572937D01*
X161269175Y-106074375D01*
X161269176Y-106074377D01*
X161520928Y-106257285D01*
X161520946Y-106257297D01*
X161802116Y-106411871D01*
X161802124Y-106411875D01*
X162100444Y-106529987D01*
X162411233Y-106609784D01*
X162411242Y-106609786D01*
X162729556Y-106649999D01*
X162729570Y-106650000D01*
X163050430Y-106650000D01*
X163050443Y-106649999D01*
X163368757Y-106609786D01*
X163368766Y-106609784D01*
X163679555Y-106529987D01*
X163977875Y-106411875D01*
X163977883Y-106411871D01*
X164259053Y-106257297D01*
X164259063Y-106257290D01*
X164510822Y-106074375D01*
X164510823Y-106074375D01*
X164009386Y-105572938D01*
X164112407Y-105493888D01*
X164283888Y-105322407D01*
X164362938Y-105219385D01*
X164861225Y-105717672D01*
X164957068Y-105601819D01*
X165129002Y-105330896D01*
X165265615Y-105040580D01*
X165265617Y-105040575D01*
X165364769Y-104735417D01*
X165424895Y-104420228D01*
X165424896Y-104420221D01*
X165445042Y-104100005D01*
X165445042Y-104099994D01*
X165424896Y-103779778D01*
X165424895Y-103779771D01*
X165364769Y-103464582D01*
X165265617Y-103159424D01*
X165265615Y-103159419D01*
X165129001Y-102869102D01*
X165128998Y-102869096D01*
X164957078Y-102598193D01*
X164861224Y-102482326D01*
X164362937Y-102980612D01*
X164283888Y-102877593D01*
X164112407Y-102706112D01*
X164009385Y-102627060D01*
X164510823Y-102125623D01*
X164510822Y-102125621D01*
X164259071Y-101942714D01*
X164259053Y-101942702D01*
X163977883Y-101788128D01*
X163977875Y-101788124D01*
X163679555Y-101670012D01*
X163368766Y-101590215D01*
X163368757Y-101590213D01*
X163050443Y-101550000D01*
X162729556Y-101550000D01*
X162411242Y-101590213D01*
X162411233Y-101590215D01*
X162100444Y-101670012D01*
X161802124Y-101788124D01*
X161802116Y-101788128D01*
X161520946Y-101942702D01*
X161520928Y-101942714D01*
X161269176Y-102125622D01*
X161269175Y-102125623D01*
X161770613Y-102627061D01*
X161667593Y-102706112D01*
X161496112Y-102877593D01*
X161417061Y-102980614D01*
X160918773Y-102482326D01*
X160822924Y-102598188D01*
X160651001Y-102869096D01*
X160650998Y-102869102D01*
X160514384Y-103159419D01*
X160514382Y-103159424D01*
X160415230Y-103464582D01*
X160355104Y-103779771D01*
X160355103Y-103779778D01*
X160334958Y-104099994D01*
X160334958Y-104100005D01*
X160000000Y-104100005D01*
X160000000Y-94950000D01*
X170812501Y-94950000D01*
X170812501Y-94986654D01*
X170822819Y-95087652D01*
X170877046Y-95251300D01*
X170877051Y-95251311D01*
X170967552Y-95398034D01*
X170967555Y-95398038D01*
X171089461Y-95519944D01*
X171089465Y-95519947D01*
X171236188Y-95610448D01*
X171236199Y-95610453D01*
X171399847Y-95664680D01*
X171500851Y-95674999D01*
X171549999Y-95674998D01*
X171550000Y-95674998D01*
X171550000Y-94950000D01*
X170812501Y-94950000D01*
X160000000Y-94950000D01*
X160000000Y-94450000D01*
X170812500Y-94450000D01*
X171550000Y-94450000D01*
X171550000Y-93725000D01*
X171549999Y-93724999D01*
X171500861Y-93725000D01*
X171500843Y-93725001D01*
X171399847Y-93735319D01*
X171236199Y-93789546D01*
X171236188Y-93789551D01*
X171089465Y-93880052D01*
X171089461Y-93880055D01*
X170967555Y-94001961D01*
X170967552Y-94001965D01*
X170877051Y-94148688D01*
X170877046Y-94148699D01*
X170822819Y-94312347D01*
X170812500Y-94413345D01*
X170812500Y-94450000D01*
X160000000Y-94450000D01*
X160000000Y-77900005D01*
X160344958Y-77900005D01*
X160365103Y-78220221D01*
X160365104Y-78220228D01*
X160425230Y-78535417D01*
X160524382Y-78840575D01*
X160524384Y-78840580D01*
X160660998Y-79130897D01*
X160661001Y-79130903D01*
X160832921Y-79401806D01*
X160928773Y-79517671D01*
X161427060Y-79019384D01*
X161506112Y-79122407D01*
X161677593Y-79293888D01*
X161780613Y-79372937D01*
X161279175Y-79874375D01*
X161279176Y-79874377D01*
X161530928Y-80057285D01*
X161530946Y-80057297D01*
X161812116Y-80211871D01*
X161812124Y-80211875D01*
X162110444Y-80329987D01*
X162421233Y-80409784D01*
X162421242Y-80409786D01*
X162739556Y-80449999D01*
X162739570Y-80450000D01*
X163060430Y-80450000D01*
X163060443Y-80449999D01*
X163378757Y-80409786D01*
X163378766Y-80409784D01*
X163689555Y-80329987D01*
X163987875Y-80211875D01*
X163987883Y-80211871D01*
X164269053Y-80057297D01*
X164269063Y-80057290D01*
X164520822Y-79874375D01*
X164520823Y-79874375D01*
X164019386Y-79372938D01*
X164122407Y-79293888D01*
X164293888Y-79122407D01*
X164372938Y-79019385D01*
X164871225Y-79517672D01*
X164967068Y-79401819D01*
X165139002Y-79130896D01*
X165275615Y-78840580D01*
X165275617Y-78840575D01*
X165374769Y-78535417D01*
X165434895Y-78220228D01*
X165434896Y-78220221D01*
X165455042Y-77900005D01*
X214544958Y-77900005D01*
X214565103Y-78220221D01*
X214565104Y-78220228D01*
X214625230Y-78535417D01*
X214724382Y-78840575D01*
X214724384Y-78840580D01*
X214860998Y-79130897D01*
X214861001Y-79130903D01*
X215032921Y-79401806D01*
X215128773Y-79517671D01*
X215627060Y-79019384D01*
X215706112Y-79122407D01*
X215877593Y-79293888D01*
X215980613Y-79372937D01*
X215479175Y-79874375D01*
X215479176Y-79874377D01*
X215730928Y-80057285D01*
X215730946Y-80057297D01*
X216012116Y-80211871D01*
X216012124Y-80211875D01*
X216310444Y-80329987D01*
X216621233Y-80409784D01*
X216621242Y-80409786D01*
X216939556Y-80449999D01*
X216939570Y-80450000D01*
X217260430Y-80450000D01*
X217260443Y-80449999D01*
X217578757Y-80409786D01*
X217578766Y-80409784D01*
X217889555Y-80329987D01*
X218187875Y-80211875D01*
X218187883Y-80211871D01*
X218469053Y-80057297D01*
X218469063Y-80057290D01*
X218720822Y-79874375D01*
X218720823Y-79874375D01*
X218219386Y-79372938D01*
X218322407Y-79293888D01*
X218493888Y-79122407D01*
X218572938Y-79019385D01*
X219071225Y-79517672D01*
X219167068Y-79401819D01*
X219339002Y-79130896D01*
X219475615Y-78840580D01*
X219475617Y-78840575D01*
X219574769Y-78535417D01*
X219634895Y-78220228D01*
X219634896Y-78220221D01*
X219655042Y-77900005D01*
X219655042Y-77899994D01*
X219634896Y-77579778D01*
X219634895Y-77579771D01*
X219574769Y-77264582D01*
X219475617Y-76959424D01*
X219475615Y-76959419D01*
X219339001Y-76669102D01*
X219338998Y-76669096D01*
X219167078Y-76398193D01*
X219071224Y-76282326D01*
X218572937Y-76780612D01*
X218493888Y-76677593D01*
X218322407Y-76506112D01*
X218219385Y-76427060D01*
X218720823Y-75925623D01*
X218720822Y-75925621D01*
X218469071Y-75742714D01*
X218469053Y-75742702D01*
X218187883Y-75588128D01*
X218187875Y-75588124D01*
X217889555Y-75470012D01*
X217578766Y-75390215D01*
X217578757Y-75390213D01*
X217260443Y-75350000D01*
X216939556Y-75350000D01*
X216621242Y-75390213D01*
X216621233Y-75390215D01*
X216310444Y-75470012D01*
X216012124Y-75588124D01*
X216012116Y-75588128D01*
X215730946Y-75742702D01*
X215730928Y-75742714D01*
X215479176Y-75925622D01*
X215479175Y-75925623D01*
X215980613Y-76427061D01*
X215877593Y-76506112D01*
X215706112Y-76677593D01*
X215627061Y-76780614D01*
X215128773Y-76282326D01*
X215032924Y-76398188D01*
X214861001Y-76669096D01*
X214860998Y-76669102D01*
X214724384Y-76959419D01*
X214724382Y-76959424D01*
X214625230Y-77264582D01*
X214565104Y-77579771D01*
X214565103Y-77579778D01*
X214544958Y-77899994D01*
X214544958Y-77900005D01*
X165455042Y-77900005D01*
X165455042Y-77899994D01*
X165434896Y-77579778D01*
X165434895Y-77579771D01*
X165374769Y-77264582D01*
X165275617Y-76959424D01*
X165275615Y-76959419D01*
X165139001Y-76669102D01*
X165138998Y-76669096D01*
X164967078Y-76398193D01*
X164871224Y-76282326D01*
X164372937Y-76780612D01*
X164293888Y-76677593D01*
X164122407Y-76506112D01*
X164019385Y-76427060D01*
X164520823Y-75925623D01*
X164520822Y-75925621D01*
X164269071Y-75742714D01*
X164269053Y-75742702D01*
X163987883Y-75588128D01*
X163987875Y-75588124D01*
X163689555Y-75470012D01*
X163378766Y-75390215D01*
X163378757Y-75390213D01*
X163060443Y-75350000D01*
X162739556Y-75350000D01*
X162421242Y-75390213D01*
X162421233Y-75390215D01*
X162110444Y-75470012D01*
X161812124Y-75588124D01*
X161812116Y-75588128D01*
X161530946Y-75742702D01*
X161530928Y-75742714D01*
X161279176Y-75925622D01*
X161279175Y-75925623D01*
X161780613Y-76427061D01*
X161677593Y-76506112D01*
X161506112Y-76677593D01*
X161427061Y-76780614D01*
X160928773Y-76282326D01*
X160832924Y-76398188D01*
X160661001Y-76669096D01*
X160660998Y-76669102D01*
X160524384Y-76959419D01*
X160524382Y-76959424D01*
X160425230Y-77264582D01*
X160365104Y-77579771D01*
X160365103Y-77579778D01*
X160344958Y-77899994D01*
X160344958Y-77900005D01*
X160000000Y-77900005D01*
X160000000Y-69900005D01*
X160334958Y-69900005D01*
X160355103Y-70220221D01*
X160355104Y-70220228D01*
X160415230Y-70535417D01*
X160514382Y-70840575D01*
X160514384Y-70840580D01*
X160650998Y-71130897D01*
X160651001Y-71130903D01*
X160822921Y-71401806D01*
X160918773Y-71517671D01*
X161417060Y-71019384D01*
X161496112Y-71122407D01*
X161667593Y-71293888D01*
X161770613Y-71372937D01*
X161269175Y-71874375D01*
X161269176Y-71874377D01*
X161520928Y-72057285D01*
X161520946Y-72057297D01*
X161802116Y-72211871D01*
X161802124Y-72211875D01*
X162100444Y-72329987D01*
X162411233Y-72409784D01*
X162411242Y-72409786D01*
X162729556Y-72449999D01*
X162729570Y-72450000D01*
X163050430Y-72450000D01*
X163050443Y-72449999D01*
X163368757Y-72409786D01*
X163368766Y-72409784D01*
X163679555Y-72329987D01*
X163977875Y-72211875D01*
X163977883Y-72211871D01*
X164259053Y-72057297D01*
X164259063Y-72057290D01*
X164510822Y-71874375D01*
X164510823Y-71874375D01*
X164009386Y-71372938D01*
X164112407Y-71293888D01*
X164283888Y-71122407D01*
X164362938Y-71019385D01*
X164861225Y-71517672D01*
X164957068Y-71401819D01*
X165129002Y-71130896D01*
X165265615Y-70840580D01*
X165265617Y-70840575D01*
X165364769Y-70535417D01*
X165424895Y-70220228D01*
X165424896Y-70220221D01*
X165445042Y-69900005D01*
X214534958Y-69900005D01*
X214555103Y-70220221D01*
X214555104Y-70220228D01*
X214615230Y-70535417D01*
X214714382Y-70840575D01*
X214714384Y-70840580D01*
X214850998Y-71130897D01*
X214851001Y-71130903D01*
X215022921Y-71401806D01*
X215118773Y-71517671D01*
X215617060Y-71019384D01*
X215696112Y-71122407D01*
X215867593Y-71293888D01*
X215970613Y-71372937D01*
X215469175Y-71874375D01*
X215469176Y-71874377D01*
X215720928Y-72057285D01*
X215720946Y-72057297D01*
X216002116Y-72211871D01*
X216002124Y-72211875D01*
X216300444Y-72329987D01*
X216611233Y-72409784D01*
X216611242Y-72409786D01*
X216929556Y-72449999D01*
X216929570Y-72450000D01*
X217250430Y-72450000D01*
X217250443Y-72449999D01*
X217568757Y-72409786D01*
X217568766Y-72409784D01*
X217879555Y-72329987D01*
X218177875Y-72211875D01*
X218177883Y-72211871D01*
X218459053Y-72057297D01*
X218459063Y-72057290D01*
X218710822Y-71874375D01*
X218710823Y-71874375D01*
X218209386Y-71372938D01*
X218312407Y-71293888D01*
X218483888Y-71122407D01*
X218562938Y-71019385D01*
X219061225Y-71517672D01*
X219157068Y-71401819D01*
X219329002Y-71130896D01*
X219465615Y-70840580D01*
X219465617Y-70840575D01*
X219564769Y-70535417D01*
X219624895Y-70220228D01*
X219624896Y-70220221D01*
X219645042Y-69900005D01*
X219645042Y-69899994D01*
X219624896Y-69579778D01*
X219624895Y-69579771D01*
X219564769Y-69264582D01*
X219465617Y-68959424D01*
X219465615Y-68959419D01*
X219329001Y-68669102D01*
X219328998Y-68669096D01*
X219157078Y-68398193D01*
X219061224Y-68282326D01*
X218562937Y-68780612D01*
X218483888Y-68677593D01*
X218312407Y-68506112D01*
X218209385Y-68427060D01*
X218710823Y-67925623D01*
X218710822Y-67925621D01*
X218459071Y-67742714D01*
X218459053Y-67742702D01*
X218177883Y-67588128D01*
X218177875Y-67588124D01*
X217879555Y-67470012D01*
X217568766Y-67390215D01*
X217568757Y-67390213D01*
X217250443Y-67350000D01*
X216929556Y-67350000D01*
X216611242Y-67390213D01*
X216611233Y-67390215D01*
X216300444Y-67470012D01*
X216002124Y-67588124D01*
X216002116Y-67588128D01*
X215720946Y-67742702D01*
X215720928Y-67742714D01*
X215469176Y-67925622D01*
X215469175Y-67925623D01*
X215970613Y-68427061D01*
X215867593Y-68506112D01*
X215696112Y-68677593D01*
X215617061Y-68780614D01*
X215118773Y-68282326D01*
X215022924Y-68398188D01*
X214851001Y-68669096D01*
X214850998Y-68669102D01*
X214714384Y-68959419D01*
X214714382Y-68959424D01*
X214615230Y-69264582D01*
X214555104Y-69579771D01*
X214555103Y-69579778D01*
X214534958Y-69899994D01*
X214534958Y-69900005D01*
X165445042Y-69900005D01*
X165445042Y-69899994D01*
X165424896Y-69579778D01*
X165424895Y-69579771D01*
X165364769Y-69264582D01*
X165265617Y-68959424D01*
X165265615Y-68959419D01*
X165129001Y-68669102D01*
X165128998Y-68669096D01*
X164957078Y-68398193D01*
X164861224Y-68282326D01*
X164362937Y-68780612D01*
X164283888Y-68677593D01*
X164112407Y-68506112D01*
X164009385Y-68427060D01*
X164510823Y-67925623D01*
X164510822Y-67925621D01*
X164259071Y-67742714D01*
X164259053Y-67742702D01*
X163977883Y-67588128D01*
X163977875Y-67588124D01*
X163679555Y-67470012D01*
X163368766Y-67390215D01*
X163368757Y-67390213D01*
X163050443Y-67350000D01*
X162729556Y-67350000D01*
X162411242Y-67390213D01*
X162411233Y-67390215D01*
X162100444Y-67470012D01*
X161802124Y-67588124D01*
X161802116Y-67588128D01*
X161520946Y-67742702D01*
X161520928Y-67742714D01*
X161269176Y-67925622D01*
X161269175Y-67925623D01*
X161770613Y-68427061D01*
X161667593Y-68506112D01*
X161496112Y-68677593D01*
X161417061Y-68780614D01*
X160918773Y-68282326D01*
X160822924Y-68398188D01*
X160651001Y-68669096D01*
X160650998Y-68669102D01*
X160514384Y-68959419D01*
X160514382Y-68959424D01*
X160415230Y-69264582D01*
X160355104Y-69579771D01*
X160355103Y-69579778D01*
X160334958Y-69899994D01*
X160334958Y-69900005D01*
X160000000Y-69900005D01*
X160000000Y-67124000D01*
X160019685Y-67056961D01*
X160072489Y-67011206D01*
X160124000Y-67000000D01*
X219876000Y-67000000D01*
X219943039Y-67019685D01*
G37*
%TD.AperFunction*%
%TD*%
M02*
