%TF.GenerationSoftware,KiCad,Pcbnew,8.0.1*%
%TF.CreationDate,2024-05-04T23:45:59-07:00*%
%TF.ProjectId,gps_interposer,6770735f-696e-4746-9572-706f7365722e,rev?*%
%TF.SameCoordinates,Original*%
%TF.FileFunction,Legend,Top*%
%TF.FilePolarity,Positive*%
%FSLAX46Y46*%
G04 Gerber Fmt 4.6, Leading zero omitted, Abs format (unit mm)*
G04 Created by KiCad (PCBNEW 8.0.1) date 2024-05-04 23:45:59*
%MOMM*%
%LPD*%
G01*
G04 APERTURE LIST*
%ADD10C,0.150000*%
%ADD11C,0.202000*%
%ADD12C,0.120000*%
G04 APERTURE END LIST*
D10*
X171978174Y-82454275D02*
X172597221Y-82454275D01*
X172597221Y-82454275D02*
X172263888Y-82835227D01*
X172263888Y-82835227D02*
X172406745Y-82835227D01*
X172406745Y-82835227D02*
X172501983Y-82882846D01*
X172501983Y-82882846D02*
X172549602Y-82930465D01*
X172549602Y-82930465D02*
X172597221Y-83025703D01*
X172597221Y-83025703D02*
X172597221Y-83263798D01*
X172597221Y-83263798D02*
X172549602Y-83359036D01*
X172549602Y-83359036D02*
X172501983Y-83406656D01*
X172501983Y-83406656D02*
X172406745Y-83454275D01*
X172406745Y-83454275D02*
X172121031Y-83454275D01*
X172121031Y-83454275D02*
X172025793Y-83406656D01*
X172025793Y-83406656D02*
X171978174Y-83359036D01*
X172882936Y-82454275D02*
X173216269Y-83454275D01*
X173216269Y-83454275D02*
X173549602Y-82454275D01*
X173787698Y-82454275D02*
X174406745Y-82454275D01*
X174406745Y-82454275D02*
X174073412Y-82835227D01*
X174073412Y-82835227D02*
X174216269Y-82835227D01*
X174216269Y-82835227D02*
X174311507Y-82882846D01*
X174311507Y-82882846D02*
X174359126Y-82930465D01*
X174359126Y-82930465D02*
X174406745Y-83025703D01*
X174406745Y-83025703D02*
X174406745Y-83263798D01*
X174406745Y-83263798D02*
X174359126Y-83359036D01*
X174359126Y-83359036D02*
X174311507Y-83406656D01*
X174311507Y-83406656D02*
X174216269Y-83454275D01*
X174216269Y-83454275D02*
X173930555Y-83454275D01*
X173930555Y-83454275D02*
X173835317Y-83406656D01*
X173835317Y-83406656D02*
X173787698Y-83359036D01*
X175899183Y-82454275D02*
X175422993Y-82454275D01*
X175422993Y-82454275D02*
X175375374Y-82930465D01*
X175375374Y-82930465D02*
X175422993Y-82882846D01*
X175422993Y-82882846D02*
X175518231Y-82835227D01*
X175518231Y-82835227D02*
X175756326Y-82835227D01*
X175756326Y-82835227D02*
X175851564Y-82882846D01*
X175851564Y-82882846D02*
X175899183Y-82930465D01*
X175899183Y-82930465D02*
X175946802Y-83025703D01*
X175946802Y-83025703D02*
X175946802Y-83263798D01*
X175946802Y-83263798D02*
X175899183Y-83359036D01*
X175899183Y-83359036D02*
X175851564Y-83406656D01*
X175851564Y-83406656D02*
X175756326Y-83454275D01*
X175756326Y-83454275D02*
X175518231Y-83454275D01*
X175518231Y-83454275D02*
X175422993Y-83406656D01*
X175422993Y-83406656D02*
X175375374Y-83359036D01*
X176232517Y-82454275D02*
X176565850Y-83454275D01*
X176565850Y-83454275D02*
X176899183Y-82454275D01*
X181160588Y-82542438D02*
X181065350Y-82494819D01*
X181065350Y-82494819D02*
X180922493Y-82494819D01*
X180922493Y-82494819D02*
X180779636Y-82542438D01*
X180779636Y-82542438D02*
X180684398Y-82637676D01*
X180684398Y-82637676D02*
X180636779Y-82732914D01*
X180636779Y-82732914D02*
X180589160Y-82923390D01*
X180589160Y-82923390D02*
X180589160Y-83066247D01*
X180589160Y-83066247D02*
X180636779Y-83256723D01*
X180636779Y-83256723D02*
X180684398Y-83351961D01*
X180684398Y-83351961D02*
X180779636Y-83447200D01*
X180779636Y-83447200D02*
X180922493Y-83494819D01*
X180922493Y-83494819D02*
X181017731Y-83494819D01*
X181017731Y-83494819D02*
X181160588Y-83447200D01*
X181160588Y-83447200D02*
X181208207Y-83399580D01*
X181208207Y-83399580D02*
X181208207Y-83066247D01*
X181208207Y-83066247D02*
X181017731Y-83066247D01*
X174360588Y-114369819D02*
X173789160Y-114369819D01*
X174074874Y-114369819D02*
X174074874Y-113369819D01*
X174074874Y-113369819D02*
X173979636Y-113512676D01*
X173979636Y-113512676D02*
X173884398Y-113607914D01*
X173884398Y-113607914D02*
X173789160Y-113655533D01*
X174789160Y-114369819D02*
X174789160Y-113369819D01*
X174789160Y-113369819D02*
X175170112Y-113369819D01*
X175170112Y-113369819D02*
X175265350Y-113417438D01*
X175265350Y-113417438D02*
X175312969Y-113465057D01*
X175312969Y-113465057D02*
X175360588Y-113560295D01*
X175360588Y-113560295D02*
X175360588Y-113703152D01*
X175360588Y-113703152D02*
X175312969Y-113798390D01*
X175312969Y-113798390D02*
X175265350Y-113846009D01*
X175265350Y-113846009D02*
X175170112Y-113893628D01*
X175170112Y-113893628D02*
X174789160Y-113893628D01*
X165336337Y-114660598D02*
X165003004Y-114184407D01*
X164764909Y-114660598D02*
X164764909Y-113660598D01*
X164764909Y-113660598D02*
X165145861Y-113660598D01*
X165145861Y-113660598D02*
X165241099Y-113708217D01*
X165241099Y-113708217D02*
X165288718Y-113755836D01*
X165288718Y-113755836D02*
X165336337Y-113851074D01*
X165336337Y-113851074D02*
X165336337Y-113993931D01*
X165336337Y-113993931D02*
X165288718Y-114089169D01*
X165288718Y-114089169D02*
X165241099Y-114136788D01*
X165241099Y-114136788D02*
X165145861Y-114184407D01*
X165145861Y-114184407D02*
X164764909Y-114184407D01*
X165764909Y-114660598D02*
X165764909Y-113660598D01*
X165764909Y-113660598D02*
X166098242Y-114374883D01*
X166098242Y-114374883D02*
X166431575Y-113660598D01*
X166431575Y-113660598D02*
X166431575Y-114660598D01*
X168200822Y-112713600D02*
X168772250Y-112713600D01*
X168486536Y-113713600D02*
X168486536Y-112713600D01*
X169105584Y-113713600D02*
X169105584Y-112713600D01*
X169105584Y-112713600D02*
X169438917Y-113427885D01*
X169438917Y-113427885D02*
X169772250Y-112713600D01*
X169772250Y-112713600D02*
X169772250Y-113713600D01*
X170182910Y-113341262D02*
X170754338Y-113341262D01*
X170468624Y-114341262D02*
X170468624Y-113341262D01*
X171659100Y-114246023D02*
X171611481Y-114293643D01*
X171611481Y-114293643D02*
X171468624Y-114341262D01*
X171468624Y-114341262D02*
X171373386Y-114341262D01*
X171373386Y-114341262D02*
X171230529Y-114293643D01*
X171230529Y-114293643D02*
X171135291Y-114198404D01*
X171135291Y-114198404D02*
X171087672Y-114103166D01*
X171087672Y-114103166D02*
X171040053Y-113912690D01*
X171040053Y-113912690D02*
X171040053Y-113769833D01*
X171040053Y-113769833D02*
X171087672Y-113579357D01*
X171087672Y-113579357D02*
X171135291Y-113484119D01*
X171135291Y-113484119D02*
X171230529Y-113388881D01*
X171230529Y-113388881D02*
X171373386Y-113341262D01*
X171373386Y-113341262D02*
X171468624Y-113341262D01*
X171468624Y-113341262D02*
X171611481Y-113388881D01*
X171611481Y-113388881D02*
X171659100Y-113436500D01*
X176860588Y-113417438D02*
X176765350Y-113369819D01*
X176765350Y-113369819D02*
X176622493Y-113369819D01*
X176622493Y-113369819D02*
X176479636Y-113417438D01*
X176479636Y-113417438D02*
X176384398Y-113512676D01*
X176384398Y-113512676D02*
X176336779Y-113607914D01*
X176336779Y-113607914D02*
X176289160Y-113798390D01*
X176289160Y-113798390D02*
X176289160Y-113941247D01*
X176289160Y-113941247D02*
X176336779Y-114131723D01*
X176336779Y-114131723D02*
X176384398Y-114226961D01*
X176384398Y-114226961D02*
X176479636Y-114322200D01*
X176479636Y-114322200D02*
X176622493Y-114369819D01*
X176622493Y-114369819D02*
X176717731Y-114369819D01*
X176717731Y-114369819D02*
X176860588Y-114322200D01*
X176860588Y-114322200D02*
X176908207Y-114274580D01*
X176908207Y-114274580D02*
X176908207Y-113941247D01*
X176908207Y-113941247D02*
X176717731Y-113941247D01*
D11*
X177647000Y-104394000D02*
G75*
G02*
X177445000Y-104394000I-101000J0D01*
G01*
X177445000Y-104394000D02*
G75*
G02*
X177647000Y-104394000I101000J0D01*
G01*
D10*
X206514819Y-108407030D02*
X206514819Y-108883220D01*
X206514819Y-108883220D02*
X206991009Y-108930839D01*
X206991009Y-108930839D02*
X206943390Y-108883220D01*
X206943390Y-108883220D02*
X206895771Y-108787982D01*
X206895771Y-108787982D02*
X206895771Y-108549887D01*
X206895771Y-108549887D02*
X206943390Y-108454649D01*
X206943390Y-108454649D02*
X206991009Y-108407030D01*
X206991009Y-108407030D02*
X207086247Y-108359411D01*
X207086247Y-108359411D02*
X207324342Y-108359411D01*
X207324342Y-108359411D02*
X207419580Y-108407030D01*
X207419580Y-108407030D02*
X207467200Y-108454649D01*
X207467200Y-108454649D02*
X207514819Y-108549887D01*
X207514819Y-108549887D02*
X207514819Y-108787982D01*
X207514819Y-108787982D02*
X207467200Y-108883220D01*
X207467200Y-108883220D02*
X207419580Y-108930839D01*
X206514819Y-108073696D02*
X207514819Y-107740363D01*
X207514819Y-107740363D02*
X206514819Y-107407030D01*
X182408207Y-100707819D02*
X182074874Y-100231628D01*
X181836779Y-100707819D02*
X181836779Y-99707819D01*
X181836779Y-99707819D02*
X182217731Y-99707819D01*
X182217731Y-99707819D02*
X182312969Y-99755438D01*
X182312969Y-99755438D02*
X182360588Y-99803057D01*
X182360588Y-99803057D02*
X182408207Y-99898295D01*
X182408207Y-99898295D02*
X182408207Y-100041152D01*
X182408207Y-100041152D02*
X182360588Y-100136390D01*
X182360588Y-100136390D02*
X182312969Y-100184009D01*
X182312969Y-100184009D02*
X182217731Y-100231628D01*
X182217731Y-100231628D02*
X181836779Y-100231628D01*
X183408207Y-100612580D02*
X183360588Y-100660200D01*
X183360588Y-100660200D02*
X183217731Y-100707819D01*
X183217731Y-100707819D02*
X183122493Y-100707819D01*
X183122493Y-100707819D02*
X182979636Y-100660200D01*
X182979636Y-100660200D02*
X182884398Y-100564961D01*
X182884398Y-100564961D02*
X182836779Y-100469723D01*
X182836779Y-100469723D02*
X182789160Y-100279247D01*
X182789160Y-100279247D02*
X182789160Y-100136390D01*
X182789160Y-100136390D02*
X182836779Y-99945914D01*
X182836779Y-99945914D02*
X182884398Y-99850676D01*
X182884398Y-99850676D02*
X182979636Y-99755438D01*
X182979636Y-99755438D02*
X183122493Y-99707819D01*
X183122493Y-99707819D02*
X183217731Y-99707819D01*
X183217731Y-99707819D02*
X183360588Y-99755438D01*
X183360588Y-99755438D02*
X183408207Y-99803057D01*
X188360207Y-87372819D02*
X188026874Y-86896628D01*
X187788779Y-87372819D02*
X187788779Y-86372819D01*
X187788779Y-86372819D02*
X188169731Y-86372819D01*
X188169731Y-86372819D02*
X188264969Y-86420438D01*
X188264969Y-86420438D02*
X188312588Y-86468057D01*
X188312588Y-86468057D02*
X188360207Y-86563295D01*
X188360207Y-86563295D02*
X188360207Y-86706152D01*
X188360207Y-86706152D02*
X188312588Y-86801390D01*
X188312588Y-86801390D02*
X188264969Y-86849009D01*
X188264969Y-86849009D02*
X188169731Y-86896628D01*
X188169731Y-86896628D02*
X187788779Y-86896628D01*
X188788779Y-87372819D02*
X188788779Y-86372819D01*
X188788779Y-86372819D02*
X189169731Y-86372819D01*
X189169731Y-86372819D02*
X189264969Y-86420438D01*
X189264969Y-86420438D02*
X189312588Y-86468057D01*
X189312588Y-86468057D02*
X189360207Y-86563295D01*
X189360207Y-86563295D02*
X189360207Y-86706152D01*
X189360207Y-86706152D02*
X189312588Y-86801390D01*
X189312588Y-86801390D02*
X189264969Y-86849009D01*
X189264969Y-86849009D02*
X189169731Y-86896628D01*
X189169731Y-86896628D02*
X188788779Y-86896628D01*
X189741160Y-86468057D02*
X189788779Y-86420438D01*
X189788779Y-86420438D02*
X189884017Y-86372819D01*
X189884017Y-86372819D02*
X190122112Y-86372819D01*
X190122112Y-86372819D02*
X190217350Y-86420438D01*
X190217350Y-86420438D02*
X190264969Y-86468057D01*
X190264969Y-86468057D02*
X190312588Y-86563295D01*
X190312588Y-86563295D02*
X190312588Y-86658533D01*
X190312588Y-86658533D02*
X190264969Y-86801390D01*
X190264969Y-86801390D02*
X189693541Y-87372819D01*
X189693541Y-87372819D02*
X190312588Y-87372819D01*
X190931636Y-86372819D02*
X191026874Y-86372819D01*
X191026874Y-86372819D02*
X191122112Y-86420438D01*
X191122112Y-86420438D02*
X191169731Y-86468057D01*
X191169731Y-86468057D02*
X191217350Y-86563295D01*
X191217350Y-86563295D02*
X191264969Y-86753771D01*
X191264969Y-86753771D02*
X191264969Y-86991866D01*
X191264969Y-86991866D02*
X191217350Y-87182342D01*
X191217350Y-87182342D02*
X191169731Y-87277580D01*
X191169731Y-87277580D02*
X191122112Y-87325200D01*
X191122112Y-87325200D02*
X191026874Y-87372819D01*
X191026874Y-87372819D02*
X190931636Y-87372819D01*
X190931636Y-87372819D02*
X190836398Y-87325200D01*
X190836398Y-87325200D02*
X190788779Y-87277580D01*
X190788779Y-87277580D02*
X190741160Y-87182342D01*
X190741160Y-87182342D02*
X190693541Y-86991866D01*
X190693541Y-86991866D02*
X190693541Y-86753771D01*
X190693541Y-86753771D02*
X190741160Y-86563295D01*
X190741160Y-86563295D02*
X190788779Y-86468057D01*
X190788779Y-86468057D02*
X190836398Y-86420438D01*
X190836398Y-86420438D02*
X190931636Y-86372819D01*
X192122112Y-86706152D02*
X192122112Y-87372819D01*
X191884017Y-86325200D02*
X191645922Y-87039485D01*
X191645922Y-87039485D02*
X192264969Y-87039485D01*
X192836398Y-86372819D02*
X192931636Y-86372819D01*
X192931636Y-86372819D02*
X193026874Y-86420438D01*
X193026874Y-86420438D02*
X193074493Y-86468057D01*
X193074493Y-86468057D02*
X193122112Y-86563295D01*
X193122112Y-86563295D02*
X193169731Y-86753771D01*
X193169731Y-86753771D02*
X193169731Y-86991866D01*
X193169731Y-86991866D02*
X193122112Y-87182342D01*
X193122112Y-87182342D02*
X193074493Y-87277580D01*
X193074493Y-87277580D02*
X193026874Y-87325200D01*
X193026874Y-87325200D02*
X192931636Y-87372819D01*
X192931636Y-87372819D02*
X192836398Y-87372819D01*
X192836398Y-87372819D02*
X192741160Y-87325200D01*
X192741160Y-87325200D02*
X192693541Y-87277580D01*
X192693541Y-87277580D02*
X192645922Y-87182342D01*
X192645922Y-87182342D02*
X192598303Y-86991866D01*
X192598303Y-86991866D02*
X192598303Y-86753771D01*
X192598303Y-86753771D02*
X192645922Y-86563295D01*
X192645922Y-86563295D02*
X192693541Y-86468057D01*
X192693541Y-86468057D02*
X192741160Y-86420438D01*
X192741160Y-86420438D02*
X192836398Y-86372819D01*
X193598303Y-86991866D02*
X194360208Y-86991866D01*
X194741160Y-86372819D02*
X195407826Y-86372819D01*
X195407826Y-86372819D02*
X194741160Y-87372819D01*
X194741160Y-87372819D02*
X195407826Y-87372819D01*
X196169731Y-87325200D02*
X196074493Y-87372819D01*
X196074493Y-87372819D02*
X195884017Y-87372819D01*
X195884017Y-87372819D02*
X195788779Y-87325200D01*
X195788779Y-87325200D02*
X195741160Y-87229961D01*
X195741160Y-87229961D02*
X195741160Y-86849009D01*
X195741160Y-86849009D02*
X195788779Y-86753771D01*
X195788779Y-86753771D02*
X195884017Y-86706152D01*
X195884017Y-86706152D02*
X196074493Y-86706152D01*
X196074493Y-86706152D02*
X196169731Y-86753771D01*
X196169731Y-86753771D02*
X196217350Y-86849009D01*
X196217350Y-86849009D02*
X196217350Y-86944247D01*
X196217350Y-86944247D02*
X195741160Y-87039485D01*
X196645922Y-87372819D02*
X196645922Y-86706152D01*
X196645922Y-86896628D02*
X196693541Y-86801390D01*
X196693541Y-86801390D02*
X196741160Y-86753771D01*
X196741160Y-86753771D02*
X196836398Y-86706152D01*
X196836398Y-86706152D02*
X196931636Y-86706152D01*
X197407827Y-87372819D02*
X197312589Y-87325200D01*
X197312589Y-87325200D02*
X197264970Y-87277580D01*
X197264970Y-87277580D02*
X197217351Y-87182342D01*
X197217351Y-87182342D02*
X197217351Y-86896628D01*
X197217351Y-86896628D02*
X197264970Y-86801390D01*
X197264970Y-86801390D02*
X197312589Y-86753771D01*
X197312589Y-86753771D02*
X197407827Y-86706152D01*
X197407827Y-86706152D02*
X197550684Y-86706152D01*
X197550684Y-86706152D02*
X197645922Y-86753771D01*
X197645922Y-86753771D02*
X197693541Y-86801390D01*
X197693541Y-86801390D02*
X197741160Y-86896628D01*
X197741160Y-86896628D02*
X197741160Y-87182342D01*
X197741160Y-87182342D02*
X197693541Y-87277580D01*
X197693541Y-87277580D02*
X197645922Y-87325200D01*
X197645922Y-87325200D02*
X197550684Y-87372819D01*
X197550684Y-87372819D02*
X197407827Y-87372819D01*
X181693922Y-102120819D02*
X182265350Y-102120819D01*
X181979636Y-103120819D02*
X181979636Y-102120819D01*
X183170112Y-103025580D02*
X183122493Y-103073200D01*
X183122493Y-103073200D02*
X182979636Y-103120819D01*
X182979636Y-103120819D02*
X182884398Y-103120819D01*
X182884398Y-103120819D02*
X182741541Y-103073200D01*
X182741541Y-103073200D02*
X182646303Y-102977961D01*
X182646303Y-102977961D02*
X182598684Y-102882723D01*
X182598684Y-102882723D02*
X182551065Y-102692247D01*
X182551065Y-102692247D02*
X182551065Y-102549390D01*
X182551065Y-102549390D02*
X182598684Y-102358914D01*
X182598684Y-102358914D02*
X182646303Y-102263676D01*
X182646303Y-102263676D02*
X182741541Y-102168438D01*
X182741541Y-102168438D02*
X182884398Y-102120819D01*
X182884398Y-102120819D02*
X182979636Y-102120819D01*
X182979636Y-102120819D02*
X183122493Y-102168438D01*
X183122493Y-102168438D02*
X183170112Y-102216057D01*
X181193922Y-109613819D02*
X181765350Y-109613819D01*
X181479636Y-110613819D02*
X181479636Y-109613819D01*
X182098684Y-110613819D02*
X182098684Y-109613819D01*
X182098684Y-109613819D02*
X182432017Y-110328104D01*
X182432017Y-110328104D02*
X182765350Y-109613819D01*
X182765350Y-109613819D02*
X182765350Y-110613819D01*
X211721819Y-108851458D02*
X211721819Y-108232411D01*
X211721819Y-108232411D02*
X212102771Y-108565744D01*
X212102771Y-108565744D02*
X212102771Y-108422887D01*
X212102771Y-108422887D02*
X212150390Y-108327649D01*
X212150390Y-108327649D02*
X212198009Y-108280030D01*
X212198009Y-108280030D02*
X212293247Y-108232411D01*
X212293247Y-108232411D02*
X212531342Y-108232411D01*
X212531342Y-108232411D02*
X212626580Y-108280030D01*
X212626580Y-108280030D02*
X212674200Y-108327649D01*
X212674200Y-108327649D02*
X212721819Y-108422887D01*
X212721819Y-108422887D02*
X212721819Y-108708601D01*
X212721819Y-108708601D02*
X212674200Y-108803839D01*
X212674200Y-108803839D02*
X212626580Y-108851458D01*
X211721819Y-107946696D02*
X212721819Y-107613363D01*
X212721819Y-107613363D02*
X211721819Y-107280030D01*
X211721819Y-106756220D02*
X211721819Y-106660982D01*
X211721819Y-106660982D02*
X211769438Y-106565744D01*
X211769438Y-106565744D02*
X211817057Y-106518125D01*
X211817057Y-106518125D02*
X211912295Y-106470506D01*
X211912295Y-106470506D02*
X212102771Y-106422887D01*
X212102771Y-106422887D02*
X212340866Y-106422887D01*
X212340866Y-106422887D02*
X212531342Y-106470506D01*
X212531342Y-106470506D02*
X212626580Y-106518125D01*
X212626580Y-106518125D02*
X212674200Y-106565744D01*
X212674200Y-106565744D02*
X212721819Y-106660982D01*
X212721819Y-106660982D02*
X212721819Y-106756220D01*
X212721819Y-106756220D02*
X212674200Y-106851458D01*
X212674200Y-106851458D02*
X212626580Y-106899077D01*
X212626580Y-106899077D02*
X212531342Y-106946696D01*
X212531342Y-106946696D02*
X212340866Y-106994315D01*
X212340866Y-106994315D02*
X212102771Y-106994315D01*
X212102771Y-106994315D02*
X211912295Y-106946696D01*
X211912295Y-106946696D02*
X211817057Y-106899077D01*
X211817057Y-106899077D02*
X211769438Y-106851458D01*
X211769438Y-106851458D02*
X211721819Y-106756220D01*
X209181819Y-108978458D02*
X209181819Y-108359411D01*
X209181819Y-108359411D02*
X209562771Y-108692744D01*
X209562771Y-108692744D02*
X209562771Y-108549887D01*
X209562771Y-108549887D02*
X209610390Y-108454649D01*
X209610390Y-108454649D02*
X209658009Y-108407030D01*
X209658009Y-108407030D02*
X209753247Y-108359411D01*
X209753247Y-108359411D02*
X209991342Y-108359411D01*
X209991342Y-108359411D02*
X210086580Y-108407030D01*
X210086580Y-108407030D02*
X210134200Y-108454649D01*
X210134200Y-108454649D02*
X210181819Y-108549887D01*
X210181819Y-108549887D02*
X210181819Y-108835601D01*
X210181819Y-108835601D02*
X210134200Y-108930839D01*
X210134200Y-108930839D02*
X210086580Y-108978458D01*
X209181819Y-108073696D02*
X210181819Y-107740363D01*
X210181819Y-107740363D02*
X209181819Y-107407030D01*
X209181819Y-107168934D02*
X209181819Y-106549887D01*
X209181819Y-106549887D02*
X209562771Y-106883220D01*
X209562771Y-106883220D02*
X209562771Y-106740363D01*
X209562771Y-106740363D02*
X209610390Y-106645125D01*
X209610390Y-106645125D02*
X209658009Y-106597506D01*
X209658009Y-106597506D02*
X209753247Y-106549887D01*
X209753247Y-106549887D02*
X209991342Y-106549887D01*
X209991342Y-106549887D02*
X210086580Y-106597506D01*
X210086580Y-106597506D02*
X210134200Y-106645125D01*
X210134200Y-106645125D02*
X210181819Y-106740363D01*
X210181819Y-106740363D02*
X210181819Y-107026077D01*
X210181819Y-107026077D02*
X210134200Y-107121315D01*
X210134200Y-107121315D02*
X210086580Y-107168934D01*
X181860588Y-107369819D02*
X181289160Y-107369819D01*
X181574874Y-107369819D02*
X181574874Y-106369819D01*
X181574874Y-106369819D02*
X181479636Y-106512676D01*
X181479636Y-106512676D02*
X181384398Y-106607914D01*
X181384398Y-106607914D02*
X181289160Y-106655533D01*
X182289160Y-107369819D02*
X182289160Y-106369819D01*
X182289160Y-106369819D02*
X182670112Y-106369819D01*
X182670112Y-106369819D02*
X182765350Y-106417438D01*
X182765350Y-106417438D02*
X182812969Y-106465057D01*
X182812969Y-106465057D02*
X182860588Y-106560295D01*
X182860588Y-106560295D02*
X182860588Y-106703152D01*
X182860588Y-106703152D02*
X182812969Y-106798390D01*
X182812969Y-106798390D02*
X182765350Y-106846009D01*
X182765350Y-106846009D02*
X182670112Y-106893628D01*
X182670112Y-106893628D02*
X182289160Y-106893628D01*
X185011251Y-88688148D02*
X185112266Y-88115728D01*
X184607190Y-88284087D02*
X185314297Y-87576980D01*
X185314297Y-87576980D02*
X185583671Y-87846354D01*
X185583671Y-87846354D02*
X185617343Y-87947369D01*
X185617343Y-87947369D02*
X185617343Y-88014713D01*
X185617343Y-88014713D02*
X185583671Y-88115728D01*
X185583671Y-88115728D02*
X185482656Y-88216743D01*
X185482656Y-88216743D02*
X185381641Y-88250415D01*
X185381641Y-88250415D02*
X185314297Y-88250415D01*
X185314297Y-88250415D02*
X185213282Y-88216743D01*
X185213282Y-88216743D02*
X184943908Y-87947369D01*
X185920389Y-88183071D02*
X186324450Y-88587132D01*
X185415312Y-89092209D02*
X186122419Y-88385102D01*
X186324450Y-89866659D02*
X186257106Y-89866659D01*
X186257106Y-89866659D02*
X186122419Y-89799316D01*
X186122419Y-89799316D02*
X186055076Y-89731972D01*
X186055076Y-89731972D02*
X185987732Y-89597285D01*
X185987732Y-89597285D02*
X185987732Y-89462598D01*
X185987732Y-89462598D02*
X186021404Y-89361583D01*
X186021404Y-89361583D02*
X186122419Y-89193224D01*
X186122419Y-89193224D02*
X186223434Y-89092209D01*
X186223434Y-89092209D02*
X186391793Y-88991193D01*
X186391793Y-88991193D02*
X186492808Y-88957522D01*
X186492808Y-88957522D02*
X186627495Y-88957522D01*
X186627495Y-88957522D02*
X186762182Y-89024865D01*
X186762182Y-89024865D02*
X186829526Y-89092209D01*
X186829526Y-89092209D02*
X186896869Y-89226896D01*
X186896869Y-89226896D02*
X186896869Y-89294239D01*
X186560152Y-90237048D02*
X187267259Y-89529942D01*
X187267259Y-89529942D02*
X186997885Y-90270720D01*
X186997885Y-90270720D02*
X187738663Y-90001346D01*
X187738663Y-90001346D02*
X187031556Y-90708453D01*
X181908207Y-113369819D02*
X181574874Y-112893628D01*
X181336779Y-113369819D02*
X181336779Y-112369819D01*
X181336779Y-112369819D02*
X181717731Y-112369819D01*
X181717731Y-112369819D02*
X181812969Y-112417438D01*
X181812969Y-112417438D02*
X181860588Y-112465057D01*
X181860588Y-112465057D02*
X181908207Y-112560295D01*
X181908207Y-112560295D02*
X181908207Y-112703152D01*
X181908207Y-112703152D02*
X181860588Y-112798390D01*
X181860588Y-112798390D02*
X181812969Y-112846009D01*
X181812969Y-112846009D02*
X181717731Y-112893628D01*
X181717731Y-112893628D02*
X181336779Y-112893628D01*
X182336779Y-113369819D02*
X182336779Y-112369819D01*
X182336779Y-112369819D02*
X182670112Y-113084104D01*
X182670112Y-113084104D02*
X183003445Y-112369819D01*
X183003445Y-112369819D02*
X183003445Y-113369819D01*
X169954819Y-78833333D02*
X170669104Y-78833333D01*
X170669104Y-78833333D02*
X170811961Y-78880952D01*
X170811961Y-78880952D02*
X170907200Y-78976190D01*
X170907200Y-78976190D02*
X170954819Y-79119047D01*
X170954819Y-79119047D02*
X170954819Y-79214285D01*
X170288152Y-77928571D02*
X170954819Y-77928571D01*
X169907200Y-78166666D02*
X170621485Y-78404761D01*
X170621485Y-78404761D02*
X170621485Y-77785714D01*
X164716666Y-108954819D02*
X164716666Y-109669104D01*
X164716666Y-109669104D02*
X164669047Y-109811961D01*
X164669047Y-109811961D02*
X164573809Y-109907200D01*
X164573809Y-109907200D02*
X164430952Y-109954819D01*
X164430952Y-109954819D02*
X164335714Y-109954819D01*
X165097619Y-108954819D02*
X165716666Y-108954819D01*
X165716666Y-108954819D02*
X165383333Y-109335771D01*
X165383333Y-109335771D02*
X165526190Y-109335771D01*
X165526190Y-109335771D02*
X165621428Y-109383390D01*
X165621428Y-109383390D02*
X165669047Y-109431009D01*
X165669047Y-109431009D02*
X165716666Y-109526247D01*
X165716666Y-109526247D02*
X165716666Y-109764342D01*
X165716666Y-109764342D02*
X165669047Y-109859580D01*
X165669047Y-109859580D02*
X165621428Y-109907200D01*
X165621428Y-109907200D02*
X165526190Y-109954819D01*
X165526190Y-109954819D02*
X165240476Y-109954819D01*
X165240476Y-109954819D02*
X165145238Y-109907200D01*
X165145238Y-109907200D02*
X165097619Y-109859580D01*
X214068819Y-115208333D02*
X214783104Y-115208333D01*
X214783104Y-115208333D02*
X214925961Y-115255952D01*
X214925961Y-115255952D02*
X215021200Y-115351190D01*
X215021200Y-115351190D02*
X215068819Y-115494047D01*
X215068819Y-115494047D02*
X215068819Y-115589285D01*
X214068819Y-114255952D02*
X214068819Y-114732142D01*
X214068819Y-114732142D02*
X214545009Y-114779761D01*
X214545009Y-114779761D02*
X214497390Y-114732142D01*
X214497390Y-114732142D02*
X214449771Y-114636904D01*
X214449771Y-114636904D02*
X214449771Y-114398809D01*
X214449771Y-114398809D02*
X214497390Y-114303571D01*
X214497390Y-114303571D02*
X214545009Y-114255952D01*
X214545009Y-114255952D02*
X214640247Y-114208333D01*
X214640247Y-114208333D02*
X214878342Y-114208333D01*
X214878342Y-114208333D02*
X214973580Y-114255952D01*
X214973580Y-114255952D02*
X215021200Y-114303571D01*
X215021200Y-114303571D02*
X215068819Y-114398809D01*
X215068819Y-114398809D02*
X215068819Y-114636904D01*
X215068819Y-114636904D02*
X215021200Y-114732142D01*
X215021200Y-114732142D02*
X214973580Y-114779761D01*
X176831666Y-104864819D02*
X176831666Y-105579104D01*
X176831666Y-105579104D02*
X176784047Y-105721961D01*
X176784047Y-105721961D02*
X176688809Y-105817200D01*
X176688809Y-105817200D02*
X176545952Y-105864819D01*
X176545952Y-105864819D02*
X176450714Y-105864819D01*
X177831666Y-105864819D02*
X177260238Y-105864819D01*
X177545952Y-105864819D02*
X177545952Y-104864819D01*
X177545952Y-104864819D02*
X177450714Y-105007676D01*
X177450714Y-105007676D02*
X177355476Y-105102914D01*
X177355476Y-105102914D02*
X177260238Y-105150533D01*
X200406095Y-88989819D02*
X200406095Y-89799342D01*
X200406095Y-89799342D02*
X200453714Y-89894580D01*
X200453714Y-89894580D02*
X200501333Y-89942200D01*
X200501333Y-89942200D02*
X200596571Y-89989819D01*
X200596571Y-89989819D02*
X200787047Y-89989819D01*
X200787047Y-89989819D02*
X200882285Y-89942200D01*
X200882285Y-89942200D02*
X200929904Y-89894580D01*
X200929904Y-89894580D02*
X200977523Y-89799342D01*
X200977523Y-89799342D02*
X200977523Y-88989819D01*
X201358476Y-88989819D02*
X201977523Y-88989819D01*
X201977523Y-88989819D02*
X201644190Y-89370771D01*
X201644190Y-89370771D02*
X201787047Y-89370771D01*
X201787047Y-89370771D02*
X201882285Y-89418390D01*
X201882285Y-89418390D02*
X201929904Y-89466009D01*
X201929904Y-89466009D02*
X201977523Y-89561247D01*
X201977523Y-89561247D02*
X201977523Y-89799342D01*
X201977523Y-89799342D02*
X201929904Y-89894580D01*
X201929904Y-89894580D02*
X201882285Y-89942200D01*
X201882285Y-89942200D02*
X201787047Y-89989819D01*
X201787047Y-89989819D02*
X201501333Y-89989819D01*
X201501333Y-89989819D02*
X201406095Y-89942200D01*
X201406095Y-89942200D02*
X201358476Y-89894580D01*
D12*
%TO.C,J4*%
X172230000Y-82270000D02*
X172230000Y-81000000D01*
X173500000Y-82270000D02*
X172230000Y-82270000D01*
X175660000Y-79957071D02*
X175660000Y-79560000D01*
X176420000Y-79957071D02*
X176420000Y-79560000D01*
X178200000Y-79957071D02*
X178200000Y-79560000D01*
X178960000Y-79957071D02*
X178960000Y-79560000D01*
X180740000Y-79957071D02*
X180740000Y-79560000D01*
X181500000Y-79957071D02*
X181500000Y-79560000D01*
X173120000Y-79890000D02*
X173120000Y-79560000D01*
X173880000Y-79890000D02*
X173880000Y-79560000D01*
X172170000Y-79560000D02*
X182450000Y-79560000D01*
X174770000Y-79560000D02*
X174770000Y-76900000D01*
X177310000Y-79560000D02*
X177310000Y-76900000D01*
X179850000Y-79560000D02*
X179850000Y-76900000D01*
X182450000Y-79560000D02*
X182450000Y-76900000D01*
X172170000Y-76900000D02*
X172170000Y-79560000D01*
X173120000Y-76900000D02*
X173120000Y-70900000D01*
X173180000Y-76900000D02*
X173180000Y-70900000D01*
X173300000Y-76900000D02*
X173300000Y-70900000D01*
X173420000Y-76900000D02*
X173420000Y-70900000D01*
X173540000Y-76900000D02*
X173540000Y-70900000D01*
X173660000Y-76900000D02*
X173660000Y-70900000D01*
X173780000Y-76900000D02*
X173780000Y-70900000D01*
X175660000Y-76900000D02*
X175660000Y-70900000D01*
X178200000Y-76900000D02*
X178200000Y-70900000D01*
X180740000Y-76900000D02*
X180740000Y-70900000D01*
X182450000Y-76900000D02*
X172170000Y-76900000D01*
X173120000Y-70900000D02*
X173880000Y-70900000D01*
X173880000Y-70900000D02*
X173880000Y-76900000D01*
X175660000Y-70900000D02*
X176420000Y-70900000D01*
X176420000Y-70900000D02*
X176420000Y-76900000D01*
X178200000Y-70900000D02*
X178960000Y-70900000D01*
X178960000Y-70900000D02*
X178960000Y-76900000D01*
X180740000Y-70900000D02*
X181500000Y-70900000D01*
X181500000Y-70900000D02*
X181500000Y-76900000D01*
%TO.C,J3*%
X166050000Y-112485000D02*
X166620000Y-112485000D01*
X166050000Y-112485000D02*
X166050000Y-109825000D01*
X166620000Y-112485000D02*
X166620000Y-114005000D01*
X168140000Y-112485000D02*
X171700000Y-112485000D01*
X173220000Y-112485000D02*
X176780000Y-112485000D01*
X178870000Y-112485000D02*
X178870000Y-109825000D01*
X166050000Y-109825000D02*
X169160000Y-109825000D01*
X170680000Y-109825000D02*
X174240000Y-109825000D01*
X175760000Y-109825000D02*
X178870000Y-109825000D01*
X178300000Y-109825000D02*
X178870000Y-109825000D01*
%TO.C,J5*%
X203394000Y-111930000D02*
X203394000Y-114590000D01*
X203394000Y-114590000D02*
X213674000Y-114590000D01*
X204344000Y-111532929D02*
X204344000Y-111930000D01*
X204344000Y-120590000D02*
X204344000Y-114590000D01*
X205104000Y-111532929D02*
X205104000Y-111930000D01*
X205104000Y-114590000D02*
X205104000Y-120590000D01*
X205104000Y-120590000D02*
X204344000Y-120590000D01*
X205994000Y-111930000D02*
X205994000Y-114590000D01*
X206884000Y-111532929D02*
X206884000Y-111930000D01*
X206884000Y-120590000D02*
X206884000Y-114590000D01*
X207644000Y-111532929D02*
X207644000Y-111930000D01*
X207644000Y-114590000D02*
X207644000Y-120590000D01*
X207644000Y-120590000D02*
X206884000Y-120590000D01*
X208534000Y-111930000D02*
X208534000Y-114590000D01*
X209424000Y-111532929D02*
X209424000Y-111930000D01*
X209424000Y-120590000D02*
X209424000Y-114590000D01*
X210184000Y-111532929D02*
X210184000Y-111930000D01*
X210184000Y-114590000D02*
X210184000Y-120590000D01*
X210184000Y-120590000D02*
X209424000Y-120590000D01*
X211074000Y-111930000D02*
X211074000Y-114590000D01*
X211964000Y-111600000D02*
X211964000Y-111930000D01*
X211964000Y-120590000D02*
X211964000Y-114590000D01*
X212064000Y-114590000D02*
X212064000Y-120590000D01*
X212184000Y-114590000D02*
X212184000Y-120590000D01*
X212304000Y-114590000D02*
X212304000Y-120590000D01*
X212344000Y-109220000D02*
X213614000Y-109220000D01*
X212424000Y-114590000D02*
X212424000Y-120590000D01*
X212544000Y-114590000D02*
X212544000Y-120590000D01*
X212664000Y-114590000D02*
X212664000Y-120590000D01*
X212724000Y-111600000D02*
X212724000Y-111930000D01*
X212724000Y-114590000D02*
X212724000Y-120590000D01*
X212724000Y-120590000D02*
X211964000Y-120590000D01*
X213614000Y-109220000D02*
X213614000Y-110490000D01*
X213674000Y-111930000D02*
X203394000Y-111930000D01*
X213674000Y-114590000D02*
X213674000Y-111930000D01*
%TO.C,J1*%
X171405000Y-99480000D02*
X171405000Y-102140000D01*
X171465000Y-99480000D02*
X171405000Y-99480000D01*
X171465000Y-102140000D02*
X171405000Y-102140000D01*
X177815000Y-102140000D02*
X177815000Y-103600000D01*
X177875000Y-99480000D02*
X177815000Y-99480000D01*
X177875000Y-99480000D02*
X177875000Y-102140000D01*
X177875000Y-102140000D02*
X177815000Y-102140000D01*
%TO.C,U3*%
X183659000Y-114376000D02*
X183659000Y-90876000D01*
X186369000Y-111616000D02*
X183709000Y-111616000D01*
X186369000Y-113036000D02*
X186369000Y-114366000D01*
X186369000Y-114366000D02*
X185039000Y-114366000D01*
X198949000Y-114366000D02*
X201659000Y-114366000D01*
X201659000Y-90876000D02*
X183659000Y-90876000D01*
X201659000Y-114366000D02*
X201659000Y-90876000D01*
%TD*%
M02*
