M48
; DRILL file {KiCad 8.0.2-8.0.2-0~ubuntu22.04.1} date 2024-05-04T18:31:56-0700
; FORMAT={-:-/ absolute / inch / decimal}
; #@! TF.CreationDate,2024-05-04T18:31:56-07:00
; #@! TF.GenerationSoftware,Kicad,Pcbnew,8.0.2-8.0.2-0~ubuntu22.04.1
; #@! TF.FileFunction,Plated,1,2,PTH
FMAT,2
INCH
; #@! TA.AperFunction,Plated,PTH,ViaDrill
T1C0.0157
; #@! TA.AperFunction,Plated,PTH,ComponentDrill
T2C0.0394
; #@! TA.AperFunction,Plated,PTH,ComponentDrill
T3C0.1063
%
G90
G05
T1
X6.775Y-3.96
X6.775Y-4.3
X6.82Y-4.3
X6.825Y-3.96
X6.875Y-3.96
X6.875Y-4.3
X6.88Y-4.435
X6.925Y-3.96
X6.925Y-4.3
X6.975Y-3.96
X7.015Y-4.04
X7.07Y-4.265
X7.0741Y-3.9609
X7.15Y-4.265
X7.4Y-3.98
X7.555Y-4.13
X7.555Y-4.46
X7.585Y-3.98
T2
X7.285Y-3.64
X7.285Y-3.74
X7.285Y-3.84
X7.285Y-3.94
X7.285Y-4.04
X7.285Y-4.14
X7.285Y-4.24
X7.285Y-4.34
X7.285Y-4.44
X7.385Y-3.64
X7.485Y-3.64
X7.585Y-3.64
X7.685Y-3.64
X7.785Y-3.64
X7.885Y-3.64
X7.885Y-3.74
X7.885Y-3.84
X7.885Y-3.94
X7.885Y-4.04
X7.885Y-4.14
X7.885Y-4.24
X7.885Y-4.34
X7.885Y-4.44
X8.06Y-4.35
X8.16Y-4.35
X8.26Y-4.35
X8.36Y-4.35
T3
X6.4134Y-2.752
X6.4134Y-3.0669
X6.4134Y-4.0984
X6.4134Y-4.4134
X8.5472Y-2.752
X8.5472Y-3.0669
X8.5472Y-4.0984
X8.5472Y-4.4134
M30
