%TF.GenerationSoftware,KiCad,Pcbnew,8.0.1*%
%TF.CreationDate,2024-05-04T23:45:59-07:00*%
%TF.ProjectId,gps_interposer,6770735f-696e-4746-9572-706f7365722e,rev?*%
%TF.SameCoordinates,Original*%
%TF.FileFunction,Copper,L1,Top*%
%TF.FilePolarity,Positive*%
%FSLAX46Y46*%
G04 Gerber Fmt 4.6, Leading zero omitted, Abs format (unit mm)*
G04 Created by KiCad (PCBNEW 8.0.1) date 2024-05-04 23:45:59*
%MOMM*%
%LPD*%
G01*
G04 APERTURE LIST*
%TA.AperFunction,ComponentPad*%
%ADD10R,1.700000X1.700000*%
%TD*%
%TA.AperFunction,ComponentPad*%
%ADD11O,1.700000X1.700000*%
%TD*%
%TA.AperFunction,SMDPad,CuDef*%
%ADD12R,1.000000X2.510000*%
%TD*%
%TA.AperFunction,ConnectorPad*%
%ADD13C,3.900000*%
%TD*%
%TA.AperFunction,ComponentPad*%
%ADD14C,4.100000*%
%TD*%
%TA.AperFunction,SMDPad,CuDef*%
%ADD15R,0.750000X2.100000*%
%TD*%
%TA.AperFunction,ViaPad*%
%ADD16C,0.800000*%
%TD*%
%TA.AperFunction,Conductor*%
%ADD17C,0.250000*%
%TD*%
G04 APERTURE END LIST*
D10*
%TO.P,J4,1,Pin_1*%
%TO.N,+3.3V*%
X173500000Y-81000000D03*
D11*
%TO.P,J4,2,Pin_2*%
%TO.N,/VSYS*%
X176040000Y-81000000D03*
%TO.P,J4,3,Pin_3*%
%TO.N,unconnected-(J4-Pin_3-Pad3)*%
X178580000Y-81000000D03*
%TO.P,J4,4,Pin_4*%
%TO.N,GND*%
X181120000Y-81000000D03*
%TD*%
D12*
%TO.P,J3,1,Pin_1*%
%TO.N,/RXD_M*%
X167380000Y-112810000D03*
%TO.P,J3,2,Pin_2*%
%TO.N,/TXD_M*%
X169920000Y-109500000D03*
%TO.P,J3,3,Pin_3*%
%TO.N,/TXD_C*%
X172460000Y-112810000D03*
%TO.P,J3,4,Pin_4*%
%TO.N,/1PPS_C*%
X175000000Y-109500000D03*
%TO.P,J3,5,Pin_5*%
%TO.N,GND*%
X177540000Y-112810000D03*
%TD*%
D13*
%TO.P,H6,1,1*%
%TO.N,GND*%
X217100000Y-104100000D03*
D14*
X217100000Y-104100000D03*
%TD*%
D13*
%TO.P,H2,1,1*%
%TO.N,GND*%
X217100000Y-112100000D03*
D14*
X217100000Y-112100000D03*
%TD*%
D10*
%TO.P,J5,1,Pin_1*%
%TO.N,+3V0*%
X212344000Y-110490000D03*
D11*
%TO.P,J5,2,Pin_2*%
%TO.N,+3.3V*%
X209804000Y-110490000D03*
%TO.P,J5,3,Pin_3*%
%TO.N,/VSYS*%
X207264000Y-110490000D03*
%TO.P,J5,4,Pin_4*%
%TO.N,GND*%
X204724000Y-110490000D03*
%TD*%
D13*
%TO.P,H7,1,1*%
%TO.N,GND*%
X162900000Y-104100000D03*
D14*
X162900000Y-104100000D03*
%TD*%
D13*
%TO.P,H4,1,1*%
%TO.N,GND*%
X162900000Y-77900000D03*
D14*
X162900000Y-77900000D03*
%TD*%
D13*
%TO.P,H1,1,1*%
%TO.N,GND*%
X217100000Y-77900000D03*
D14*
X217100000Y-77900000D03*
%TD*%
D13*
%TO.P,H5,1,1*%
%TO.N,GND*%
X217100000Y-69900000D03*
D14*
X217100000Y-69900000D03*
%TD*%
D15*
%TO.P,J1,1,Pin_1*%
%TO.N,/TXD_M*%
X177180000Y-102610000D03*
%TO.P,J1,2,Pin_2*%
%TO.N,/RXD_M*%
X177180000Y-99010000D03*
%TO.P,J1,3,Pin_3*%
%TO.N,+3V0*%
X175910000Y-102610000D03*
%TO.P,J1,4,Pin_4*%
%TO.N,/1PPS_C*%
X175910000Y-99010000D03*
%TO.P,J1,5,Pin_5*%
%TO.N,GND*%
X174640000Y-102610000D03*
%TO.P,J1,6,Pin_6*%
%TO.N,/BATT_C*%
X174640000Y-99010000D03*
%TO.P,J1,7,Pin_7*%
%TO.N,/RSVD7_C*%
X173370000Y-102610000D03*
%TO.P,J1,8,Pin_8*%
%TO.N,/RTCM_IN_C*%
X173370000Y-99010000D03*
%TO.P,J1,9,Pin_9*%
%TO.N,/ANT_BIAS_C*%
X172100000Y-102610000D03*
%TO.P,J1,10,Pin_10*%
%TO.N,/RSVD10_C*%
X172100000Y-99010000D03*
%TD*%
D10*
%TO.P,U3,1,GPIO0/SPI0_RX/I2C0_SDA/UART0_TX*%
%TO.N,Net-(U3-GPIO0{slash}SPI0_RX{slash}I2C0_SDA{slash}UART0_TX)*%
X185039000Y-112776000D03*
D11*
%TO.P,U3,2,GPIO1/SPI0_CSn/I2C0_SCL/UART0_RX*%
%TO.N,Net-(U3-GPIO1{slash}SPI0_CSn{slash}I2C0_SCL{slash}UART0_RX)*%
X185039000Y-110236000D03*
%TO.P,U3,3,GPIO2/SPI0_SCLK/I2C1_SDA*%
%TO.N,/1PPS_M_3V3*%
X185039000Y-107696000D03*
%TO.P,U3,4,GPIO3/SPI0_TX/I2C1_SCLK*%
%TO.N,unconnected-(U3-GPIO3{slash}SPI0_TX{slash}I2C1_SCLK-Pad4)*%
X185039000Y-105156000D03*
%TO.P,U3,5,GPIO4/SPI0_RX_I2C0_SDA/UART1_TX*%
%TO.N,Net-(U3-GPIO4{slash}SPI0_RX_I2C0_SDA{slash}UART1_TX)*%
X185039000Y-102616000D03*
%TO.P,U3,6,GPIO5/SPI0_CSn/I2C0_SCL/UART1_RX*%
%TO.N,Net-(U3-GPIO5{slash}SPI0_CSn{slash}I2C0_SCL{slash}UART1_RX)*%
X185039000Y-100076000D03*
%TO.P,U3,7,GPIO6/SPI0_SCK/I2C1_SDA*%
%TO.N,unconnected-(U3-GPIO6{slash}SPI0_SCK{slash}I2C1_SDA-Pad7)*%
X185039000Y-97536000D03*
%TO.P,U3,8,GPIO7/SPI0_TX/I2C1_SCL*%
%TO.N,unconnected-(U3-GPIO7{slash}SPI0_TX{slash}I2C1_SCL-Pad8)*%
X185039000Y-94996000D03*
%TO.P,U3,9,GPIO8/SPI1_RX/I2C0_SDA/UART1_TX*%
%TO.N,unconnected-(U3-GPIO8{slash}SPI1_RX{slash}I2C0_SDA{slash}UART1_TX-Pad9)*%
X185039000Y-92456000D03*
%TO.P,U3,10,GPIO9/SPI1_CSn/I2C0_SCL/UART1_RX*%
%TO.N,/RTCM_IN_C*%
X187579000Y-92456000D03*
%TO.P,U3,11,GPIO10/SPI1_SCK/I2C1_SDA*%
%TO.N,unconnected-(U3-GPIO10{slash}SPI1_SCK{slash}I2C1_SDA-Pad11)*%
X190119000Y-92456000D03*
%TO.P,U3,12,GPIO11/SPI1_TX/I2C1_SCL*%
%TO.N,unconnected-(U3-GPIO11{slash}SPI1_TX{slash}I2C1_SCL-Pad12)*%
X192659000Y-92456000D03*
%TO.P,U3,13,GPIO12/SPI1_RX/I1C0_SDA/UART0_TX*%
%TO.N,unconnected-(U3-GPIO12{slash}SPI1_RX{slash}I1C0_SDA{slash}UART0_TX-Pad13)*%
X195199000Y-92456000D03*
%TO.P,U3,14,GPIO13/SPI1_CSN/I2C0/SCL/UART0_RX*%
%TO.N,unconnected-(U3-GPIO13{slash}SPI1_CSN{slash}I2C0{slash}SCL{slash}UART0_RX-Pad14)*%
X197739000Y-92456000D03*
%TO.P,U3,15,GPIO14/SPI1_SCK/I2C1_SDA*%
%TO.N,unconnected-(U3-GPIO14{slash}SPI1_SCK{slash}I2C1_SDA-Pad15)*%
X200279000Y-92456000D03*
%TO.P,U3,16,GPIO15/SPI1_TX/I2C1_SCL*%
%TO.N,unconnected-(U3-GPIO15{slash}SPI1_TX{slash}I2C1_SCL-Pad16)*%
X200279000Y-94996000D03*
%TO.P,U3,17,GPIO26/ADC0/I2C1_SDA*%
%TO.N,unconnected-(U3-GPIO26{slash}ADC0{slash}I2C1_SDA-Pad17)*%
X200279000Y-97536000D03*
%TO.P,U3,18,GPIO27/ADC1/I2C1_SCL*%
%TO.N,unconnected-(U3-GPIO27{slash}ADC1{slash}I2C1_SCL-Pad18)*%
X200279000Y-100076000D03*
%TO.P,U3,19,GPIO28/ADC2*%
%TO.N,unconnected-(U3-GPIO28{slash}ADC2-Pad19)*%
X200279000Y-102616000D03*
%TO.P,U3,20,GPIO29/ADC3*%
%TO.N,unconnected-(U3-GPIO29{slash}ADC3-Pad20)*%
X200279000Y-105156000D03*
%TO.P,U3,21,3V3*%
%TO.N,+3.3V*%
X200279000Y-107696000D03*
%TO.P,U3,22,GND*%
%TO.N,GND*%
X200279000Y-110236000D03*
%TO.P,U3,23,VSYS*%
%TO.N,/VSYS*%
X200279000Y-112776000D03*
%TD*%
D13*
%TO.P,H8,1,1*%
%TO.N,GND*%
X162900000Y-69900000D03*
D14*
X162900000Y-69900000D03*
%TD*%
D13*
%TO.P,H3,1,1*%
%TO.N,GND*%
X162900000Y-112100000D03*
D14*
X162900000Y-112100000D03*
%TD*%
D16*
%TO.N,GND*%
X171000000Y-112500000D03*
%TO.N,/RXD_M*%
X187500000Y-113359000D03*
%TO.N,/ANT_BIAS_C*%
X171899992Y-109000000D03*
%TO.N,/RSVD7_C*%
X172899995Y-109000000D03*
%TO.N,+3V0*%
X173899998Y-109000000D03*
%TO.N,/1PPS_C*%
X175881240Y-108500000D03*
%TO.N,/TXD_C*%
X177220000Y-110850000D03*
%TO.N,GND*%
X175000000Y-112500000D03*
%TO.N,/RXD_M*%
X177165000Y-100584000D03*
%TO.N,GND*%
X191897000Y-113284000D03*
X192659000Y-101092000D03*
X191897000Y-104902000D03*
%TO.N,/TXD_M*%
X178181000Y-102616000D03*
%TO.N,/1PPS_C*%
X175910000Y-99010000D03*
%TO.N,/RTCM_IN_C*%
X173370000Y-99010000D03*
%TO.N,/RXD_C*%
X179681508Y-100607492D03*
X179578000Y-108331000D03*
%TO.N,/RSVD10_C*%
X172100000Y-99010000D03*
%TO.N,/BATT_C*%
X174640000Y-99010000D03*
%TO.N,/TXD_C*%
X187960000Y-101092000D03*
X181610000Y-108331000D03*
%TD*%
D17*
%TO.N,GND*%
X181120000Y-81000000D02*
X178020000Y-77900000D01*
X178020000Y-77900000D02*
X162900000Y-77900000D01*
%TO.N,/1PPS_C*%
X175000000Y-109500000D02*
X175000000Y-109381240D01*
X175000000Y-109381240D02*
X175881240Y-108500000D01*
X175335720Y-109500000D02*
X175000000Y-109500000D01*
%TO.N,/TXD_C*%
X175225000Y-111775000D02*
X176150000Y-110850000D01*
X176150000Y-110850000D02*
X177220000Y-110850000D01*
X173495000Y-111775000D02*
X172460000Y-112810000D01*
X175225000Y-111775000D02*
X173495000Y-111775000D01*
%TO.N,GND*%
X174640000Y-102610000D02*
X174640000Y-101805000D01*
X174640000Y-101805000D02*
X173620000Y-100785000D01*
X173620000Y-100785000D02*
X171850000Y-100785000D01*
X171850000Y-100785000D02*
X171000000Y-101635000D01*
X171000000Y-101635000D02*
X171000000Y-112500000D01*
%TO.N,/1PPS_C*%
X175910000Y-99010000D02*
X175895000Y-99025000D01*
%TO.N,/BATT_C*%
X174640000Y-99010000D02*
X174625000Y-99025000D01*
%TO.N,/RTCM_IN_C*%
X173370000Y-99010000D02*
X173355000Y-99025000D01*
%TO.N,/RSVD10_C*%
X172100000Y-99010000D02*
X172085000Y-99025000D01*
%TO.N,GND*%
X162900000Y-77900000D02*
X164300000Y-76500000D01*
X217100000Y-104100000D02*
X217100000Y-112100000D01*
X217100000Y-77900000D02*
X217100000Y-104100000D01*
X217100000Y-69900000D02*
X217100000Y-77900000D01*
X162900000Y-77900000D02*
X162900000Y-104100000D01*
X162900000Y-69900000D02*
X162900000Y-77900000D01*
X171000000Y-112500000D02*
X170515000Y-112500000D01*
X170515000Y-112500000D02*
X166878000Y-108863000D01*
X166878000Y-108863000D02*
X166878000Y-108088000D01*
%TO.N,/RXD_M*%
X187500000Y-113359000D02*
X186359000Y-114500000D01*
X186359000Y-114500000D02*
X169070000Y-114500000D01*
X169070000Y-114500000D02*
X167380000Y-112810000D01*
%TO.N,/TXD_M*%
X169920000Y-97080000D02*
X170500000Y-96500000D01*
X170500000Y-96500000D02*
X176745000Y-96500000D01*
X169920000Y-109500000D02*
X169920000Y-97080000D01*
X178181000Y-97936000D02*
X178181000Y-102616000D01*
X176745000Y-96500000D02*
X178181000Y-97936000D01*
%TO.N,/ANT_BIAS_C*%
X171899992Y-109000000D02*
X172100000Y-108799992D01*
X172100000Y-108799992D02*
X172100000Y-102610000D01*
%TO.N,/RSVD7_C*%
X172899995Y-108100005D02*
X173500000Y-107500000D01*
X172899995Y-109000000D02*
X172899995Y-108100005D01*
X173500000Y-106500000D02*
X173370000Y-106370000D01*
X173370000Y-106370000D02*
X173370000Y-102610000D01*
X173500000Y-107500000D02*
X173500000Y-106500000D01*
%TO.N,+3V0*%
X175910000Y-102610000D02*
X175910000Y-106185000D01*
X175910000Y-106185000D02*
X173899998Y-108195002D01*
X173899998Y-108195002D02*
X173899998Y-109000000D01*
%TO.N,GND*%
X175000000Y-112500000D02*
X175310000Y-112810000D01*
X175310000Y-112810000D02*
X177540000Y-112810000D01*
%TO.N,/RXD_M*%
X177165000Y-99025000D02*
X177180000Y-99010000D01*
X177165000Y-100584000D02*
X177165000Y-99025000D01*
%TO.N,GND*%
X195707000Y-105664000D02*
X195707000Y-101346000D01*
X205486000Y-108077000D02*
X204597000Y-108077000D01*
X195707000Y-105664000D02*
X194945000Y-104902000D01*
X211303000Y-108102000D02*
X211278000Y-108077000D01*
X195707000Y-110236000D02*
X192659000Y-113284000D01*
X202438000Y-108077000D02*
X200279000Y-110236000D01*
X213155000Y-108155000D02*
X217100000Y-112100000D01*
X200279000Y-110236000D02*
X195707000Y-110236000D01*
X211278000Y-108077000D02*
X205486000Y-108077000D01*
X192659000Y-113284000D02*
X191897000Y-113284000D01*
X166878000Y-108088000D02*
X162890000Y-104100000D01*
X195453000Y-101092000D02*
X192659000Y-101092000D01*
X194945000Y-104902000D02*
X191897000Y-104902000D01*
X213102000Y-108102000D02*
X211303000Y-108102000D01*
X204597000Y-108077000D02*
X202438000Y-108077000D01*
X213155000Y-108155000D02*
X213102000Y-108102000D01*
X195707000Y-110236000D02*
X195707000Y-105664000D01*
X195707000Y-101346000D02*
X195453000Y-101092000D01*
%TO.N,/TXD_M*%
X178181000Y-102616000D02*
X177186000Y-102616000D01*
X177186000Y-102616000D02*
X177180000Y-102610000D01*
%TO.N,/1PPS_C*%
X175910000Y-99710000D02*
X175910000Y-99010000D01*
%TO.N,/RXD_C*%
X179578000Y-100711000D02*
X179681508Y-100607492D01*
X179578000Y-108331000D02*
X179578000Y-100711000D01*
%TO.N,/TXD_C*%
X187960000Y-101356701D02*
X185335701Y-103981000D01*
X184436000Y-103981000D02*
X182499000Y-105918000D01*
X182499000Y-105918000D02*
X182499000Y-107569000D01*
X181737000Y-108331000D02*
X181610000Y-108331000D01*
X182499000Y-107569000D02*
X181737000Y-108331000D01*
X187960000Y-101092000D02*
X187960000Y-101356701D01*
X185335701Y-103981000D02*
X184436000Y-103981000D01*
%TD*%
%TA.AperFunction,Conductor*%
%TO.N,GND*%
G36*
X165943039Y-67019685D02*
G01*
X165988794Y-67072489D01*
X166000000Y-67124000D01*
X166000000Y-76500000D01*
X214000000Y-76500000D01*
X214000000Y-69900005D01*
X214544958Y-69900005D01*
X214565103Y-70220221D01*
X214565104Y-70220228D01*
X214625230Y-70535417D01*
X214724382Y-70840575D01*
X214724384Y-70840580D01*
X214860998Y-71130897D01*
X214861001Y-71130903D01*
X215032921Y-71401806D01*
X215128773Y-71517671D01*
X215984728Y-70661716D01*
X216070278Y-70779466D01*
X216220534Y-70929722D01*
X216338281Y-71015270D01*
X215479175Y-71874375D01*
X215479176Y-71874377D01*
X215730928Y-72057285D01*
X215730946Y-72057297D01*
X216012116Y-72211871D01*
X216012124Y-72211875D01*
X216310444Y-72329987D01*
X216621233Y-72409784D01*
X216621242Y-72409786D01*
X216939556Y-72449999D01*
X216939570Y-72450000D01*
X217260430Y-72450000D01*
X217260443Y-72449999D01*
X217578757Y-72409786D01*
X217578766Y-72409784D01*
X217889555Y-72329987D01*
X218187875Y-72211875D01*
X218187883Y-72211871D01*
X218469053Y-72057297D01*
X218469063Y-72057290D01*
X218720822Y-71874375D01*
X218720823Y-71874375D01*
X217861718Y-71015270D01*
X217979466Y-70929722D01*
X218129722Y-70779466D01*
X218215270Y-70661717D01*
X219071225Y-71517672D01*
X219167068Y-71401819D01*
X219339002Y-71130896D01*
X219475615Y-70840580D01*
X219475617Y-70840575D01*
X219574769Y-70535417D01*
X219634895Y-70220228D01*
X219634896Y-70220221D01*
X219655042Y-69900005D01*
X219655042Y-69899994D01*
X219634896Y-69579778D01*
X219634895Y-69579771D01*
X219574769Y-69264582D01*
X219475617Y-68959424D01*
X219475615Y-68959419D01*
X219339001Y-68669102D01*
X219338998Y-68669096D01*
X219167078Y-68398193D01*
X219071224Y-68282326D01*
X218215269Y-69138281D01*
X218129722Y-69020534D01*
X217979466Y-68870278D01*
X217861716Y-68784728D01*
X218720823Y-67925623D01*
X218720822Y-67925621D01*
X218469071Y-67742714D01*
X218469053Y-67742702D01*
X218187883Y-67588128D01*
X218187875Y-67588124D01*
X217889555Y-67470012D01*
X217578766Y-67390215D01*
X217578757Y-67390213D01*
X217260443Y-67350000D01*
X216939556Y-67350000D01*
X216621242Y-67390213D01*
X216621233Y-67390215D01*
X216310444Y-67470012D01*
X216012124Y-67588124D01*
X216012116Y-67588128D01*
X215730946Y-67742702D01*
X215730928Y-67742714D01*
X215479176Y-67925622D01*
X215479175Y-67925623D01*
X216338281Y-68784729D01*
X216220534Y-68870278D01*
X216070278Y-69020534D01*
X215984729Y-69138282D01*
X215128773Y-68282326D01*
X215032924Y-68398188D01*
X214861001Y-68669096D01*
X214860998Y-68669102D01*
X214724384Y-68959419D01*
X214724382Y-68959424D01*
X214625230Y-69264582D01*
X214565104Y-69579771D01*
X214565103Y-69579778D01*
X214544958Y-69899994D01*
X214544958Y-69900005D01*
X214000000Y-69900005D01*
X214000000Y-67124000D01*
X214019685Y-67056961D01*
X214072489Y-67011206D01*
X214124000Y-67000000D01*
X219876000Y-67000000D01*
X219943039Y-67019685D01*
X219988794Y-67072489D01*
X220000000Y-67124000D01*
X220000000Y-114866000D01*
X219980315Y-114933039D01*
X219927511Y-114978794D01*
X219876000Y-114990000D01*
X187052951Y-114990000D01*
X186985912Y-114970315D01*
X186940157Y-114917511D01*
X186930213Y-114848353D01*
X186959238Y-114784797D01*
X186965270Y-114778319D01*
X187447772Y-114295819D01*
X187509095Y-114262334D01*
X187535453Y-114259500D01*
X187594644Y-114259500D01*
X187594646Y-114259500D01*
X187779803Y-114220144D01*
X187952730Y-114143151D01*
X188105871Y-114031888D01*
X188232533Y-113891216D01*
X188327179Y-113727284D01*
X188385674Y-113547256D01*
X188405460Y-113359000D01*
X188385674Y-113170744D01*
X188327179Y-112990716D01*
X188232533Y-112826784D01*
X188105871Y-112686112D01*
X188105870Y-112686111D01*
X187952734Y-112574851D01*
X187952729Y-112574848D01*
X187779807Y-112497857D01*
X187779802Y-112497855D01*
X187634001Y-112466865D01*
X187594646Y-112458500D01*
X187405354Y-112458500D01*
X187372897Y-112465398D01*
X187220197Y-112497855D01*
X187220192Y-112497857D01*
X187047270Y-112574848D01*
X187047265Y-112574851D01*
X186894129Y-112686111D01*
X186767466Y-112826785D01*
X186672821Y-112990715D01*
X186672818Y-112990722D01*
X186631430Y-113118103D01*
X186591992Y-113175779D01*
X186527634Y-113202977D01*
X186458787Y-113191062D01*
X186407312Y-113143818D01*
X186389499Y-113079785D01*
X186389499Y-111878129D01*
X186389498Y-111878123D01*
X186389497Y-111878116D01*
X186383795Y-111825063D01*
X186383091Y-111818516D01*
X186332797Y-111683671D01*
X186332793Y-111683664D01*
X186246547Y-111568455D01*
X186246544Y-111568452D01*
X186131335Y-111482206D01*
X186131328Y-111482202D01*
X185999917Y-111433189D01*
X185943983Y-111391318D01*
X185919566Y-111325853D01*
X185934418Y-111257580D01*
X185955563Y-111229332D01*
X186077495Y-111107401D01*
X186213035Y-110913830D01*
X186312903Y-110699663D01*
X186374063Y-110471408D01*
X186394659Y-110236000D01*
X186374063Y-110000592D01*
X186312903Y-109772337D01*
X186213035Y-109558171D01*
X186195072Y-109532516D01*
X186077494Y-109364597D01*
X185910402Y-109197506D01*
X185910396Y-109197501D01*
X185724842Y-109067575D01*
X185681217Y-109012998D01*
X185674023Y-108943500D01*
X185705546Y-108881145D01*
X185724842Y-108864425D01*
X185800078Y-108811744D01*
X185910401Y-108734495D01*
X186077495Y-108567401D01*
X186213035Y-108373830D01*
X186312903Y-108159663D01*
X186374063Y-107931408D01*
X186394659Y-107696000D01*
X186393251Y-107679912D01*
X186381610Y-107546851D01*
X186374063Y-107460592D01*
X186312903Y-107232337D01*
X186213035Y-107018171D01*
X186134993Y-106906714D01*
X186077494Y-106824597D01*
X185910402Y-106657506D01*
X185910396Y-106657501D01*
X185724842Y-106527575D01*
X185681217Y-106472998D01*
X185674023Y-106403500D01*
X185705546Y-106341145D01*
X185724842Y-106324425D01*
X185747026Y-106308891D01*
X185910401Y-106194495D01*
X186077495Y-106027401D01*
X186213035Y-105833830D01*
X186312903Y-105619663D01*
X186374063Y-105391408D01*
X186394659Y-105156000D01*
X186374063Y-104920592D01*
X186312903Y-104692337D01*
X186213035Y-104478171D01*
X186213034Y-104478169D01*
X186077496Y-104284599D01*
X186077163Y-104284203D01*
X186077071Y-104283993D01*
X186074390Y-104280164D01*
X186075159Y-104279625D01*
X186049151Y-104220195D01*
X186060190Y-104151203D01*
X186084469Y-104116820D01*
X188238594Y-101962695D01*
X188275833Y-101937101D01*
X188412730Y-101876151D01*
X188565871Y-101764888D01*
X188692533Y-101624216D01*
X188787179Y-101460284D01*
X188845674Y-101280256D01*
X188865460Y-101092000D01*
X188845674Y-100903744D01*
X188787179Y-100723716D01*
X188692533Y-100559784D01*
X188565871Y-100419112D01*
X188563713Y-100417544D01*
X188412734Y-100307851D01*
X188412729Y-100307848D01*
X188239807Y-100230857D01*
X188239802Y-100230855D01*
X188094001Y-100199865D01*
X188054646Y-100191500D01*
X187865354Y-100191500D01*
X187832897Y-100198398D01*
X187680197Y-100230855D01*
X187680192Y-100230857D01*
X187507270Y-100307848D01*
X187507265Y-100307851D01*
X187354129Y-100419111D01*
X187227466Y-100559785D01*
X187132821Y-100723715D01*
X187132818Y-100723722D01*
X187074327Y-100903740D01*
X187074326Y-100903744D01*
X187054540Y-101092000D01*
X187074326Y-101280256D01*
X187074327Y-101280259D01*
X187075006Y-101286719D01*
X187073267Y-101286901D01*
X187068597Y-101348019D01*
X187040309Y-101391800D01*
X186427588Y-102004521D01*
X186366265Y-102038006D01*
X186296573Y-102033022D01*
X186240640Y-101991150D01*
X186227525Y-101969245D01*
X186213035Y-101938171D01*
X186213032Y-101938167D01*
X186213032Y-101938166D01*
X186077494Y-101744597D01*
X185910402Y-101577506D01*
X185910396Y-101577501D01*
X185724842Y-101447575D01*
X185681217Y-101392998D01*
X185674023Y-101323500D01*
X185705546Y-101261145D01*
X185724842Y-101244425D01*
X185784781Y-101202455D01*
X185910401Y-101114495D01*
X186077495Y-100947401D01*
X186213035Y-100753830D01*
X186312903Y-100539663D01*
X186374063Y-100311408D01*
X186394659Y-100076000D01*
X186374063Y-99840592D01*
X186312903Y-99612337D01*
X186213035Y-99398171D01*
X186108732Y-99249209D01*
X186077494Y-99204597D01*
X185910402Y-99037506D01*
X185910396Y-99037501D01*
X185724842Y-98907575D01*
X185681217Y-98852998D01*
X185674023Y-98783500D01*
X185705546Y-98721145D01*
X185724842Y-98704425D01*
X185747026Y-98688891D01*
X185910401Y-98574495D01*
X186077495Y-98407401D01*
X186213035Y-98213830D01*
X186312903Y-97999663D01*
X186374063Y-97771408D01*
X186394659Y-97536000D01*
X186392089Y-97506631D01*
X186381925Y-97390452D01*
X186374063Y-97300592D01*
X186312903Y-97072337D01*
X186213035Y-96858171D01*
X186169703Y-96796285D01*
X186077494Y-96664597D01*
X185910402Y-96497506D01*
X185910396Y-96497501D01*
X185724842Y-96367575D01*
X185681217Y-96312998D01*
X185674023Y-96243500D01*
X185705546Y-96181145D01*
X185724842Y-96164425D01*
X185804942Y-96108338D01*
X185910401Y-96034495D01*
X186077495Y-95867401D01*
X186213035Y-95673830D01*
X186312903Y-95459663D01*
X186374063Y-95231408D01*
X186394659Y-94996000D01*
X186374063Y-94760592D01*
X186312903Y-94532337D01*
X186213035Y-94318171D01*
X186077495Y-94124599D01*
X186077494Y-94124597D01*
X185910402Y-93957506D01*
X185910396Y-93957501D01*
X185724842Y-93827575D01*
X185681217Y-93772998D01*
X185674023Y-93703500D01*
X185705546Y-93641145D01*
X185724842Y-93624425D01*
X185747026Y-93608891D01*
X185910401Y-93494495D01*
X186077495Y-93327401D01*
X186207425Y-93141842D01*
X186262002Y-93098217D01*
X186331500Y-93091023D01*
X186393855Y-93122546D01*
X186410575Y-93141842D01*
X186540500Y-93327395D01*
X186540505Y-93327401D01*
X186707599Y-93494495D01*
X186804384Y-93562265D01*
X186901165Y-93630032D01*
X186901167Y-93630033D01*
X186901170Y-93630035D01*
X187115337Y-93729903D01*
X187343592Y-93791063D01*
X187531918Y-93807539D01*
X187578999Y-93811659D01*
X187579000Y-93811659D01*
X187579001Y-93811659D01*
X187618234Y-93808226D01*
X187814408Y-93791063D01*
X188042663Y-93729903D01*
X188256830Y-93630035D01*
X188450401Y-93494495D01*
X188617495Y-93327401D01*
X188747425Y-93141842D01*
X188802002Y-93098217D01*
X188871500Y-93091023D01*
X188933855Y-93122546D01*
X188950575Y-93141842D01*
X189080500Y-93327395D01*
X189080505Y-93327401D01*
X189247599Y-93494495D01*
X189344384Y-93562265D01*
X189441165Y-93630032D01*
X189441167Y-93630033D01*
X189441170Y-93630035D01*
X189655337Y-93729903D01*
X189883592Y-93791063D01*
X190071918Y-93807539D01*
X190118999Y-93811659D01*
X190119000Y-93811659D01*
X190119001Y-93811659D01*
X190158234Y-93808226D01*
X190354408Y-93791063D01*
X190582663Y-93729903D01*
X190796830Y-93630035D01*
X190990401Y-93494495D01*
X191157495Y-93327401D01*
X191287425Y-93141842D01*
X191342002Y-93098217D01*
X191411500Y-93091023D01*
X191473855Y-93122546D01*
X191490575Y-93141842D01*
X191620500Y-93327395D01*
X191620505Y-93327401D01*
X191787599Y-93494495D01*
X191884384Y-93562265D01*
X191981165Y-93630032D01*
X191981167Y-93630033D01*
X191981170Y-93630035D01*
X192195337Y-93729903D01*
X192423592Y-93791063D01*
X192611918Y-93807539D01*
X192658999Y-93811659D01*
X192659000Y-93811659D01*
X192659001Y-93811659D01*
X192698234Y-93808226D01*
X192894408Y-93791063D01*
X193122663Y-93729903D01*
X193336830Y-93630035D01*
X193530401Y-93494495D01*
X193697495Y-93327401D01*
X193827425Y-93141842D01*
X193882002Y-93098217D01*
X193951500Y-93091023D01*
X194013855Y-93122546D01*
X194030575Y-93141842D01*
X194160500Y-93327395D01*
X194160505Y-93327401D01*
X194327599Y-93494495D01*
X194424384Y-93562265D01*
X194521165Y-93630032D01*
X194521167Y-93630033D01*
X194521170Y-93630035D01*
X194735337Y-93729903D01*
X194963592Y-93791063D01*
X195151918Y-93807539D01*
X195198999Y-93811659D01*
X195199000Y-93811659D01*
X195199001Y-93811659D01*
X195238234Y-93808226D01*
X195434408Y-93791063D01*
X195662663Y-93729903D01*
X195876830Y-93630035D01*
X196070401Y-93494495D01*
X196237495Y-93327401D01*
X196367425Y-93141842D01*
X196422002Y-93098217D01*
X196491500Y-93091023D01*
X196553855Y-93122546D01*
X196570575Y-93141842D01*
X196700500Y-93327395D01*
X196700505Y-93327401D01*
X196867599Y-93494495D01*
X196964384Y-93562265D01*
X197061165Y-93630032D01*
X197061167Y-93630033D01*
X197061170Y-93630035D01*
X197275337Y-93729903D01*
X197503592Y-93791063D01*
X197691918Y-93807539D01*
X197738999Y-93811659D01*
X197739000Y-93811659D01*
X197739001Y-93811659D01*
X197778234Y-93808226D01*
X197974408Y-93791063D01*
X198202663Y-93729903D01*
X198416830Y-93630035D01*
X198610401Y-93494495D01*
X198777495Y-93327401D01*
X198907425Y-93141842D01*
X198962002Y-93098217D01*
X199031500Y-93091023D01*
X199093855Y-93122546D01*
X199110575Y-93141842D01*
X199240501Y-93327396D01*
X199240506Y-93327402D01*
X199407597Y-93494493D01*
X199407603Y-93494498D01*
X199593158Y-93624425D01*
X199636783Y-93679002D01*
X199643977Y-93748500D01*
X199612454Y-93810855D01*
X199593158Y-93827575D01*
X199407597Y-93957505D01*
X199240505Y-94124597D01*
X199104965Y-94318169D01*
X199104964Y-94318171D01*
X199005098Y-94532335D01*
X199005094Y-94532344D01*
X198943938Y-94760586D01*
X198943936Y-94760596D01*
X198923341Y-94995999D01*
X198923341Y-94996000D01*
X198943936Y-95231403D01*
X198943938Y-95231413D01*
X199005094Y-95459655D01*
X199005096Y-95459659D01*
X199005097Y-95459663D01*
X199104965Y-95673830D01*
X199104967Y-95673834D01*
X199240501Y-95867395D01*
X199240506Y-95867402D01*
X199407597Y-96034493D01*
X199407603Y-96034498D01*
X199593158Y-96164425D01*
X199636783Y-96219002D01*
X199643977Y-96288500D01*
X199612454Y-96350855D01*
X199593158Y-96367575D01*
X199407597Y-96497505D01*
X199240505Y-96664597D01*
X199104965Y-96858169D01*
X199104964Y-96858171D01*
X199005098Y-97072335D01*
X199005094Y-97072344D01*
X198943938Y-97300586D01*
X198943936Y-97300596D01*
X198923341Y-97535999D01*
X198923341Y-97536000D01*
X198943936Y-97771403D01*
X198943938Y-97771413D01*
X199005094Y-97999655D01*
X199005096Y-97999659D01*
X199005097Y-97999663D01*
X199006989Y-98003720D01*
X199104965Y-98213830D01*
X199104967Y-98213834D01*
X199240501Y-98407395D01*
X199240506Y-98407402D01*
X199407597Y-98574493D01*
X199407603Y-98574498D01*
X199593158Y-98704425D01*
X199636783Y-98759002D01*
X199643977Y-98828500D01*
X199612454Y-98890855D01*
X199593158Y-98907575D01*
X199407597Y-99037505D01*
X199240505Y-99204597D01*
X199104965Y-99398169D01*
X199104964Y-99398171D01*
X199005098Y-99612335D01*
X199005094Y-99612344D01*
X198943938Y-99840586D01*
X198943936Y-99840596D01*
X198923341Y-100075999D01*
X198923341Y-100076000D01*
X198943936Y-100311403D01*
X198943938Y-100311413D01*
X199005094Y-100539655D01*
X199005096Y-100539659D01*
X199005097Y-100539663D01*
X199048615Y-100632987D01*
X199104965Y-100753830D01*
X199104967Y-100753834D01*
X199240501Y-100947395D01*
X199240506Y-100947402D01*
X199407597Y-101114493D01*
X199407603Y-101114498D01*
X199593158Y-101244425D01*
X199636783Y-101299002D01*
X199643977Y-101368500D01*
X199612454Y-101430855D01*
X199593158Y-101447575D01*
X199407597Y-101577505D01*
X199240505Y-101744597D01*
X199104965Y-101938169D01*
X199104964Y-101938171D01*
X199005098Y-102152335D01*
X199005094Y-102152344D01*
X198943938Y-102380586D01*
X198943936Y-102380596D01*
X198923341Y-102615999D01*
X198923341Y-102616000D01*
X198943936Y-102851403D01*
X198943938Y-102851413D01*
X199005094Y-103079655D01*
X199005096Y-103079659D01*
X199005097Y-103079663D01*
X199102301Y-103288116D01*
X199104965Y-103293830D01*
X199104967Y-103293834D01*
X199240501Y-103487395D01*
X199240506Y-103487402D01*
X199407597Y-103654493D01*
X199407603Y-103654498D01*
X199593158Y-103784425D01*
X199636783Y-103839002D01*
X199643977Y-103908500D01*
X199612454Y-103970855D01*
X199593158Y-103987575D01*
X199407597Y-104117505D01*
X199240505Y-104284597D01*
X199104965Y-104478169D01*
X199104964Y-104478171D01*
X199005098Y-104692335D01*
X199005094Y-104692344D01*
X198943938Y-104920586D01*
X198943936Y-104920596D01*
X198923341Y-105155999D01*
X198923341Y-105156000D01*
X198943936Y-105391403D01*
X198943938Y-105391413D01*
X199005094Y-105619655D01*
X199005096Y-105619659D01*
X199005097Y-105619663D01*
X199059135Y-105735548D01*
X199104965Y-105833830D01*
X199104967Y-105833834D01*
X199240501Y-106027395D01*
X199240506Y-106027402D01*
X199407597Y-106194493D01*
X199407603Y-106194498D01*
X199593158Y-106324425D01*
X199636783Y-106379002D01*
X199643977Y-106448500D01*
X199612454Y-106510855D01*
X199593158Y-106527575D01*
X199407597Y-106657505D01*
X199240505Y-106824597D01*
X199104965Y-107018169D01*
X199104964Y-107018171D01*
X199005098Y-107232335D01*
X199005094Y-107232344D01*
X198943938Y-107460586D01*
X198943936Y-107460596D01*
X198923341Y-107695999D01*
X198923341Y-107696000D01*
X198943936Y-107931403D01*
X198943938Y-107931413D01*
X199005094Y-108159655D01*
X199005096Y-108159659D01*
X199005097Y-108159663D01*
X199076012Y-108311740D01*
X199104965Y-108373830D01*
X199104967Y-108373834D01*
X199170752Y-108467784D01*
X199240505Y-108567401D01*
X199407599Y-108734495D01*
X199591431Y-108863216D01*
X199593594Y-108864730D01*
X199637219Y-108919307D01*
X199644413Y-108988805D01*
X199612890Y-109051160D01*
X199593595Y-109067880D01*
X199407922Y-109197890D01*
X199407920Y-109197891D01*
X199240891Y-109364920D01*
X199240886Y-109364926D01*
X199105400Y-109558420D01*
X199105399Y-109558422D01*
X199005570Y-109772507D01*
X199005567Y-109772513D01*
X198948364Y-109985999D01*
X198948364Y-109986000D01*
X199845988Y-109986000D01*
X199813075Y-110043007D01*
X199779000Y-110170174D01*
X199779000Y-110301826D01*
X199813075Y-110428993D01*
X199845988Y-110486000D01*
X198948364Y-110486000D01*
X199005567Y-110699486D01*
X199005570Y-110699492D01*
X199105399Y-110913578D01*
X199240894Y-111107082D01*
X199407917Y-111274105D01*
X199593595Y-111404119D01*
X199637219Y-111458696D01*
X199644412Y-111528195D01*
X199612890Y-111590549D01*
X199593595Y-111607269D01*
X199407594Y-111737508D01*
X199240505Y-111904597D01*
X199104965Y-112098169D01*
X199104964Y-112098171D01*
X199005098Y-112312335D01*
X199005094Y-112312344D01*
X198943938Y-112540586D01*
X198943936Y-112540596D01*
X198923341Y-112775999D01*
X198923341Y-112776000D01*
X198943936Y-113011403D01*
X198943938Y-113011413D01*
X199005094Y-113239655D01*
X199005096Y-113239659D01*
X199005097Y-113239663D01*
X199060745Y-113359000D01*
X199104965Y-113453830D01*
X199104967Y-113453834D01*
X199208579Y-113601806D01*
X199240505Y-113647401D01*
X199407599Y-113814495D01*
X199465182Y-113854815D01*
X199601165Y-113950032D01*
X199601167Y-113950033D01*
X199601170Y-113950035D01*
X199815337Y-114049903D01*
X200043592Y-114111063D01*
X200231918Y-114127539D01*
X200278999Y-114131659D01*
X200279000Y-114131659D01*
X200279001Y-114131659D01*
X200318234Y-114128226D01*
X200514408Y-114111063D01*
X200742663Y-114049903D01*
X200956830Y-113950035D01*
X201150401Y-113814495D01*
X201317495Y-113647401D01*
X201453035Y-113453830D01*
X201552903Y-113239663D01*
X201614063Y-113011408D01*
X201634659Y-112776000D01*
X201614063Y-112540592D01*
X201552903Y-112312337D01*
X201453890Y-112100005D01*
X214544958Y-112100005D01*
X214565103Y-112420221D01*
X214565104Y-112420228D01*
X214625230Y-112735417D01*
X214724382Y-113040575D01*
X214724384Y-113040580D01*
X214860998Y-113330897D01*
X214861001Y-113330903D01*
X215032921Y-113601806D01*
X215128773Y-113717671D01*
X215984728Y-112861716D01*
X216070278Y-112979466D01*
X216220534Y-113129722D01*
X216338281Y-113215270D01*
X215479175Y-114074375D01*
X215479176Y-114074377D01*
X215730928Y-114257285D01*
X215730946Y-114257297D01*
X216012116Y-114411871D01*
X216012124Y-114411875D01*
X216310444Y-114529987D01*
X216621233Y-114609784D01*
X216621242Y-114609786D01*
X216939556Y-114649999D01*
X216939570Y-114650000D01*
X217260430Y-114650000D01*
X217260443Y-114649999D01*
X217578757Y-114609786D01*
X217578766Y-114609784D01*
X217889555Y-114529987D01*
X218187875Y-114411875D01*
X218187883Y-114411871D01*
X218469053Y-114257297D01*
X218469063Y-114257290D01*
X218720822Y-114074375D01*
X218720823Y-114074375D01*
X217861718Y-113215270D01*
X217979466Y-113129722D01*
X218129722Y-112979466D01*
X218215270Y-112861717D01*
X219071225Y-113717672D01*
X219167068Y-113601819D01*
X219339002Y-113330896D01*
X219475615Y-113040580D01*
X219475617Y-113040575D01*
X219574769Y-112735417D01*
X219634895Y-112420228D01*
X219634896Y-112420221D01*
X219655042Y-112100005D01*
X219655042Y-112099994D01*
X219634896Y-111779778D01*
X219634895Y-111779771D01*
X219574769Y-111464582D01*
X219475617Y-111159424D01*
X219475615Y-111159419D01*
X219339001Y-110869102D01*
X219338998Y-110869096D01*
X219167078Y-110598193D01*
X219071224Y-110482326D01*
X218215269Y-111338281D01*
X218129722Y-111220534D01*
X217979466Y-111070278D01*
X217861716Y-110984728D01*
X218720823Y-110125623D01*
X218720822Y-110125621D01*
X218469071Y-109942714D01*
X218469053Y-109942702D01*
X218187883Y-109788128D01*
X218187875Y-109788124D01*
X217889555Y-109670012D01*
X217578766Y-109590215D01*
X217578757Y-109590213D01*
X217260443Y-109550000D01*
X216939556Y-109550000D01*
X216621242Y-109590213D01*
X216621233Y-109590215D01*
X216310444Y-109670012D01*
X216012124Y-109788124D01*
X216012116Y-109788128D01*
X215730946Y-109942702D01*
X215730928Y-109942714D01*
X215479176Y-110125622D01*
X215479175Y-110125623D01*
X216338281Y-110984729D01*
X216220534Y-111070278D01*
X216070278Y-111220534D01*
X215984729Y-111338282D01*
X215128773Y-110482326D01*
X215032924Y-110598188D01*
X214861001Y-110869096D01*
X214860998Y-110869102D01*
X214724384Y-111159419D01*
X214724382Y-111159424D01*
X214625230Y-111464582D01*
X214565104Y-111779771D01*
X214565103Y-111779778D01*
X214544958Y-112099994D01*
X214544958Y-112100005D01*
X201453890Y-112100005D01*
X201453035Y-112098171D01*
X201317495Y-111904599D01*
X201317494Y-111904597D01*
X201150402Y-111737506D01*
X201150401Y-111737505D01*
X200964405Y-111607269D01*
X200920781Y-111552692D01*
X200913588Y-111483193D01*
X200945110Y-111420839D01*
X200964405Y-111404119D01*
X201150082Y-111274105D01*
X201317105Y-111107082D01*
X201452600Y-110913578D01*
X201533540Y-110740000D01*
X203393364Y-110740000D01*
X203450567Y-110953486D01*
X203450570Y-110953492D01*
X203550399Y-111167578D01*
X203685894Y-111361082D01*
X203852917Y-111528105D01*
X204046421Y-111663600D01*
X204260507Y-111763429D01*
X204260516Y-111763433D01*
X204474000Y-111820634D01*
X204474000Y-110923012D01*
X204531007Y-110955925D01*
X204658174Y-110990000D01*
X204789826Y-110990000D01*
X204916993Y-110955925D01*
X204974000Y-110923012D01*
X204974000Y-111820633D01*
X205187483Y-111763433D01*
X205187492Y-111763429D01*
X205401578Y-111663600D01*
X205595082Y-111528105D01*
X205762105Y-111361082D01*
X205892119Y-111175405D01*
X205946696Y-111131781D01*
X206016195Y-111124588D01*
X206078549Y-111156110D01*
X206095269Y-111175405D01*
X206225505Y-111361401D01*
X206392599Y-111528495D01*
X206481221Y-111590549D01*
X206586165Y-111664032D01*
X206586167Y-111664033D01*
X206586170Y-111664035D01*
X206800337Y-111763903D01*
X207028592Y-111825063D01*
X207205034Y-111840500D01*
X207263999Y-111845659D01*
X207264000Y-111845659D01*
X207264001Y-111845659D01*
X207322966Y-111840500D01*
X207499408Y-111825063D01*
X207727663Y-111763903D01*
X207941830Y-111664035D01*
X208135401Y-111528495D01*
X208302495Y-111361401D01*
X208432425Y-111175842D01*
X208487002Y-111132217D01*
X208556500Y-111125023D01*
X208618855Y-111156546D01*
X208635575Y-111175842D01*
X208765281Y-111361082D01*
X208765505Y-111361401D01*
X208932599Y-111528495D01*
X209021221Y-111590549D01*
X209126165Y-111664032D01*
X209126167Y-111664033D01*
X209126170Y-111664035D01*
X209340337Y-111763903D01*
X209568592Y-111825063D01*
X209745034Y-111840500D01*
X209803999Y-111845659D01*
X209804000Y-111845659D01*
X209804001Y-111845659D01*
X209862966Y-111840500D01*
X210039408Y-111825063D01*
X210267663Y-111763903D01*
X210481830Y-111664035D01*
X210675401Y-111528495D01*
X210797329Y-111406566D01*
X210858648Y-111373084D01*
X210928340Y-111378068D01*
X210984274Y-111419939D01*
X211001189Y-111450917D01*
X211050202Y-111582328D01*
X211050206Y-111582335D01*
X211136452Y-111697544D01*
X211136455Y-111697547D01*
X211251664Y-111783793D01*
X211251671Y-111783797D01*
X211386517Y-111834091D01*
X211386516Y-111834091D01*
X211393444Y-111834835D01*
X211446127Y-111840500D01*
X213241872Y-111840499D01*
X213301483Y-111834091D01*
X213436331Y-111783796D01*
X213551546Y-111697546D01*
X213637796Y-111582331D01*
X213688091Y-111447483D01*
X213694500Y-111387873D01*
X213694499Y-109592128D01*
X213688091Y-109532517D01*
X213686810Y-109529083D01*
X213637797Y-109397671D01*
X213637793Y-109397664D01*
X213551547Y-109282455D01*
X213551544Y-109282452D01*
X213436335Y-109196206D01*
X213436328Y-109196202D01*
X213301482Y-109145908D01*
X213301483Y-109145908D01*
X213241883Y-109139501D01*
X213241881Y-109139500D01*
X213241873Y-109139500D01*
X213241864Y-109139500D01*
X211446129Y-109139500D01*
X211446123Y-109139501D01*
X211386516Y-109145908D01*
X211251671Y-109196202D01*
X211251664Y-109196206D01*
X211136455Y-109282452D01*
X211136452Y-109282455D01*
X211050206Y-109397664D01*
X211050203Y-109397669D01*
X211001189Y-109529083D01*
X210959317Y-109585016D01*
X210893853Y-109609433D01*
X210825580Y-109594581D01*
X210797326Y-109573430D01*
X210675402Y-109451506D01*
X210675395Y-109451501D01*
X210481834Y-109315967D01*
X210481830Y-109315965D01*
X210481828Y-109315964D01*
X210267663Y-109216097D01*
X210267659Y-109216096D01*
X210267655Y-109216094D01*
X210039413Y-109154938D01*
X210039403Y-109154936D01*
X209804001Y-109134341D01*
X209803999Y-109134341D01*
X209568596Y-109154936D01*
X209568586Y-109154938D01*
X209340344Y-109216094D01*
X209340335Y-109216098D01*
X209126171Y-109315964D01*
X209126169Y-109315965D01*
X208932597Y-109451505D01*
X208765505Y-109618597D01*
X208635575Y-109804158D01*
X208580998Y-109847783D01*
X208511500Y-109854977D01*
X208449145Y-109823454D01*
X208432425Y-109804158D01*
X208302494Y-109618597D01*
X208135402Y-109451506D01*
X208135395Y-109451501D01*
X207941834Y-109315967D01*
X207941830Y-109315965D01*
X207941828Y-109315964D01*
X207727663Y-109216097D01*
X207727659Y-109216096D01*
X207727655Y-109216094D01*
X207499413Y-109154938D01*
X207499403Y-109154936D01*
X207264001Y-109134341D01*
X207263999Y-109134341D01*
X207028596Y-109154936D01*
X207028586Y-109154938D01*
X206800344Y-109216094D01*
X206800335Y-109216098D01*
X206586171Y-109315964D01*
X206586169Y-109315965D01*
X206392597Y-109451505D01*
X206225508Y-109618594D01*
X206095269Y-109804595D01*
X206040692Y-109848219D01*
X205971193Y-109855412D01*
X205908839Y-109823890D01*
X205892119Y-109804594D01*
X205762113Y-109618926D01*
X205762108Y-109618920D01*
X205595082Y-109451894D01*
X205401578Y-109316399D01*
X205187492Y-109216570D01*
X205187486Y-109216567D01*
X204974000Y-109159364D01*
X204974000Y-110056988D01*
X204916993Y-110024075D01*
X204789826Y-109990000D01*
X204658174Y-109990000D01*
X204531007Y-110024075D01*
X204474000Y-110056988D01*
X204474000Y-109159364D01*
X204473999Y-109159364D01*
X204260513Y-109216567D01*
X204260507Y-109216570D01*
X204046422Y-109316399D01*
X204046420Y-109316400D01*
X203852926Y-109451886D01*
X203852920Y-109451891D01*
X203685891Y-109618920D01*
X203685886Y-109618926D01*
X203550400Y-109812420D01*
X203550399Y-109812422D01*
X203450570Y-110026507D01*
X203450567Y-110026513D01*
X203393364Y-110239999D01*
X203393364Y-110240000D01*
X204290988Y-110240000D01*
X204258075Y-110297007D01*
X204224000Y-110424174D01*
X204224000Y-110555826D01*
X204258075Y-110682993D01*
X204290988Y-110740000D01*
X203393364Y-110740000D01*
X201533540Y-110740000D01*
X201552429Y-110699492D01*
X201552432Y-110699486D01*
X201609636Y-110486000D01*
X200712012Y-110486000D01*
X200744925Y-110428993D01*
X200779000Y-110301826D01*
X200779000Y-110170174D01*
X200744925Y-110043007D01*
X200712012Y-109986000D01*
X201609636Y-109986000D01*
X201609635Y-109985999D01*
X201552432Y-109772513D01*
X201552429Y-109772507D01*
X201452600Y-109558422D01*
X201452599Y-109558420D01*
X201317113Y-109364926D01*
X201317108Y-109364920D01*
X201150078Y-109197890D01*
X200964405Y-109067879D01*
X200920780Y-109013302D01*
X200913588Y-108943804D01*
X200945110Y-108881449D01*
X200964406Y-108864730D01*
X200964842Y-108864425D01*
X201150401Y-108734495D01*
X201317495Y-108567401D01*
X201453035Y-108373830D01*
X201552903Y-108159663D01*
X201614063Y-107931408D01*
X201634659Y-107696000D01*
X201633251Y-107679912D01*
X201621610Y-107546851D01*
X201614063Y-107460592D01*
X201552903Y-107232337D01*
X201453035Y-107018171D01*
X201374993Y-106906714D01*
X201317494Y-106824597D01*
X201150402Y-106657506D01*
X201150396Y-106657501D01*
X200964842Y-106527575D01*
X200921217Y-106472998D01*
X200914023Y-106403500D01*
X200945546Y-106341145D01*
X200964842Y-106324425D01*
X200987026Y-106308891D01*
X201150401Y-106194495D01*
X201317495Y-106027401D01*
X201453035Y-105833830D01*
X201552903Y-105619663D01*
X201614063Y-105391408D01*
X201634659Y-105156000D01*
X201614063Y-104920592D01*
X201552903Y-104692337D01*
X201453035Y-104478171D01*
X201435798Y-104453553D01*
X201317494Y-104284597D01*
X201150402Y-104117506D01*
X201150396Y-104117501D01*
X201125409Y-104100005D01*
X214544958Y-104100005D01*
X214565103Y-104420221D01*
X214565104Y-104420228D01*
X214625230Y-104735417D01*
X214724382Y-105040575D01*
X214724384Y-105040580D01*
X214860998Y-105330897D01*
X214861001Y-105330903D01*
X215032921Y-105601806D01*
X215128773Y-105717671D01*
X215984728Y-104861716D01*
X216070278Y-104979466D01*
X216220534Y-105129722D01*
X216338281Y-105215270D01*
X215479175Y-106074375D01*
X215479176Y-106074377D01*
X215730928Y-106257285D01*
X215730946Y-106257297D01*
X216012116Y-106411871D01*
X216012124Y-106411875D01*
X216310444Y-106529987D01*
X216621233Y-106609784D01*
X216621242Y-106609786D01*
X216939556Y-106649999D01*
X216939570Y-106650000D01*
X217260430Y-106650000D01*
X217260443Y-106649999D01*
X217578757Y-106609786D01*
X217578766Y-106609784D01*
X217889555Y-106529987D01*
X218187875Y-106411875D01*
X218187883Y-106411871D01*
X218469053Y-106257297D01*
X218469063Y-106257290D01*
X218720822Y-106074375D01*
X218720823Y-106074375D01*
X217861718Y-105215270D01*
X217979466Y-105129722D01*
X218129722Y-104979466D01*
X218215270Y-104861717D01*
X219071225Y-105717672D01*
X219167068Y-105601819D01*
X219339002Y-105330896D01*
X219475615Y-105040580D01*
X219475617Y-105040575D01*
X219574769Y-104735417D01*
X219634895Y-104420228D01*
X219634896Y-104420221D01*
X219655042Y-104100005D01*
X219655042Y-104099994D01*
X219634896Y-103779778D01*
X219634895Y-103779771D01*
X219574769Y-103464582D01*
X219475617Y-103159424D01*
X219475615Y-103159419D01*
X219339001Y-102869102D01*
X219338998Y-102869096D01*
X219167078Y-102598193D01*
X219071224Y-102482326D01*
X218215269Y-103338281D01*
X218129722Y-103220534D01*
X217979466Y-103070278D01*
X217861716Y-102984728D01*
X218720823Y-102125623D01*
X218720822Y-102125621D01*
X218469071Y-101942714D01*
X218469053Y-101942702D01*
X218187883Y-101788128D01*
X218187875Y-101788124D01*
X217889555Y-101670012D01*
X217578766Y-101590215D01*
X217578757Y-101590213D01*
X217260443Y-101550000D01*
X216939556Y-101550000D01*
X216621242Y-101590213D01*
X216621233Y-101590215D01*
X216310444Y-101670012D01*
X216012124Y-101788124D01*
X216012116Y-101788128D01*
X215730946Y-101942702D01*
X215730928Y-101942714D01*
X215479176Y-102125622D01*
X215479175Y-102125623D01*
X216338281Y-102984729D01*
X216220534Y-103070278D01*
X216070278Y-103220534D01*
X215984729Y-103338282D01*
X215128773Y-102482326D01*
X215032924Y-102598188D01*
X214861001Y-102869096D01*
X214860998Y-102869102D01*
X214724384Y-103159419D01*
X214724382Y-103159424D01*
X214625230Y-103464582D01*
X214565104Y-103779771D01*
X214565103Y-103779778D01*
X214544958Y-104099994D01*
X214544958Y-104100005D01*
X201125409Y-104100005D01*
X200964842Y-103987575D01*
X200921217Y-103932998D01*
X200914023Y-103863500D01*
X200945546Y-103801145D01*
X200964842Y-103784425D01*
X201074169Y-103707873D01*
X201150401Y-103654495D01*
X201317495Y-103487401D01*
X201453035Y-103293830D01*
X201552903Y-103079663D01*
X201614063Y-102851408D01*
X201634659Y-102616000D01*
X201614063Y-102380592D01*
X201552903Y-102152337D01*
X201453035Y-101938171D01*
X201453032Y-101938166D01*
X201317494Y-101744597D01*
X201150402Y-101577506D01*
X201150396Y-101577501D01*
X200964842Y-101447575D01*
X200921217Y-101392998D01*
X200914023Y-101323500D01*
X200945546Y-101261145D01*
X200964842Y-101244425D01*
X201024781Y-101202455D01*
X201150401Y-101114495D01*
X201317495Y-100947401D01*
X201453035Y-100753830D01*
X201552903Y-100539663D01*
X201614063Y-100311408D01*
X201634659Y-100076000D01*
X201614063Y-99840592D01*
X201552903Y-99612337D01*
X201453035Y-99398171D01*
X201348732Y-99249209D01*
X201317494Y-99204597D01*
X201150402Y-99037506D01*
X201150396Y-99037501D01*
X200964842Y-98907575D01*
X200921217Y-98852998D01*
X200914023Y-98783500D01*
X200945546Y-98721145D01*
X200964842Y-98704425D01*
X200987026Y-98688891D01*
X201150401Y-98574495D01*
X201317495Y-98407401D01*
X201453035Y-98213830D01*
X201552903Y-97999663D01*
X201614063Y-97771408D01*
X201634659Y-97536000D01*
X201632089Y-97506631D01*
X201621925Y-97390452D01*
X201614063Y-97300592D01*
X201552903Y-97072337D01*
X201453035Y-96858171D01*
X201409703Y-96796285D01*
X201317494Y-96664597D01*
X201150402Y-96497506D01*
X201150396Y-96497501D01*
X200964842Y-96367575D01*
X200921217Y-96312998D01*
X200914023Y-96243500D01*
X200945546Y-96181145D01*
X200964842Y-96164425D01*
X201044942Y-96108338D01*
X201150401Y-96034495D01*
X201317495Y-95867401D01*
X201453035Y-95673830D01*
X201552903Y-95459663D01*
X201614063Y-95231408D01*
X201634659Y-94996000D01*
X201614063Y-94760592D01*
X201552903Y-94532337D01*
X201453035Y-94318171D01*
X201317495Y-94124599D01*
X201317494Y-94124597D01*
X201150402Y-93957506D01*
X201150396Y-93957501D01*
X200964842Y-93827575D01*
X200921217Y-93772998D01*
X200914023Y-93703500D01*
X200945546Y-93641145D01*
X200964842Y-93624425D01*
X200987026Y-93608891D01*
X201150401Y-93494495D01*
X201317495Y-93327401D01*
X201453035Y-93133830D01*
X201552903Y-92919663D01*
X201614063Y-92691408D01*
X201634659Y-92456000D01*
X201614063Y-92220592D01*
X201552903Y-91992337D01*
X201453035Y-91778171D01*
X201447425Y-91770158D01*
X201317494Y-91584597D01*
X201150402Y-91417506D01*
X201150395Y-91417501D01*
X200956834Y-91281967D01*
X200956830Y-91281965D01*
X200956828Y-91281964D01*
X200742663Y-91182097D01*
X200742659Y-91182096D01*
X200742655Y-91182094D01*
X200514413Y-91120938D01*
X200514403Y-91120936D01*
X200279001Y-91100341D01*
X200278999Y-91100341D01*
X200043596Y-91120936D01*
X200043586Y-91120938D01*
X199815344Y-91182094D01*
X199815335Y-91182098D01*
X199601171Y-91281964D01*
X199601169Y-91281965D01*
X199407597Y-91417505D01*
X199240505Y-91584597D01*
X199110575Y-91770158D01*
X199055998Y-91813783D01*
X198986500Y-91820977D01*
X198924145Y-91789454D01*
X198907425Y-91770158D01*
X198777494Y-91584597D01*
X198610402Y-91417506D01*
X198610395Y-91417501D01*
X198416834Y-91281967D01*
X198416830Y-91281965D01*
X198416828Y-91281964D01*
X198202663Y-91182097D01*
X198202659Y-91182096D01*
X198202655Y-91182094D01*
X197974413Y-91120938D01*
X197974403Y-91120936D01*
X197739001Y-91100341D01*
X197738999Y-91100341D01*
X197503596Y-91120936D01*
X197503586Y-91120938D01*
X197275344Y-91182094D01*
X197275335Y-91182098D01*
X197061171Y-91281964D01*
X197061169Y-91281965D01*
X196867597Y-91417505D01*
X196700505Y-91584597D01*
X196570575Y-91770158D01*
X196515998Y-91813783D01*
X196446500Y-91820977D01*
X196384145Y-91789454D01*
X196367425Y-91770158D01*
X196237494Y-91584597D01*
X196070402Y-91417506D01*
X196070395Y-91417501D01*
X195876834Y-91281967D01*
X195876830Y-91281965D01*
X195876828Y-91281964D01*
X195662663Y-91182097D01*
X195662659Y-91182096D01*
X195662655Y-91182094D01*
X195434413Y-91120938D01*
X195434403Y-91120936D01*
X195199001Y-91100341D01*
X195198999Y-91100341D01*
X194963596Y-91120936D01*
X194963586Y-91120938D01*
X194735344Y-91182094D01*
X194735335Y-91182098D01*
X194521171Y-91281964D01*
X194521169Y-91281965D01*
X194327597Y-91417505D01*
X194160505Y-91584597D01*
X194030575Y-91770158D01*
X193975998Y-91813783D01*
X193906500Y-91820977D01*
X193844145Y-91789454D01*
X193827425Y-91770158D01*
X193697494Y-91584597D01*
X193530402Y-91417506D01*
X193530395Y-91417501D01*
X193336834Y-91281967D01*
X193336830Y-91281965D01*
X193336828Y-91281964D01*
X193122663Y-91182097D01*
X193122659Y-91182096D01*
X193122655Y-91182094D01*
X192894413Y-91120938D01*
X192894403Y-91120936D01*
X192659001Y-91100341D01*
X192658999Y-91100341D01*
X192423596Y-91120936D01*
X192423586Y-91120938D01*
X192195344Y-91182094D01*
X192195335Y-91182098D01*
X191981171Y-91281964D01*
X191981169Y-91281965D01*
X191787597Y-91417505D01*
X191620505Y-91584597D01*
X191490575Y-91770158D01*
X191435998Y-91813783D01*
X191366500Y-91820977D01*
X191304145Y-91789454D01*
X191287425Y-91770158D01*
X191157494Y-91584597D01*
X190990402Y-91417506D01*
X190990395Y-91417501D01*
X190796834Y-91281967D01*
X190796830Y-91281965D01*
X190796828Y-91281964D01*
X190582663Y-91182097D01*
X190582659Y-91182096D01*
X190582655Y-91182094D01*
X190354413Y-91120938D01*
X190354403Y-91120936D01*
X190119001Y-91100341D01*
X190118999Y-91100341D01*
X189883596Y-91120936D01*
X189883586Y-91120938D01*
X189655344Y-91182094D01*
X189655335Y-91182098D01*
X189441171Y-91281964D01*
X189441169Y-91281965D01*
X189247597Y-91417505D01*
X189080505Y-91584597D01*
X188950575Y-91770158D01*
X188895998Y-91813783D01*
X188826500Y-91820977D01*
X188764145Y-91789454D01*
X188747425Y-91770158D01*
X188617494Y-91584597D01*
X188450402Y-91417506D01*
X188450395Y-91417501D01*
X188256834Y-91281967D01*
X188256830Y-91281965D01*
X188256828Y-91281964D01*
X188042663Y-91182097D01*
X188042659Y-91182096D01*
X188042655Y-91182094D01*
X187814413Y-91120938D01*
X187814403Y-91120936D01*
X187579001Y-91100341D01*
X187578999Y-91100341D01*
X187343596Y-91120936D01*
X187343586Y-91120938D01*
X187115344Y-91182094D01*
X187115335Y-91182098D01*
X186901171Y-91281964D01*
X186901169Y-91281965D01*
X186707597Y-91417505D01*
X186540505Y-91584597D01*
X186410575Y-91770158D01*
X186355998Y-91813783D01*
X186286500Y-91820977D01*
X186224145Y-91789454D01*
X186207425Y-91770158D01*
X186077494Y-91584597D01*
X185910402Y-91417506D01*
X185910395Y-91417501D01*
X185716834Y-91281967D01*
X185716830Y-91281965D01*
X185716828Y-91281964D01*
X185502663Y-91182097D01*
X185502659Y-91182096D01*
X185502655Y-91182094D01*
X185274413Y-91120938D01*
X185274403Y-91120936D01*
X185039001Y-91100341D01*
X185038999Y-91100341D01*
X184803596Y-91120936D01*
X184803586Y-91120938D01*
X184575344Y-91182094D01*
X184575335Y-91182098D01*
X184361171Y-91281964D01*
X184361169Y-91281965D01*
X184167597Y-91417505D01*
X184000505Y-91584597D01*
X183864965Y-91778169D01*
X183864964Y-91778171D01*
X183765098Y-91992335D01*
X183765094Y-91992344D01*
X183703938Y-92220586D01*
X183703936Y-92220596D01*
X183683341Y-92455999D01*
X183683341Y-92456000D01*
X183703936Y-92691403D01*
X183703938Y-92691413D01*
X183765094Y-92919655D01*
X183765096Y-92919659D01*
X183765097Y-92919663D01*
X183769000Y-92928032D01*
X183864965Y-93133830D01*
X183864967Y-93133834D01*
X183973281Y-93288521D01*
X184000501Y-93327396D01*
X184000506Y-93327402D01*
X184167597Y-93494493D01*
X184167603Y-93494498D01*
X184353158Y-93624425D01*
X184396783Y-93679002D01*
X184403977Y-93748500D01*
X184372454Y-93810855D01*
X184353158Y-93827575D01*
X184167597Y-93957505D01*
X184000505Y-94124597D01*
X183864965Y-94318169D01*
X183864964Y-94318171D01*
X183765098Y-94532335D01*
X183765094Y-94532344D01*
X183703938Y-94760586D01*
X183703936Y-94760596D01*
X183683341Y-94995999D01*
X183683341Y-94996000D01*
X183703936Y-95231403D01*
X183703938Y-95231413D01*
X183765094Y-95459655D01*
X183765096Y-95459659D01*
X183765097Y-95459663D01*
X183864965Y-95673830D01*
X183864967Y-95673834D01*
X184000501Y-95867395D01*
X184000506Y-95867402D01*
X184167597Y-96034493D01*
X184167603Y-96034498D01*
X184353158Y-96164425D01*
X184396783Y-96219002D01*
X184403977Y-96288500D01*
X184372454Y-96350855D01*
X184353158Y-96367575D01*
X184167597Y-96497505D01*
X184000505Y-96664597D01*
X183864965Y-96858169D01*
X183864964Y-96858171D01*
X183765098Y-97072335D01*
X183765094Y-97072344D01*
X183703938Y-97300586D01*
X183703936Y-97300596D01*
X183683341Y-97535999D01*
X183683341Y-97536000D01*
X183703936Y-97771403D01*
X183703938Y-97771413D01*
X183765094Y-97999655D01*
X183765096Y-97999659D01*
X183765097Y-97999663D01*
X183766989Y-98003720D01*
X183864965Y-98213830D01*
X183864967Y-98213834D01*
X184000501Y-98407395D01*
X184000506Y-98407402D01*
X184167597Y-98574493D01*
X184167603Y-98574498D01*
X184353158Y-98704425D01*
X184396783Y-98759002D01*
X184403977Y-98828500D01*
X184372454Y-98890855D01*
X184353158Y-98907575D01*
X184167597Y-99037505D01*
X184000505Y-99204597D01*
X183864965Y-99398169D01*
X183864964Y-99398171D01*
X183765098Y-99612335D01*
X183765094Y-99612344D01*
X183703938Y-99840586D01*
X183703936Y-99840596D01*
X183683341Y-100075999D01*
X183683341Y-100076000D01*
X183703936Y-100311403D01*
X183703938Y-100311413D01*
X183765094Y-100539655D01*
X183765096Y-100539659D01*
X183765097Y-100539663D01*
X183808615Y-100632987D01*
X183864965Y-100753830D01*
X183864967Y-100753834D01*
X184000501Y-100947395D01*
X184000506Y-100947402D01*
X184167597Y-101114493D01*
X184167603Y-101114498D01*
X184353158Y-101244425D01*
X184396783Y-101299002D01*
X184403977Y-101368500D01*
X184372454Y-101430855D01*
X184353158Y-101447575D01*
X184167597Y-101577505D01*
X184000505Y-101744597D01*
X183864965Y-101938169D01*
X183864964Y-101938171D01*
X183765098Y-102152335D01*
X183765094Y-102152344D01*
X183703938Y-102380586D01*
X183703936Y-102380596D01*
X183683341Y-102615999D01*
X183683341Y-102616000D01*
X183703936Y-102851403D01*
X183703938Y-102851413D01*
X183765094Y-103079655D01*
X183765096Y-103079659D01*
X183765097Y-103079663D01*
X183797064Y-103148216D01*
X183864964Y-103293829D01*
X183864965Y-103293830D01*
X183959153Y-103428345D01*
X183981480Y-103494549D01*
X183964470Y-103562317D01*
X183945259Y-103587148D01*
X182552943Y-104979466D01*
X182100269Y-105432140D01*
X182100267Y-105432142D01*
X182056704Y-105475704D01*
X182013142Y-105519266D01*
X181986259Y-105559500D01*
X181986258Y-105559499D01*
X181944689Y-105621712D01*
X181944685Y-105621719D01*
X181912616Y-105699144D01*
X181912615Y-105699146D01*
X181897539Y-105735539D01*
X181897538Y-105735544D01*
X181897537Y-105735547D01*
X181897537Y-105735548D01*
X181877988Y-105833834D01*
X181873500Y-105856396D01*
X181873500Y-107258546D01*
X181853815Y-107325585D01*
X181837181Y-107346227D01*
X181789227Y-107394181D01*
X181727904Y-107427666D01*
X181701546Y-107430500D01*
X181515354Y-107430500D01*
X181482897Y-107437398D01*
X181330197Y-107469855D01*
X181330192Y-107469857D01*
X181157270Y-107546848D01*
X181157265Y-107546851D01*
X181004129Y-107658111D01*
X180877466Y-107798785D01*
X180782821Y-107962715D01*
X180782818Y-107962722D01*
X180726024Y-108137517D01*
X180724326Y-108142744D01*
X180717320Y-108209402D01*
X180690736Y-108274014D01*
X180633439Y-108313999D01*
X180563620Y-108316659D01*
X180503446Y-108281150D01*
X180472023Y-108218745D01*
X180470681Y-108209416D01*
X180463674Y-108142744D01*
X180405179Y-107962716D01*
X180310533Y-107798784D01*
X180273476Y-107757628D01*
X180235350Y-107715284D01*
X180205120Y-107652292D01*
X180203500Y-107632312D01*
X180203500Y-101404502D01*
X180223185Y-101337463D01*
X180254614Y-101304184D01*
X180287379Y-101280380D01*
X180414041Y-101139708D01*
X180508687Y-100975776D01*
X180567182Y-100795748D01*
X180586968Y-100607492D01*
X180567182Y-100419236D01*
X180508687Y-100239208D01*
X180414041Y-100075276D01*
X180287379Y-99934604D01*
X180254174Y-99910479D01*
X180134242Y-99823343D01*
X180134237Y-99823340D01*
X179961315Y-99746349D01*
X179961310Y-99746347D01*
X179815509Y-99715357D01*
X179776154Y-99706992D01*
X179586862Y-99706992D01*
X179554405Y-99713890D01*
X179401705Y-99746347D01*
X179401700Y-99746349D01*
X179228778Y-99823340D01*
X179228773Y-99823343D01*
X179075637Y-99934603D01*
X179075636Y-99934604D01*
X179022649Y-99993452D01*
X178963162Y-100030100D01*
X178893305Y-100028769D01*
X178835257Y-99989882D01*
X178807448Y-99925785D01*
X178806500Y-99910479D01*
X178806500Y-98003741D01*
X178806501Y-98003720D01*
X178806501Y-97874391D01*
X178782464Y-97753555D01*
X178782463Y-97753549D01*
X178735312Y-97639715D01*
X178666858Y-97537267D01*
X178666855Y-97537263D01*
X177237928Y-96108338D01*
X177237925Y-96108334D01*
X177237925Y-96108335D01*
X177230858Y-96101268D01*
X177230858Y-96101267D01*
X177143733Y-96014142D01*
X177143732Y-96014141D01*
X177143731Y-96014140D01*
X177092509Y-95979915D01*
X177041287Y-95945689D01*
X177041286Y-95945688D01*
X177041283Y-95945686D01*
X177041280Y-95945685D01*
X176960792Y-95912347D01*
X176927452Y-95898537D01*
X176927444Y-95898535D01*
X176847499Y-95882632D01*
X176847490Y-95882632D01*
X176806607Y-95874500D01*
X176806606Y-95874500D01*
X170561607Y-95874500D01*
X170438393Y-95874500D01*
X170417951Y-95878566D01*
X170397509Y-95882632D01*
X170397508Y-95882631D01*
X170317552Y-95898536D01*
X170317541Y-95898539D01*
X170285262Y-95911909D01*
X170270397Y-95918067D01*
X170248169Y-95927274D01*
X170203713Y-95945688D01*
X170193557Y-95952475D01*
X170193449Y-95952547D01*
X170101268Y-96014140D01*
X170057705Y-96057703D01*
X170014142Y-96101267D01*
X169434144Y-96681264D01*
X169434138Y-96681272D01*
X169399914Y-96732489D01*
X169399915Y-96732490D01*
X169365688Y-96783712D01*
X169365687Y-96783716D01*
X169360482Y-96796283D01*
X169360481Y-96796285D01*
X169318538Y-96897544D01*
X169318535Y-96897556D01*
X169294500Y-97018389D01*
X169294500Y-107671533D01*
X169274815Y-107738572D01*
X169222011Y-107784327D01*
X169213836Y-107787714D01*
X169177665Y-107801205D01*
X169062455Y-107887452D01*
X169062452Y-107887455D01*
X168976206Y-108002664D01*
X168976202Y-108002671D01*
X168925908Y-108137517D01*
X168919501Y-108197116D01*
X168919501Y-108197123D01*
X168919500Y-108197135D01*
X168919500Y-110802870D01*
X168919501Y-110802876D01*
X168925908Y-110862483D01*
X168976202Y-110997328D01*
X168976206Y-110997335D01*
X169062452Y-111112544D01*
X169062455Y-111112547D01*
X169177664Y-111198793D01*
X169177671Y-111198797D01*
X169312517Y-111249091D01*
X169312516Y-111249091D01*
X169319444Y-111249835D01*
X169372127Y-111255500D01*
X170467872Y-111255499D01*
X170527483Y-111249091D01*
X170662331Y-111198796D01*
X170777546Y-111112546D01*
X170863796Y-110997331D01*
X170914091Y-110862483D01*
X170920500Y-110802873D01*
X170920499Y-109567241D01*
X170940184Y-109500204D01*
X170992987Y-109454449D01*
X171062146Y-109444505D01*
X171125702Y-109473530D01*
X171151886Y-109505243D01*
X171167459Y-109532216D01*
X171291531Y-109670012D01*
X171294121Y-109672888D01*
X171447257Y-109784148D01*
X171447262Y-109784151D01*
X171620184Y-109861142D01*
X171620189Y-109861144D01*
X171805346Y-109900500D01*
X171805347Y-109900500D01*
X171994636Y-109900500D01*
X171994638Y-109900500D01*
X172179795Y-109861144D01*
X172349557Y-109785559D01*
X172418807Y-109776275D01*
X172450429Y-109785560D01*
X172620187Y-109861142D01*
X172620192Y-109861144D01*
X172805349Y-109900500D01*
X172805350Y-109900500D01*
X172994639Y-109900500D01*
X172994641Y-109900500D01*
X173179798Y-109861144D01*
X173349560Y-109785559D01*
X173418810Y-109776275D01*
X173450432Y-109785560D01*
X173620190Y-109861142D01*
X173620195Y-109861144D01*
X173805352Y-109900500D01*
X173805353Y-109900500D01*
X173875500Y-109900500D01*
X173942539Y-109920185D01*
X173988294Y-109972989D01*
X173999500Y-110024500D01*
X173999500Y-110802870D01*
X173999501Y-110802876D01*
X174005908Y-110862483D01*
X174050548Y-110982167D01*
X174055532Y-111051859D01*
X174022047Y-111113182D01*
X173960724Y-111146666D01*
X173934366Y-111149500D01*
X173433389Y-111149500D01*
X173376802Y-111160756D01*
X173372971Y-111161518D01*
X173345487Y-111166984D01*
X173275897Y-111160756D01*
X173246988Y-111144634D01*
X173229818Y-111131781D01*
X173202331Y-111111204D01*
X173202328Y-111111202D01*
X173067482Y-111060908D01*
X173067483Y-111060908D01*
X173007883Y-111054501D01*
X173007881Y-111054500D01*
X173007873Y-111054500D01*
X173007864Y-111054500D01*
X171912129Y-111054500D01*
X171912123Y-111054501D01*
X171852516Y-111060908D01*
X171717671Y-111111202D01*
X171717664Y-111111206D01*
X171602455Y-111197452D01*
X171602452Y-111197455D01*
X171516206Y-111312664D01*
X171516202Y-111312671D01*
X171465908Y-111447517D01*
X171462179Y-111482206D01*
X171459500Y-111507127D01*
X171459500Y-112686112D01*
X171459501Y-113750500D01*
X171439816Y-113817539D01*
X171387013Y-113863294D01*
X171335501Y-113874500D01*
X169380452Y-113874500D01*
X169313413Y-113854815D01*
X169292771Y-113838181D01*
X168416818Y-112962228D01*
X168383333Y-112900905D01*
X168380499Y-112874547D01*
X168380499Y-111507129D01*
X168380498Y-111507123D01*
X168380497Y-111507116D01*
X168375293Y-111458696D01*
X168374091Y-111447516D01*
X168323797Y-111312671D01*
X168323793Y-111312664D01*
X168237547Y-111197455D01*
X168237544Y-111197452D01*
X168122335Y-111111206D01*
X168122328Y-111111202D01*
X167987482Y-111060908D01*
X167987483Y-111060908D01*
X167927883Y-111054501D01*
X167927881Y-111054500D01*
X167927873Y-111054500D01*
X167927864Y-111054500D01*
X166832129Y-111054500D01*
X166832123Y-111054501D01*
X166772516Y-111060908D01*
X166637671Y-111111202D01*
X166637664Y-111111206D01*
X166522455Y-111197452D01*
X166522452Y-111197455D01*
X166436206Y-111312664D01*
X166436202Y-111312671D01*
X166385908Y-111447517D01*
X166382179Y-111482206D01*
X166379501Y-111507123D01*
X166379500Y-111507135D01*
X166379500Y-114112870D01*
X166379501Y-114112876D01*
X166385908Y-114172483D01*
X166436202Y-114307328D01*
X166436206Y-114307335D01*
X166522452Y-114422544D01*
X166522455Y-114422547D01*
X166637664Y-114508793D01*
X166637671Y-114508797D01*
X166772517Y-114559091D01*
X166772516Y-114559091D01*
X166779444Y-114559835D01*
X166832127Y-114565500D01*
X167927872Y-114565499D01*
X167987483Y-114559091D01*
X168100016Y-114517119D01*
X168169708Y-114512135D01*
X168231030Y-114545620D01*
X168463729Y-114778319D01*
X168497214Y-114839642D01*
X168492230Y-114909334D01*
X168450358Y-114965267D01*
X168384894Y-114989684D01*
X168376048Y-114990000D01*
X160124000Y-114990000D01*
X160056961Y-114970315D01*
X160011206Y-114917511D01*
X160000000Y-114866000D01*
X160000000Y-112100005D01*
X160344958Y-112100005D01*
X160365103Y-112420221D01*
X160365104Y-112420228D01*
X160425230Y-112735417D01*
X160524382Y-113040575D01*
X160524384Y-113040580D01*
X160660998Y-113330897D01*
X160661001Y-113330903D01*
X160832921Y-113601806D01*
X160928773Y-113717671D01*
X161784728Y-112861716D01*
X161870278Y-112979466D01*
X162020534Y-113129722D01*
X162138281Y-113215270D01*
X161279175Y-114074375D01*
X161279176Y-114074377D01*
X161530928Y-114257285D01*
X161530946Y-114257297D01*
X161812116Y-114411871D01*
X161812124Y-114411875D01*
X162110444Y-114529987D01*
X162421233Y-114609784D01*
X162421242Y-114609786D01*
X162739556Y-114649999D01*
X162739570Y-114650000D01*
X163060430Y-114650000D01*
X163060443Y-114649999D01*
X163378757Y-114609786D01*
X163378766Y-114609784D01*
X163689555Y-114529987D01*
X163987875Y-114411875D01*
X163987883Y-114411871D01*
X164269053Y-114257297D01*
X164269063Y-114257290D01*
X164520822Y-114074375D01*
X164520823Y-114074375D01*
X163661718Y-113215270D01*
X163779466Y-113129722D01*
X163929722Y-112979466D01*
X164015270Y-112861717D01*
X164871225Y-113717672D01*
X164967068Y-113601819D01*
X165139002Y-113330896D01*
X165275615Y-113040580D01*
X165275617Y-113040575D01*
X165374769Y-112735417D01*
X165434895Y-112420228D01*
X165434896Y-112420221D01*
X165455042Y-112100005D01*
X165455042Y-112099994D01*
X165434896Y-111779778D01*
X165434895Y-111779771D01*
X165374769Y-111464582D01*
X165275617Y-111159424D01*
X165275615Y-111159419D01*
X165139001Y-110869102D01*
X165138998Y-110869096D01*
X164967078Y-110598193D01*
X164871224Y-110482326D01*
X164015269Y-111338281D01*
X163929722Y-111220534D01*
X163779466Y-111070278D01*
X163661716Y-110984728D01*
X164520823Y-110125623D01*
X164520822Y-110125621D01*
X164269071Y-109942714D01*
X164269053Y-109942702D01*
X163987883Y-109788128D01*
X163987875Y-109788124D01*
X163689555Y-109670012D01*
X163378766Y-109590215D01*
X163378757Y-109590213D01*
X163060443Y-109550000D01*
X162739556Y-109550000D01*
X162421242Y-109590213D01*
X162421233Y-109590215D01*
X162110444Y-109670012D01*
X161812124Y-109788124D01*
X161812116Y-109788128D01*
X161530946Y-109942702D01*
X161530928Y-109942714D01*
X161279176Y-110125622D01*
X161279175Y-110125623D01*
X162138281Y-110984729D01*
X162020534Y-111070278D01*
X161870278Y-111220534D01*
X161784729Y-111338282D01*
X160928773Y-110482326D01*
X160832924Y-110598188D01*
X160661001Y-110869096D01*
X160660998Y-110869102D01*
X160524384Y-111159419D01*
X160524382Y-111159424D01*
X160425230Y-111464582D01*
X160365104Y-111779771D01*
X160365103Y-111779778D01*
X160344958Y-112099994D01*
X160344958Y-112100005D01*
X160000000Y-112100005D01*
X160000000Y-104100005D01*
X160344958Y-104100005D01*
X160365103Y-104420221D01*
X160365104Y-104420228D01*
X160425230Y-104735417D01*
X160524382Y-105040575D01*
X160524384Y-105040580D01*
X160660998Y-105330897D01*
X160661001Y-105330903D01*
X160832921Y-105601806D01*
X160928773Y-105717671D01*
X161784728Y-104861716D01*
X161870278Y-104979466D01*
X162020534Y-105129722D01*
X162138281Y-105215270D01*
X161279175Y-106074375D01*
X161279176Y-106074377D01*
X161530928Y-106257285D01*
X161530946Y-106257297D01*
X161812116Y-106411871D01*
X161812124Y-106411875D01*
X162110444Y-106529987D01*
X162421233Y-106609784D01*
X162421242Y-106609786D01*
X162739556Y-106649999D01*
X162739570Y-106650000D01*
X163060430Y-106650000D01*
X163060443Y-106649999D01*
X163378757Y-106609786D01*
X163378766Y-106609784D01*
X163689555Y-106529987D01*
X163987875Y-106411875D01*
X163987883Y-106411871D01*
X164269053Y-106257297D01*
X164269063Y-106257290D01*
X164520822Y-106074375D01*
X164520823Y-106074375D01*
X163661718Y-105215270D01*
X163779466Y-105129722D01*
X163929722Y-104979466D01*
X164015270Y-104861717D01*
X164871225Y-105717672D01*
X164967068Y-105601819D01*
X165139002Y-105330896D01*
X165275615Y-105040580D01*
X165275617Y-105040575D01*
X165374769Y-104735417D01*
X165434895Y-104420228D01*
X165434896Y-104420221D01*
X165455042Y-104100005D01*
X165455042Y-104099994D01*
X165434896Y-103779778D01*
X165434895Y-103779771D01*
X165374769Y-103464582D01*
X165275617Y-103159424D01*
X165275615Y-103159419D01*
X165139001Y-102869102D01*
X165138998Y-102869096D01*
X164967078Y-102598193D01*
X164871224Y-102482326D01*
X164015269Y-103338281D01*
X163929722Y-103220534D01*
X163779466Y-103070278D01*
X163661716Y-102984728D01*
X164520823Y-102125623D01*
X164520822Y-102125621D01*
X164269071Y-101942714D01*
X164269053Y-101942702D01*
X163987883Y-101788128D01*
X163987875Y-101788124D01*
X163689555Y-101670012D01*
X163378766Y-101590215D01*
X163378757Y-101590213D01*
X163060443Y-101550000D01*
X162739556Y-101550000D01*
X162421242Y-101590213D01*
X162421233Y-101590215D01*
X162110444Y-101670012D01*
X161812124Y-101788124D01*
X161812116Y-101788128D01*
X161530946Y-101942702D01*
X161530928Y-101942714D01*
X161279176Y-102125622D01*
X161279175Y-102125623D01*
X162138281Y-102984729D01*
X162020534Y-103070278D01*
X161870278Y-103220534D01*
X161784729Y-103338282D01*
X160928773Y-102482326D01*
X160832924Y-102598188D01*
X160661001Y-102869096D01*
X160660998Y-102869102D01*
X160524384Y-103159419D01*
X160524382Y-103159424D01*
X160425230Y-103464582D01*
X160365104Y-103779771D01*
X160365103Y-103779778D01*
X160344958Y-104099994D01*
X160344958Y-104100005D01*
X160000000Y-104100005D01*
X160000000Y-81897870D01*
X172149500Y-81897870D01*
X172149501Y-81897876D01*
X172155908Y-81957483D01*
X172206202Y-82092328D01*
X172206206Y-82092335D01*
X172292452Y-82207544D01*
X172292455Y-82207547D01*
X172407664Y-82293793D01*
X172407671Y-82293797D01*
X172542517Y-82344091D01*
X172542516Y-82344091D01*
X172549444Y-82344835D01*
X172602127Y-82350500D01*
X174397872Y-82350499D01*
X174457483Y-82344091D01*
X174592331Y-82293796D01*
X174707546Y-82207546D01*
X174793796Y-82092331D01*
X174842810Y-81960916D01*
X174884681Y-81904984D01*
X174950145Y-81880566D01*
X175018418Y-81895417D01*
X175046673Y-81916569D01*
X175168599Y-82038495D01*
X175265384Y-82106265D01*
X175362165Y-82174032D01*
X175362167Y-82174033D01*
X175362170Y-82174035D01*
X175576337Y-82273903D01*
X175804592Y-82335063D01*
X175981034Y-82350500D01*
X176039999Y-82355659D01*
X176040000Y-82355659D01*
X176040001Y-82355659D01*
X176098966Y-82350500D01*
X176275408Y-82335063D01*
X176503663Y-82273903D01*
X176717830Y-82174035D01*
X176911401Y-82038495D01*
X177078495Y-81871401D01*
X177208425Y-81685842D01*
X177263002Y-81642217D01*
X177332500Y-81635023D01*
X177394855Y-81666546D01*
X177411575Y-81685842D01*
X177541281Y-81871082D01*
X177541505Y-81871401D01*
X177708599Y-82038495D01*
X177805384Y-82106265D01*
X177902165Y-82174032D01*
X177902167Y-82174033D01*
X177902170Y-82174035D01*
X178116337Y-82273903D01*
X178344592Y-82335063D01*
X178521034Y-82350500D01*
X178579999Y-82355659D01*
X178580000Y-82355659D01*
X178580001Y-82355659D01*
X178638966Y-82350500D01*
X178815408Y-82335063D01*
X179043663Y-82273903D01*
X179257830Y-82174035D01*
X179451401Y-82038495D01*
X179618495Y-81871401D01*
X179748730Y-81685405D01*
X179803307Y-81641781D01*
X179872805Y-81634587D01*
X179935160Y-81666110D01*
X179951879Y-81685405D01*
X180081890Y-81871078D01*
X180248917Y-82038105D01*
X180442421Y-82173600D01*
X180656507Y-82273429D01*
X180656516Y-82273433D01*
X180870000Y-82330634D01*
X180870000Y-81433012D01*
X180927007Y-81465925D01*
X181054174Y-81500000D01*
X181185826Y-81500000D01*
X181312993Y-81465925D01*
X181370000Y-81433012D01*
X181370000Y-82330633D01*
X181583483Y-82273433D01*
X181583492Y-82273429D01*
X181797578Y-82173600D01*
X181991082Y-82038105D01*
X182158105Y-81871082D01*
X182293600Y-81677578D01*
X182393429Y-81463492D01*
X182393432Y-81463486D01*
X182450636Y-81250000D01*
X181553012Y-81250000D01*
X181585925Y-81192993D01*
X181620000Y-81065826D01*
X181620000Y-80934174D01*
X181585925Y-80807007D01*
X181553012Y-80750000D01*
X182450636Y-80750000D01*
X182450635Y-80749999D01*
X182393432Y-80536513D01*
X182393429Y-80536507D01*
X182293600Y-80322422D01*
X182293599Y-80322420D01*
X182158113Y-80128926D01*
X182158108Y-80128920D01*
X181991082Y-79961894D01*
X181797578Y-79826399D01*
X181583492Y-79726570D01*
X181583486Y-79726567D01*
X181370000Y-79669364D01*
X181370000Y-80566988D01*
X181312993Y-80534075D01*
X181185826Y-80500000D01*
X181054174Y-80500000D01*
X180927007Y-80534075D01*
X180870000Y-80566988D01*
X180870000Y-79669364D01*
X180869999Y-79669364D01*
X180656513Y-79726567D01*
X180656507Y-79726570D01*
X180442422Y-79826399D01*
X180442420Y-79826400D01*
X180248926Y-79961886D01*
X180248920Y-79961891D01*
X180081891Y-80128920D01*
X180081890Y-80128922D01*
X179951880Y-80314595D01*
X179897303Y-80358219D01*
X179827804Y-80365412D01*
X179765450Y-80333890D01*
X179748730Y-80314594D01*
X179618494Y-80128597D01*
X179451402Y-79961506D01*
X179451395Y-79961501D01*
X179257834Y-79825967D01*
X179257830Y-79825965D01*
X179257828Y-79825964D01*
X179043663Y-79726097D01*
X179043659Y-79726096D01*
X179043655Y-79726094D01*
X178815413Y-79664938D01*
X178815403Y-79664936D01*
X178580001Y-79644341D01*
X178579999Y-79644341D01*
X178344596Y-79664936D01*
X178344586Y-79664938D01*
X178116344Y-79726094D01*
X178116335Y-79726098D01*
X177902171Y-79825964D01*
X177902169Y-79825965D01*
X177708597Y-79961505D01*
X177541505Y-80128597D01*
X177411575Y-80314158D01*
X177356998Y-80357783D01*
X177287500Y-80364977D01*
X177225145Y-80333454D01*
X177208425Y-80314158D01*
X177078494Y-80128597D01*
X176911402Y-79961506D01*
X176911395Y-79961501D01*
X176717834Y-79825967D01*
X176717830Y-79825965D01*
X176717828Y-79825964D01*
X176503663Y-79726097D01*
X176503659Y-79726096D01*
X176503655Y-79726094D01*
X176275413Y-79664938D01*
X176275403Y-79664936D01*
X176040001Y-79644341D01*
X176039999Y-79644341D01*
X175804596Y-79664936D01*
X175804586Y-79664938D01*
X175576344Y-79726094D01*
X175576335Y-79726098D01*
X175362171Y-79825964D01*
X175362169Y-79825965D01*
X175168600Y-79961503D01*
X175046673Y-80083430D01*
X174985350Y-80116914D01*
X174915658Y-80111930D01*
X174859725Y-80070058D01*
X174842810Y-80039081D01*
X174793797Y-79907671D01*
X174793793Y-79907664D01*
X174707547Y-79792455D01*
X174707544Y-79792452D01*
X174592335Y-79706206D01*
X174592328Y-79706202D01*
X174457482Y-79655908D01*
X174457483Y-79655908D01*
X174397883Y-79649501D01*
X174397881Y-79649500D01*
X174397873Y-79649500D01*
X174397864Y-79649500D01*
X172602129Y-79649500D01*
X172602123Y-79649501D01*
X172542516Y-79655908D01*
X172407671Y-79706202D01*
X172407664Y-79706206D01*
X172292455Y-79792452D01*
X172292452Y-79792455D01*
X172206206Y-79907664D01*
X172206202Y-79907671D01*
X172155908Y-80042517D01*
X172149501Y-80102116D01*
X172149500Y-80102135D01*
X172149500Y-81897870D01*
X160000000Y-81897870D01*
X160000000Y-77900005D01*
X160344958Y-77900005D01*
X160365103Y-78220221D01*
X160365104Y-78220228D01*
X160425230Y-78535417D01*
X160524382Y-78840575D01*
X160524384Y-78840580D01*
X160660998Y-79130897D01*
X160661001Y-79130903D01*
X160832921Y-79401806D01*
X160928773Y-79517671D01*
X161784728Y-78661716D01*
X161870278Y-78779466D01*
X162020534Y-78929722D01*
X162138281Y-79015270D01*
X161279175Y-79874375D01*
X161279176Y-79874377D01*
X161530928Y-80057285D01*
X161530946Y-80057297D01*
X161812116Y-80211871D01*
X161812124Y-80211875D01*
X162110444Y-80329987D01*
X162421233Y-80409784D01*
X162421242Y-80409786D01*
X162739556Y-80449999D01*
X162739570Y-80450000D01*
X163060430Y-80450000D01*
X163060443Y-80449999D01*
X163378757Y-80409786D01*
X163378766Y-80409784D01*
X163689555Y-80329987D01*
X163987875Y-80211875D01*
X163987883Y-80211871D01*
X164269053Y-80057297D01*
X164269063Y-80057290D01*
X164520822Y-79874375D01*
X164520823Y-79874375D01*
X163661718Y-79015270D01*
X163779466Y-78929722D01*
X163929722Y-78779466D01*
X164015270Y-78661717D01*
X164871225Y-79517672D01*
X164967068Y-79401819D01*
X165139002Y-79130896D01*
X165275615Y-78840580D01*
X165275617Y-78840575D01*
X165374769Y-78535417D01*
X165434895Y-78220228D01*
X165434896Y-78220221D01*
X165455042Y-77900005D01*
X214544958Y-77900005D01*
X214565103Y-78220221D01*
X214565104Y-78220228D01*
X214625230Y-78535417D01*
X214724382Y-78840575D01*
X214724384Y-78840580D01*
X214860998Y-79130897D01*
X214861001Y-79130903D01*
X215032921Y-79401806D01*
X215128773Y-79517671D01*
X215984728Y-78661716D01*
X216070278Y-78779466D01*
X216220534Y-78929722D01*
X216338281Y-79015270D01*
X215479175Y-79874375D01*
X215479176Y-79874377D01*
X215730928Y-80057285D01*
X215730946Y-80057297D01*
X216012116Y-80211871D01*
X216012124Y-80211875D01*
X216310444Y-80329987D01*
X216621233Y-80409784D01*
X216621242Y-80409786D01*
X216939556Y-80449999D01*
X216939570Y-80450000D01*
X217260430Y-80450000D01*
X217260443Y-80449999D01*
X217578757Y-80409786D01*
X217578766Y-80409784D01*
X217889555Y-80329987D01*
X218187875Y-80211875D01*
X218187883Y-80211871D01*
X218469053Y-80057297D01*
X218469063Y-80057290D01*
X218720822Y-79874375D01*
X218720823Y-79874375D01*
X217861718Y-79015270D01*
X217979466Y-78929722D01*
X218129722Y-78779466D01*
X218215270Y-78661717D01*
X219071225Y-79517672D01*
X219167068Y-79401819D01*
X219339002Y-79130896D01*
X219475615Y-78840580D01*
X219475617Y-78840575D01*
X219574769Y-78535417D01*
X219634895Y-78220228D01*
X219634896Y-78220221D01*
X219655042Y-77900005D01*
X219655042Y-77899994D01*
X219634896Y-77579778D01*
X219634895Y-77579771D01*
X219574769Y-77264582D01*
X219475617Y-76959424D01*
X219475615Y-76959419D01*
X219339001Y-76669102D01*
X219338998Y-76669096D01*
X219167078Y-76398193D01*
X219071224Y-76282326D01*
X218215269Y-77138281D01*
X218129722Y-77020534D01*
X217979466Y-76870278D01*
X217861716Y-76784728D01*
X218720823Y-75925623D01*
X218720822Y-75925621D01*
X218469071Y-75742714D01*
X218469053Y-75742702D01*
X218187883Y-75588128D01*
X218187875Y-75588124D01*
X217889555Y-75470012D01*
X217578766Y-75390215D01*
X217578757Y-75390213D01*
X217260443Y-75350000D01*
X216939556Y-75350000D01*
X216621242Y-75390213D01*
X216621233Y-75390215D01*
X216310444Y-75470012D01*
X216012124Y-75588124D01*
X216012116Y-75588128D01*
X215730946Y-75742702D01*
X215730928Y-75742714D01*
X215479176Y-75925622D01*
X215479175Y-75925623D01*
X216338281Y-76784729D01*
X216220534Y-76870278D01*
X216070278Y-77020534D01*
X215984729Y-77138282D01*
X215128773Y-76282326D01*
X215032924Y-76398188D01*
X214861001Y-76669096D01*
X214860998Y-76669102D01*
X214724384Y-76959419D01*
X214724382Y-76959424D01*
X214625230Y-77264582D01*
X214565104Y-77579771D01*
X214565103Y-77579778D01*
X214544958Y-77899994D01*
X214544958Y-77900005D01*
X165455042Y-77900005D01*
X165455042Y-77899994D01*
X165434896Y-77579778D01*
X165434895Y-77579771D01*
X165374769Y-77264582D01*
X165275617Y-76959424D01*
X165275615Y-76959419D01*
X165139001Y-76669102D01*
X165138998Y-76669096D01*
X164967078Y-76398193D01*
X164871224Y-76282326D01*
X164015269Y-77138281D01*
X163929722Y-77020534D01*
X163779466Y-76870278D01*
X163661716Y-76784728D01*
X164520823Y-75925623D01*
X164520822Y-75925621D01*
X164269071Y-75742714D01*
X164269053Y-75742702D01*
X163987883Y-75588128D01*
X163987875Y-75588124D01*
X163689555Y-75470012D01*
X163378766Y-75390215D01*
X163378757Y-75390213D01*
X163060443Y-75350000D01*
X162739556Y-75350000D01*
X162421242Y-75390213D01*
X162421233Y-75390215D01*
X162110444Y-75470012D01*
X161812124Y-75588124D01*
X161812116Y-75588128D01*
X161530946Y-75742702D01*
X161530928Y-75742714D01*
X161279176Y-75925622D01*
X161279175Y-75925623D01*
X162138281Y-76784729D01*
X162020534Y-76870278D01*
X161870278Y-77020534D01*
X161784729Y-77138282D01*
X160928773Y-76282326D01*
X160832924Y-76398188D01*
X160661001Y-76669096D01*
X160660998Y-76669102D01*
X160524384Y-76959419D01*
X160524382Y-76959424D01*
X160425230Y-77264582D01*
X160365104Y-77579771D01*
X160365103Y-77579778D01*
X160344958Y-77899994D01*
X160344958Y-77900005D01*
X160000000Y-77900005D01*
X160000000Y-69900005D01*
X160344958Y-69900005D01*
X160365103Y-70220221D01*
X160365104Y-70220228D01*
X160425230Y-70535417D01*
X160524382Y-70840575D01*
X160524384Y-70840580D01*
X160660998Y-71130897D01*
X160661001Y-71130903D01*
X160832921Y-71401806D01*
X160928773Y-71517671D01*
X161784728Y-70661716D01*
X161870278Y-70779466D01*
X162020534Y-70929722D01*
X162138281Y-71015270D01*
X161279175Y-71874375D01*
X161279176Y-71874377D01*
X161530928Y-72057285D01*
X161530946Y-72057297D01*
X161812116Y-72211871D01*
X161812124Y-72211875D01*
X162110444Y-72329987D01*
X162421233Y-72409784D01*
X162421242Y-72409786D01*
X162739556Y-72449999D01*
X162739570Y-72450000D01*
X163060430Y-72450000D01*
X163060443Y-72449999D01*
X163378757Y-72409786D01*
X163378766Y-72409784D01*
X163689555Y-72329987D01*
X163987875Y-72211875D01*
X163987883Y-72211871D01*
X164269053Y-72057297D01*
X164269063Y-72057290D01*
X164520822Y-71874375D01*
X164520823Y-71874375D01*
X163661718Y-71015270D01*
X163779466Y-70929722D01*
X163929722Y-70779466D01*
X164015270Y-70661717D01*
X164871225Y-71517672D01*
X164967068Y-71401819D01*
X165139002Y-71130896D01*
X165275615Y-70840580D01*
X165275617Y-70840575D01*
X165374769Y-70535417D01*
X165434895Y-70220228D01*
X165434896Y-70220221D01*
X165455042Y-69900005D01*
X165455042Y-69899994D01*
X165434896Y-69579778D01*
X165434895Y-69579771D01*
X165374769Y-69264582D01*
X165275617Y-68959424D01*
X165275615Y-68959419D01*
X165139001Y-68669102D01*
X165138998Y-68669096D01*
X164967078Y-68398193D01*
X164871224Y-68282326D01*
X164015269Y-69138281D01*
X163929722Y-69020534D01*
X163779466Y-68870278D01*
X163661716Y-68784728D01*
X164520823Y-67925623D01*
X164520822Y-67925621D01*
X164269071Y-67742714D01*
X164269053Y-67742702D01*
X163987883Y-67588128D01*
X163987875Y-67588124D01*
X163689555Y-67470012D01*
X163378766Y-67390215D01*
X163378757Y-67390213D01*
X163060443Y-67350000D01*
X162739556Y-67350000D01*
X162421242Y-67390213D01*
X162421233Y-67390215D01*
X162110444Y-67470012D01*
X161812124Y-67588124D01*
X161812116Y-67588128D01*
X161530946Y-67742702D01*
X161530928Y-67742714D01*
X161279176Y-67925622D01*
X161279175Y-67925623D01*
X162138281Y-68784729D01*
X162020534Y-68870278D01*
X161870278Y-69020534D01*
X161784729Y-69138282D01*
X160928773Y-68282326D01*
X160832924Y-68398188D01*
X160661001Y-68669096D01*
X160660998Y-68669102D01*
X160524384Y-68959419D01*
X160524382Y-68959424D01*
X160425230Y-69264582D01*
X160365104Y-69579771D01*
X160365103Y-69579778D01*
X160344958Y-69899994D01*
X160344958Y-69900005D01*
X160000000Y-69900005D01*
X160000000Y-67124000D01*
X160019685Y-67056961D01*
X160072489Y-67011206D01*
X160124000Y-67000000D01*
X165876000Y-67000000D01*
X165943039Y-67019685D01*
G37*
%TD.AperFunction*%
%TA.AperFunction,Conductor*%
G36*
X178889474Y-103303941D02*
G01*
X178938169Y-103354047D01*
X178952500Y-103411914D01*
X178952500Y-107632312D01*
X178932815Y-107699351D01*
X178920650Y-107715284D01*
X178845466Y-107798784D01*
X178750821Y-107962715D01*
X178750818Y-107962722D01*
X178694024Y-108137517D01*
X178692326Y-108142744D01*
X178672540Y-108331000D01*
X178692326Y-108519256D01*
X178692327Y-108519259D01*
X178750818Y-108699277D01*
X178750821Y-108699284D01*
X178845467Y-108863216D01*
X178941529Y-108969903D01*
X178972129Y-109003888D01*
X179125265Y-109115148D01*
X179125270Y-109115151D01*
X179298192Y-109192142D01*
X179298197Y-109192144D01*
X179483354Y-109231500D01*
X179483355Y-109231500D01*
X179672644Y-109231500D01*
X179672646Y-109231500D01*
X179857803Y-109192144D01*
X180030730Y-109115151D01*
X180183871Y-109003888D01*
X180310533Y-108863216D01*
X180405179Y-108699284D01*
X180463674Y-108519256D01*
X180470679Y-108452597D01*
X180497263Y-108387985D01*
X180554561Y-108348000D01*
X180624380Y-108345340D01*
X180684553Y-108380849D01*
X180715977Y-108443254D01*
X180717318Y-108452583D01*
X180724326Y-108519256D01*
X180724327Y-108519259D01*
X180782818Y-108699277D01*
X180782821Y-108699284D01*
X180877467Y-108863216D01*
X180973529Y-108969903D01*
X181004129Y-109003888D01*
X181157265Y-109115148D01*
X181157270Y-109115151D01*
X181330192Y-109192142D01*
X181330197Y-109192144D01*
X181515354Y-109231500D01*
X181515355Y-109231500D01*
X181704644Y-109231500D01*
X181704646Y-109231500D01*
X181889803Y-109192144D01*
X182062730Y-109115151D01*
X182215871Y-109003888D01*
X182342533Y-108863216D01*
X182437179Y-108699284D01*
X182495674Y-108519256D01*
X182498405Y-108493266D01*
X182524987Y-108428652D01*
X182534036Y-108418552D01*
X182897729Y-108054860D01*
X182897733Y-108054858D01*
X182984858Y-107967733D01*
X183053311Y-107865286D01*
X183053312Y-107865285D01*
X183100463Y-107751451D01*
X183101846Y-107744501D01*
X183124500Y-107630606D01*
X183124500Y-106228452D01*
X183144185Y-106161413D01*
X183160819Y-106140771D01*
X183375680Y-105925910D01*
X183613428Y-105688161D01*
X183674749Y-105654678D01*
X183744440Y-105659662D01*
X183800374Y-105701533D01*
X183813487Y-105723436D01*
X183864965Y-105833830D01*
X183864967Y-105833834D01*
X184000501Y-106027395D01*
X184000506Y-106027402D01*
X184167597Y-106194493D01*
X184167603Y-106194498D01*
X184353158Y-106324425D01*
X184396783Y-106379002D01*
X184403977Y-106448500D01*
X184372454Y-106510855D01*
X184353158Y-106527575D01*
X184167597Y-106657505D01*
X184000505Y-106824597D01*
X183864965Y-107018169D01*
X183864964Y-107018171D01*
X183765098Y-107232335D01*
X183765094Y-107232344D01*
X183703938Y-107460586D01*
X183703936Y-107460596D01*
X183683341Y-107695999D01*
X183683341Y-107696000D01*
X183703936Y-107931403D01*
X183703938Y-107931413D01*
X183765094Y-108159655D01*
X183765096Y-108159659D01*
X183765097Y-108159663D01*
X183836012Y-108311740D01*
X183864965Y-108373830D01*
X183864967Y-108373834D01*
X184000501Y-108567395D01*
X184000506Y-108567402D01*
X184167597Y-108734493D01*
X184167603Y-108734498D01*
X184353158Y-108864425D01*
X184396783Y-108919002D01*
X184403977Y-108988500D01*
X184372454Y-109050855D01*
X184353158Y-109067575D01*
X184167597Y-109197505D01*
X184000505Y-109364597D01*
X183864965Y-109558169D01*
X183864964Y-109558171D01*
X183765098Y-109772335D01*
X183765094Y-109772344D01*
X183703938Y-110000586D01*
X183703936Y-110000596D01*
X183683341Y-110235999D01*
X183683341Y-110236000D01*
X183703936Y-110471403D01*
X183703938Y-110471413D01*
X183765094Y-110699655D01*
X183765096Y-110699659D01*
X183765097Y-110699663D01*
X183844105Y-110869096D01*
X183864965Y-110913830D01*
X183864967Y-110913834D01*
X183923431Y-110997328D01*
X184000501Y-111107396D01*
X184000506Y-111107402D01*
X184122430Y-111229326D01*
X184155915Y-111290649D01*
X184150931Y-111360341D01*
X184109059Y-111416274D01*
X184078083Y-111433189D01*
X183946669Y-111482203D01*
X183946664Y-111482206D01*
X183831455Y-111568452D01*
X183831452Y-111568455D01*
X183745206Y-111683664D01*
X183745202Y-111683671D01*
X183694908Y-111818517D01*
X183688501Y-111878116D01*
X183688501Y-111878123D01*
X183688500Y-111878135D01*
X183688500Y-113673870D01*
X183688501Y-113673879D01*
X183695313Y-113737248D01*
X183682906Y-113806007D01*
X183635294Y-113857143D01*
X183572023Y-113874500D01*
X178664000Y-113874500D01*
X178596961Y-113854815D01*
X178551206Y-113802011D01*
X178540000Y-113750500D01*
X178540000Y-113060000D01*
X176540000Y-113060000D01*
X176540000Y-113750500D01*
X176520315Y-113817539D01*
X176467511Y-113863294D01*
X176416000Y-113874500D01*
X173584500Y-113874500D01*
X173517461Y-113854815D01*
X173471706Y-113802011D01*
X173460500Y-113750500D01*
X173460499Y-112745452D01*
X173480183Y-112678413D01*
X173496818Y-112657771D01*
X173717771Y-112436819D01*
X173779094Y-112403334D01*
X173805452Y-112400500D01*
X175286607Y-112400500D01*
X175347029Y-112388481D01*
X175407452Y-112376463D01*
X175407455Y-112376461D01*
X175407458Y-112376461D01*
X175440787Y-112362654D01*
X175440786Y-112362654D01*
X175440792Y-112362652D01*
X175521286Y-112329312D01*
X175572509Y-112295084D01*
X175623733Y-112260858D01*
X175710858Y-112173733D01*
X175710858Y-112173731D01*
X175721066Y-112163524D01*
X175721067Y-112163521D01*
X176328320Y-111556270D01*
X176389642Y-111522786D01*
X176459334Y-111527770D01*
X176515267Y-111569642D01*
X176539684Y-111635106D01*
X176540000Y-111643952D01*
X176540000Y-112560000D01*
X178540000Y-112560000D01*
X178540000Y-111507172D01*
X178539999Y-111507155D01*
X178533598Y-111447627D01*
X178533596Y-111447620D01*
X178483354Y-111312913D01*
X178483350Y-111312906D01*
X178397190Y-111197812D01*
X178397187Y-111197809D01*
X178282093Y-111111649D01*
X178282086Y-111111645D01*
X178194937Y-111079141D01*
X178139003Y-111037270D01*
X178114586Y-110971806D01*
X178114948Y-110950010D01*
X178125460Y-110850000D01*
X178105674Y-110661744D01*
X178047179Y-110481716D01*
X177952533Y-110317784D01*
X177825871Y-110177112D01*
X177825870Y-110177111D01*
X177672734Y-110065851D01*
X177672729Y-110065848D01*
X177499807Y-109988857D01*
X177499802Y-109988855D01*
X177354001Y-109957865D01*
X177314646Y-109949500D01*
X177125354Y-109949500D01*
X177092897Y-109956398D01*
X176940197Y-109988855D01*
X176940192Y-109988857D01*
X176767270Y-110065848D01*
X176767265Y-110065851D01*
X176614130Y-110177110D01*
X176614126Y-110177114D01*
X176608400Y-110183474D01*
X176548913Y-110220121D01*
X176516252Y-110224500D01*
X176217741Y-110224500D01*
X176217721Y-110224499D01*
X176211607Y-110224499D01*
X176124499Y-110224499D01*
X176057460Y-110204814D01*
X176011705Y-110152010D01*
X176000499Y-110100499D01*
X176000499Y-109495681D01*
X176020184Y-109428642D01*
X176072988Y-109382887D01*
X176098709Y-109374393D01*
X176161043Y-109361144D01*
X176333970Y-109284151D01*
X176487111Y-109172888D01*
X176613773Y-109032216D01*
X176708419Y-108868284D01*
X176766914Y-108688256D01*
X176786700Y-108500000D01*
X176766914Y-108311744D01*
X176708419Y-108131716D01*
X176613773Y-107967784D01*
X176487111Y-107827112D01*
X176487110Y-107827111D01*
X176333974Y-107715851D01*
X176333969Y-107715848D01*
X176161047Y-107638857D01*
X176161042Y-107638855D01*
X176015241Y-107607865D01*
X175975886Y-107599500D01*
X175786594Y-107599500D01*
X175679826Y-107622193D01*
X175610160Y-107616877D01*
X175554427Y-107574739D01*
X175530322Y-107509159D01*
X175545499Y-107440958D01*
X175566362Y-107413226D01*
X176308729Y-106670860D01*
X176308733Y-106670858D01*
X176395858Y-106583733D01*
X176438802Y-106519463D01*
X176464312Y-106481286D01*
X176511463Y-106367451D01*
X176511464Y-106367444D01*
X176511465Y-106367444D01*
X176514171Y-106353833D01*
X176516856Y-106340341D01*
X176535500Y-106246606D01*
X176535500Y-104272255D01*
X176555185Y-104205216D01*
X176607989Y-104159461D01*
X176677147Y-104149517D01*
X176689856Y-104152764D01*
X176689965Y-104152307D01*
X176697516Y-104154091D01*
X176702074Y-104154581D01*
X176757127Y-104160500D01*
X177602872Y-104160499D01*
X177662483Y-104154091D01*
X177797331Y-104103796D01*
X177912546Y-104017546D01*
X177998796Y-103902331D01*
X178049091Y-103767483D01*
X178055500Y-103707873D01*
X178055500Y-103640500D01*
X178075185Y-103573461D01*
X178127989Y-103527706D01*
X178179500Y-103516500D01*
X178275644Y-103516500D01*
X178275646Y-103516500D01*
X178460803Y-103477144D01*
X178633730Y-103400151D01*
X178755617Y-103311594D01*
X178821420Y-103288116D01*
X178889474Y-103303941D01*
G37*
%TD.AperFunction*%
%TA.AperFunction,Conductor*%
G36*
X176501587Y-97145185D02*
G01*
X176522229Y-97161819D01*
X176654893Y-97294483D01*
X176688378Y-97355806D01*
X176683394Y-97425498D01*
X176641522Y-97481431D01*
X176610547Y-97498345D01*
X176588335Y-97506630D01*
X176518644Y-97511616D01*
X176501668Y-97506631D01*
X176392485Y-97465909D01*
X176392483Y-97465908D01*
X176332883Y-97459501D01*
X176332881Y-97459500D01*
X176332873Y-97459500D01*
X176332864Y-97459500D01*
X175487129Y-97459500D01*
X175487123Y-97459501D01*
X175427515Y-97465909D01*
X175318332Y-97506631D01*
X175248641Y-97511615D01*
X175231668Y-97506631D01*
X175122485Y-97465909D01*
X175122483Y-97465908D01*
X175062883Y-97459501D01*
X175062881Y-97459500D01*
X175062873Y-97459500D01*
X175062864Y-97459500D01*
X174217129Y-97459500D01*
X174217123Y-97459501D01*
X174157515Y-97465909D01*
X174048332Y-97506631D01*
X173978641Y-97511615D01*
X173961668Y-97506631D01*
X173852485Y-97465909D01*
X173852483Y-97465908D01*
X173792883Y-97459501D01*
X173792881Y-97459500D01*
X173792873Y-97459500D01*
X173792864Y-97459500D01*
X172947129Y-97459500D01*
X172947123Y-97459501D01*
X172887515Y-97465909D01*
X172778332Y-97506631D01*
X172708641Y-97511615D01*
X172691668Y-97506631D01*
X172582485Y-97465909D01*
X172582483Y-97465908D01*
X172522883Y-97459501D01*
X172522881Y-97459500D01*
X172522873Y-97459500D01*
X172522864Y-97459500D01*
X171677129Y-97459500D01*
X171677123Y-97459501D01*
X171617516Y-97465908D01*
X171482671Y-97516202D01*
X171482664Y-97516206D01*
X171367455Y-97602452D01*
X171367452Y-97602455D01*
X171281206Y-97717664D01*
X171281202Y-97717671D01*
X171230908Y-97852517D01*
X171224501Y-97912116D01*
X171224500Y-97912135D01*
X171224500Y-98770790D01*
X171218432Y-98809106D01*
X171214325Y-98821744D01*
X171194540Y-99010000D01*
X171214325Y-99198256D01*
X171218431Y-99210891D01*
X171224500Y-99249209D01*
X171224500Y-100107870D01*
X171224501Y-100107876D01*
X171230908Y-100167483D01*
X171281202Y-100302328D01*
X171281206Y-100302335D01*
X171367452Y-100417544D01*
X171367455Y-100417547D01*
X171482664Y-100503793D01*
X171482671Y-100503797D01*
X171617517Y-100554091D01*
X171617516Y-100554091D01*
X171624444Y-100554835D01*
X171677127Y-100560500D01*
X172522872Y-100560499D01*
X172582483Y-100554091D01*
X172691670Y-100513366D01*
X172761358Y-100508383D01*
X172778316Y-100513361D01*
X172887517Y-100554091D01*
X172947127Y-100560500D01*
X173792872Y-100560499D01*
X173852483Y-100554091D01*
X173961670Y-100513366D01*
X174031358Y-100508383D01*
X174048316Y-100513361D01*
X174157517Y-100554091D01*
X174217127Y-100560500D01*
X175062872Y-100560499D01*
X175122483Y-100554091D01*
X175231670Y-100513366D01*
X175301358Y-100508383D01*
X175318316Y-100513361D01*
X175427517Y-100554091D01*
X175487127Y-100560500D01*
X176145419Y-100560499D01*
X176212458Y-100580183D01*
X176258213Y-100632987D01*
X176268740Y-100671537D01*
X176277389Y-100753830D01*
X176279327Y-100772261D01*
X176319916Y-100897183D01*
X176321911Y-100967024D01*
X176285830Y-101026856D01*
X176223129Y-101057684D01*
X176201985Y-101059500D01*
X175487129Y-101059500D01*
X175487123Y-101059501D01*
X175427516Y-101065908D01*
X175317618Y-101106898D01*
X175247926Y-101111882D01*
X175230952Y-101106898D01*
X175122379Y-101066403D01*
X175122372Y-101066401D01*
X175062844Y-101060000D01*
X174890000Y-101060000D01*
X174890000Y-104160000D01*
X175062828Y-104160000D01*
X175062844Y-104159999D01*
X175122372Y-104153598D01*
X175129930Y-104151813D01*
X175130584Y-104154581D01*
X175186856Y-104150556D01*
X175248180Y-104184041D01*
X175281666Y-104245363D01*
X175284500Y-104271723D01*
X175284500Y-105874548D01*
X175264815Y-105941587D01*
X175248181Y-105962229D01*
X174337181Y-106873229D01*
X174275858Y-106906714D01*
X174206166Y-106901730D01*
X174150233Y-106859858D01*
X174125816Y-106794394D01*
X174125500Y-106785548D01*
X174125500Y-106438393D01*
X174122258Y-106422097D01*
X174122257Y-106422094D01*
X174101463Y-106317549D01*
X174054312Y-106203715D01*
X174054309Y-106203710D01*
X174037256Y-106178189D01*
X174037253Y-106178186D01*
X174016396Y-106146970D01*
X173995520Y-106080292D01*
X173995500Y-106078081D01*
X173995500Y-104271723D01*
X174015185Y-104204684D01*
X174067989Y-104158929D01*
X174137147Y-104148985D01*
X174149965Y-104152256D01*
X174150070Y-104151813D01*
X174157627Y-104153598D01*
X174217155Y-104159999D01*
X174217172Y-104160000D01*
X174390000Y-104160000D01*
X174390000Y-101060000D01*
X174217155Y-101060000D01*
X174157627Y-101066401D01*
X174157619Y-101066403D01*
X174049047Y-101106898D01*
X173979355Y-101111882D01*
X173962381Y-101106898D01*
X173852482Y-101065908D01*
X173852483Y-101065908D01*
X173792883Y-101059501D01*
X173792881Y-101059500D01*
X173792873Y-101059500D01*
X173792864Y-101059500D01*
X172947129Y-101059500D01*
X172947123Y-101059501D01*
X172887515Y-101065909D01*
X172778332Y-101106631D01*
X172708641Y-101111615D01*
X172691668Y-101106631D01*
X172582485Y-101065909D01*
X172582483Y-101065908D01*
X172522883Y-101059501D01*
X172522881Y-101059500D01*
X172522873Y-101059500D01*
X172522864Y-101059500D01*
X171677129Y-101059500D01*
X171677123Y-101059501D01*
X171617516Y-101065908D01*
X171482671Y-101116202D01*
X171482664Y-101116206D01*
X171367455Y-101202452D01*
X171367452Y-101202455D01*
X171281206Y-101317664D01*
X171281202Y-101317671D01*
X171230908Y-101452517D01*
X171224501Y-101512116D01*
X171224500Y-101512135D01*
X171224500Y-103707870D01*
X171224501Y-103707876D01*
X171230908Y-103767483D01*
X171281202Y-103902328D01*
X171281203Y-103902329D01*
X171281204Y-103902331D01*
X171340818Y-103981965D01*
X171367452Y-104017543D01*
X171367455Y-104017547D01*
X171424810Y-104060482D01*
X171466682Y-104116415D01*
X171474500Y-104159749D01*
X171474500Y-108132878D01*
X171454815Y-108199917D01*
X171423385Y-108233196D01*
X171294121Y-108327111D01*
X171167459Y-108467783D01*
X171151886Y-108494757D01*
X171101318Y-108542972D01*
X171032711Y-108556194D01*
X170967846Y-108530226D01*
X170927319Y-108473311D01*
X170920499Y-108432756D01*
X170920499Y-108197129D01*
X170920498Y-108197123D01*
X170920497Y-108197116D01*
X170914653Y-108142744D01*
X170914091Y-108137516D01*
X170863797Y-108002671D01*
X170863793Y-108002664D01*
X170777547Y-107887455D01*
X170777544Y-107887452D01*
X170662334Y-107801205D01*
X170626164Y-107787714D01*
X170570231Y-107745841D01*
X170545816Y-107680376D01*
X170545500Y-107671533D01*
X170545500Y-97390452D01*
X170565185Y-97323413D01*
X170581819Y-97302771D01*
X170722771Y-97161819D01*
X170784094Y-97128334D01*
X170810452Y-97125500D01*
X176434548Y-97125500D01*
X176501587Y-97145185D01*
G37*
%TD.AperFunction*%
%TD*%
M02*
