%TF.GenerationSoftware,KiCad,Pcbnew,8.0.2-8.0.2-0~ubuntu22.04.1*%
%TF.CreationDate,2024-05-04T18:31:52-07:00*%
%TF.ProjectId,gps_interposer,6770735f-696e-4746-9572-706f7365722e,rev?*%
%TF.SameCoordinates,Original*%
%TF.FileFunction,Legend,Top*%
%TF.FilePolarity,Positive*%
%FSLAX46Y46*%
G04 Gerber Fmt 4.6, Leading zero omitted, Abs format (unit mm)*
G04 Created by KiCad (PCBNEW 8.0.2-8.0.2-0~ubuntu22.04.1) date 2024-05-04 18:31:52*
%MOMM*%
%LPD*%
G01*
G04 APERTURE LIST*
%ADD10C,0.150000*%
%ADD11C,0.202000*%
%ADD12C,0.120000*%
G04 APERTURE END LIST*
D10*
X211721819Y-108851458D02*
X211721819Y-108232411D01*
X211721819Y-108232411D02*
X212102771Y-108565744D01*
X212102771Y-108565744D02*
X212102771Y-108422887D01*
X212102771Y-108422887D02*
X212150390Y-108327649D01*
X212150390Y-108327649D02*
X212198009Y-108280030D01*
X212198009Y-108280030D02*
X212293247Y-108232411D01*
X212293247Y-108232411D02*
X212531342Y-108232411D01*
X212531342Y-108232411D02*
X212626580Y-108280030D01*
X212626580Y-108280030D02*
X212674200Y-108327649D01*
X212674200Y-108327649D02*
X212721819Y-108422887D01*
X212721819Y-108422887D02*
X212721819Y-108708601D01*
X212721819Y-108708601D02*
X212674200Y-108803839D01*
X212674200Y-108803839D02*
X212626580Y-108851458D01*
X211721819Y-107946696D02*
X212721819Y-107613363D01*
X212721819Y-107613363D02*
X211721819Y-107280030D01*
X211721819Y-106756220D02*
X211721819Y-106660982D01*
X211721819Y-106660982D02*
X211769438Y-106565744D01*
X211769438Y-106565744D02*
X211817057Y-106518125D01*
X211817057Y-106518125D02*
X211912295Y-106470506D01*
X211912295Y-106470506D02*
X212102771Y-106422887D01*
X212102771Y-106422887D02*
X212340866Y-106422887D01*
X212340866Y-106422887D02*
X212531342Y-106470506D01*
X212531342Y-106470506D02*
X212626580Y-106518125D01*
X212626580Y-106518125D02*
X212674200Y-106565744D01*
X212674200Y-106565744D02*
X212721819Y-106660982D01*
X212721819Y-106660982D02*
X212721819Y-106756220D01*
X212721819Y-106756220D02*
X212674200Y-106851458D01*
X212674200Y-106851458D02*
X212626580Y-106899077D01*
X212626580Y-106899077D02*
X212531342Y-106946696D01*
X212531342Y-106946696D02*
X212340866Y-106994315D01*
X212340866Y-106994315D02*
X212102771Y-106994315D01*
X212102771Y-106994315D02*
X211912295Y-106946696D01*
X211912295Y-106946696D02*
X211817057Y-106899077D01*
X211817057Y-106899077D02*
X211769438Y-106851458D01*
X211769438Y-106851458D02*
X211721819Y-106756220D01*
D11*
X177647000Y-104394000D02*
G75*
G02*
X177445000Y-104394000I-101000J0D01*
G01*
X177445000Y-104394000D02*
G75*
G02*
X177647000Y-104394000I101000J0D01*
G01*
D10*
X206514819Y-108407030D02*
X206514819Y-108883220D01*
X206514819Y-108883220D02*
X206991009Y-108930839D01*
X206991009Y-108930839D02*
X206943390Y-108883220D01*
X206943390Y-108883220D02*
X206895771Y-108787982D01*
X206895771Y-108787982D02*
X206895771Y-108549887D01*
X206895771Y-108549887D02*
X206943390Y-108454649D01*
X206943390Y-108454649D02*
X206991009Y-108407030D01*
X206991009Y-108407030D02*
X207086247Y-108359411D01*
X207086247Y-108359411D02*
X207324342Y-108359411D01*
X207324342Y-108359411D02*
X207419580Y-108407030D01*
X207419580Y-108407030D02*
X207467200Y-108454649D01*
X207467200Y-108454649D02*
X207514819Y-108549887D01*
X207514819Y-108549887D02*
X207514819Y-108787982D01*
X207514819Y-108787982D02*
X207467200Y-108883220D01*
X207467200Y-108883220D02*
X207419580Y-108930839D01*
X206514819Y-108073696D02*
X207514819Y-107740363D01*
X207514819Y-107740363D02*
X206514819Y-107407030D01*
X179470207Y-100707819D02*
X179136874Y-100231628D01*
X178898779Y-100707819D02*
X178898779Y-99707819D01*
X178898779Y-99707819D02*
X179279731Y-99707819D01*
X179279731Y-99707819D02*
X179374969Y-99755438D01*
X179374969Y-99755438D02*
X179422588Y-99803057D01*
X179422588Y-99803057D02*
X179470207Y-99898295D01*
X179470207Y-99898295D02*
X179470207Y-100041152D01*
X179470207Y-100041152D02*
X179422588Y-100136390D01*
X179422588Y-100136390D02*
X179374969Y-100184009D01*
X179374969Y-100184009D02*
X179279731Y-100231628D01*
X179279731Y-100231628D02*
X178898779Y-100231628D01*
X179803541Y-99707819D02*
X180470207Y-100707819D01*
X180470207Y-99707819D02*
X179803541Y-100707819D01*
X180851160Y-100707819D02*
X180851160Y-99707819D01*
X180851160Y-99707819D02*
X181089255Y-99707819D01*
X181089255Y-99707819D02*
X181232112Y-99755438D01*
X181232112Y-99755438D02*
X181327350Y-99850676D01*
X181327350Y-99850676D02*
X181374969Y-99945914D01*
X181374969Y-99945914D02*
X181422588Y-100136390D01*
X181422588Y-100136390D02*
X181422588Y-100279247D01*
X181422588Y-100279247D02*
X181374969Y-100469723D01*
X181374969Y-100469723D02*
X181327350Y-100564961D01*
X181327350Y-100564961D02*
X181232112Y-100660200D01*
X181232112Y-100660200D02*
X181089255Y-100707819D01*
X181089255Y-100707819D02*
X180851160Y-100707819D01*
X181613065Y-100803057D02*
X182374969Y-100803057D01*
X183184493Y-100612580D02*
X183136874Y-100660200D01*
X183136874Y-100660200D02*
X182994017Y-100707819D01*
X182994017Y-100707819D02*
X182898779Y-100707819D01*
X182898779Y-100707819D02*
X182755922Y-100660200D01*
X182755922Y-100660200D02*
X182660684Y-100564961D01*
X182660684Y-100564961D02*
X182613065Y-100469723D01*
X182613065Y-100469723D02*
X182565446Y-100279247D01*
X182565446Y-100279247D02*
X182565446Y-100136390D01*
X182565446Y-100136390D02*
X182613065Y-99945914D01*
X182613065Y-99945914D02*
X182660684Y-99850676D01*
X182660684Y-99850676D02*
X182755922Y-99755438D01*
X182755922Y-99755438D02*
X182898779Y-99707819D01*
X182898779Y-99707819D02*
X182994017Y-99707819D01*
X182994017Y-99707819D02*
X183136874Y-99755438D01*
X183136874Y-99755438D02*
X183184493Y-99803057D01*
X188360207Y-87372819D02*
X188026874Y-86896628D01*
X187788779Y-87372819D02*
X187788779Y-86372819D01*
X187788779Y-86372819D02*
X188169731Y-86372819D01*
X188169731Y-86372819D02*
X188264969Y-86420438D01*
X188264969Y-86420438D02*
X188312588Y-86468057D01*
X188312588Y-86468057D02*
X188360207Y-86563295D01*
X188360207Y-86563295D02*
X188360207Y-86706152D01*
X188360207Y-86706152D02*
X188312588Y-86801390D01*
X188312588Y-86801390D02*
X188264969Y-86849009D01*
X188264969Y-86849009D02*
X188169731Y-86896628D01*
X188169731Y-86896628D02*
X187788779Y-86896628D01*
X188788779Y-87372819D02*
X188788779Y-86372819D01*
X188788779Y-86372819D02*
X189169731Y-86372819D01*
X189169731Y-86372819D02*
X189264969Y-86420438D01*
X189264969Y-86420438D02*
X189312588Y-86468057D01*
X189312588Y-86468057D02*
X189360207Y-86563295D01*
X189360207Y-86563295D02*
X189360207Y-86706152D01*
X189360207Y-86706152D02*
X189312588Y-86801390D01*
X189312588Y-86801390D02*
X189264969Y-86849009D01*
X189264969Y-86849009D02*
X189169731Y-86896628D01*
X189169731Y-86896628D02*
X188788779Y-86896628D01*
X189741160Y-86468057D02*
X189788779Y-86420438D01*
X189788779Y-86420438D02*
X189884017Y-86372819D01*
X189884017Y-86372819D02*
X190122112Y-86372819D01*
X190122112Y-86372819D02*
X190217350Y-86420438D01*
X190217350Y-86420438D02*
X190264969Y-86468057D01*
X190264969Y-86468057D02*
X190312588Y-86563295D01*
X190312588Y-86563295D02*
X190312588Y-86658533D01*
X190312588Y-86658533D02*
X190264969Y-86801390D01*
X190264969Y-86801390D02*
X189693541Y-87372819D01*
X189693541Y-87372819D02*
X190312588Y-87372819D01*
X190931636Y-86372819D02*
X191026874Y-86372819D01*
X191026874Y-86372819D02*
X191122112Y-86420438D01*
X191122112Y-86420438D02*
X191169731Y-86468057D01*
X191169731Y-86468057D02*
X191217350Y-86563295D01*
X191217350Y-86563295D02*
X191264969Y-86753771D01*
X191264969Y-86753771D02*
X191264969Y-86991866D01*
X191264969Y-86991866D02*
X191217350Y-87182342D01*
X191217350Y-87182342D02*
X191169731Y-87277580D01*
X191169731Y-87277580D02*
X191122112Y-87325200D01*
X191122112Y-87325200D02*
X191026874Y-87372819D01*
X191026874Y-87372819D02*
X190931636Y-87372819D01*
X190931636Y-87372819D02*
X190836398Y-87325200D01*
X190836398Y-87325200D02*
X190788779Y-87277580D01*
X190788779Y-87277580D02*
X190741160Y-87182342D01*
X190741160Y-87182342D02*
X190693541Y-86991866D01*
X190693541Y-86991866D02*
X190693541Y-86753771D01*
X190693541Y-86753771D02*
X190741160Y-86563295D01*
X190741160Y-86563295D02*
X190788779Y-86468057D01*
X190788779Y-86468057D02*
X190836398Y-86420438D01*
X190836398Y-86420438D02*
X190931636Y-86372819D01*
X192122112Y-86706152D02*
X192122112Y-87372819D01*
X191884017Y-86325200D02*
X191645922Y-87039485D01*
X191645922Y-87039485D02*
X192264969Y-87039485D01*
X192836398Y-86372819D02*
X192931636Y-86372819D01*
X192931636Y-86372819D02*
X193026874Y-86420438D01*
X193026874Y-86420438D02*
X193074493Y-86468057D01*
X193074493Y-86468057D02*
X193122112Y-86563295D01*
X193122112Y-86563295D02*
X193169731Y-86753771D01*
X193169731Y-86753771D02*
X193169731Y-86991866D01*
X193169731Y-86991866D02*
X193122112Y-87182342D01*
X193122112Y-87182342D02*
X193074493Y-87277580D01*
X193074493Y-87277580D02*
X193026874Y-87325200D01*
X193026874Y-87325200D02*
X192931636Y-87372819D01*
X192931636Y-87372819D02*
X192836398Y-87372819D01*
X192836398Y-87372819D02*
X192741160Y-87325200D01*
X192741160Y-87325200D02*
X192693541Y-87277580D01*
X192693541Y-87277580D02*
X192645922Y-87182342D01*
X192645922Y-87182342D02*
X192598303Y-86991866D01*
X192598303Y-86991866D02*
X192598303Y-86753771D01*
X192598303Y-86753771D02*
X192645922Y-86563295D01*
X192645922Y-86563295D02*
X192693541Y-86468057D01*
X192693541Y-86468057D02*
X192741160Y-86420438D01*
X192741160Y-86420438D02*
X192836398Y-86372819D01*
X193598303Y-86991866D02*
X194360208Y-86991866D01*
X194741160Y-86372819D02*
X195407826Y-86372819D01*
X195407826Y-86372819D02*
X194741160Y-87372819D01*
X194741160Y-87372819D02*
X195407826Y-87372819D01*
X196169731Y-87325200D02*
X196074493Y-87372819D01*
X196074493Y-87372819D02*
X195884017Y-87372819D01*
X195884017Y-87372819D02*
X195788779Y-87325200D01*
X195788779Y-87325200D02*
X195741160Y-87229961D01*
X195741160Y-87229961D02*
X195741160Y-86849009D01*
X195741160Y-86849009D02*
X195788779Y-86753771D01*
X195788779Y-86753771D02*
X195884017Y-86706152D01*
X195884017Y-86706152D02*
X196074493Y-86706152D01*
X196074493Y-86706152D02*
X196169731Y-86753771D01*
X196169731Y-86753771D02*
X196217350Y-86849009D01*
X196217350Y-86849009D02*
X196217350Y-86944247D01*
X196217350Y-86944247D02*
X195741160Y-87039485D01*
X196645922Y-87372819D02*
X196645922Y-86706152D01*
X196645922Y-86896628D02*
X196693541Y-86801390D01*
X196693541Y-86801390D02*
X196741160Y-86753771D01*
X196741160Y-86753771D02*
X196836398Y-86706152D01*
X196836398Y-86706152D02*
X196931636Y-86706152D01*
X197407827Y-87372819D02*
X197312589Y-87325200D01*
X197312589Y-87325200D02*
X197264970Y-87277580D01*
X197264970Y-87277580D02*
X197217351Y-87182342D01*
X197217351Y-87182342D02*
X197217351Y-86896628D01*
X197217351Y-86896628D02*
X197264970Y-86801390D01*
X197264970Y-86801390D02*
X197312589Y-86753771D01*
X197312589Y-86753771D02*
X197407827Y-86706152D01*
X197407827Y-86706152D02*
X197550684Y-86706152D01*
X197550684Y-86706152D02*
X197645922Y-86753771D01*
X197645922Y-86753771D02*
X197693541Y-86801390D01*
X197693541Y-86801390D02*
X197741160Y-86896628D01*
X197741160Y-86896628D02*
X197741160Y-87182342D01*
X197741160Y-87182342D02*
X197693541Y-87277580D01*
X197693541Y-87277580D02*
X197645922Y-87325200D01*
X197645922Y-87325200D02*
X197550684Y-87372819D01*
X197550684Y-87372819D02*
X197407827Y-87372819D01*
X179009922Y-102120819D02*
X179581350Y-102120819D01*
X179295636Y-103120819D02*
X179295636Y-102120819D01*
X179819446Y-102120819D02*
X180486112Y-103120819D01*
X180486112Y-102120819D02*
X179819446Y-103120819D01*
X180867065Y-103120819D02*
X180867065Y-102120819D01*
X180867065Y-102120819D02*
X181105160Y-102120819D01*
X181105160Y-102120819D02*
X181248017Y-102168438D01*
X181248017Y-102168438D02*
X181343255Y-102263676D01*
X181343255Y-102263676D02*
X181390874Y-102358914D01*
X181390874Y-102358914D02*
X181438493Y-102549390D01*
X181438493Y-102549390D02*
X181438493Y-102692247D01*
X181438493Y-102692247D02*
X181390874Y-102882723D01*
X181390874Y-102882723D02*
X181343255Y-102977961D01*
X181343255Y-102977961D02*
X181248017Y-103073200D01*
X181248017Y-103073200D02*
X181105160Y-103120819D01*
X181105160Y-103120819D02*
X180867065Y-103120819D01*
X181628970Y-103216057D02*
X182390874Y-103216057D01*
X183200398Y-103025580D02*
X183152779Y-103073200D01*
X183152779Y-103073200D02*
X183009922Y-103120819D01*
X183009922Y-103120819D02*
X182914684Y-103120819D01*
X182914684Y-103120819D02*
X182771827Y-103073200D01*
X182771827Y-103073200D02*
X182676589Y-102977961D01*
X182676589Y-102977961D02*
X182628970Y-102882723D01*
X182628970Y-102882723D02*
X182581351Y-102692247D01*
X182581351Y-102692247D02*
X182581351Y-102549390D01*
X182581351Y-102549390D02*
X182628970Y-102358914D01*
X182628970Y-102358914D02*
X182676589Y-102263676D01*
X182676589Y-102263676D02*
X182771827Y-102168438D01*
X182771827Y-102168438D02*
X182914684Y-102120819D01*
X182914684Y-102120819D02*
X183009922Y-102120819D01*
X183009922Y-102120819D02*
X183152779Y-102168438D01*
X183152779Y-102168438D02*
X183200398Y-102216057D01*
X178755922Y-109613819D02*
X179327350Y-109613819D01*
X179041636Y-110613819D02*
X179041636Y-109613819D01*
X179565446Y-109613819D02*
X180232112Y-110613819D01*
X180232112Y-109613819D02*
X179565446Y-110613819D01*
X180613065Y-110613819D02*
X180613065Y-109613819D01*
X180613065Y-109613819D02*
X180851160Y-109613819D01*
X180851160Y-109613819D02*
X180994017Y-109661438D01*
X180994017Y-109661438D02*
X181089255Y-109756676D01*
X181089255Y-109756676D02*
X181136874Y-109851914D01*
X181136874Y-109851914D02*
X181184493Y-110042390D01*
X181184493Y-110042390D02*
X181184493Y-110185247D01*
X181184493Y-110185247D02*
X181136874Y-110375723D01*
X181136874Y-110375723D02*
X181089255Y-110470961D01*
X181089255Y-110470961D02*
X180994017Y-110566200D01*
X180994017Y-110566200D02*
X180851160Y-110613819D01*
X180851160Y-110613819D02*
X180613065Y-110613819D01*
X181374970Y-110709057D02*
X182136874Y-110709057D01*
X182374970Y-110613819D02*
X182374970Y-109613819D01*
X182374970Y-109613819D02*
X182708303Y-110328104D01*
X182708303Y-110328104D02*
X183041636Y-109613819D01*
X183041636Y-109613819D02*
X183041636Y-110613819D01*
X184504760Y-75797550D02*
X184409522Y-75749931D01*
X184409522Y-75749931D02*
X184266665Y-75749931D01*
X184266665Y-75749931D02*
X184123808Y-75797550D01*
X184123808Y-75797550D02*
X184028570Y-75892788D01*
X184028570Y-75892788D02*
X183980951Y-75988026D01*
X183980951Y-75988026D02*
X183933332Y-76178502D01*
X183933332Y-76178502D02*
X183933332Y-76321359D01*
X183933332Y-76321359D02*
X183980951Y-76511835D01*
X183980951Y-76511835D02*
X184028570Y-76607073D01*
X184028570Y-76607073D02*
X184123808Y-76702312D01*
X184123808Y-76702312D02*
X184266665Y-76749931D01*
X184266665Y-76749931D02*
X184361903Y-76749931D01*
X184361903Y-76749931D02*
X184504760Y-76702312D01*
X184504760Y-76702312D02*
X184552379Y-76654692D01*
X184552379Y-76654692D02*
X184552379Y-76321359D01*
X184552379Y-76321359D02*
X184361903Y-76321359D01*
X184980951Y-76749931D02*
X184980951Y-75749931D01*
X184980951Y-75749931D02*
X185361903Y-75749931D01*
X185361903Y-75749931D02*
X185457141Y-75797550D01*
X185457141Y-75797550D02*
X185504760Y-75845169D01*
X185504760Y-75845169D02*
X185552379Y-75940407D01*
X185552379Y-75940407D02*
X185552379Y-76083264D01*
X185552379Y-76083264D02*
X185504760Y-76178502D01*
X185504760Y-76178502D02*
X185457141Y-76226121D01*
X185457141Y-76226121D02*
X185361903Y-76273740D01*
X185361903Y-76273740D02*
X184980951Y-76273740D01*
X185933332Y-76702312D02*
X186076189Y-76749931D01*
X186076189Y-76749931D02*
X186314284Y-76749931D01*
X186314284Y-76749931D02*
X186409522Y-76702312D01*
X186409522Y-76702312D02*
X186457141Y-76654692D01*
X186457141Y-76654692D02*
X186504760Y-76559454D01*
X186504760Y-76559454D02*
X186504760Y-76464216D01*
X186504760Y-76464216D02*
X186457141Y-76368978D01*
X186457141Y-76368978D02*
X186409522Y-76321359D01*
X186409522Y-76321359D02*
X186314284Y-76273740D01*
X186314284Y-76273740D02*
X186123808Y-76226121D01*
X186123808Y-76226121D02*
X186028570Y-76178502D01*
X186028570Y-76178502D02*
X185980951Y-76130883D01*
X185980951Y-76130883D02*
X185933332Y-76035645D01*
X185933332Y-76035645D02*
X185933332Y-75940407D01*
X185933332Y-75940407D02*
X185980951Y-75845169D01*
X185980951Y-75845169D02*
X186028570Y-75797550D01*
X186028570Y-75797550D02*
X186123808Y-75749931D01*
X186123808Y-75749931D02*
X186361903Y-75749931D01*
X186361903Y-75749931D02*
X186504760Y-75797550D01*
X187695237Y-76749931D02*
X187695237Y-75749931D01*
X188171427Y-76083264D02*
X188171427Y-76749931D01*
X188171427Y-76178502D02*
X188219046Y-76130883D01*
X188219046Y-76130883D02*
X188314284Y-76083264D01*
X188314284Y-76083264D02*
X188457141Y-76083264D01*
X188457141Y-76083264D02*
X188552379Y-76130883D01*
X188552379Y-76130883D02*
X188599998Y-76226121D01*
X188599998Y-76226121D02*
X188599998Y-76749931D01*
X188933332Y-76083264D02*
X189314284Y-76083264D01*
X189076189Y-75749931D02*
X189076189Y-76607073D01*
X189076189Y-76607073D02*
X189123808Y-76702312D01*
X189123808Y-76702312D02*
X189219046Y-76749931D01*
X189219046Y-76749931D02*
X189314284Y-76749931D01*
X190028570Y-76702312D02*
X189933332Y-76749931D01*
X189933332Y-76749931D02*
X189742856Y-76749931D01*
X189742856Y-76749931D02*
X189647618Y-76702312D01*
X189647618Y-76702312D02*
X189599999Y-76607073D01*
X189599999Y-76607073D02*
X189599999Y-76226121D01*
X189599999Y-76226121D02*
X189647618Y-76130883D01*
X189647618Y-76130883D02*
X189742856Y-76083264D01*
X189742856Y-76083264D02*
X189933332Y-76083264D01*
X189933332Y-76083264D02*
X190028570Y-76130883D01*
X190028570Y-76130883D02*
X190076189Y-76226121D01*
X190076189Y-76226121D02*
X190076189Y-76321359D01*
X190076189Y-76321359D02*
X189599999Y-76416597D01*
X190504761Y-76749931D02*
X190504761Y-76083264D01*
X190504761Y-76273740D02*
X190552380Y-76178502D01*
X190552380Y-76178502D02*
X190599999Y-76130883D01*
X190599999Y-76130883D02*
X190695237Y-76083264D01*
X190695237Y-76083264D02*
X190790475Y-76083264D01*
X191123809Y-76083264D02*
X191123809Y-77083264D01*
X191123809Y-76130883D02*
X191219047Y-76083264D01*
X191219047Y-76083264D02*
X191409523Y-76083264D01*
X191409523Y-76083264D02*
X191504761Y-76130883D01*
X191504761Y-76130883D02*
X191552380Y-76178502D01*
X191552380Y-76178502D02*
X191599999Y-76273740D01*
X191599999Y-76273740D02*
X191599999Y-76559454D01*
X191599999Y-76559454D02*
X191552380Y-76654692D01*
X191552380Y-76654692D02*
X191504761Y-76702312D01*
X191504761Y-76702312D02*
X191409523Y-76749931D01*
X191409523Y-76749931D02*
X191219047Y-76749931D01*
X191219047Y-76749931D02*
X191123809Y-76702312D01*
X192171428Y-76749931D02*
X192076190Y-76702312D01*
X192076190Y-76702312D02*
X192028571Y-76654692D01*
X192028571Y-76654692D02*
X191980952Y-76559454D01*
X191980952Y-76559454D02*
X191980952Y-76273740D01*
X191980952Y-76273740D02*
X192028571Y-76178502D01*
X192028571Y-76178502D02*
X192076190Y-76130883D01*
X192076190Y-76130883D02*
X192171428Y-76083264D01*
X192171428Y-76083264D02*
X192314285Y-76083264D01*
X192314285Y-76083264D02*
X192409523Y-76130883D01*
X192409523Y-76130883D02*
X192457142Y-76178502D01*
X192457142Y-76178502D02*
X192504761Y-76273740D01*
X192504761Y-76273740D02*
X192504761Y-76559454D01*
X192504761Y-76559454D02*
X192457142Y-76654692D01*
X192457142Y-76654692D02*
X192409523Y-76702312D01*
X192409523Y-76702312D02*
X192314285Y-76749931D01*
X192314285Y-76749931D02*
X192171428Y-76749931D01*
X192885714Y-76702312D02*
X192980952Y-76749931D01*
X192980952Y-76749931D02*
X193171428Y-76749931D01*
X193171428Y-76749931D02*
X193266666Y-76702312D01*
X193266666Y-76702312D02*
X193314285Y-76607073D01*
X193314285Y-76607073D02*
X193314285Y-76559454D01*
X193314285Y-76559454D02*
X193266666Y-76464216D01*
X193266666Y-76464216D02*
X193171428Y-76416597D01*
X193171428Y-76416597D02*
X193028571Y-76416597D01*
X193028571Y-76416597D02*
X192933333Y-76368978D01*
X192933333Y-76368978D02*
X192885714Y-76273740D01*
X192885714Y-76273740D02*
X192885714Y-76226121D01*
X192885714Y-76226121D02*
X192933333Y-76130883D01*
X192933333Y-76130883D02*
X193028571Y-76083264D01*
X193028571Y-76083264D02*
X193171428Y-76083264D01*
X193171428Y-76083264D02*
X193266666Y-76130883D01*
X194123809Y-76702312D02*
X194028571Y-76749931D01*
X194028571Y-76749931D02*
X193838095Y-76749931D01*
X193838095Y-76749931D02*
X193742857Y-76702312D01*
X193742857Y-76702312D02*
X193695238Y-76607073D01*
X193695238Y-76607073D02*
X193695238Y-76226121D01*
X193695238Y-76226121D02*
X193742857Y-76130883D01*
X193742857Y-76130883D02*
X193838095Y-76083264D01*
X193838095Y-76083264D02*
X194028571Y-76083264D01*
X194028571Y-76083264D02*
X194123809Y-76130883D01*
X194123809Y-76130883D02*
X194171428Y-76226121D01*
X194171428Y-76226121D02*
X194171428Y-76321359D01*
X194171428Y-76321359D02*
X193695238Y-76416597D01*
X194600000Y-76749931D02*
X194600000Y-76083264D01*
X194600000Y-76273740D02*
X194647619Y-76178502D01*
X194647619Y-76178502D02*
X194695238Y-76130883D01*
X194695238Y-76130883D02*
X194790476Y-76083264D01*
X194790476Y-76083264D02*
X194885714Y-76083264D01*
X195885715Y-76083264D02*
X196123810Y-76749931D01*
X196123810Y-76749931D02*
X196361905Y-76083264D01*
X196695239Y-75845169D02*
X196742858Y-75797550D01*
X196742858Y-75797550D02*
X196838096Y-75749931D01*
X196838096Y-75749931D02*
X197076191Y-75749931D01*
X197076191Y-75749931D02*
X197171429Y-75797550D01*
X197171429Y-75797550D02*
X197219048Y-75845169D01*
X197219048Y-75845169D02*
X197266667Y-75940407D01*
X197266667Y-75940407D02*
X197266667Y-76035645D01*
X197266667Y-76035645D02*
X197219048Y-76178502D01*
X197219048Y-76178502D02*
X196647620Y-76749931D01*
X196647620Y-76749931D02*
X197266667Y-76749931D01*
X185576190Y-77359875D02*
X186147618Y-77359875D01*
X185861904Y-78359875D02*
X185861904Y-77359875D01*
X186623809Y-78359875D02*
X186528571Y-78312256D01*
X186528571Y-78312256D02*
X186480952Y-78264636D01*
X186480952Y-78264636D02*
X186433333Y-78169398D01*
X186433333Y-78169398D02*
X186433333Y-77883684D01*
X186433333Y-77883684D02*
X186480952Y-77788446D01*
X186480952Y-77788446D02*
X186528571Y-77740827D01*
X186528571Y-77740827D02*
X186623809Y-77693208D01*
X186623809Y-77693208D02*
X186766666Y-77693208D01*
X186766666Y-77693208D02*
X186861904Y-77740827D01*
X186861904Y-77740827D02*
X186909523Y-77788446D01*
X186909523Y-77788446D02*
X186957142Y-77883684D01*
X186957142Y-77883684D02*
X186957142Y-78169398D01*
X186957142Y-78169398D02*
X186909523Y-78264636D01*
X186909523Y-78264636D02*
X186861904Y-78312256D01*
X186861904Y-78312256D02*
X186766666Y-78359875D01*
X186766666Y-78359875D02*
X186623809Y-78359875D01*
X187385714Y-78359875D02*
X187385714Y-77693208D01*
X187385714Y-77788446D02*
X187433333Y-77740827D01*
X187433333Y-77740827D02*
X187528571Y-77693208D01*
X187528571Y-77693208D02*
X187671428Y-77693208D01*
X187671428Y-77693208D02*
X187766666Y-77740827D01*
X187766666Y-77740827D02*
X187814285Y-77836065D01*
X187814285Y-77836065D02*
X187814285Y-78359875D01*
X187814285Y-77836065D02*
X187861904Y-77740827D01*
X187861904Y-77740827D02*
X187957142Y-77693208D01*
X187957142Y-77693208D02*
X188099999Y-77693208D01*
X188099999Y-77693208D02*
X188195238Y-77740827D01*
X188195238Y-77740827D02*
X188242857Y-77836065D01*
X188242857Y-77836065D02*
X188242857Y-78359875D01*
X189338095Y-77359875D02*
X189671428Y-78359875D01*
X189671428Y-78359875D02*
X190004761Y-77359875D01*
X190719047Y-78312256D02*
X190623809Y-78359875D01*
X190623809Y-78359875D02*
X190433333Y-78359875D01*
X190433333Y-78359875D02*
X190338095Y-78312256D01*
X190338095Y-78312256D02*
X190290476Y-78217017D01*
X190290476Y-78217017D02*
X190290476Y-77836065D01*
X190290476Y-77836065D02*
X190338095Y-77740827D01*
X190338095Y-77740827D02*
X190433333Y-77693208D01*
X190433333Y-77693208D02*
X190623809Y-77693208D01*
X190623809Y-77693208D02*
X190719047Y-77740827D01*
X190719047Y-77740827D02*
X190766666Y-77836065D01*
X190766666Y-77836065D02*
X190766666Y-77931303D01*
X190766666Y-77931303D02*
X190290476Y-78026541D01*
X191195238Y-78359875D02*
X191195238Y-77693208D01*
X191195238Y-77883684D02*
X191242857Y-77788446D01*
X191242857Y-77788446D02*
X191290476Y-77740827D01*
X191290476Y-77740827D02*
X191385714Y-77693208D01*
X191385714Y-77693208D02*
X191480952Y-77693208D01*
X191814286Y-78359875D02*
X191814286Y-77359875D01*
X191814286Y-77740827D02*
X191909524Y-77693208D01*
X191909524Y-77693208D02*
X192100000Y-77693208D01*
X192100000Y-77693208D02*
X192195238Y-77740827D01*
X192195238Y-77740827D02*
X192242857Y-77788446D01*
X192242857Y-77788446D02*
X192290476Y-77883684D01*
X192290476Y-77883684D02*
X192290476Y-78169398D01*
X192290476Y-78169398D02*
X192242857Y-78264636D01*
X192242857Y-78264636D02*
X192195238Y-78312256D01*
X192195238Y-78312256D02*
X192100000Y-78359875D01*
X192100000Y-78359875D02*
X191909524Y-78359875D01*
X191909524Y-78359875D02*
X191814286Y-78312256D01*
X193100000Y-78312256D02*
X193004762Y-78359875D01*
X193004762Y-78359875D02*
X192814286Y-78359875D01*
X192814286Y-78359875D02*
X192719048Y-78312256D01*
X192719048Y-78312256D02*
X192671429Y-78217017D01*
X192671429Y-78217017D02*
X192671429Y-77836065D01*
X192671429Y-77836065D02*
X192719048Y-77740827D01*
X192719048Y-77740827D02*
X192814286Y-77693208D01*
X192814286Y-77693208D02*
X193004762Y-77693208D01*
X193004762Y-77693208D02*
X193100000Y-77740827D01*
X193100000Y-77740827D02*
X193147619Y-77836065D01*
X193147619Y-77836065D02*
X193147619Y-77931303D01*
X193147619Y-77931303D02*
X192671429Y-78026541D01*
X194004762Y-77693208D02*
X194004762Y-78359875D01*
X193576191Y-77693208D02*
X193576191Y-78217017D01*
X193576191Y-78217017D02*
X193623810Y-78312256D01*
X193623810Y-78312256D02*
X193719048Y-78359875D01*
X193719048Y-78359875D02*
X193861905Y-78359875D01*
X193861905Y-78359875D02*
X193957143Y-78312256D01*
X193957143Y-78312256D02*
X194004762Y-78264636D01*
X194480953Y-78359875D02*
X194480953Y-77693208D01*
X194480953Y-77883684D02*
X194528572Y-77788446D01*
X194528572Y-77788446D02*
X194576191Y-77740827D01*
X194576191Y-77740827D02*
X194671429Y-77693208D01*
X194671429Y-77693208D02*
X194766667Y-77693208D01*
X195480953Y-78312256D02*
X195385715Y-78359875D01*
X195385715Y-78359875D02*
X195195239Y-78359875D01*
X195195239Y-78359875D02*
X195100001Y-78312256D01*
X195100001Y-78312256D02*
X195052382Y-78217017D01*
X195052382Y-78217017D02*
X195052382Y-77836065D01*
X195052382Y-77836065D02*
X195100001Y-77740827D01*
X195100001Y-77740827D02*
X195195239Y-77693208D01*
X195195239Y-77693208D02*
X195385715Y-77693208D01*
X195385715Y-77693208D02*
X195480953Y-77740827D01*
X195480953Y-77740827D02*
X195528572Y-77836065D01*
X195528572Y-77836065D02*
X195528572Y-77931303D01*
X195528572Y-77931303D02*
X195052382Y-78026541D01*
X172457141Y-79969819D02*
X172457141Y-78969819D01*
X172885712Y-79969819D02*
X172885712Y-79446009D01*
X172885712Y-79446009D02*
X172838093Y-79350771D01*
X172838093Y-79350771D02*
X172742855Y-79303152D01*
X172742855Y-79303152D02*
X172599998Y-79303152D01*
X172599998Y-79303152D02*
X172504760Y-79350771D01*
X172504760Y-79350771D02*
X172457141Y-79398390D01*
X173219046Y-79303152D02*
X173599998Y-79303152D01*
X173361903Y-78969819D02*
X173361903Y-79826961D01*
X173361903Y-79826961D02*
X173409522Y-79922200D01*
X173409522Y-79922200D02*
X173504760Y-79969819D01*
X173504760Y-79969819D02*
X173599998Y-79969819D01*
X173790475Y-79303152D02*
X174171427Y-79303152D01*
X173933332Y-78969819D02*
X173933332Y-79826961D01*
X173933332Y-79826961D02*
X173980951Y-79922200D01*
X173980951Y-79922200D02*
X174076189Y-79969819D01*
X174076189Y-79969819D02*
X174171427Y-79969819D01*
X174504761Y-79303152D02*
X174504761Y-80303152D01*
X174504761Y-79350771D02*
X174599999Y-79303152D01*
X174599999Y-79303152D02*
X174790475Y-79303152D01*
X174790475Y-79303152D02*
X174885713Y-79350771D01*
X174885713Y-79350771D02*
X174933332Y-79398390D01*
X174933332Y-79398390D02*
X174980951Y-79493628D01*
X174980951Y-79493628D02*
X174980951Y-79779342D01*
X174980951Y-79779342D02*
X174933332Y-79874580D01*
X174933332Y-79874580D02*
X174885713Y-79922200D01*
X174885713Y-79922200D02*
X174790475Y-79969819D01*
X174790475Y-79969819D02*
X174599999Y-79969819D01*
X174599999Y-79969819D02*
X174504761Y-79922200D01*
X175361904Y-79922200D02*
X175457142Y-79969819D01*
X175457142Y-79969819D02*
X175647618Y-79969819D01*
X175647618Y-79969819D02*
X175742856Y-79922200D01*
X175742856Y-79922200D02*
X175790475Y-79826961D01*
X175790475Y-79826961D02*
X175790475Y-79779342D01*
X175790475Y-79779342D02*
X175742856Y-79684104D01*
X175742856Y-79684104D02*
X175647618Y-79636485D01*
X175647618Y-79636485D02*
X175504761Y-79636485D01*
X175504761Y-79636485D02*
X175409523Y-79588866D01*
X175409523Y-79588866D02*
X175361904Y-79493628D01*
X175361904Y-79493628D02*
X175361904Y-79446009D01*
X175361904Y-79446009D02*
X175409523Y-79350771D01*
X175409523Y-79350771D02*
X175504761Y-79303152D01*
X175504761Y-79303152D02*
X175647618Y-79303152D01*
X175647618Y-79303152D02*
X175742856Y-79350771D01*
X176219047Y-79874580D02*
X176266666Y-79922200D01*
X176266666Y-79922200D02*
X176219047Y-79969819D01*
X176219047Y-79969819D02*
X176171428Y-79922200D01*
X176171428Y-79922200D02*
X176219047Y-79874580D01*
X176219047Y-79874580D02*
X176219047Y-79969819D01*
X176219047Y-79350771D02*
X176266666Y-79398390D01*
X176266666Y-79398390D02*
X176219047Y-79446009D01*
X176219047Y-79446009D02*
X176171428Y-79398390D01*
X176171428Y-79398390D02*
X176219047Y-79350771D01*
X176219047Y-79350771D02*
X176219047Y-79446009D01*
X177409522Y-78922200D02*
X176552380Y-80207914D01*
X178457141Y-78922200D02*
X177599999Y-80207914D01*
X179219046Y-79303152D02*
X179219046Y-80112676D01*
X179219046Y-80112676D02*
X179171427Y-80207914D01*
X179171427Y-80207914D02*
X179123808Y-80255533D01*
X179123808Y-80255533D02*
X179028570Y-80303152D01*
X179028570Y-80303152D02*
X178885713Y-80303152D01*
X178885713Y-80303152D02*
X178790475Y-80255533D01*
X179219046Y-79922200D02*
X179123808Y-79969819D01*
X179123808Y-79969819D02*
X178933332Y-79969819D01*
X178933332Y-79969819D02*
X178838094Y-79922200D01*
X178838094Y-79922200D02*
X178790475Y-79874580D01*
X178790475Y-79874580D02*
X178742856Y-79779342D01*
X178742856Y-79779342D02*
X178742856Y-79493628D01*
X178742856Y-79493628D02*
X178790475Y-79398390D01*
X178790475Y-79398390D02*
X178838094Y-79350771D01*
X178838094Y-79350771D02*
X178933332Y-79303152D01*
X178933332Y-79303152D02*
X179123808Y-79303152D01*
X179123808Y-79303152D02*
X179219046Y-79350771D01*
X179695237Y-79969819D02*
X179695237Y-79303152D01*
X179695237Y-78969819D02*
X179647618Y-79017438D01*
X179647618Y-79017438D02*
X179695237Y-79065057D01*
X179695237Y-79065057D02*
X179742856Y-79017438D01*
X179742856Y-79017438D02*
X179695237Y-78969819D01*
X179695237Y-78969819D02*
X179695237Y-79065057D01*
X180028570Y-79303152D02*
X180409522Y-79303152D01*
X180171427Y-78969819D02*
X180171427Y-79826961D01*
X180171427Y-79826961D02*
X180219046Y-79922200D01*
X180219046Y-79922200D02*
X180314284Y-79969819D01*
X180314284Y-79969819D02*
X180409522Y-79969819D01*
X180742856Y-79969819D02*
X180742856Y-78969819D01*
X181171427Y-79969819D02*
X181171427Y-79446009D01*
X181171427Y-79446009D02*
X181123808Y-79350771D01*
X181123808Y-79350771D02*
X181028570Y-79303152D01*
X181028570Y-79303152D02*
X180885713Y-79303152D01*
X180885713Y-79303152D02*
X180790475Y-79350771D01*
X180790475Y-79350771D02*
X180742856Y-79398390D01*
X182076189Y-79303152D02*
X182076189Y-79969819D01*
X181647618Y-79303152D02*
X181647618Y-79826961D01*
X181647618Y-79826961D02*
X181695237Y-79922200D01*
X181695237Y-79922200D02*
X181790475Y-79969819D01*
X181790475Y-79969819D02*
X181933332Y-79969819D01*
X181933332Y-79969819D02*
X182028570Y-79922200D01*
X182028570Y-79922200D02*
X182076189Y-79874580D01*
X182552380Y-79969819D02*
X182552380Y-78969819D01*
X182552380Y-79350771D02*
X182647618Y-79303152D01*
X182647618Y-79303152D02*
X182838094Y-79303152D01*
X182838094Y-79303152D02*
X182933332Y-79350771D01*
X182933332Y-79350771D02*
X182980951Y-79398390D01*
X182980951Y-79398390D02*
X183028570Y-79493628D01*
X183028570Y-79493628D02*
X183028570Y-79779342D01*
X183028570Y-79779342D02*
X182980951Y-79874580D01*
X182980951Y-79874580D02*
X182933332Y-79922200D01*
X182933332Y-79922200D02*
X182838094Y-79969819D01*
X182838094Y-79969819D02*
X182647618Y-79969819D01*
X182647618Y-79969819D02*
X182552380Y-79922200D01*
X183457142Y-79874580D02*
X183504761Y-79922200D01*
X183504761Y-79922200D02*
X183457142Y-79969819D01*
X183457142Y-79969819D02*
X183409523Y-79922200D01*
X183409523Y-79922200D02*
X183457142Y-79874580D01*
X183457142Y-79874580D02*
X183457142Y-79969819D01*
X184361903Y-79922200D02*
X184266665Y-79969819D01*
X184266665Y-79969819D02*
X184076189Y-79969819D01*
X184076189Y-79969819D02*
X183980951Y-79922200D01*
X183980951Y-79922200D02*
X183933332Y-79874580D01*
X183933332Y-79874580D02*
X183885713Y-79779342D01*
X183885713Y-79779342D02*
X183885713Y-79493628D01*
X183885713Y-79493628D02*
X183933332Y-79398390D01*
X183933332Y-79398390D02*
X183980951Y-79350771D01*
X183980951Y-79350771D02*
X184076189Y-79303152D01*
X184076189Y-79303152D02*
X184266665Y-79303152D01*
X184266665Y-79303152D02*
X184361903Y-79350771D01*
X184933332Y-79969819D02*
X184838094Y-79922200D01*
X184838094Y-79922200D02*
X184790475Y-79874580D01*
X184790475Y-79874580D02*
X184742856Y-79779342D01*
X184742856Y-79779342D02*
X184742856Y-79493628D01*
X184742856Y-79493628D02*
X184790475Y-79398390D01*
X184790475Y-79398390D02*
X184838094Y-79350771D01*
X184838094Y-79350771D02*
X184933332Y-79303152D01*
X184933332Y-79303152D02*
X185076189Y-79303152D01*
X185076189Y-79303152D02*
X185171427Y-79350771D01*
X185171427Y-79350771D02*
X185219046Y-79398390D01*
X185219046Y-79398390D02*
X185266665Y-79493628D01*
X185266665Y-79493628D02*
X185266665Y-79779342D01*
X185266665Y-79779342D02*
X185219046Y-79874580D01*
X185219046Y-79874580D02*
X185171427Y-79922200D01*
X185171427Y-79922200D02*
X185076189Y-79969819D01*
X185076189Y-79969819D02*
X184933332Y-79969819D01*
X185695237Y-79969819D02*
X185695237Y-79303152D01*
X185695237Y-79398390D02*
X185742856Y-79350771D01*
X185742856Y-79350771D02*
X185838094Y-79303152D01*
X185838094Y-79303152D02*
X185980951Y-79303152D01*
X185980951Y-79303152D02*
X186076189Y-79350771D01*
X186076189Y-79350771D02*
X186123808Y-79446009D01*
X186123808Y-79446009D02*
X186123808Y-79969819D01*
X186123808Y-79446009D02*
X186171427Y-79350771D01*
X186171427Y-79350771D02*
X186266665Y-79303152D01*
X186266665Y-79303152D02*
X186409522Y-79303152D01*
X186409522Y-79303152D02*
X186504761Y-79350771D01*
X186504761Y-79350771D02*
X186552380Y-79446009D01*
X186552380Y-79446009D02*
X186552380Y-79969819D01*
X187742855Y-78922200D02*
X186885713Y-80207914D01*
X187933332Y-79303152D02*
X188314284Y-79303152D01*
X188076189Y-78969819D02*
X188076189Y-79826961D01*
X188076189Y-79826961D02*
X188123808Y-79922200D01*
X188123808Y-79922200D02*
X188219046Y-79969819D01*
X188219046Y-79969819D02*
X188314284Y-79969819D01*
X188790475Y-79969819D02*
X188695237Y-79922200D01*
X188695237Y-79922200D02*
X188647618Y-79874580D01*
X188647618Y-79874580D02*
X188599999Y-79779342D01*
X188599999Y-79779342D02*
X188599999Y-79493628D01*
X188599999Y-79493628D02*
X188647618Y-79398390D01*
X188647618Y-79398390D02*
X188695237Y-79350771D01*
X188695237Y-79350771D02*
X188790475Y-79303152D01*
X188790475Y-79303152D02*
X188933332Y-79303152D01*
X188933332Y-79303152D02*
X189028570Y-79350771D01*
X189028570Y-79350771D02*
X189076189Y-79398390D01*
X189076189Y-79398390D02*
X189123808Y-79493628D01*
X189123808Y-79493628D02*
X189123808Y-79779342D01*
X189123808Y-79779342D02*
X189076189Y-79874580D01*
X189076189Y-79874580D02*
X189028570Y-79922200D01*
X189028570Y-79922200D02*
X188933332Y-79969819D01*
X188933332Y-79969819D02*
X188790475Y-79969819D01*
X189552380Y-79969819D02*
X189552380Y-79303152D01*
X189552380Y-79398390D02*
X189599999Y-79350771D01*
X189599999Y-79350771D02*
X189695237Y-79303152D01*
X189695237Y-79303152D02*
X189838094Y-79303152D01*
X189838094Y-79303152D02*
X189933332Y-79350771D01*
X189933332Y-79350771D02*
X189980951Y-79446009D01*
X189980951Y-79446009D02*
X189980951Y-79969819D01*
X189980951Y-79446009D02*
X190028570Y-79350771D01*
X190028570Y-79350771D02*
X190123808Y-79303152D01*
X190123808Y-79303152D02*
X190266665Y-79303152D01*
X190266665Y-79303152D02*
X190361904Y-79350771D01*
X190361904Y-79350771D02*
X190409523Y-79446009D01*
X190409523Y-79446009D02*
X190409523Y-79969819D01*
X190790475Y-79303152D02*
X191028570Y-79969819D01*
X191028570Y-79969819D02*
X191266665Y-79303152D01*
X192028570Y-79922200D02*
X191933332Y-79969819D01*
X191933332Y-79969819D02*
X191742856Y-79969819D01*
X191742856Y-79969819D02*
X191647618Y-79922200D01*
X191647618Y-79922200D02*
X191599999Y-79826961D01*
X191599999Y-79826961D02*
X191599999Y-79446009D01*
X191599999Y-79446009D02*
X191647618Y-79350771D01*
X191647618Y-79350771D02*
X191742856Y-79303152D01*
X191742856Y-79303152D02*
X191933332Y-79303152D01*
X191933332Y-79303152D02*
X192028570Y-79350771D01*
X192028570Y-79350771D02*
X192076189Y-79446009D01*
X192076189Y-79446009D02*
X192076189Y-79541247D01*
X192076189Y-79541247D02*
X191599999Y-79636485D01*
X192504761Y-79969819D02*
X192504761Y-79303152D01*
X192504761Y-79493628D02*
X192552380Y-79398390D01*
X192552380Y-79398390D02*
X192599999Y-79350771D01*
X192599999Y-79350771D02*
X192695237Y-79303152D01*
X192695237Y-79303152D02*
X192790475Y-79303152D01*
X193123809Y-79969819D02*
X193123809Y-78969819D01*
X193123809Y-79350771D02*
X193219047Y-79303152D01*
X193219047Y-79303152D02*
X193409523Y-79303152D01*
X193409523Y-79303152D02*
X193504761Y-79350771D01*
X193504761Y-79350771D02*
X193552380Y-79398390D01*
X193552380Y-79398390D02*
X193599999Y-79493628D01*
X193599999Y-79493628D02*
X193599999Y-79779342D01*
X193599999Y-79779342D02*
X193552380Y-79874580D01*
X193552380Y-79874580D02*
X193504761Y-79922200D01*
X193504761Y-79922200D02*
X193409523Y-79969819D01*
X193409523Y-79969819D02*
X193219047Y-79969819D01*
X193219047Y-79969819D02*
X193123809Y-79922200D01*
X194409523Y-79922200D02*
X194314285Y-79969819D01*
X194314285Y-79969819D02*
X194123809Y-79969819D01*
X194123809Y-79969819D02*
X194028571Y-79922200D01*
X194028571Y-79922200D02*
X193980952Y-79826961D01*
X193980952Y-79826961D02*
X193980952Y-79446009D01*
X193980952Y-79446009D02*
X194028571Y-79350771D01*
X194028571Y-79350771D02*
X194123809Y-79303152D01*
X194123809Y-79303152D02*
X194314285Y-79303152D01*
X194314285Y-79303152D02*
X194409523Y-79350771D01*
X194409523Y-79350771D02*
X194457142Y-79446009D01*
X194457142Y-79446009D02*
X194457142Y-79541247D01*
X194457142Y-79541247D02*
X193980952Y-79636485D01*
X195314285Y-79303152D02*
X195314285Y-79969819D01*
X194885714Y-79303152D02*
X194885714Y-79826961D01*
X194885714Y-79826961D02*
X194933333Y-79922200D01*
X194933333Y-79922200D02*
X195028571Y-79969819D01*
X195028571Y-79969819D02*
X195171428Y-79969819D01*
X195171428Y-79969819D02*
X195266666Y-79922200D01*
X195266666Y-79922200D02*
X195314285Y-79874580D01*
X195790476Y-79969819D02*
X195790476Y-79303152D01*
X195790476Y-79493628D02*
X195838095Y-79398390D01*
X195838095Y-79398390D02*
X195885714Y-79350771D01*
X195885714Y-79350771D02*
X195980952Y-79303152D01*
X195980952Y-79303152D02*
X196076190Y-79303152D01*
X196790476Y-79922200D02*
X196695238Y-79969819D01*
X196695238Y-79969819D02*
X196504762Y-79969819D01*
X196504762Y-79969819D02*
X196409524Y-79922200D01*
X196409524Y-79922200D02*
X196361905Y-79826961D01*
X196361905Y-79826961D02*
X196361905Y-79446009D01*
X196361905Y-79446009D02*
X196409524Y-79350771D01*
X196409524Y-79350771D02*
X196504762Y-79303152D01*
X196504762Y-79303152D02*
X196695238Y-79303152D01*
X196695238Y-79303152D02*
X196790476Y-79350771D01*
X196790476Y-79350771D02*
X196838095Y-79446009D01*
X196838095Y-79446009D02*
X196838095Y-79541247D01*
X196838095Y-79541247D02*
X196361905Y-79636485D01*
X197980952Y-78922200D02*
X197123810Y-80207914D01*
X198742857Y-79303152D02*
X198742857Y-80112676D01*
X198742857Y-80112676D02*
X198695238Y-80207914D01*
X198695238Y-80207914D02*
X198647619Y-80255533D01*
X198647619Y-80255533D02*
X198552381Y-80303152D01*
X198552381Y-80303152D02*
X198409524Y-80303152D01*
X198409524Y-80303152D02*
X198314286Y-80255533D01*
X198742857Y-79922200D02*
X198647619Y-79969819D01*
X198647619Y-79969819D02*
X198457143Y-79969819D01*
X198457143Y-79969819D02*
X198361905Y-79922200D01*
X198361905Y-79922200D02*
X198314286Y-79874580D01*
X198314286Y-79874580D02*
X198266667Y-79779342D01*
X198266667Y-79779342D02*
X198266667Y-79493628D01*
X198266667Y-79493628D02*
X198314286Y-79398390D01*
X198314286Y-79398390D02*
X198361905Y-79350771D01*
X198361905Y-79350771D02*
X198457143Y-79303152D01*
X198457143Y-79303152D02*
X198647619Y-79303152D01*
X198647619Y-79303152D02*
X198742857Y-79350771D01*
X199219048Y-79303152D02*
X199219048Y-80303152D01*
X199219048Y-79350771D02*
X199314286Y-79303152D01*
X199314286Y-79303152D02*
X199504762Y-79303152D01*
X199504762Y-79303152D02*
X199600000Y-79350771D01*
X199600000Y-79350771D02*
X199647619Y-79398390D01*
X199647619Y-79398390D02*
X199695238Y-79493628D01*
X199695238Y-79493628D02*
X199695238Y-79779342D01*
X199695238Y-79779342D02*
X199647619Y-79874580D01*
X199647619Y-79874580D02*
X199600000Y-79922200D01*
X199600000Y-79922200D02*
X199504762Y-79969819D01*
X199504762Y-79969819D02*
X199314286Y-79969819D01*
X199314286Y-79969819D02*
X199219048Y-79922200D01*
X200076191Y-79922200D02*
X200171429Y-79969819D01*
X200171429Y-79969819D02*
X200361905Y-79969819D01*
X200361905Y-79969819D02*
X200457143Y-79922200D01*
X200457143Y-79922200D02*
X200504762Y-79826961D01*
X200504762Y-79826961D02*
X200504762Y-79779342D01*
X200504762Y-79779342D02*
X200457143Y-79684104D01*
X200457143Y-79684104D02*
X200361905Y-79636485D01*
X200361905Y-79636485D02*
X200219048Y-79636485D01*
X200219048Y-79636485D02*
X200123810Y-79588866D01*
X200123810Y-79588866D02*
X200076191Y-79493628D01*
X200076191Y-79493628D02*
X200076191Y-79446009D01*
X200076191Y-79446009D02*
X200123810Y-79350771D01*
X200123810Y-79350771D02*
X200219048Y-79303152D01*
X200219048Y-79303152D02*
X200361905Y-79303152D01*
X200361905Y-79303152D02*
X200457143Y-79350771D01*
X200695239Y-80065057D02*
X201457143Y-80065057D01*
X201695239Y-79969819D02*
X201695239Y-79303152D01*
X201695239Y-78969819D02*
X201647620Y-79017438D01*
X201647620Y-79017438D02*
X201695239Y-79065057D01*
X201695239Y-79065057D02*
X201742858Y-79017438D01*
X201742858Y-79017438D02*
X201695239Y-78969819D01*
X201695239Y-78969819D02*
X201695239Y-79065057D01*
X202171429Y-79303152D02*
X202171429Y-79969819D01*
X202171429Y-79398390D02*
X202219048Y-79350771D01*
X202219048Y-79350771D02*
X202314286Y-79303152D01*
X202314286Y-79303152D02*
X202457143Y-79303152D01*
X202457143Y-79303152D02*
X202552381Y-79350771D01*
X202552381Y-79350771D02*
X202600000Y-79446009D01*
X202600000Y-79446009D02*
X202600000Y-79969819D01*
X202933334Y-79303152D02*
X203314286Y-79303152D01*
X203076191Y-78969819D02*
X203076191Y-79826961D01*
X203076191Y-79826961D02*
X203123810Y-79922200D01*
X203123810Y-79922200D02*
X203219048Y-79969819D01*
X203219048Y-79969819D02*
X203314286Y-79969819D01*
X204028572Y-79922200D02*
X203933334Y-79969819D01*
X203933334Y-79969819D02*
X203742858Y-79969819D01*
X203742858Y-79969819D02*
X203647620Y-79922200D01*
X203647620Y-79922200D02*
X203600001Y-79826961D01*
X203600001Y-79826961D02*
X203600001Y-79446009D01*
X203600001Y-79446009D02*
X203647620Y-79350771D01*
X203647620Y-79350771D02*
X203742858Y-79303152D01*
X203742858Y-79303152D02*
X203933334Y-79303152D01*
X203933334Y-79303152D02*
X204028572Y-79350771D01*
X204028572Y-79350771D02*
X204076191Y-79446009D01*
X204076191Y-79446009D02*
X204076191Y-79541247D01*
X204076191Y-79541247D02*
X203600001Y-79636485D01*
X204504763Y-79969819D02*
X204504763Y-79303152D01*
X204504763Y-79493628D02*
X204552382Y-79398390D01*
X204552382Y-79398390D02*
X204600001Y-79350771D01*
X204600001Y-79350771D02*
X204695239Y-79303152D01*
X204695239Y-79303152D02*
X204790477Y-79303152D01*
X205123811Y-79303152D02*
X205123811Y-80303152D01*
X205123811Y-79350771D02*
X205219049Y-79303152D01*
X205219049Y-79303152D02*
X205409525Y-79303152D01*
X205409525Y-79303152D02*
X205504763Y-79350771D01*
X205504763Y-79350771D02*
X205552382Y-79398390D01*
X205552382Y-79398390D02*
X205600001Y-79493628D01*
X205600001Y-79493628D02*
X205600001Y-79779342D01*
X205600001Y-79779342D02*
X205552382Y-79874580D01*
X205552382Y-79874580D02*
X205504763Y-79922200D01*
X205504763Y-79922200D02*
X205409525Y-79969819D01*
X205409525Y-79969819D02*
X205219049Y-79969819D01*
X205219049Y-79969819D02*
X205123811Y-79922200D01*
X206171430Y-79969819D02*
X206076192Y-79922200D01*
X206076192Y-79922200D02*
X206028573Y-79874580D01*
X206028573Y-79874580D02*
X205980954Y-79779342D01*
X205980954Y-79779342D02*
X205980954Y-79493628D01*
X205980954Y-79493628D02*
X206028573Y-79398390D01*
X206028573Y-79398390D02*
X206076192Y-79350771D01*
X206076192Y-79350771D02*
X206171430Y-79303152D01*
X206171430Y-79303152D02*
X206314287Y-79303152D01*
X206314287Y-79303152D02*
X206409525Y-79350771D01*
X206409525Y-79350771D02*
X206457144Y-79398390D01*
X206457144Y-79398390D02*
X206504763Y-79493628D01*
X206504763Y-79493628D02*
X206504763Y-79779342D01*
X206504763Y-79779342D02*
X206457144Y-79874580D01*
X206457144Y-79874580D02*
X206409525Y-79922200D01*
X206409525Y-79922200D02*
X206314287Y-79969819D01*
X206314287Y-79969819D02*
X206171430Y-79969819D01*
X206885716Y-79922200D02*
X206980954Y-79969819D01*
X206980954Y-79969819D02*
X207171430Y-79969819D01*
X207171430Y-79969819D02*
X207266668Y-79922200D01*
X207266668Y-79922200D02*
X207314287Y-79826961D01*
X207314287Y-79826961D02*
X207314287Y-79779342D01*
X207314287Y-79779342D02*
X207266668Y-79684104D01*
X207266668Y-79684104D02*
X207171430Y-79636485D01*
X207171430Y-79636485D02*
X207028573Y-79636485D01*
X207028573Y-79636485D02*
X206933335Y-79588866D01*
X206933335Y-79588866D02*
X206885716Y-79493628D01*
X206885716Y-79493628D02*
X206885716Y-79446009D01*
X206885716Y-79446009D02*
X206933335Y-79350771D01*
X206933335Y-79350771D02*
X207028573Y-79303152D01*
X207028573Y-79303152D02*
X207171430Y-79303152D01*
X207171430Y-79303152D02*
X207266668Y-79350771D01*
X208123811Y-79922200D02*
X208028573Y-79969819D01*
X208028573Y-79969819D02*
X207838097Y-79969819D01*
X207838097Y-79969819D02*
X207742859Y-79922200D01*
X207742859Y-79922200D02*
X207695240Y-79826961D01*
X207695240Y-79826961D02*
X207695240Y-79446009D01*
X207695240Y-79446009D02*
X207742859Y-79350771D01*
X207742859Y-79350771D02*
X207838097Y-79303152D01*
X207838097Y-79303152D02*
X208028573Y-79303152D01*
X208028573Y-79303152D02*
X208123811Y-79350771D01*
X208123811Y-79350771D02*
X208171430Y-79446009D01*
X208171430Y-79446009D02*
X208171430Y-79541247D01*
X208171430Y-79541247D02*
X207695240Y-79636485D01*
X208600002Y-79969819D02*
X208600002Y-79303152D01*
X208600002Y-79493628D02*
X208647621Y-79398390D01*
X208647621Y-79398390D02*
X208695240Y-79350771D01*
X208695240Y-79350771D02*
X208790478Y-79303152D01*
X208790478Y-79303152D02*
X208885716Y-79303152D01*
X209181819Y-108978458D02*
X209181819Y-108359411D01*
X209181819Y-108359411D02*
X209562771Y-108692744D01*
X209562771Y-108692744D02*
X209562771Y-108549887D01*
X209562771Y-108549887D02*
X209610390Y-108454649D01*
X209610390Y-108454649D02*
X209658009Y-108407030D01*
X209658009Y-108407030D02*
X209753247Y-108359411D01*
X209753247Y-108359411D02*
X209991342Y-108359411D01*
X209991342Y-108359411D02*
X210086580Y-108407030D01*
X210086580Y-108407030D02*
X210134200Y-108454649D01*
X210134200Y-108454649D02*
X210181819Y-108549887D01*
X210181819Y-108549887D02*
X210181819Y-108835601D01*
X210181819Y-108835601D02*
X210134200Y-108930839D01*
X210134200Y-108930839D02*
X210086580Y-108978458D01*
X209181819Y-108073696D02*
X210181819Y-107740363D01*
X210181819Y-107740363D02*
X209181819Y-107407030D01*
X209181819Y-107168934D02*
X209181819Y-106549887D01*
X209181819Y-106549887D02*
X209562771Y-106883220D01*
X209562771Y-106883220D02*
X209562771Y-106740363D01*
X209562771Y-106740363D02*
X209610390Y-106645125D01*
X209610390Y-106645125D02*
X209658009Y-106597506D01*
X209658009Y-106597506D02*
X209753247Y-106549887D01*
X209753247Y-106549887D02*
X209991342Y-106549887D01*
X209991342Y-106549887D02*
X210086580Y-106597506D01*
X210086580Y-106597506D02*
X210134200Y-106645125D01*
X210134200Y-106645125D02*
X210181819Y-106740363D01*
X210181819Y-106740363D02*
X210181819Y-107026077D01*
X210181819Y-107026077D02*
X210134200Y-107121315D01*
X210134200Y-107121315D02*
X210086580Y-107168934D01*
X179930588Y-108200819D02*
X179359160Y-108200819D01*
X179644874Y-108200819D02*
X179644874Y-107200819D01*
X179644874Y-107200819D02*
X179549636Y-107343676D01*
X179549636Y-107343676D02*
X179454398Y-107438914D01*
X179454398Y-107438914D02*
X179359160Y-107486533D01*
X180359160Y-108200819D02*
X180359160Y-107200819D01*
X180359160Y-107200819D02*
X180740112Y-107200819D01*
X180740112Y-107200819D02*
X180835350Y-107248438D01*
X180835350Y-107248438D02*
X180882969Y-107296057D01*
X180882969Y-107296057D02*
X180930588Y-107391295D01*
X180930588Y-107391295D02*
X180930588Y-107534152D01*
X180930588Y-107534152D02*
X180882969Y-107629390D01*
X180882969Y-107629390D02*
X180835350Y-107677009D01*
X180835350Y-107677009D02*
X180740112Y-107724628D01*
X180740112Y-107724628D02*
X180359160Y-107724628D01*
X181359160Y-108200819D02*
X181359160Y-107200819D01*
X181359160Y-107200819D02*
X181740112Y-107200819D01*
X181740112Y-107200819D02*
X181835350Y-107248438D01*
X181835350Y-107248438D02*
X181882969Y-107296057D01*
X181882969Y-107296057D02*
X181930588Y-107391295D01*
X181930588Y-107391295D02*
X181930588Y-107534152D01*
X181930588Y-107534152D02*
X181882969Y-107629390D01*
X181882969Y-107629390D02*
X181835350Y-107677009D01*
X181835350Y-107677009D02*
X181740112Y-107724628D01*
X181740112Y-107724628D02*
X181359160Y-107724628D01*
X182311541Y-108153200D02*
X182454398Y-108200819D01*
X182454398Y-108200819D02*
X182692493Y-108200819D01*
X182692493Y-108200819D02*
X182787731Y-108153200D01*
X182787731Y-108153200D02*
X182835350Y-108105580D01*
X182835350Y-108105580D02*
X182882969Y-108010342D01*
X182882969Y-108010342D02*
X182882969Y-107915104D01*
X182882969Y-107915104D02*
X182835350Y-107819866D01*
X182835350Y-107819866D02*
X182787731Y-107772247D01*
X182787731Y-107772247D02*
X182692493Y-107724628D01*
X182692493Y-107724628D02*
X182502017Y-107677009D01*
X182502017Y-107677009D02*
X182406779Y-107629390D01*
X182406779Y-107629390D02*
X182359160Y-107581771D01*
X182359160Y-107581771D02*
X182311541Y-107486533D01*
X182311541Y-107486533D02*
X182311541Y-107391295D01*
X182311541Y-107391295D02*
X182359160Y-107296057D01*
X182359160Y-107296057D02*
X182406779Y-107248438D01*
X182406779Y-107248438D02*
X182502017Y-107200819D01*
X182502017Y-107200819D02*
X182740112Y-107200819D01*
X182740112Y-107200819D02*
X182882969Y-107248438D01*
X185011251Y-88688148D02*
X185112266Y-88115728D01*
X184607190Y-88284087D02*
X185314297Y-87576980D01*
X185314297Y-87576980D02*
X185583671Y-87846354D01*
X185583671Y-87846354D02*
X185617343Y-87947369D01*
X185617343Y-87947369D02*
X185617343Y-88014713D01*
X185617343Y-88014713D02*
X185583671Y-88115728D01*
X185583671Y-88115728D02*
X185482656Y-88216743D01*
X185482656Y-88216743D02*
X185381641Y-88250415D01*
X185381641Y-88250415D02*
X185314297Y-88250415D01*
X185314297Y-88250415D02*
X185213282Y-88216743D01*
X185213282Y-88216743D02*
X184943908Y-87947369D01*
X185920389Y-88183071D02*
X186324450Y-88587132D01*
X185415312Y-89092209D02*
X186122419Y-88385102D01*
X186324450Y-89866659D02*
X186257106Y-89866659D01*
X186257106Y-89866659D02*
X186122419Y-89799316D01*
X186122419Y-89799316D02*
X186055076Y-89731972D01*
X186055076Y-89731972D02*
X185987732Y-89597285D01*
X185987732Y-89597285D02*
X185987732Y-89462598D01*
X185987732Y-89462598D02*
X186021404Y-89361583D01*
X186021404Y-89361583D02*
X186122419Y-89193224D01*
X186122419Y-89193224D02*
X186223434Y-89092209D01*
X186223434Y-89092209D02*
X186391793Y-88991193D01*
X186391793Y-88991193D02*
X186492808Y-88957522D01*
X186492808Y-88957522D02*
X186627495Y-88957522D01*
X186627495Y-88957522D02*
X186762182Y-89024865D01*
X186762182Y-89024865D02*
X186829526Y-89092209D01*
X186829526Y-89092209D02*
X186896869Y-89226896D01*
X186896869Y-89226896D02*
X186896869Y-89294239D01*
X186560152Y-90237048D02*
X187267259Y-89529942D01*
X187267259Y-89529942D02*
X186997885Y-90270720D01*
X186997885Y-90270720D02*
X187738663Y-90001346D01*
X187738663Y-90001346D02*
X187031556Y-90708453D01*
X179216207Y-113407819D02*
X178882874Y-112931628D01*
X178644779Y-113407819D02*
X178644779Y-112407819D01*
X178644779Y-112407819D02*
X179025731Y-112407819D01*
X179025731Y-112407819D02*
X179120969Y-112455438D01*
X179120969Y-112455438D02*
X179168588Y-112503057D01*
X179168588Y-112503057D02*
X179216207Y-112598295D01*
X179216207Y-112598295D02*
X179216207Y-112741152D01*
X179216207Y-112741152D02*
X179168588Y-112836390D01*
X179168588Y-112836390D02*
X179120969Y-112884009D01*
X179120969Y-112884009D02*
X179025731Y-112931628D01*
X179025731Y-112931628D02*
X178644779Y-112931628D01*
X179549541Y-112407819D02*
X180216207Y-113407819D01*
X180216207Y-112407819D02*
X179549541Y-113407819D01*
X180597160Y-113407819D02*
X180597160Y-112407819D01*
X180597160Y-112407819D02*
X180835255Y-112407819D01*
X180835255Y-112407819D02*
X180978112Y-112455438D01*
X180978112Y-112455438D02*
X181073350Y-112550676D01*
X181073350Y-112550676D02*
X181120969Y-112645914D01*
X181120969Y-112645914D02*
X181168588Y-112836390D01*
X181168588Y-112836390D02*
X181168588Y-112979247D01*
X181168588Y-112979247D02*
X181120969Y-113169723D01*
X181120969Y-113169723D02*
X181073350Y-113264961D01*
X181073350Y-113264961D02*
X180978112Y-113360200D01*
X180978112Y-113360200D02*
X180835255Y-113407819D01*
X180835255Y-113407819D02*
X180597160Y-113407819D01*
X181359065Y-113503057D02*
X182120969Y-113503057D01*
X182359065Y-113407819D02*
X182359065Y-112407819D01*
X182359065Y-112407819D02*
X182692398Y-113122104D01*
X182692398Y-113122104D02*
X183025731Y-112407819D01*
X183025731Y-112407819D02*
X183025731Y-113407819D01*
X214068819Y-115208333D02*
X214783104Y-115208333D01*
X214783104Y-115208333D02*
X214925961Y-115255952D01*
X214925961Y-115255952D02*
X215021200Y-115351190D01*
X215021200Y-115351190D02*
X215068819Y-115494047D01*
X215068819Y-115494047D02*
X215068819Y-115589285D01*
X214068819Y-114255952D02*
X214068819Y-114732142D01*
X214068819Y-114732142D02*
X214545009Y-114779761D01*
X214545009Y-114779761D02*
X214497390Y-114732142D01*
X214497390Y-114732142D02*
X214449771Y-114636904D01*
X214449771Y-114636904D02*
X214449771Y-114398809D01*
X214449771Y-114398809D02*
X214497390Y-114303571D01*
X214497390Y-114303571D02*
X214545009Y-114255952D01*
X214545009Y-114255952D02*
X214640247Y-114208333D01*
X214640247Y-114208333D02*
X214878342Y-114208333D01*
X214878342Y-114208333D02*
X214973580Y-114255952D01*
X214973580Y-114255952D02*
X215021200Y-114303571D01*
X215021200Y-114303571D02*
X215068819Y-114398809D01*
X215068819Y-114398809D02*
X215068819Y-114636904D01*
X215068819Y-114636904D02*
X215021200Y-114732142D01*
X215021200Y-114732142D02*
X214973580Y-114779761D01*
X176831666Y-104864819D02*
X176831666Y-105579104D01*
X176831666Y-105579104D02*
X176784047Y-105721961D01*
X176784047Y-105721961D02*
X176688809Y-105817200D01*
X176688809Y-105817200D02*
X176545952Y-105864819D01*
X176545952Y-105864819D02*
X176450714Y-105864819D01*
X177831666Y-105864819D02*
X177260238Y-105864819D01*
X177545952Y-105864819D02*
X177545952Y-104864819D01*
X177545952Y-104864819D02*
X177450714Y-105007676D01*
X177450714Y-105007676D02*
X177355476Y-105102914D01*
X177355476Y-105102914D02*
X177260238Y-105150533D01*
X200406095Y-88989819D02*
X200406095Y-89799342D01*
X200406095Y-89799342D02*
X200453714Y-89894580D01*
X200453714Y-89894580D02*
X200501333Y-89942200D01*
X200501333Y-89942200D02*
X200596571Y-89989819D01*
X200596571Y-89989819D02*
X200787047Y-89989819D01*
X200787047Y-89989819D02*
X200882285Y-89942200D01*
X200882285Y-89942200D02*
X200929904Y-89894580D01*
X200929904Y-89894580D02*
X200977523Y-89799342D01*
X200977523Y-89799342D02*
X200977523Y-88989819D01*
X201358476Y-88989819D02*
X201977523Y-88989819D01*
X201977523Y-88989819D02*
X201644190Y-89370771D01*
X201644190Y-89370771D02*
X201787047Y-89370771D01*
X201787047Y-89370771D02*
X201882285Y-89418390D01*
X201882285Y-89418390D02*
X201929904Y-89466009D01*
X201929904Y-89466009D02*
X201977523Y-89561247D01*
X201977523Y-89561247D02*
X201977523Y-89799342D01*
X201977523Y-89799342D02*
X201929904Y-89894580D01*
X201929904Y-89894580D02*
X201882285Y-89942200D01*
X201882285Y-89942200D02*
X201787047Y-89989819D01*
X201787047Y-89989819D02*
X201501333Y-89989819D01*
X201501333Y-89989819D02*
X201406095Y-89942200D01*
X201406095Y-89942200D02*
X201358476Y-89894580D01*
D12*
%TO.C,J5*%
X213614000Y-109220000D02*
X213614000Y-110490000D01*
X212344000Y-109220000D02*
X213614000Y-109220000D01*
X210184000Y-111532929D02*
X210184000Y-111930000D01*
X209424000Y-111532929D02*
X209424000Y-111930000D01*
X207644000Y-111532929D02*
X207644000Y-111930000D01*
X206884000Y-111532929D02*
X206884000Y-111930000D01*
X205104000Y-111532929D02*
X205104000Y-111930000D01*
X204344000Y-111532929D02*
X204344000Y-111930000D01*
X212724000Y-111600000D02*
X212724000Y-111930000D01*
X211964000Y-111600000D02*
X211964000Y-111930000D01*
X213674000Y-111930000D02*
X203394000Y-111930000D01*
X211074000Y-111930000D02*
X211074000Y-114590000D01*
X208534000Y-111930000D02*
X208534000Y-114590000D01*
X205994000Y-111930000D02*
X205994000Y-114590000D01*
X203394000Y-111930000D02*
X203394000Y-114590000D01*
X213674000Y-114590000D02*
X213674000Y-111930000D01*
X212724000Y-114590000D02*
X212724000Y-120590000D01*
X212664000Y-114590000D02*
X212664000Y-120590000D01*
X212544000Y-114590000D02*
X212544000Y-120590000D01*
X212424000Y-114590000D02*
X212424000Y-120590000D01*
X212304000Y-114590000D02*
X212304000Y-120590000D01*
X212184000Y-114590000D02*
X212184000Y-120590000D01*
X212064000Y-114590000D02*
X212064000Y-120590000D01*
X210184000Y-114590000D02*
X210184000Y-120590000D01*
X207644000Y-114590000D02*
X207644000Y-120590000D01*
X205104000Y-114590000D02*
X205104000Y-120590000D01*
X203394000Y-114590000D02*
X213674000Y-114590000D01*
X212724000Y-120590000D02*
X211964000Y-120590000D01*
X211964000Y-120590000D02*
X211964000Y-114590000D01*
X210184000Y-120590000D02*
X209424000Y-120590000D01*
X209424000Y-120590000D02*
X209424000Y-114590000D01*
X207644000Y-120590000D02*
X206884000Y-120590000D01*
X206884000Y-120590000D02*
X206884000Y-114590000D01*
X205104000Y-120590000D02*
X204344000Y-120590000D01*
X204344000Y-120590000D02*
X204344000Y-114590000D01*
%TO.C,J1*%
X171405000Y-99480000D02*
X171405000Y-102140000D01*
X171465000Y-99480000D02*
X171405000Y-99480000D01*
X171465000Y-102140000D02*
X171405000Y-102140000D01*
X177815000Y-102140000D02*
X177815000Y-103600000D01*
X177875000Y-99480000D02*
X177815000Y-99480000D01*
X177875000Y-99480000D02*
X177875000Y-102140000D01*
X177875000Y-102140000D02*
X177815000Y-102140000D01*
%TO.C,U3*%
X183659000Y-114376000D02*
X183659000Y-90876000D01*
X186369000Y-111616000D02*
X183709000Y-111616000D01*
X186369000Y-113036000D02*
X186369000Y-114366000D01*
X186369000Y-114366000D02*
X185039000Y-114366000D01*
X198949000Y-114366000D02*
X201659000Y-114366000D01*
X201659000Y-90876000D02*
X183659000Y-90876000D01*
X201659000Y-114366000D02*
X201659000Y-90876000D01*
%TD*%
M02*
