%TF.GenerationSoftware,KiCad,Pcbnew,8.0.2-8.0.2-0~ubuntu22.04.1*%
%TF.CreationDate,2024-05-04T18:31:52-07:00*%
%TF.ProjectId,gps_interposer,6770735f-696e-4746-9572-706f7365722e,rev?*%
%TF.SameCoordinates,Original*%
%TF.FileFunction,Copper,L2,Bot*%
%TF.FilePolarity,Positive*%
%FSLAX46Y46*%
G04 Gerber Fmt 4.6, Leading zero omitted, Abs format (unit mm)*
G04 Created by KiCad (PCBNEW 8.0.2-8.0.2-0~ubuntu22.04.1) date 2024-05-04 18:31:52*
%MOMM*%
%LPD*%
G01*
G04 APERTURE LIST*
G04 Aperture macros list*
%AMRoundRect*
0 Rectangle with rounded corners*
0 $1 Rounding radius*
0 $2 $3 $4 $5 $6 $7 $8 $9 X,Y pos of 4 corners*
0 Add a 4 corners polygon primitive as box body*
4,1,4,$2,$3,$4,$5,$6,$7,$8,$9,$2,$3,0*
0 Add four circle primitives for the rounded corners*
1,1,$1+$1,$2,$3*
1,1,$1+$1,$4,$5*
1,1,$1+$1,$6,$7*
1,1,$1+$1,$8,$9*
0 Add four rect primitives between the rounded corners*
20,1,$1+$1,$2,$3,$4,$5,0*
20,1,$1+$1,$4,$5,$6,$7,0*
20,1,$1+$1,$6,$7,$8,$9,0*
20,1,$1+$1,$8,$9,$2,$3,0*%
G04 Aperture macros list end*
%TA.AperFunction,ComponentPad*%
%ADD10R,1.700000X1.700000*%
%TD*%
%TA.AperFunction,ComponentPad*%
%ADD11O,1.700000X1.700000*%
%TD*%
%TA.AperFunction,ConnectorPad*%
%ADD12C,3.900000*%
%TD*%
%TA.AperFunction,ComponentPad*%
%ADD13C,4.100000*%
%TD*%
%TA.AperFunction,SMDPad,CuDef*%
%ADD14RoundRect,0.237500X-0.237500X0.250000X-0.237500X-0.250000X0.237500X-0.250000X0.237500X0.250000X0*%
%TD*%
%TA.AperFunction,SMDPad,CuDef*%
%ADD15RoundRect,0.237500X0.250000X0.237500X-0.250000X0.237500X-0.250000X-0.237500X0.250000X-0.237500X0*%
%TD*%
%TA.AperFunction,SMDPad,CuDef*%
%ADD16RoundRect,0.237500X-0.250000X-0.237500X0.250000X-0.237500X0.250000X0.237500X-0.250000X0.237500X0*%
%TD*%
%TA.AperFunction,SMDPad,CuDef*%
%ADD17R,0.740000X2.400000*%
%TD*%
%TA.AperFunction,SMDPad,CuDef*%
%ADD18RoundRect,0.237500X0.237500X-0.250000X0.237500X0.250000X-0.237500X0.250000X-0.237500X-0.250000X0*%
%TD*%
%TA.AperFunction,ViaPad*%
%ADD19C,0.800000*%
%TD*%
%TA.AperFunction,Conductor*%
%ADD20C,0.250000*%
%TD*%
G04 APERTURE END LIST*
D10*
%TO.P,J5,1,Pin_1*%
%TO.N,+3V0*%
X212344000Y-110490000D03*
D11*
%TO.P,J5,2,Pin_2*%
%TO.N,+3.3V*%
X209804000Y-110490000D03*
%TO.P,J5,3,Pin_3*%
%TO.N,/VSYS*%
X207264000Y-110490000D03*
%TO.P,J5,4,Pin_4*%
%TO.N,GND*%
X204724000Y-110490000D03*
%TD*%
D12*
%TO.P,H8,1,1*%
%TO.N,GND*%
X162900000Y-69900000D03*
D13*
X162900000Y-69900000D03*
%TD*%
D12*
%TO.P,H7,1,1*%
%TO.N,GND*%
X162900000Y-104100000D03*
D13*
X162900000Y-104100000D03*
%TD*%
D12*
%TO.P,H6,1,1*%
%TO.N,GND*%
X217100000Y-104100000D03*
D13*
X217100000Y-104100000D03*
%TD*%
D12*
%TO.P,H5,1,1*%
%TO.N,GND*%
X217100000Y-69900000D03*
D13*
X217100000Y-69900000D03*
%TD*%
D12*
%TO.P,H4,1,1*%
%TO.N,GND*%
X162900000Y-77900000D03*
D13*
X162900000Y-77900000D03*
%TD*%
D12*
%TO.P,H3,1,1*%
%TO.N,GND*%
X162900000Y-112100000D03*
D13*
X162900000Y-112100000D03*
%TD*%
%TO.P,H2,1,1*%
%TO.N,GND*%
X217100000Y-112100000D03*
D12*
X217100000Y-112100000D03*
%TD*%
%TO.P,H1,1,1*%
%TO.N,GND*%
X217100000Y-77900000D03*
D13*
X217100000Y-77900000D03*
%TD*%
D10*
%TO.P,U3,1,GPIO0/SPI0_RX/I2C0_SDA/UART0_TX*%
%TO.N,Net-(U3-GPIO0{slash}SPI0_RX{slash}I2C0_SDA{slash}UART0_TX)*%
X185039000Y-112776000D03*
D11*
%TO.P,U3,2,GPIO1/SPI0_CSn/I2C0_SCL/UART0_RX*%
%TO.N,Net-(U3-GPIO1{slash}SPI0_CSn{slash}I2C0_SCL{slash}UART0_RX)*%
X185039000Y-110236000D03*
%TO.P,U3,3,GPIO2/SPI0_SCLK/I2C1_SDA*%
%TO.N,/1PPS_M_3V3*%
X185039000Y-107696000D03*
%TO.P,U3,4,GPIO3/SPI0_TX/I2C1_SCLK*%
%TO.N,unconnected-(U3-GPIO3{slash}SPI0_TX{slash}I2C1_SCLK-Pad4)*%
X185039000Y-105156000D03*
%TO.P,U3,5,GPIO4/SPI0_RX_I2C0_SDA/UART1_TX*%
%TO.N,Net-(U3-GPIO4{slash}SPI0_RX_I2C0_SDA{slash}UART1_TX)*%
X185039000Y-102616000D03*
%TO.P,U3,6,GPIO5/SPI0_CSn/I2C0_SCL/UART1_RX*%
%TO.N,Net-(U3-GPIO5{slash}SPI0_CSn{slash}I2C0_SCL{slash}UART1_RX)*%
X185039000Y-100076000D03*
%TO.P,U3,7,GPIO6/SPI0_SCK/I2C1_SDA*%
%TO.N,unconnected-(U3-GPIO6{slash}SPI0_SCK{slash}I2C1_SDA-Pad7)*%
X185039000Y-97536000D03*
%TO.P,U3,8,GPIO7/SPI0_TX/I2C1_SCL*%
%TO.N,unconnected-(U3-GPIO7{slash}SPI0_TX{slash}I2C1_SCL-Pad8)*%
X185039000Y-94996000D03*
%TO.P,U3,9,GPIO8/SPI1_RX/I2C0_SDA/UART1_TX*%
%TO.N,unconnected-(U3-GPIO8{slash}SPI1_RX{slash}I2C0_SDA{slash}UART1_TX-Pad9)*%
X185039000Y-92456000D03*
%TO.P,U3,10,GPIO9/SPI1_CSn/I2C0_SCL/UART1_RX*%
%TO.N,/RTCM_IN_C*%
X187579000Y-92456000D03*
%TO.P,U3,11,GPIO10/SPI1_SCK/I2C1_SDA*%
%TO.N,unconnected-(U3-GPIO10{slash}SPI1_SCK{slash}I2C1_SDA-Pad11)*%
X190119000Y-92456000D03*
%TO.P,U3,12,GPIO11/SPI1_TX/I2C1_SCL*%
%TO.N,unconnected-(U3-GPIO11{slash}SPI1_TX{slash}I2C1_SCL-Pad12)*%
X192659000Y-92456000D03*
%TO.P,U3,13,GPIO12/SPI1_RX/I1C0_SDA/UART0_TX*%
%TO.N,unconnected-(U3-GPIO12{slash}SPI1_RX{slash}I1C0_SDA{slash}UART0_TX-Pad13)*%
X195199000Y-92456000D03*
%TO.P,U3,14,GPIO13/SPI1_CSN/I2C0/SCL/UART0_RX*%
%TO.N,unconnected-(U3-GPIO13{slash}SPI1_CSN{slash}I2C0{slash}SCL{slash}UART0_RX-Pad14)*%
X197739000Y-92456000D03*
%TO.P,U3,15,GPIO14/SPI1_SCK/I2C1_SDA*%
%TO.N,unconnected-(U3-GPIO14{slash}SPI1_SCK{slash}I2C1_SDA-Pad15)*%
X200279000Y-92456000D03*
%TO.P,U3,16,GPIO15/SPI1_TX/I2C1_SCL*%
%TO.N,unconnected-(U3-GPIO15{slash}SPI1_TX{slash}I2C1_SCL-Pad16)*%
X200279000Y-94996000D03*
%TO.P,U3,17,GPIO26/ADC0/I2C1_SDA*%
%TO.N,unconnected-(U3-GPIO26{slash}ADC0{slash}I2C1_SDA-Pad17)*%
X200279000Y-97536000D03*
%TO.P,U3,18,GPIO27/ADC1/I2C1_SCL*%
%TO.N,unconnected-(U3-GPIO27{slash}ADC1{slash}I2C1_SCL-Pad18)*%
X200279000Y-100076000D03*
%TO.P,U3,19,GPIO28/ADC2*%
%TO.N,unconnected-(U3-GPIO28{slash}ADC2-Pad19)*%
X200279000Y-102616000D03*
%TO.P,U3,20,GPIO29/ADC3*%
%TO.N,unconnected-(U3-GPIO29{slash}ADC3-Pad20)*%
X200279000Y-105156000D03*
%TO.P,U3,21,3V3*%
%TO.N,+3.3V*%
X200279000Y-107696000D03*
%TO.P,U3,22,GND*%
%TO.N,GND*%
X200279000Y-110236000D03*
%TO.P,U3,23,VSYS*%
%TO.N,/VSYS*%
X200279000Y-112776000D03*
%TD*%
D14*
%TO.P,R29,1*%
%TO.N,/RXD_M*%
X179578000Y-105109000D03*
%TO.P,R29,2*%
%TO.N,/RXD_C*%
X179578000Y-106934000D03*
%TD*%
D15*
%TO.P,R19,1*%
%TO.N,GND*%
X190754000Y-101092000D03*
%TO.P,R19,2*%
%TO.N,/TXD_C*%
X188929000Y-101092000D03*
%TD*%
D16*
%TO.P,R14,1*%
%TO.N,Net-(U3-GPIO1{slash}SPI0_CSn{slash}I2C0_SCL{slash}UART0_RX)*%
X188863000Y-107823000D03*
%TO.P,R14,2*%
%TO.N,/TXD_M*%
X190688000Y-107823000D03*
%TD*%
%TO.P,R13,1*%
%TO.N,Net-(U3-GPIO0{slash}SPI0_RX{slash}I2C0_SDA{slash}UART0_TX)*%
X188863000Y-109652000D03*
%TO.P,R13,2*%
%TO.N,/RXD_M_3V3*%
X190688000Y-109652000D03*
%TD*%
D15*
%TO.P,R18,1*%
%TO.N,GND*%
X190674000Y-113284000D03*
%TO.P,R18,2*%
%TO.N,/RXD_M*%
X188849000Y-113284000D03*
%TD*%
D16*
%TO.P,R10,1*%
%TO.N,/TXD_C*%
X188929000Y-99314000D03*
%TO.P,R10,2*%
%TO.N,/TXD_C_3V3*%
X190754000Y-99314000D03*
%TD*%
D17*
%TO.P,J2,1,Pin_1*%
%TO.N,/TXD_C*%
X177220000Y-110850000D03*
%TO.P,J2,2,Pin_2*%
%TO.N,/RXD_C*%
X177220000Y-106950000D03*
%TO.P,J2,3,Pin_3*%
%TO.N,+3V0*%
X175950000Y-110850000D03*
%TO.P,J2,4,Pin_4*%
%TO.N,/1PPS_C*%
X175950000Y-106950000D03*
%TO.P,J2,5,Pin_5*%
%TO.N,GND*%
X174680000Y-110850000D03*
%TO.P,J2,6,Pin_6*%
%TO.N,/BATT_C*%
X174680000Y-106950000D03*
%TO.P,J2,7,Pin_7*%
%TO.N,/RSVD7_C*%
X173410000Y-110850000D03*
%TO.P,J2,8,Pin_8*%
%TO.N,/RTCM_IN_C*%
X173410000Y-106950000D03*
%TO.P,J2,9,Pin_9*%
%TO.N,/ANT_BIAS_C*%
X172140000Y-110850000D03*
%TO.P,J2,10,Pin_10*%
%TO.N,/RSVD10_C*%
X172140000Y-106950000D03*
%TD*%
D18*
%TO.P,R31,1*%
%TO.N,/TXD_C*%
X181610000Y-106981000D03*
%TO.P,R31,2*%
%TO.N,/TXD_M*%
X181610000Y-105156000D03*
%TD*%
D15*
%TO.P,R7,1*%
%TO.N,/1PPS_C*%
X190721000Y-103124000D03*
%TO.P,R7,2*%
%TO.N,/1PPS_M_3V3*%
X188896000Y-103124000D03*
%TD*%
D16*
%TO.P,R16,1*%
%TO.N,Net-(U3-GPIO5{slash}SPI0_CSn{slash}I2C0_SCL{slash}UART1_RX)*%
X188896000Y-95758000D03*
%TO.P,R16,2*%
%TO.N,/RXD_C*%
X190721000Y-95758000D03*
%TD*%
D15*
%TO.P,R17,1*%
%TO.N,GND*%
X190721000Y-104902000D03*
%TO.P,R17,2*%
%TO.N,/1PPS_M_3V3*%
X188896000Y-104902000D03*
%TD*%
D16*
%TO.P,R15,1*%
%TO.N,Net-(U3-GPIO4{slash}SPI0_RX_I2C0_SDA{slash}UART1_TX)*%
X188896000Y-97536000D03*
%TO.P,R15,2*%
%TO.N,/TXD_C_3V3*%
X190721000Y-97536000D03*
%TD*%
D15*
%TO.P,R2,1*%
%TO.N,/RXD_M_3V3*%
X190674000Y-111506000D03*
%TO.P,R2,2*%
%TO.N,/RXD_M*%
X188849000Y-111506000D03*
%TD*%
D19*
%TO.N,/RXD_M*%
X177165000Y-100584000D03*
%TO.N,GND*%
X174752000Y-112649000D03*
X191897000Y-113284000D03*
X192659000Y-101092000D03*
X174625000Y-109220000D03*
X191897000Y-104902000D03*
%TO.N,+3V0*%
X175895000Y-109220000D03*
%TO.N,/TXD_M*%
X178181000Y-102616000D03*
%TO.N,/1PPS_C*%
X175895000Y-100584000D03*
%TO.N,/ANT_BIAS_C*%
X172085000Y-109220000D03*
%TO.N,/RTCM_IN_C*%
X173355000Y-100584000D03*
%TO.N,/RXD_C*%
X179681508Y-100607492D03*
X179578000Y-108331000D03*
%TO.N,/RSVD7_C*%
X173228000Y-109220000D03*
%TO.N,/RSVD10_C*%
X172085000Y-100584000D03*
%TO.N,/BATT_C*%
X174625000Y-100584000D03*
%TO.N,/TXD_C*%
X187960000Y-101092000D03*
X181610000Y-108331000D03*
%TD*%
D20*
%TO.N,+3V0*%
X175950000Y-110850000D02*
X175950000Y-111680000D01*
X175950000Y-111680000D02*
X178354000Y-114084000D01*
X178354000Y-114084000D02*
X208750000Y-114084000D01*
X208750000Y-114084000D02*
X212344000Y-110490000D01*
%TO.N,/VSYS*%
X200279000Y-112776000D02*
X204978000Y-112776000D01*
X204978000Y-112776000D02*
X207264000Y-110490000D01*
%TO.N,+3.3V*%
X200279000Y-107696000D02*
X207010000Y-107696000D01*
X207010000Y-107696000D02*
X209804000Y-110490000D01*
%TO.N,/RXD_M*%
X180437500Y-105968500D02*
X181887076Y-105968500D01*
X177880000Y-105109000D02*
X177165000Y-104394000D01*
X188849000Y-111506000D02*
X188849000Y-113284000D01*
X182499000Y-106580424D02*
X182499000Y-109357701D01*
X182499000Y-109357701D02*
X184552299Y-111411000D01*
X189675500Y-109157500D02*
X189675500Y-110679500D01*
X177165000Y-104394000D02*
X177165000Y-100584000D01*
X189675500Y-110679500D02*
X188849000Y-111506000D01*
X188328000Y-108852000D02*
X189370000Y-108852000D01*
X181887076Y-105968500D02*
X182499000Y-106580424D01*
X189370000Y-108852000D02*
X189675500Y-109157500D01*
X185769000Y-111411000D02*
X188328000Y-108852000D01*
X179578000Y-105109000D02*
X177880000Y-105109000D01*
X179578000Y-105109000D02*
X180437500Y-105968500D01*
X184552299Y-111411000D02*
X185769000Y-111411000D01*
%TO.N,GND*%
X191897000Y-104902000D02*
X190721000Y-104902000D01*
X191897000Y-113284000D02*
X190674000Y-113284000D01*
X174680000Y-110850000D02*
X174680000Y-112577000D01*
X190754000Y-101092000D02*
X192659000Y-101092000D01*
X174680000Y-110850000D02*
X174680000Y-109275000D01*
X174680000Y-109275000D02*
X174625000Y-109220000D01*
X174680000Y-112577000D02*
X174752000Y-112649000D01*
%TO.N,+3V0*%
X175950000Y-109275000D02*
X175895000Y-109220000D01*
X175950000Y-110850000D02*
X175950000Y-109275000D01*
%TO.N,/TXD_M*%
X181610000Y-105156000D02*
X179070000Y-102616000D01*
X181610000Y-105156000D02*
X182085000Y-105156000D01*
X185642000Y-108871000D02*
X187706000Y-106807000D01*
X182085000Y-105156000D02*
X182975000Y-106046000D01*
X187706000Y-106807000D02*
X189672000Y-106807000D01*
X182975000Y-106046000D02*
X182975000Y-107791000D01*
X182975000Y-107791000D02*
X184055000Y-108871000D01*
X179070000Y-102616000D02*
X178181000Y-102616000D01*
X189672000Y-106807000D02*
X190688000Y-107823000D01*
X184055000Y-108871000D02*
X185642000Y-108871000D01*
%TO.N,/1PPS_C*%
X186785000Y-103791000D02*
X188252000Y-102324000D01*
X181769000Y-103791000D02*
X186785000Y-103791000D01*
X188252000Y-102324000D02*
X189921000Y-102324000D01*
X177546000Y-99568000D02*
X181769000Y-103791000D01*
X175950000Y-100639000D02*
X175895000Y-100584000D01*
X175895000Y-100330000D02*
X176657000Y-99568000D01*
X176657000Y-99568000D02*
X177546000Y-99568000D01*
X175895000Y-100584000D02*
X175895000Y-100330000D01*
X175950000Y-106950000D02*
X175950000Y-100639000D01*
X189921000Y-102324000D02*
X190721000Y-103124000D01*
%TO.N,/ANT_BIAS_C*%
X172140000Y-110850000D02*
X172140000Y-109275000D01*
X172140000Y-109275000D02*
X172085000Y-109220000D01*
%TO.N,/RTCM_IN_C*%
X173410000Y-106950000D02*
X173410000Y-100639000D01*
X173410000Y-100639000D02*
X173355000Y-100584000D01*
X173355000Y-100584000D02*
X177292000Y-96647000D01*
%TO.N,/RXD_C*%
X189865000Y-94869000D02*
X190721000Y-95725000D01*
X183928000Y-96361000D02*
X186340999Y-96361000D01*
X186340999Y-96361000D02*
X187832999Y-94869000D01*
X179681508Y-100607492D02*
X183928000Y-96361000D01*
X177220000Y-106950000D02*
X179562000Y-106950000D01*
X179578000Y-108331000D02*
X179578000Y-106934000D01*
X179562000Y-106950000D02*
X179578000Y-106934000D01*
X190721000Y-95725000D02*
X190721000Y-95758000D01*
X187832999Y-94869000D02*
X189865000Y-94869000D01*
%TO.N,/RSVD7_C*%
X173410000Y-109402000D02*
X173228000Y-109220000D01*
X173410000Y-110850000D02*
X173410000Y-109402000D01*
%TO.N,/RSVD10_C*%
X172140000Y-106950000D02*
X172140000Y-100639000D01*
X172140000Y-100639000D02*
X172085000Y-100584000D01*
%TO.N,/BATT_C*%
X174680000Y-106950000D02*
X174680000Y-100639000D01*
X174680000Y-100639000D02*
X174625000Y-100584000D01*
%TO.N,/TXD_C*%
X181610000Y-108585000D02*
X181610000Y-108331000D01*
X177220000Y-110850000D02*
X179345000Y-110850000D01*
X179345000Y-110850000D02*
X181610000Y-108585000D01*
X187960000Y-101092000D02*
X188929000Y-101092000D01*
X188929000Y-99314000D02*
X188929000Y-101092000D01*
X181610000Y-108331000D02*
X181610000Y-106981000D01*
%TO.N,/RXD_M_3V3*%
X190688000Y-109652000D02*
X190688000Y-111492000D01*
X190688000Y-111492000D02*
X190674000Y-111506000D01*
%TO.N,/1PPS_M_3V3*%
X187833000Y-104902000D02*
X188896000Y-104902000D01*
X188896000Y-104902000D02*
X188896000Y-103124000D01*
X188896000Y-105104000D02*
X188896000Y-104902000D01*
X185039000Y-107696000D02*
X187833000Y-104902000D01*
%TO.N,/TXD_C_3V3*%
X190721000Y-99281000D02*
X190754000Y-99314000D01*
X190721000Y-97536000D02*
X190721000Y-99281000D01*
%TO.N,Net-(U3-GPIO0{slash}SPI0_RX{slash}I2C0_SDA{slash}UART0_TX)*%
X185739000Y-112776000D02*
X188863000Y-109652000D01*
X185039000Y-112776000D02*
X185739000Y-112776000D01*
%TO.N,Net-(U3-GPIO1{slash}SPI0_CSn{slash}I2C0_SCL{slash}UART0_RX)*%
X187452000Y-107823000D02*
X188863000Y-107823000D01*
X185039000Y-110236000D02*
X187452000Y-107823000D01*
%TO.N,Net-(U3-GPIO4{slash}SPI0_RX_I2C0_SDA{slash}UART1_TX)*%
X187198000Y-100457000D02*
X187198000Y-99234000D01*
X187198000Y-99234000D02*
X188896000Y-97536000D01*
X185039000Y-102616000D02*
X187198000Y-100457000D01*
%TO.N,Net-(U3-GPIO5{slash}SPI0_CSn{slash}I2C0_SCL{slash}UART1_RX)*%
X186690000Y-97663000D02*
X188595000Y-95758000D01*
X185039000Y-100076000D02*
X186690000Y-98425000D01*
X188595000Y-95758000D02*
X188896000Y-95758000D01*
X186690000Y-98425000D02*
X186690000Y-97663000D01*
%TO.N,/RTCM_IN_C*%
X177292000Y-96647000D02*
X179186299Y-96647000D01*
X179186299Y-96647000D02*
X182202299Y-93631000D01*
X186404000Y-93631000D02*
X187579000Y-92456000D01*
X182202299Y-93631000D02*
X186404000Y-93631000D01*
%TD*%
%TA.AperFunction,Conductor*%
%TO.N,+3V0*%
G36*
X219943039Y-67019685D02*
G01*
X219988794Y-67072489D01*
X220000000Y-67124000D01*
X220000000Y-114776000D01*
X219980315Y-114843039D01*
X219927511Y-114888794D01*
X219876000Y-114900000D01*
X160124000Y-114900000D01*
X160056961Y-114880315D01*
X160011206Y-114827511D01*
X160000000Y-114776000D01*
X160000000Y-112099994D01*
X160344457Y-112099994D01*
X160344457Y-112100005D01*
X160364606Y-112420283D01*
X160364607Y-112420290D01*
X160388844Y-112547343D01*
X160424161Y-112732484D01*
X160424745Y-112735542D01*
X160523916Y-113040759D01*
X160523918Y-113040764D01*
X160660558Y-113331138D01*
X160660562Y-113331144D01*
X160832520Y-113602108D01*
X160832522Y-113602111D01*
X161025611Y-113835516D01*
X161037089Y-113849390D01*
X161250615Y-114049903D01*
X161271034Y-114069078D01*
X161271044Y-114069086D01*
X161530660Y-114257708D01*
X161530666Y-114257711D01*
X161530672Y-114257716D01*
X161811903Y-114412324D01*
X162110294Y-114530466D01*
X162110293Y-114530466D01*
X162421135Y-114610276D01*
X162421139Y-114610277D01*
X162487935Y-114618715D01*
X162739524Y-114650499D01*
X162739533Y-114650499D01*
X162739536Y-114650500D01*
X162739538Y-114650500D01*
X163060462Y-114650500D01*
X163060464Y-114650500D01*
X163060467Y-114650499D01*
X163060475Y-114650499D01*
X163250463Y-114626497D01*
X163378861Y-114610277D01*
X163689706Y-114530466D01*
X163988097Y-114412324D01*
X164269328Y-114257716D01*
X164528964Y-114069080D01*
X164762911Y-113849390D01*
X164967478Y-113602110D01*
X165139439Y-113331142D01*
X165161623Y-113284000D01*
X165250211Y-113095740D01*
X165276084Y-113040758D01*
X165375256Y-112735538D01*
X165435392Y-112420294D01*
X165436194Y-112407544D01*
X165455543Y-112100005D01*
X165455543Y-112099994D01*
X165435393Y-111779716D01*
X165435392Y-111779709D01*
X165435392Y-111779706D01*
X165375256Y-111464462D01*
X165276084Y-111159242D01*
X165276081Y-111159235D01*
X165139441Y-110868861D01*
X165139437Y-110868855D01*
X164967479Y-110597891D01*
X164967477Y-110597888D01*
X164762912Y-110350611D01*
X164528965Y-110130921D01*
X164528955Y-110130913D01*
X164269339Y-109942291D01*
X164269321Y-109942280D01*
X163988096Y-109787675D01*
X163988093Y-109787674D01*
X163689703Y-109669533D01*
X163689706Y-109669533D01*
X163378864Y-109589723D01*
X163378851Y-109589721D01*
X163060475Y-109549500D01*
X163060464Y-109549500D01*
X162739536Y-109549500D01*
X162739524Y-109549500D01*
X162421148Y-109589721D01*
X162421135Y-109589723D01*
X162110294Y-109669533D01*
X161811906Y-109787674D01*
X161811903Y-109787675D01*
X161530678Y-109942280D01*
X161530660Y-109942291D01*
X161271044Y-110130913D01*
X161271034Y-110130921D01*
X161037087Y-110350611D01*
X160832522Y-110597888D01*
X160832520Y-110597891D01*
X160660562Y-110868855D01*
X160660558Y-110868861D01*
X160523918Y-111159235D01*
X160523916Y-111159240D01*
X160424745Y-111464457D01*
X160364607Y-111779709D01*
X160364606Y-111779716D01*
X160344457Y-112099994D01*
X160000000Y-112099994D01*
X160000000Y-104099994D01*
X160344457Y-104099994D01*
X160344457Y-104100005D01*
X160364606Y-104420283D01*
X160364607Y-104420290D01*
X160424745Y-104735542D01*
X160523916Y-105040759D01*
X160523918Y-105040764D01*
X160660558Y-105331138D01*
X160660562Y-105331144D01*
X160832520Y-105602108D01*
X160832522Y-105602111D01*
X161024220Y-105833834D01*
X161037089Y-105849390D01*
X161266515Y-106064834D01*
X161271034Y-106069078D01*
X161271044Y-106069086D01*
X161530660Y-106257708D01*
X161530666Y-106257711D01*
X161530672Y-106257716D01*
X161811903Y-106412324D01*
X162110294Y-106530466D01*
X162110293Y-106530466D01*
X162357744Y-106594000D01*
X162421139Y-106610277D01*
X162487935Y-106618715D01*
X162739524Y-106650499D01*
X162739533Y-106650499D01*
X162739536Y-106650500D01*
X162739538Y-106650500D01*
X163060462Y-106650500D01*
X163060464Y-106650500D01*
X163060467Y-106650499D01*
X163060475Y-106650499D01*
X163250463Y-106626497D01*
X163378861Y-106610277D01*
X163689706Y-106530466D01*
X163988097Y-106412324D01*
X164269328Y-106257716D01*
X164528964Y-106069080D01*
X164762911Y-105849390D01*
X164967478Y-105602110D01*
X165139439Y-105331142D01*
X165143189Y-105323174D01*
X165276081Y-105040764D01*
X165276084Y-105040758D01*
X165375256Y-104735538D01*
X165435392Y-104420294D01*
X165435653Y-104416144D01*
X165455543Y-104100005D01*
X165455543Y-104099994D01*
X165435393Y-103779716D01*
X165435392Y-103779709D01*
X165435392Y-103779706D01*
X165375256Y-103464462D01*
X165276084Y-103159242D01*
X165265674Y-103137119D01*
X165139441Y-102868861D01*
X165139437Y-102868855D01*
X164967479Y-102597891D01*
X164967477Y-102597888D01*
X164762912Y-102350611D01*
X164528965Y-102130921D01*
X164528955Y-102130913D01*
X164269339Y-101942291D01*
X164269321Y-101942280D01*
X163988096Y-101787675D01*
X163988093Y-101787674D01*
X163689703Y-101669533D01*
X163689706Y-101669533D01*
X163378864Y-101589723D01*
X163378851Y-101589721D01*
X163060475Y-101549500D01*
X163060464Y-101549500D01*
X162739536Y-101549500D01*
X162739524Y-101549500D01*
X162421148Y-101589721D01*
X162421135Y-101589723D01*
X162110294Y-101669533D01*
X161811906Y-101787674D01*
X161811903Y-101787675D01*
X161530678Y-101942280D01*
X161530660Y-101942291D01*
X161271044Y-102130913D01*
X161271034Y-102130921D01*
X161037087Y-102350611D01*
X160832522Y-102597888D01*
X160832520Y-102597891D01*
X160660562Y-102868855D01*
X160660558Y-102868861D01*
X160523918Y-103159235D01*
X160523916Y-103159240D01*
X160424745Y-103464457D01*
X160364607Y-103779709D01*
X160364606Y-103779716D01*
X160344457Y-104099994D01*
X160000000Y-104099994D01*
X160000000Y-100584000D01*
X171179540Y-100584000D01*
X171199326Y-100772256D01*
X171199327Y-100772259D01*
X171257818Y-100952277D01*
X171257821Y-100952284D01*
X171352467Y-101116216D01*
X171472959Y-101250035D01*
X171482650Y-101260798D01*
X171512880Y-101323789D01*
X171514500Y-101343770D01*
X171514500Y-105253992D01*
X171494815Y-105321031D01*
X171464812Y-105353258D01*
X171412457Y-105392451D01*
X171412451Y-105392457D01*
X171326206Y-105507664D01*
X171326202Y-105507671D01*
X171275908Y-105642517D01*
X171269501Y-105702116D01*
X171269500Y-105702135D01*
X171269500Y-108197870D01*
X171269501Y-108197876D01*
X171275908Y-108257483D01*
X171326202Y-108392328D01*
X171326206Y-108392335D01*
X171397834Y-108488017D01*
X171422252Y-108553481D01*
X171407401Y-108621754D01*
X171390720Y-108645298D01*
X171352468Y-108687782D01*
X171352464Y-108687787D01*
X171257821Y-108851715D01*
X171257818Y-108851722D01*
X171208377Y-109003888D01*
X171199326Y-109031744D01*
X171179540Y-109220000D01*
X171199326Y-109408256D01*
X171199327Y-109408259D01*
X171257818Y-109588277D01*
X171258777Y-109590430D01*
X171259267Y-109592735D01*
X171259829Y-109594465D01*
X171259647Y-109594524D01*
X171269500Y-109640872D01*
X171269500Y-112097870D01*
X171269501Y-112097876D01*
X171275908Y-112157483D01*
X171326202Y-112292328D01*
X171326206Y-112292335D01*
X171412452Y-112407544D01*
X171412455Y-112407547D01*
X171527664Y-112493793D01*
X171527671Y-112493797D01*
X171662517Y-112544091D01*
X171662516Y-112544091D01*
X171669444Y-112544835D01*
X171722127Y-112550500D01*
X172557872Y-112550499D01*
X172617483Y-112544091D01*
X172731667Y-112501502D01*
X172801358Y-112496519D01*
X172818333Y-112501503D01*
X172932517Y-112544091D01*
X172932516Y-112544091D01*
X172939444Y-112544835D01*
X172992127Y-112550500D01*
X173724537Y-112550499D01*
X173791576Y-112570183D01*
X173837331Y-112622987D01*
X173847857Y-112661534D01*
X173866326Y-112837256D01*
X173866327Y-112837259D01*
X173924818Y-113017277D01*
X173924821Y-113017284D01*
X174019467Y-113181216D01*
X174112036Y-113284024D01*
X174146129Y-113321888D01*
X174299265Y-113433148D01*
X174299270Y-113433151D01*
X174472192Y-113510142D01*
X174472197Y-113510144D01*
X174657354Y-113549500D01*
X174657355Y-113549500D01*
X174846644Y-113549500D01*
X174846646Y-113549500D01*
X175031803Y-113510144D01*
X175204730Y-113433151D01*
X175357871Y-113321888D01*
X175484533Y-113181216D01*
X175579179Y-113017284D01*
X175637674Y-112837256D01*
X175657460Y-112649000D01*
X175657460Y-112648997D01*
X175657460Y-112643902D01*
X175677145Y-112576863D01*
X175693779Y-112556221D01*
X175700000Y-112550000D01*
X175700000Y-109150000D01*
X175634753Y-109150000D01*
X175567714Y-109130315D01*
X175521959Y-109077511D01*
X175511433Y-109038967D01*
X175510674Y-109031744D01*
X175452179Y-108851716D01*
X175443392Y-108836496D01*
X175426920Y-108768599D01*
X175449772Y-108702572D01*
X175504693Y-108659382D01*
X175550774Y-108650499D01*
X176367872Y-108650499D01*
X176427483Y-108644091D01*
X176541667Y-108601502D01*
X176611358Y-108596519D01*
X176628330Y-108601502D01*
X176717282Y-108634679D01*
X176742517Y-108644091D01*
X176742516Y-108644091D01*
X176749444Y-108644835D01*
X176802127Y-108650500D01*
X177637872Y-108650499D01*
X177697483Y-108644091D01*
X177832331Y-108593796D01*
X177947546Y-108507546D01*
X178033796Y-108392331D01*
X178084091Y-108257483D01*
X178090500Y-108197873D01*
X178090500Y-107699500D01*
X178110185Y-107632461D01*
X178162989Y-107586706D01*
X178214500Y-107575500D01*
X178645678Y-107575500D01*
X178712717Y-107595185D01*
X178751216Y-107634402D01*
X178757661Y-107644851D01*
X178802391Y-107689581D01*
X178835876Y-107750904D01*
X178830892Y-107820596D01*
X178822097Y-107839262D01*
X178750821Y-107962715D01*
X178750818Y-107962722D01*
X178692327Y-108142740D01*
X178692326Y-108142744D01*
X178672540Y-108331000D01*
X178692326Y-108519256D01*
X178692327Y-108519259D01*
X178750818Y-108699277D01*
X178750821Y-108699284D01*
X178845467Y-108863216D01*
X178958274Y-108988500D01*
X178972129Y-109003888D01*
X179125265Y-109115148D01*
X179125270Y-109115151D01*
X179298192Y-109192142D01*
X179298197Y-109192144D01*
X179483354Y-109231500D01*
X179483355Y-109231500D01*
X179672644Y-109231500D01*
X179672646Y-109231500D01*
X179779106Y-109208871D01*
X179848771Y-109214187D01*
X179904504Y-109256324D01*
X179928610Y-109321903D01*
X179913433Y-109390105D01*
X179892566Y-109417842D01*
X179122229Y-110188181D01*
X179060906Y-110221666D01*
X179034548Y-110224500D01*
X178214499Y-110224500D01*
X178147460Y-110204815D01*
X178101705Y-110152011D01*
X178090499Y-110100500D01*
X178090499Y-109602129D01*
X178090498Y-109602123D01*
X178089681Y-109594524D01*
X178084091Y-109542517D01*
X178083209Y-109540153D01*
X178033797Y-109407671D01*
X178033793Y-109407664D01*
X177947547Y-109292455D01*
X177947544Y-109292452D01*
X177832335Y-109206206D01*
X177832328Y-109206202D01*
X177697482Y-109155908D01*
X177697483Y-109155908D01*
X177637883Y-109149501D01*
X177637881Y-109149500D01*
X177637873Y-109149500D01*
X177637864Y-109149500D01*
X176802129Y-109149500D01*
X176802123Y-109149501D01*
X176742516Y-109155908D01*
X176627618Y-109198763D01*
X176557926Y-109203747D01*
X176540952Y-109198763D01*
X176427379Y-109156403D01*
X176427372Y-109156401D01*
X176367844Y-109150000D01*
X176200000Y-109150000D01*
X176200000Y-112550000D01*
X176367828Y-112550000D01*
X176367844Y-112549999D01*
X176427372Y-112543598D01*
X176427376Y-112543597D01*
X176540951Y-112501236D01*
X176610643Y-112496252D01*
X176627608Y-112501232D01*
X176742517Y-112544091D01*
X176802127Y-112550500D01*
X177637872Y-112550499D01*
X177697483Y-112544091D01*
X177832331Y-112493796D01*
X177947546Y-112407546D01*
X178033796Y-112292331D01*
X178084091Y-112157483D01*
X178090500Y-112097873D01*
X178090500Y-111599500D01*
X178110185Y-111532461D01*
X178162989Y-111486706D01*
X178214500Y-111475500D01*
X179406607Y-111475500D01*
X179467029Y-111463481D01*
X179527452Y-111451463D01*
X179527455Y-111451461D01*
X179527458Y-111451461D01*
X179560787Y-111437654D01*
X179560786Y-111437654D01*
X179560792Y-111437652D01*
X179641286Y-111404312D01*
X179705505Y-111361401D01*
X179743733Y-111335858D01*
X179830858Y-111248733D01*
X179830858Y-111248731D01*
X179841066Y-111238524D01*
X179841067Y-111238521D01*
X181674088Y-109405501D01*
X181735407Y-109372019D01*
X181805099Y-109377003D01*
X181861032Y-109418875D01*
X181883348Y-109468823D01*
X181883493Y-109469548D01*
X181885894Y-109481617D01*
X181897537Y-109540153D01*
X181897538Y-109540157D01*
X181910432Y-109571285D01*
X181910433Y-109571287D01*
X181944686Y-109653984D01*
X181944687Y-109653986D01*
X181944688Y-109653987D01*
X181967366Y-109687926D01*
X181967367Y-109687929D01*
X181967368Y-109687929D01*
X182013141Y-109756433D01*
X182013144Y-109756437D01*
X182104586Y-109847879D01*
X182104608Y-109847899D01*
X183752783Y-111496074D01*
X183786268Y-111557397D01*
X183781284Y-111627089D01*
X183764371Y-111658063D01*
X183745205Y-111683666D01*
X183745202Y-111683671D01*
X183694908Y-111818517D01*
X183688501Y-111878116D01*
X183688500Y-111878135D01*
X183688500Y-113673870D01*
X183688501Y-113673876D01*
X183694908Y-113733483D01*
X183745202Y-113868328D01*
X183745206Y-113868335D01*
X183831452Y-113983544D01*
X183831455Y-113983547D01*
X183946664Y-114069793D01*
X183946671Y-114069797D01*
X184081517Y-114120091D01*
X184081516Y-114120091D01*
X184088444Y-114120835D01*
X184141127Y-114126500D01*
X185936872Y-114126499D01*
X185996483Y-114120091D01*
X186131331Y-114069796D01*
X186246546Y-113983546D01*
X186332796Y-113868331D01*
X186383091Y-113733483D01*
X186389500Y-113673873D01*
X186389499Y-113061450D01*
X186409183Y-112994412D01*
X186425813Y-112973775D01*
X187652932Y-111746656D01*
X187714253Y-111713173D01*
X187783945Y-111718157D01*
X187839878Y-111760029D01*
X187863969Y-111821737D01*
X187868424Y-111865344D01*
X187871326Y-111893753D01*
X187874920Y-111904597D01*
X187925592Y-112057515D01*
X187925593Y-112057518D01*
X187950484Y-112097872D01*
X188016158Y-112204347D01*
X188016161Y-112204351D01*
X188119129Y-112307319D01*
X188152614Y-112368642D01*
X188147630Y-112438334D01*
X188119129Y-112482681D01*
X188016161Y-112585648D01*
X187925593Y-112732481D01*
X187925591Y-112732486D01*
X187919196Y-112751785D01*
X187871326Y-112896247D01*
X187871326Y-112896248D01*
X187871325Y-112896248D01*
X187861000Y-112997315D01*
X187861000Y-113570669D01*
X187861001Y-113570687D01*
X187871325Y-113671752D01*
X187925592Y-113835515D01*
X187925593Y-113835518D01*
X187945831Y-113868328D01*
X188016160Y-113982350D01*
X188138150Y-114104340D01*
X188284984Y-114194908D01*
X188448747Y-114249174D01*
X188549823Y-114259500D01*
X189148176Y-114259499D01*
X189148184Y-114259498D01*
X189148187Y-114259498D01*
X189203530Y-114253844D01*
X189249253Y-114249174D01*
X189413016Y-114194908D01*
X189559850Y-114104340D01*
X189673819Y-113990371D01*
X189735142Y-113956886D01*
X189804834Y-113961870D01*
X189849181Y-113990371D01*
X189963150Y-114104340D01*
X190109984Y-114194908D01*
X190273747Y-114249174D01*
X190374823Y-114259500D01*
X190973176Y-114259499D01*
X190973184Y-114259498D01*
X190973187Y-114259498D01*
X191028530Y-114253844D01*
X191074253Y-114249174D01*
X191238016Y-114194908D01*
X191384850Y-114104340D01*
X191384852Y-114104337D01*
X191388112Y-114102327D01*
X191455504Y-114083887D01*
X191503645Y-114094587D01*
X191617192Y-114145142D01*
X191617197Y-114145144D01*
X191802354Y-114184500D01*
X191802355Y-114184500D01*
X191991644Y-114184500D01*
X191991646Y-114184500D01*
X192176803Y-114145144D01*
X192349730Y-114068151D01*
X192502871Y-113956888D01*
X192509042Y-113950035D01*
X192515487Y-113942876D01*
X192629533Y-113816216D01*
X192724179Y-113652284D01*
X192782674Y-113472256D01*
X192802460Y-113284000D01*
X192782674Y-113095744D01*
X192724179Y-112915716D01*
X192629533Y-112751784D01*
X192502871Y-112611112D01*
X192502870Y-112611111D01*
X192349734Y-112499851D01*
X192349729Y-112499848D01*
X192176807Y-112422857D01*
X192176802Y-112422855D01*
X192031001Y-112391865D01*
X191991646Y-112383500D01*
X191802354Y-112383500D01*
X191706144Y-112403949D01*
X191610840Y-112424207D01*
X191610339Y-112421851D01*
X191551396Y-112423520D01*
X191491572Y-112387425D01*
X191460760Y-112324716D01*
X191468742Y-112255304D01*
X191495265Y-112215924D01*
X191506840Y-112204350D01*
X191597408Y-112057516D01*
X191651674Y-111893753D01*
X191662000Y-111792677D01*
X191661999Y-111219324D01*
X191655861Y-111159240D01*
X191651674Y-111118247D01*
X191648078Y-111107395D01*
X191597408Y-110954484D01*
X191506840Y-110807650D01*
X191384850Y-110685660D01*
X191384849Y-110685659D01*
X191384846Y-110685656D01*
X191379184Y-110681179D01*
X191381027Y-110678848D01*
X191343301Y-110636894D01*
X191332087Y-110567930D01*
X191359939Y-110503851D01*
X191390035Y-110477777D01*
X191398850Y-110472340D01*
X191520840Y-110350350D01*
X191611408Y-110203516D01*
X191665674Y-110039753D01*
X191676000Y-109938677D01*
X191675999Y-109365324D01*
X191668555Y-109292455D01*
X191665674Y-109264247D01*
X191663049Y-109256324D01*
X191611408Y-109100484D01*
X191520840Y-108953650D01*
X191398850Y-108831660D01*
X191393743Y-108826553D01*
X191395631Y-108824664D01*
X191362410Y-108777773D01*
X191359254Y-108707975D01*
X191393788Y-108648492D01*
X191393743Y-108648447D01*
X191393914Y-108648275D01*
X191394335Y-108647551D01*
X191396612Y-108645577D01*
X191398847Y-108643341D01*
X191398850Y-108643340D01*
X191520840Y-108521350D01*
X191611408Y-108374516D01*
X191665674Y-108210753D01*
X191676000Y-108109677D01*
X191675999Y-107536324D01*
X191665674Y-107435247D01*
X191611408Y-107271484D01*
X191520840Y-107124650D01*
X191398850Y-107002660D01*
X191252016Y-106912092D01*
X191088253Y-106857826D01*
X191088251Y-106857825D01*
X190987184Y-106847500D01*
X190987177Y-106847500D01*
X190648452Y-106847500D01*
X190581413Y-106827815D01*
X190560771Y-106811181D01*
X190162198Y-106412608D01*
X190162178Y-106412586D01*
X190070733Y-106321141D01*
X190015353Y-106284138D01*
X189975815Y-106257719D01*
X189968286Y-106252688D01*
X189968283Y-106252686D01*
X189968280Y-106252685D01*
X189887792Y-106219347D01*
X189854453Y-106205537D01*
X189844427Y-106203543D01*
X189794029Y-106193518D01*
X189733610Y-106181500D01*
X189733607Y-106181500D01*
X189733606Y-106181500D01*
X187767607Y-106181500D01*
X187737452Y-106181500D01*
X187670413Y-106161815D01*
X187624658Y-106109011D01*
X187614714Y-106039853D01*
X187643739Y-105976297D01*
X187649759Y-105969830D01*
X187953523Y-105666066D01*
X188014841Y-105632585D01*
X188084532Y-105637569D01*
X188128880Y-105666070D01*
X188185150Y-105722340D01*
X188331984Y-105812908D01*
X188495747Y-105867174D01*
X188596823Y-105877500D01*
X189195176Y-105877499D01*
X189195184Y-105877498D01*
X189195187Y-105877498D01*
X189250530Y-105871844D01*
X189296253Y-105867174D01*
X189460016Y-105812908D01*
X189606850Y-105722340D01*
X189720819Y-105608371D01*
X189782142Y-105574886D01*
X189851834Y-105579870D01*
X189896181Y-105608371D01*
X190010150Y-105722340D01*
X190156984Y-105812908D01*
X190320747Y-105867174D01*
X190421823Y-105877500D01*
X191020176Y-105877499D01*
X191020184Y-105877498D01*
X191020187Y-105877498D01*
X191075530Y-105871844D01*
X191121253Y-105867174D01*
X191285016Y-105812908D01*
X191415409Y-105732480D01*
X191482800Y-105714040D01*
X191530941Y-105724740D01*
X191578031Y-105745706D01*
X191617197Y-105763144D01*
X191802354Y-105802500D01*
X191802355Y-105802500D01*
X191991644Y-105802500D01*
X191991646Y-105802500D01*
X192176803Y-105763144D01*
X192349730Y-105686151D01*
X192502871Y-105574888D01*
X192504405Y-105573185D01*
X192518963Y-105557016D01*
X192629533Y-105434216D01*
X192724179Y-105270284D01*
X192782674Y-105090256D01*
X192802460Y-104902000D01*
X192782674Y-104713744D01*
X192724179Y-104533716D01*
X192629533Y-104369784D01*
X192502871Y-104229112D01*
X192467827Y-104203651D01*
X192349734Y-104117851D01*
X192349729Y-104117848D01*
X192176807Y-104040857D01*
X192176802Y-104040855D01*
X192031001Y-104009865D01*
X191991646Y-104001500D01*
X191802354Y-104001500D01*
X191729853Y-104016910D01*
X191668717Y-104029905D01*
X191599049Y-104024589D01*
X191543316Y-103982452D01*
X191519211Y-103916872D01*
X191534388Y-103848670D01*
X191549718Y-103828295D01*
X191549362Y-103828013D01*
X191553838Y-103822352D01*
X191553840Y-103822350D01*
X191644408Y-103675516D01*
X191698674Y-103511753D01*
X191709000Y-103410677D01*
X191708999Y-102837324D01*
X191698674Y-102736247D01*
X191644408Y-102572484D01*
X191553840Y-102425650D01*
X191431850Y-102303660D01*
X191431846Y-102303657D01*
X191300901Y-102222889D01*
X191254176Y-102170942D01*
X191242955Y-102101979D01*
X191270798Y-102037897D01*
X191313606Y-102004963D01*
X191318008Y-102002910D01*
X191318016Y-102002908D01*
X191464850Y-101912340D01*
X191586840Y-101790350D01*
X191595442Y-101776404D01*
X191647390Y-101729679D01*
X191700981Y-101717500D01*
X191955252Y-101717500D01*
X192022291Y-101737185D01*
X192047400Y-101758526D01*
X192053126Y-101764885D01*
X192053130Y-101764889D01*
X192206265Y-101876148D01*
X192206270Y-101876151D01*
X192379192Y-101953142D01*
X192379197Y-101953144D01*
X192564354Y-101992500D01*
X192564355Y-101992500D01*
X192753644Y-101992500D01*
X192753646Y-101992500D01*
X192938803Y-101953144D01*
X193111730Y-101876151D01*
X193264871Y-101764888D01*
X193391533Y-101624216D01*
X193486179Y-101460284D01*
X193544674Y-101280256D01*
X193564460Y-101092000D01*
X193544674Y-100903744D01*
X193486179Y-100723716D01*
X193391533Y-100559784D01*
X193264871Y-100419112D01*
X193264870Y-100419111D01*
X193111734Y-100307851D01*
X193111729Y-100307848D01*
X192938807Y-100230857D01*
X192938802Y-100230855D01*
X192783803Y-100197910D01*
X192753646Y-100191500D01*
X192564354Y-100191500D01*
X192534197Y-100197910D01*
X192379197Y-100230855D01*
X192379192Y-100230857D01*
X192206270Y-100307848D01*
X192206265Y-100307851D01*
X192053130Y-100419110D01*
X192053126Y-100419114D01*
X192047400Y-100425474D01*
X191987913Y-100462121D01*
X191955252Y-100466500D01*
X191700981Y-100466500D01*
X191633942Y-100446815D01*
X191595442Y-100407596D01*
X191594408Y-100405920D01*
X191586840Y-100393650D01*
X191483871Y-100290681D01*
X191450386Y-100229358D01*
X191455370Y-100159666D01*
X191483871Y-100115319D01*
X191523914Y-100075276D01*
X191586840Y-100012350D01*
X191677408Y-99865516D01*
X191731674Y-99701753D01*
X191742000Y-99600677D01*
X191741999Y-99027324D01*
X191737094Y-98979311D01*
X191731674Y-98926247D01*
X191719946Y-98890855D01*
X191677408Y-98762484D01*
X191586840Y-98615650D01*
X191467371Y-98496181D01*
X191433886Y-98434858D01*
X191438870Y-98365166D01*
X191467371Y-98320819D01*
X191553840Y-98234350D01*
X191644408Y-98087516D01*
X191698674Y-97923753D01*
X191709000Y-97822677D01*
X191708999Y-97249324D01*
X191707500Y-97234654D01*
X191698674Y-97148247D01*
X191695256Y-97137931D01*
X191644408Y-96984484D01*
X191553840Y-96837650D01*
X191450871Y-96734681D01*
X191417386Y-96673358D01*
X191422370Y-96603666D01*
X191450871Y-96559319D01*
X191553840Y-96456350D01*
X191644408Y-96309516D01*
X191698674Y-96145753D01*
X191709000Y-96044677D01*
X191708999Y-95471324D01*
X191698674Y-95370247D01*
X191644408Y-95206484D01*
X191553840Y-95059650D01*
X191431850Y-94937660D01*
X191285016Y-94847092D01*
X191121253Y-94792826D01*
X191121251Y-94792825D01*
X191020184Y-94782500D01*
X191020177Y-94782500D01*
X190714452Y-94782500D01*
X190647413Y-94762815D01*
X190626771Y-94746181D01*
X190355198Y-94474608D01*
X190355178Y-94474586D01*
X190263733Y-94383141D01*
X190212509Y-94348915D01*
X190182688Y-94328989D01*
X190161286Y-94314688D01*
X190161283Y-94314686D01*
X190161280Y-94314685D01*
X190080792Y-94281347D01*
X190047453Y-94267537D01*
X190037427Y-94265543D01*
X189987029Y-94255518D01*
X189926610Y-94243500D01*
X189926607Y-94243500D01*
X189926606Y-94243500D01*
X187900740Y-94243500D01*
X187900720Y-94243499D01*
X187894606Y-94243499D01*
X187771393Y-94243499D01*
X187670596Y-94263548D01*
X187670591Y-94263548D01*
X187650548Y-94267536D01*
X187650546Y-94267536D01*
X187603396Y-94287067D01*
X187536718Y-94314685D01*
X187536716Y-94314686D01*
X187434265Y-94383141D01*
X186594645Y-95222761D01*
X186533322Y-95256246D01*
X186463630Y-95251262D01*
X186407697Y-95209390D01*
X186383280Y-95143926D01*
X186383436Y-95124272D01*
X186394659Y-94996000D01*
X186394659Y-94995999D01*
X186376883Y-94792825D01*
X186374063Y-94760592D01*
X186312903Y-94532337D01*
X186266537Y-94432905D01*
X186256045Y-94363827D01*
X186284565Y-94300043D01*
X186343041Y-94261804D01*
X186378919Y-94256500D01*
X186465608Y-94256500D01*
X186465608Y-94256499D01*
X186530963Y-94243500D01*
X186530964Y-94243500D01*
X186559092Y-94237904D01*
X186586452Y-94232463D01*
X186586457Y-94232460D01*
X186586460Y-94232460D01*
X186619787Y-94218654D01*
X186619786Y-94218654D01*
X186619792Y-94218652D01*
X186700286Y-94185312D01*
X186751509Y-94151084D01*
X186802733Y-94116858D01*
X186889858Y-94029733D01*
X186889859Y-94029731D01*
X186896925Y-94022665D01*
X186896928Y-94022661D01*
X187123353Y-93796235D01*
X187184674Y-93762752D01*
X187243125Y-93764143D01*
X187276173Y-93772998D01*
X187343592Y-93791063D01*
X187531918Y-93807539D01*
X187578999Y-93811659D01*
X187579000Y-93811659D01*
X187579001Y-93811659D01*
X187618234Y-93808226D01*
X187814408Y-93791063D01*
X188042663Y-93729903D01*
X188256830Y-93630035D01*
X188450401Y-93494495D01*
X188617495Y-93327401D01*
X188747425Y-93141842D01*
X188802002Y-93098217D01*
X188871500Y-93091023D01*
X188933855Y-93122546D01*
X188950575Y-93141842D01*
X189080500Y-93327395D01*
X189080505Y-93327401D01*
X189247599Y-93494495D01*
X189344384Y-93562265D01*
X189441165Y-93630032D01*
X189441167Y-93630033D01*
X189441170Y-93630035D01*
X189655337Y-93729903D01*
X189883592Y-93791063D01*
X190071918Y-93807539D01*
X190118999Y-93811659D01*
X190119000Y-93811659D01*
X190119001Y-93811659D01*
X190158234Y-93808226D01*
X190354408Y-93791063D01*
X190582663Y-93729903D01*
X190796830Y-93630035D01*
X190990401Y-93494495D01*
X191157495Y-93327401D01*
X191287425Y-93141842D01*
X191342002Y-93098217D01*
X191411500Y-93091023D01*
X191473855Y-93122546D01*
X191490575Y-93141842D01*
X191620500Y-93327395D01*
X191620505Y-93327401D01*
X191787599Y-93494495D01*
X191884384Y-93562265D01*
X191981165Y-93630032D01*
X191981167Y-93630033D01*
X191981170Y-93630035D01*
X192195337Y-93729903D01*
X192423592Y-93791063D01*
X192611918Y-93807539D01*
X192658999Y-93811659D01*
X192659000Y-93811659D01*
X192659001Y-93811659D01*
X192698234Y-93808226D01*
X192894408Y-93791063D01*
X193122663Y-93729903D01*
X193336830Y-93630035D01*
X193530401Y-93494495D01*
X193697495Y-93327401D01*
X193827425Y-93141842D01*
X193882002Y-93098217D01*
X193951500Y-93091023D01*
X194013855Y-93122546D01*
X194030575Y-93141842D01*
X194160500Y-93327395D01*
X194160505Y-93327401D01*
X194327599Y-93494495D01*
X194424384Y-93562265D01*
X194521165Y-93630032D01*
X194521167Y-93630033D01*
X194521170Y-93630035D01*
X194735337Y-93729903D01*
X194963592Y-93791063D01*
X195151918Y-93807539D01*
X195198999Y-93811659D01*
X195199000Y-93811659D01*
X195199001Y-93811659D01*
X195238234Y-93808226D01*
X195434408Y-93791063D01*
X195662663Y-93729903D01*
X195876830Y-93630035D01*
X196070401Y-93494495D01*
X196237495Y-93327401D01*
X196367425Y-93141842D01*
X196422002Y-93098217D01*
X196491500Y-93091023D01*
X196553855Y-93122546D01*
X196570575Y-93141842D01*
X196700500Y-93327395D01*
X196700505Y-93327401D01*
X196867599Y-93494495D01*
X196964384Y-93562265D01*
X197061165Y-93630032D01*
X197061167Y-93630033D01*
X197061170Y-93630035D01*
X197275337Y-93729903D01*
X197503592Y-93791063D01*
X197691918Y-93807539D01*
X197738999Y-93811659D01*
X197739000Y-93811659D01*
X197739001Y-93811659D01*
X197778234Y-93808226D01*
X197974408Y-93791063D01*
X198202663Y-93729903D01*
X198416830Y-93630035D01*
X198610401Y-93494495D01*
X198777495Y-93327401D01*
X198907425Y-93141842D01*
X198962002Y-93098217D01*
X199031500Y-93091023D01*
X199093855Y-93122546D01*
X199110575Y-93141842D01*
X199240501Y-93327396D01*
X199240506Y-93327402D01*
X199407597Y-93494493D01*
X199407603Y-93494498D01*
X199593158Y-93624425D01*
X199636783Y-93679002D01*
X199643977Y-93748500D01*
X199612454Y-93810855D01*
X199593158Y-93827575D01*
X199407597Y-93957505D01*
X199240505Y-94124597D01*
X199104965Y-94318169D01*
X199104964Y-94318171D01*
X199005098Y-94532335D01*
X199005094Y-94532344D01*
X198943938Y-94760586D01*
X198943936Y-94760596D01*
X198923341Y-94995999D01*
X198923341Y-94996000D01*
X198943936Y-95231403D01*
X198943938Y-95231413D01*
X199005094Y-95459655D01*
X199005096Y-95459659D01*
X199005097Y-95459663D01*
X199044278Y-95543686D01*
X199104965Y-95673830D01*
X199104967Y-95673834D01*
X199240501Y-95867395D01*
X199240506Y-95867402D01*
X199407597Y-96034493D01*
X199407603Y-96034498D01*
X199593158Y-96164425D01*
X199636783Y-96219002D01*
X199643977Y-96288500D01*
X199612454Y-96350855D01*
X199593158Y-96367575D01*
X199407597Y-96497505D01*
X199240505Y-96664597D01*
X199104965Y-96858169D01*
X199104964Y-96858171D01*
X199005098Y-97072335D01*
X199005094Y-97072344D01*
X198943938Y-97300586D01*
X198943936Y-97300596D01*
X198923341Y-97535999D01*
X198923341Y-97536000D01*
X198943936Y-97771403D01*
X198943938Y-97771413D01*
X199005094Y-97999655D01*
X199005096Y-97999659D01*
X199005097Y-97999663D01*
X199046064Y-98087516D01*
X199104965Y-98213830D01*
X199104967Y-98213834D01*
X199240501Y-98407395D01*
X199240506Y-98407402D01*
X199407597Y-98574493D01*
X199407603Y-98574498D01*
X199593158Y-98704425D01*
X199636783Y-98759002D01*
X199643977Y-98828500D01*
X199612454Y-98890855D01*
X199593158Y-98907575D01*
X199407597Y-99037505D01*
X199240505Y-99204597D01*
X199104965Y-99398169D01*
X199104964Y-99398171D01*
X199005098Y-99612335D01*
X199005094Y-99612344D01*
X198943938Y-99840586D01*
X198943936Y-99840596D01*
X198923341Y-100075999D01*
X198923341Y-100076000D01*
X198943936Y-100311403D01*
X198943938Y-100311413D01*
X199005094Y-100539655D01*
X199005096Y-100539659D01*
X199005097Y-100539663D01*
X199090922Y-100723715D01*
X199104965Y-100753830D01*
X199104967Y-100753834D01*
X199240501Y-100947395D01*
X199240506Y-100947402D01*
X199407597Y-101114493D01*
X199407603Y-101114498D01*
X199593158Y-101244425D01*
X199636783Y-101299002D01*
X199643977Y-101368500D01*
X199612454Y-101430855D01*
X199593158Y-101447575D01*
X199407597Y-101577505D01*
X199240505Y-101744597D01*
X199104965Y-101938169D01*
X199104964Y-101938171D01*
X199005098Y-102152335D01*
X199005094Y-102152344D01*
X198943938Y-102380586D01*
X198943936Y-102380596D01*
X198923341Y-102615999D01*
X198923341Y-102616000D01*
X198943936Y-102851403D01*
X198943938Y-102851413D01*
X199005094Y-103079655D01*
X199005096Y-103079659D01*
X199005097Y-103079663D01*
X199043802Y-103162666D01*
X199104965Y-103293830D01*
X199104967Y-103293834D01*
X199132894Y-103333717D01*
X199224439Y-103464457D01*
X199240501Y-103487395D01*
X199240506Y-103487402D01*
X199407597Y-103654493D01*
X199407603Y-103654498D01*
X199593158Y-103784425D01*
X199636783Y-103839002D01*
X199643977Y-103908500D01*
X199612454Y-103970855D01*
X199593158Y-103987575D01*
X199407597Y-104117505D01*
X199240505Y-104284597D01*
X199104965Y-104478169D01*
X199104964Y-104478171D01*
X199005098Y-104692335D01*
X199005094Y-104692344D01*
X198943938Y-104920586D01*
X198943936Y-104920596D01*
X198923341Y-105155999D01*
X198923341Y-105156000D01*
X198943936Y-105391403D01*
X198943938Y-105391413D01*
X199005094Y-105619655D01*
X199005096Y-105619659D01*
X199005097Y-105619663D01*
X199082684Y-105786048D01*
X199104965Y-105833830D01*
X199104967Y-105833834D01*
X199240501Y-106027395D01*
X199240506Y-106027402D01*
X199407597Y-106194493D01*
X199407603Y-106194498D01*
X199593158Y-106324425D01*
X199636783Y-106379002D01*
X199643977Y-106448500D01*
X199612454Y-106510855D01*
X199593158Y-106527575D01*
X199407597Y-106657505D01*
X199240505Y-106824597D01*
X199104965Y-107018169D01*
X199104964Y-107018171D01*
X199005098Y-107232335D01*
X199005094Y-107232344D01*
X198943938Y-107460586D01*
X198943936Y-107460596D01*
X198923341Y-107695999D01*
X198923341Y-107696000D01*
X198943936Y-107931403D01*
X198943938Y-107931413D01*
X199005094Y-108159655D01*
X199005096Y-108159659D01*
X199005097Y-108159663D01*
X199077065Y-108313999D01*
X199104965Y-108373830D01*
X199104967Y-108373834D01*
X199198593Y-108507544D01*
X199240501Y-108567396D01*
X199240506Y-108567402D01*
X199407597Y-108734493D01*
X199407603Y-108734498D01*
X199593158Y-108864425D01*
X199636783Y-108919002D01*
X199643977Y-108988500D01*
X199612454Y-109050855D01*
X199593158Y-109067575D01*
X199407597Y-109197505D01*
X199240505Y-109364597D01*
X199104965Y-109558169D01*
X199104964Y-109558171D01*
X199005098Y-109772335D01*
X199005094Y-109772344D01*
X198943938Y-110000586D01*
X198943936Y-110000596D01*
X198923341Y-110235999D01*
X198923341Y-110236000D01*
X198943936Y-110471403D01*
X198943938Y-110471413D01*
X199005094Y-110699655D01*
X199005096Y-110699659D01*
X199005097Y-110699663D01*
X199055453Y-110807651D01*
X199104965Y-110913830D01*
X199104967Y-110913834D01*
X199240501Y-111107395D01*
X199240506Y-111107402D01*
X199407597Y-111274493D01*
X199407603Y-111274498D01*
X199593158Y-111404425D01*
X199636783Y-111459002D01*
X199643977Y-111528500D01*
X199612454Y-111590855D01*
X199593158Y-111607575D01*
X199407597Y-111737505D01*
X199240505Y-111904597D01*
X199104965Y-112098169D01*
X199104964Y-112098171D01*
X199005098Y-112312335D01*
X199005094Y-112312344D01*
X198943938Y-112540586D01*
X198943936Y-112540596D01*
X198923341Y-112775999D01*
X198923341Y-112776000D01*
X198943936Y-113011403D01*
X198943938Y-113011413D01*
X199005094Y-113239655D01*
X199005096Y-113239659D01*
X199005097Y-113239663D01*
X199080563Y-113401500D01*
X199104965Y-113453830D01*
X199104967Y-113453834D01*
X199186789Y-113570687D01*
X199240505Y-113647401D01*
X199407599Y-113814495D01*
X199504384Y-113882265D01*
X199601165Y-113950032D01*
X199601167Y-113950033D01*
X199601170Y-113950035D01*
X199815337Y-114049903D01*
X200043592Y-114111063D01*
X200220034Y-114126500D01*
X200278999Y-114131659D01*
X200279000Y-114131659D01*
X200279001Y-114131659D01*
X200337966Y-114126500D01*
X200514408Y-114111063D01*
X200742663Y-114049903D01*
X200956830Y-113950035D01*
X201150401Y-113814495D01*
X201317495Y-113647401D01*
X201452652Y-113454377D01*
X201507229Y-113410752D01*
X201554227Y-113401500D01*
X205039607Y-113401500D01*
X205100029Y-113389481D01*
X205160452Y-113377463D01*
X205160455Y-113377461D01*
X205160458Y-113377461D01*
X205193787Y-113363654D01*
X205193786Y-113363654D01*
X205193792Y-113363652D01*
X205274286Y-113330312D01*
X205343595Y-113284000D01*
X205376733Y-113261858D01*
X205463858Y-113174733D01*
X205463859Y-113174731D01*
X205470925Y-113167665D01*
X205470928Y-113167661D01*
X206538594Y-112099994D01*
X214544457Y-112099994D01*
X214544457Y-112100005D01*
X214564606Y-112420283D01*
X214564607Y-112420290D01*
X214588844Y-112547343D01*
X214624161Y-112732484D01*
X214624745Y-112735542D01*
X214723916Y-113040759D01*
X214723918Y-113040764D01*
X214860558Y-113331138D01*
X214860562Y-113331144D01*
X215032520Y-113602108D01*
X215032522Y-113602111D01*
X215225611Y-113835516D01*
X215237089Y-113849390D01*
X215450615Y-114049903D01*
X215471034Y-114069078D01*
X215471044Y-114069086D01*
X215730660Y-114257708D01*
X215730666Y-114257711D01*
X215730672Y-114257716D01*
X216011903Y-114412324D01*
X216310294Y-114530466D01*
X216310293Y-114530466D01*
X216621135Y-114610276D01*
X216621139Y-114610277D01*
X216687935Y-114618715D01*
X216939524Y-114650499D01*
X216939533Y-114650499D01*
X216939536Y-114650500D01*
X216939538Y-114650500D01*
X217260462Y-114650500D01*
X217260464Y-114650500D01*
X217260467Y-114650499D01*
X217260475Y-114650499D01*
X217450463Y-114626497D01*
X217578861Y-114610277D01*
X217889706Y-114530466D01*
X218188097Y-114412324D01*
X218469328Y-114257716D01*
X218728964Y-114069080D01*
X218962911Y-113849390D01*
X219167478Y-113602110D01*
X219339439Y-113331142D01*
X219361623Y-113284000D01*
X219450211Y-113095740D01*
X219476084Y-113040758D01*
X219575256Y-112735538D01*
X219635392Y-112420294D01*
X219636194Y-112407544D01*
X219655543Y-112100005D01*
X219655543Y-112099994D01*
X219635393Y-111779716D01*
X219635392Y-111779709D01*
X219635392Y-111779706D01*
X219575256Y-111464462D01*
X219476084Y-111159242D01*
X219476081Y-111159235D01*
X219339441Y-110868861D01*
X219339437Y-110868855D01*
X219167479Y-110597891D01*
X219167477Y-110597888D01*
X218962912Y-110350611D01*
X218728965Y-110130921D01*
X218728955Y-110130913D01*
X218469339Y-109942291D01*
X218469321Y-109942280D01*
X218188096Y-109787675D01*
X218188093Y-109787674D01*
X217889703Y-109669533D01*
X217889706Y-109669533D01*
X217578864Y-109589723D01*
X217578851Y-109589721D01*
X217260475Y-109549500D01*
X217260464Y-109549500D01*
X216939536Y-109549500D01*
X216939524Y-109549500D01*
X216621148Y-109589721D01*
X216621135Y-109589723D01*
X216310294Y-109669533D01*
X216011906Y-109787674D01*
X216011903Y-109787675D01*
X215730678Y-109942280D01*
X215730660Y-109942291D01*
X215471044Y-110130913D01*
X215471034Y-110130921D01*
X215237087Y-110350611D01*
X215032522Y-110597888D01*
X215032520Y-110597891D01*
X214860562Y-110868855D01*
X214860558Y-110868861D01*
X214723918Y-111159235D01*
X214723916Y-111159240D01*
X214624745Y-111464457D01*
X214564607Y-111779709D01*
X214564606Y-111779716D01*
X214544457Y-112099994D01*
X206538594Y-112099994D01*
X206808353Y-111830235D01*
X206869674Y-111796752D01*
X206928125Y-111798143D01*
X206962780Y-111807428D01*
X207028592Y-111825063D01*
X207199319Y-111840000D01*
X207263999Y-111845659D01*
X207264000Y-111845659D01*
X207264001Y-111845659D01*
X207328681Y-111840000D01*
X207499408Y-111825063D01*
X207727663Y-111763903D01*
X207941830Y-111664035D01*
X208135401Y-111528495D01*
X208302495Y-111361401D01*
X208432425Y-111175842D01*
X208487002Y-111132217D01*
X208556500Y-111125023D01*
X208618855Y-111156546D01*
X208635575Y-111175842D01*
X208765500Y-111361395D01*
X208765505Y-111361401D01*
X208932599Y-111528495D01*
X209009135Y-111582086D01*
X209126165Y-111664032D01*
X209126167Y-111664033D01*
X209126170Y-111664035D01*
X209340337Y-111763903D01*
X209568592Y-111825063D01*
X209739319Y-111840000D01*
X209803999Y-111845659D01*
X209804000Y-111845659D01*
X209804001Y-111845659D01*
X209868681Y-111840000D01*
X210039408Y-111825063D01*
X210267663Y-111763903D01*
X210481830Y-111664035D01*
X210675401Y-111528495D01*
X210797717Y-111406178D01*
X210859036Y-111372696D01*
X210928728Y-111377680D01*
X210984662Y-111419551D01*
X211001577Y-111450528D01*
X211050646Y-111582088D01*
X211050649Y-111582093D01*
X211136809Y-111697187D01*
X211136812Y-111697190D01*
X211251906Y-111783350D01*
X211251913Y-111783354D01*
X211386620Y-111833596D01*
X211386627Y-111833598D01*
X211446155Y-111839999D01*
X211446172Y-111840000D01*
X212094000Y-111840000D01*
X212094000Y-110923012D01*
X212151007Y-110955925D01*
X212278174Y-110990000D01*
X212409826Y-110990000D01*
X212536993Y-110955925D01*
X212594000Y-110923012D01*
X212594000Y-111840000D01*
X213241828Y-111840000D01*
X213241844Y-111839999D01*
X213301372Y-111833598D01*
X213301379Y-111833596D01*
X213436086Y-111783354D01*
X213436093Y-111783350D01*
X213551187Y-111697190D01*
X213551190Y-111697187D01*
X213637350Y-111582093D01*
X213637354Y-111582086D01*
X213687596Y-111447379D01*
X213687598Y-111447372D01*
X213693999Y-111387844D01*
X213694000Y-111387827D01*
X213694000Y-110740000D01*
X212777012Y-110740000D01*
X212809925Y-110682993D01*
X212844000Y-110555826D01*
X212844000Y-110424174D01*
X212809925Y-110297007D01*
X212777012Y-110240000D01*
X213694000Y-110240000D01*
X213694000Y-109592172D01*
X213693999Y-109592155D01*
X213687598Y-109532627D01*
X213687596Y-109532620D01*
X213637354Y-109397913D01*
X213637350Y-109397906D01*
X213551190Y-109282812D01*
X213551187Y-109282809D01*
X213436093Y-109196649D01*
X213436086Y-109196645D01*
X213301379Y-109146403D01*
X213301372Y-109146401D01*
X213241844Y-109140000D01*
X212594000Y-109140000D01*
X212594000Y-110056988D01*
X212536993Y-110024075D01*
X212409826Y-109990000D01*
X212278174Y-109990000D01*
X212151007Y-110024075D01*
X212094000Y-110056988D01*
X212094000Y-109140000D01*
X211446155Y-109140000D01*
X211386627Y-109146401D01*
X211386620Y-109146403D01*
X211251913Y-109196645D01*
X211251906Y-109196649D01*
X211136812Y-109282809D01*
X211136809Y-109282812D01*
X211050649Y-109397906D01*
X211050645Y-109397913D01*
X211001578Y-109529470D01*
X210959707Y-109585404D01*
X210894242Y-109609821D01*
X210825969Y-109594969D01*
X210797715Y-109573819D01*
X210753366Y-109529470D01*
X210675401Y-109451505D01*
X210675397Y-109451502D01*
X210675396Y-109451501D01*
X210481834Y-109315967D01*
X210481830Y-109315965D01*
X210481828Y-109315964D01*
X210267663Y-109216097D01*
X210267659Y-109216096D01*
X210267655Y-109216094D01*
X210039413Y-109154938D01*
X210039403Y-109154936D01*
X209804001Y-109134341D01*
X209803999Y-109134341D01*
X209568596Y-109154936D01*
X209568586Y-109154938D01*
X209468126Y-109181856D01*
X209398276Y-109180193D01*
X209348352Y-109149762D01*
X207502928Y-107304338D01*
X207502925Y-107304334D01*
X207502925Y-107304335D01*
X207495858Y-107297268D01*
X207495858Y-107297267D01*
X207408733Y-107210142D01*
X207408732Y-107210141D01*
X207408731Y-107210140D01*
X207341922Y-107165500D01*
X207306286Y-107141688D01*
X207306287Y-107141688D01*
X207306285Y-107141687D01*
X207265147Y-107124648D01*
X207225792Y-107108347D01*
X207192453Y-107094537D01*
X207182427Y-107092543D01*
X207132029Y-107082518D01*
X207071610Y-107070500D01*
X207071607Y-107070500D01*
X207071606Y-107070500D01*
X201554227Y-107070500D01*
X201487188Y-107050815D01*
X201452652Y-107017623D01*
X201317494Y-106824597D01*
X201150402Y-106657506D01*
X201150396Y-106657501D01*
X200964842Y-106527575D01*
X200921217Y-106472998D01*
X200914023Y-106403500D01*
X200945546Y-106341145D01*
X200964842Y-106324425D01*
X200992848Y-106304815D01*
X201150401Y-106194495D01*
X201317495Y-106027401D01*
X201453035Y-105833830D01*
X201552903Y-105619663D01*
X201614063Y-105391408D01*
X201634659Y-105156000D01*
X201614063Y-104920592D01*
X201552903Y-104692337D01*
X201453035Y-104478171D01*
X201440343Y-104460044D01*
X201317494Y-104284597D01*
X201150402Y-104117506D01*
X201150396Y-104117501D01*
X201125393Y-104099994D01*
X214544457Y-104099994D01*
X214544457Y-104100005D01*
X214564606Y-104420283D01*
X214564607Y-104420290D01*
X214624745Y-104735542D01*
X214723916Y-105040759D01*
X214723918Y-105040764D01*
X214860558Y-105331138D01*
X214860562Y-105331144D01*
X215032520Y-105602108D01*
X215032522Y-105602111D01*
X215224220Y-105833834D01*
X215237089Y-105849390D01*
X215466515Y-106064834D01*
X215471034Y-106069078D01*
X215471044Y-106069086D01*
X215730660Y-106257708D01*
X215730666Y-106257711D01*
X215730672Y-106257716D01*
X216011903Y-106412324D01*
X216310294Y-106530466D01*
X216310293Y-106530466D01*
X216557744Y-106594000D01*
X216621139Y-106610277D01*
X216687935Y-106618715D01*
X216939524Y-106650499D01*
X216939533Y-106650499D01*
X216939536Y-106650500D01*
X216939538Y-106650500D01*
X217260462Y-106650500D01*
X217260464Y-106650500D01*
X217260467Y-106650499D01*
X217260475Y-106650499D01*
X217450463Y-106626497D01*
X217578861Y-106610277D01*
X217889706Y-106530466D01*
X218188097Y-106412324D01*
X218469328Y-106257716D01*
X218728964Y-106069080D01*
X218962911Y-105849390D01*
X219167478Y-105602110D01*
X219339439Y-105331142D01*
X219343189Y-105323174D01*
X219476081Y-105040764D01*
X219476084Y-105040758D01*
X219575256Y-104735538D01*
X219635392Y-104420294D01*
X219635653Y-104416144D01*
X219655543Y-104100005D01*
X219655543Y-104099994D01*
X219635393Y-103779716D01*
X219635392Y-103779709D01*
X219635392Y-103779706D01*
X219575256Y-103464462D01*
X219476084Y-103159242D01*
X219465674Y-103137119D01*
X219339441Y-102868861D01*
X219339437Y-102868855D01*
X219167479Y-102597891D01*
X219167477Y-102597888D01*
X218962912Y-102350611D01*
X218728965Y-102130921D01*
X218728955Y-102130913D01*
X218469339Y-101942291D01*
X218469321Y-101942280D01*
X218188096Y-101787675D01*
X218188093Y-101787674D01*
X217889703Y-101669533D01*
X217889706Y-101669533D01*
X217578864Y-101589723D01*
X217578851Y-101589721D01*
X217260475Y-101549500D01*
X217260464Y-101549500D01*
X216939536Y-101549500D01*
X216939524Y-101549500D01*
X216621148Y-101589721D01*
X216621135Y-101589723D01*
X216310294Y-101669533D01*
X216011906Y-101787674D01*
X216011903Y-101787675D01*
X215730678Y-101942280D01*
X215730660Y-101942291D01*
X215471044Y-102130913D01*
X215471034Y-102130921D01*
X215237087Y-102350611D01*
X215032522Y-102597888D01*
X215032520Y-102597891D01*
X214860562Y-102868855D01*
X214860558Y-102868861D01*
X214723918Y-103159235D01*
X214723916Y-103159240D01*
X214624745Y-103464457D01*
X214564607Y-103779709D01*
X214564606Y-103779716D01*
X214544457Y-104099994D01*
X201125393Y-104099994D01*
X200964842Y-103987575D01*
X200921217Y-103932998D01*
X200914023Y-103863500D01*
X200945546Y-103801145D01*
X200964842Y-103784425D01*
X200987026Y-103768891D01*
X201150401Y-103654495D01*
X201317495Y-103487401D01*
X201453035Y-103293830D01*
X201552903Y-103079663D01*
X201614063Y-102851408D01*
X201634659Y-102616000D01*
X201630851Y-102572481D01*
X201614063Y-102380596D01*
X201614063Y-102380592D01*
X201552903Y-102152337D01*
X201453035Y-101938171D01*
X201424662Y-101897649D01*
X201317494Y-101744597D01*
X201150402Y-101577506D01*
X201150396Y-101577501D01*
X200964842Y-101447575D01*
X200921217Y-101392998D01*
X200914023Y-101323500D01*
X200945546Y-101261145D01*
X200964842Y-101244425D01*
X201114393Y-101139708D01*
X201150401Y-101114495D01*
X201317495Y-100947401D01*
X201453035Y-100753830D01*
X201552903Y-100539663D01*
X201614063Y-100311408D01*
X201634659Y-100076000D01*
X201614063Y-99840592D01*
X201552903Y-99612337D01*
X201453035Y-99398171D01*
X201317495Y-99204599D01*
X201317494Y-99204597D01*
X201150402Y-99037506D01*
X201150396Y-99037501D01*
X200964842Y-98907575D01*
X200921217Y-98852998D01*
X200914023Y-98783500D01*
X200945546Y-98721145D01*
X200964842Y-98704425D01*
X200987026Y-98688891D01*
X201150401Y-98574495D01*
X201317495Y-98407401D01*
X201453035Y-98213830D01*
X201552903Y-97999663D01*
X201614063Y-97771408D01*
X201634659Y-97536000D01*
X201614063Y-97300592D01*
X201552903Y-97072337D01*
X201453035Y-96858171D01*
X201438667Y-96837650D01*
X201317494Y-96664597D01*
X201150402Y-96497506D01*
X201150396Y-96497501D01*
X200964842Y-96367575D01*
X200921217Y-96312998D01*
X200914023Y-96243500D01*
X200945546Y-96181145D01*
X200964842Y-96164425D01*
X200991511Y-96145751D01*
X201150401Y-96034495D01*
X201317495Y-95867401D01*
X201453035Y-95673830D01*
X201552903Y-95459663D01*
X201614063Y-95231408D01*
X201634659Y-94996000D01*
X201614063Y-94760592D01*
X201552903Y-94532337D01*
X201453035Y-94318171D01*
X201450597Y-94314688D01*
X201317494Y-94124597D01*
X201150402Y-93957506D01*
X201150396Y-93957501D01*
X200964842Y-93827575D01*
X200921217Y-93772998D01*
X200914023Y-93703500D01*
X200945546Y-93641145D01*
X200964842Y-93624425D01*
X200987026Y-93608891D01*
X201150401Y-93494495D01*
X201317495Y-93327401D01*
X201453035Y-93133830D01*
X201552903Y-92919663D01*
X201614063Y-92691408D01*
X201634659Y-92456000D01*
X201614063Y-92220592D01*
X201552903Y-91992337D01*
X201453035Y-91778171D01*
X201447425Y-91770158D01*
X201317494Y-91584597D01*
X201150402Y-91417506D01*
X201150395Y-91417501D01*
X200956834Y-91281967D01*
X200956830Y-91281965D01*
X200956828Y-91281964D01*
X200742663Y-91182097D01*
X200742659Y-91182096D01*
X200742655Y-91182094D01*
X200514413Y-91120938D01*
X200514403Y-91120936D01*
X200279001Y-91100341D01*
X200278999Y-91100341D01*
X200043596Y-91120936D01*
X200043586Y-91120938D01*
X199815344Y-91182094D01*
X199815335Y-91182098D01*
X199601171Y-91281964D01*
X199601169Y-91281965D01*
X199407597Y-91417505D01*
X199240505Y-91584597D01*
X199110575Y-91770158D01*
X199055998Y-91813783D01*
X198986500Y-91820977D01*
X198924145Y-91789454D01*
X198907425Y-91770158D01*
X198777494Y-91584597D01*
X198610402Y-91417506D01*
X198610395Y-91417501D01*
X198416834Y-91281967D01*
X198416830Y-91281965D01*
X198416828Y-91281964D01*
X198202663Y-91182097D01*
X198202659Y-91182096D01*
X198202655Y-91182094D01*
X197974413Y-91120938D01*
X197974403Y-91120936D01*
X197739001Y-91100341D01*
X197738999Y-91100341D01*
X197503596Y-91120936D01*
X197503586Y-91120938D01*
X197275344Y-91182094D01*
X197275335Y-91182098D01*
X197061171Y-91281964D01*
X197061169Y-91281965D01*
X196867597Y-91417505D01*
X196700505Y-91584597D01*
X196570575Y-91770158D01*
X196515998Y-91813783D01*
X196446500Y-91820977D01*
X196384145Y-91789454D01*
X196367425Y-91770158D01*
X196237494Y-91584597D01*
X196070402Y-91417506D01*
X196070395Y-91417501D01*
X195876834Y-91281967D01*
X195876830Y-91281965D01*
X195876828Y-91281964D01*
X195662663Y-91182097D01*
X195662659Y-91182096D01*
X195662655Y-91182094D01*
X195434413Y-91120938D01*
X195434403Y-91120936D01*
X195199001Y-91100341D01*
X195198999Y-91100341D01*
X194963596Y-91120936D01*
X194963586Y-91120938D01*
X194735344Y-91182094D01*
X194735335Y-91182098D01*
X194521171Y-91281964D01*
X194521169Y-91281965D01*
X194327597Y-91417505D01*
X194160505Y-91584597D01*
X194030575Y-91770158D01*
X193975998Y-91813783D01*
X193906500Y-91820977D01*
X193844145Y-91789454D01*
X193827425Y-91770158D01*
X193697494Y-91584597D01*
X193530402Y-91417506D01*
X193530395Y-91417501D01*
X193336834Y-91281967D01*
X193336830Y-91281965D01*
X193336828Y-91281964D01*
X193122663Y-91182097D01*
X193122659Y-91182096D01*
X193122655Y-91182094D01*
X192894413Y-91120938D01*
X192894403Y-91120936D01*
X192659001Y-91100341D01*
X192658999Y-91100341D01*
X192423596Y-91120936D01*
X192423586Y-91120938D01*
X192195344Y-91182094D01*
X192195335Y-91182098D01*
X191981171Y-91281964D01*
X191981169Y-91281965D01*
X191787597Y-91417505D01*
X191620505Y-91584597D01*
X191490575Y-91770158D01*
X191435998Y-91813783D01*
X191366500Y-91820977D01*
X191304145Y-91789454D01*
X191287425Y-91770158D01*
X191157494Y-91584597D01*
X190990402Y-91417506D01*
X190990395Y-91417501D01*
X190796834Y-91281967D01*
X190796830Y-91281965D01*
X190796828Y-91281964D01*
X190582663Y-91182097D01*
X190582659Y-91182096D01*
X190582655Y-91182094D01*
X190354413Y-91120938D01*
X190354403Y-91120936D01*
X190119001Y-91100341D01*
X190118999Y-91100341D01*
X189883596Y-91120936D01*
X189883586Y-91120938D01*
X189655344Y-91182094D01*
X189655335Y-91182098D01*
X189441171Y-91281964D01*
X189441169Y-91281965D01*
X189247597Y-91417505D01*
X189080505Y-91584597D01*
X188950575Y-91770158D01*
X188895998Y-91813783D01*
X188826500Y-91820977D01*
X188764145Y-91789454D01*
X188747425Y-91770158D01*
X188617494Y-91584597D01*
X188450402Y-91417506D01*
X188450395Y-91417501D01*
X188256834Y-91281967D01*
X188256830Y-91281965D01*
X188256828Y-91281964D01*
X188042663Y-91182097D01*
X188042659Y-91182096D01*
X188042655Y-91182094D01*
X187814413Y-91120938D01*
X187814403Y-91120936D01*
X187579001Y-91100341D01*
X187578999Y-91100341D01*
X187343596Y-91120936D01*
X187343586Y-91120938D01*
X187115344Y-91182094D01*
X187115335Y-91182098D01*
X186901171Y-91281964D01*
X186901169Y-91281965D01*
X186707597Y-91417505D01*
X186540505Y-91584597D01*
X186410575Y-91770158D01*
X186355998Y-91813783D01*
X186286500Y-91820977D01*
X186224145Y-91789454D01*
X186207425Y-91770158D01*
X186077494Y-91584597D01*
X185910402Y-91417506D01*
X185910395Y-91417501D01*
X185716834Y-91281967D01*
X185716830Y-91281965D01*
X185716828Y-91281964D01*
X185502663Y-91182097D01*
X185502659Y-91182096D01*
X185502655Y-91182094D01*
X185274413Y-91120938D01*
X185274403Y-91120936D01*
X185039001Y-91100341D01*
X185038999Y-91100341D01*
X184803596Y-91120936D01*
X184803586Y-91120938D01*
X184575344Y-91182094D01*
X184575335Y-91182098D01*
X184361171Y-91281964D01*
X184361169Y-91281965D01*
X184167597Y-91417505D01*
X184000505Y-91584597D01*
X183864965Y-91778169D01*
X183864964Y-91778171D01*
X183765098Y-91992335D01*
X183765094Y-91992344D01*
X183703938Y-92220586D01*
X183703936Y-92220596D01*
X183683341Y-92455999D01*
X183683341Y-92456000D01*
X183703936Y-92691403D01*
X183703938Y-92691413D01*
X183746272Y-92849407D01*
X183744609Y-92919257D01*
X183705446Y-92977119D01*
X183641218Y-93004623D01*
X183626497Y-93005500D01*
X182140688Y-93005500D01*
X182080270Y-93017518D01*
X182042558Y-93025019D01*
X182019849Y-93029536D01*
X182019847Y-93029537D01*
X181986506Y-93043347D01*
X181906018Y-93076684D01*
X181906004Y-93076692D01*
X181803571Y-93145138D01*
X181803563Y-93145144D01*
X181716438Y-93232270D01*
X178963528Y-95985181D01*
X178902205Y-96018666D01*
X178875847Y-96021500D01*
X177230389Y-96021500D01*
X177169971Y-96033518D01*
X177126743Y-96042116D01*
X177109546Y-96045537D01*
X177063251Y-96064714D01*
X177031411Y-96077902D01*
X176995711Y-96092689D01*
X176985627Y-96099428D01*
X176985626Y-96099429D01*
X176893268Y-96161140D01*
X176849705Y-96204703D01*
X176806142Y-96248267D01*
X176806139Y-96248270D01*
X173407229Y-99647181D01*
X173345906Y-99680666D01*
X173319548Y-99683500D01*
X173260354Y-99683500D01*
X173227897Y-99690398D01*
X173075197Y-99722855D01*
X173075192Y-99722857D01*
X172902270Y-99799848D01*
X172902265Y-99799851D01*
X172792885Y-99879321D01*
X172727079Y-99902801D01*
X172659025Y-99886975D01*
X172647115Y-99879321D01*
X172537734Y-99799851D01*
X172537729Y-99799848D01*
X172364807Y-99722857D01*
X172364802Y-99722855D01*
X172219001Y-99691865D01*
X172179646Y-99683500D01*
X171990354Y-99683500D01*
X171957897Y-99690398D01*
X171805197Y-99722855D01*
X171805192Y-99722857D01*
X171632270Y-99799848D01*
X171632265Y-99799851D01*
X171479129Y-99911111D01*
X171352466Y-100051785D01*
X171257821Y-100215715D01*
X171257818Y-100215722D01*
X171200006Y-100393650D01*
X171199326Y-100395744D01*
X171179540Y-100584000D01*
X160000000Y-100584000D01*
X160000000Y-77899994D01*
X160344457Y-77899994D01*
X160344457Y-77900005D01*
X160364606Y-78220283D01*
X160364607Y-78220290D01*
X160424745Y-78535542D01*
X160523916Y-78840759D01*
X160523918Y-78840764D01*
X160660558Y-79131138D01*
X160660562Y-79131144D01*
X160832520Y-79402108D01*
X160832522Y-79402111D01*
X161037087Y-79649388D01*
X161271034Y-79869078D01*
X161271044Y-79869086D01*
X161530660Y-80057708D01*
X161530666Y-80057711D01*
X161530672Y-80057716D01*
X161811903Y-80212324D01*
X162110294Y-80330466D01*
X162110293Y-80330466D01*
X162421135Y-80410276D01*
X162421139Y-80410277D01*
X162487935Y-80418715D01*
X162739524Y-80450499D01*
X162739533Y-80450499D01*
X162739536Y-80450500D01*
X162739538Y-80450500D01*
X163060462Y-80450500D01*
X163060464Y-80450500D01*
X163060467Y-80450499D01*
X163060475Y-80450499D01*
X163250463Y-80426497D01*
X163378861Y-80410277D01*
X163689706Y-80330466D01*
X163988097Y-80212324D01*
X164269328Y-80057716D01*
X164528964Y-79869080D01*
X164762911Y-79649390D01*
X164967478Y-79402110D01*
X165139439Y-79131142D01*
X165276084Y-78840758D01*
X165375256Y-78535538D01*
X165435392Y-78220294D01*
X165455543Y-77900000D01*
X165455543Y-77899994D01*
X214544457Y-77899994D01*
X214544457Y-77900005D01*
X214564606Y-78220283D01*
X214564607Y-78220290D01*
X214624745Y-78535542D01*
X214723916Y-78840759D01*
X214723918Y-78840764D01*
X214860558Y-79131138D01*
X214860562Y-79131144D01*
X215032520Y-79402108D01*
X215032522Y-79402111D01*
X215237087Y-79649388D01*
X215471034Y-79869078D01*
X215471044Y-79869086D01*
X215730660Y-80057708D01*
X215730666Y-80057711D01*
X215730672Y-80057716D01*
X216011903Y-80212324D01*
X216310294Y-80330466D01*
X216310293Y-80330466D01*
X216621135Y-80410276D01*
X216621139Y-80410277D01*
X216687935Y-80418715D01*
X216939524Y-80450499D01*
X216939533Y-80450499D01*
X216939536Y-80450500D01*
X216939538Y-80450500D01*
X217260462Y-80450500D01*
X217260464Y-80450500D01*
X217260467Y-80450499D01*
X217260475Y-80450499D01*
X217450463Y-80426497D01*
X217578861Y-80410277D01*
X217889706Y-80330466D01*
X218188097Y-80212324D01*
X218469328Y-80057716D01*
X218728964Y-79869080D01*
X218962911Y-79649390D01*
X219167478Y-79402110D01*
X219339439Y-79131142D01*
X219476084Y-78840758D01*
X219575256Y-78535538D01*
X219635392Y-78220294D01*
X219655543Y-77900000D01*
X219635392Y-77579706D01*
X219575256Y-77264462D01*
X219476084Y-76959242D01*
X219476081Y-76959235D01*
X219339441Y-76668861D01*
X219339437Y-76668855D01*
X219167479Y-76397891D01*
X219167477Y-76397888D01*
X218962912Y-76150611D01*
X218728965Y-75930921D01*
X218728955Y-75930913D01*
X218469339Y-75742291D01*
X218469321Y-75742280D01*
X218188096Y-75587675D01*
X218188093Y-75587674D01*
X217889703Y-75469533D01*
X217889706Y-75469533D01*
X217578864Y-75389723D01*
X217578851Y-75389721D01*
X217260475Y-75349500D01*
X217260464Y-75349500D01*
X216939536Y-75349500D01*
X216939524Y-75349500D01*
X216621148Y-75389721D01*
X216621135Y-75389723D01*
X216310294Y-75469533D01*
X216011906Y-75587674D01*
X216011903Y-75587675D01*
X215730678Y-75742280D01*
X215730660Y-75742291D01*
X215471044Y-75930913D01*
X215471034Y-75930921D01*
X215237087Y-76150611D01*
X215032522Y-76397888D01*
X215032520Y-76397891D01*
X214860562Y-76668855D01*
X214860558Y-76668861D01*
X214723918Y-76959235D01*
X214723916Y-76959240D01*
X214624745Y-77264457D01*
X214564607Y-77579709D01*
X214564606Y-77579716D01*
X214544457Y-77899994D01*
X165455543Y-77899994D01*
X165435392Y-77579706D01*
X165375256Y-77264462D01*
X165276084Y-76959242D01*
X165276081Y-76959235D01*
X165139441Y-76668861D01*
X165139437Y-76668855D01*
X164967479Y-76397891D01*
X164967477Y-76397888D01*
X164762912Y-76150611D01*
X164528965Y-75930921D01*
X164528955Y-75930913D01*
X164269339Y-75742291D01*
X164269321Y-75742280D01*
X163988096Y-75587675D01*
X163988093Y-75587674D01*
X163689703Y-75469533D01*
X163689706Y-75469533D01*
X163378864Y-75389723D01*
X163378851Y-75389721D01*
X163060475Y-75349500D01*
X163060464Y-75349500D01*
X162739536Y-75349500D01*
X162739524Y-75349500D01*
X162421148Y-75389721D01*
X162421135Y-75389723D01*
X162110294Y-75469533D01*
X161811906Y-75587674D01*
X161811903Y-75587675D01*
X161530678Y-75742280D01*
X161530660Y-75742291D01*
X161271044Y-75930913D01*
X161271034Y-75930921D01*
X161037087Y-76150611D01*
X160832522Y-76397888D01*
X160832520Y-76397891D01*
X160660562Y-76668855D01*
X160660558Y-76668861D01*
X160523918Y-76959235D01*
X160523916Y-76959240D01*
X160424745Y-77264457D01*
X160364607Y-77579709D01*
X160364606Y-77579716D01*
X160344457Y-77899994D01*
X160000000Y-77899994D01*
X160000000Y-69899994D01*
X160344457Y-69899994D01*
X160344457Y-69900005D01*
X160364606Y-70220283D01*
X160364607Y-70220290D01*
X160424745Y-70535542D01*
X160523916Y-70840759D01*
X160523918Y-70840764D01*
X160660558Y-71131138D01*
X160660562Y-71131144D01*
X160832520Y-71402108D01*
X160832522Y-71402111D01*
X161037087Y-71649388D01*
X161271034Y-71869078D01*
X161271044Y-71869086D01*
X161530660Y-72057708D01*
X161530666Y-72057711D01*
X161530672Y-72057716D01*
X161811903Y-72212324D01*
X162110294Y-72330466D01*
X162110293Y-72330466D01*
X162421135Y-72410276D01*
X162421139Y-72410277D01*
X162487935Y-72418715D01*
X162739524Y-72450499D01*
X162739533Y-72450499D01*
X162739536Y-72450500D01*
X162739538Y-72450500D01*
X163060462Y-72450500D01*
X163060464Y-72450500D01*
X163060467Y-72450499D01*
X163060475Y-72450499D01*
X163250463Y-72426497D01*
X163378861Y-72410277D01*
X163689706Y-72330466D01*
X163988097Y-72212324D01*
X164269328Y-72057716D01*
X164528964Y-71869080D01*
X164762911Y-71649390D01*
X164967478Y-71402110D01*
X165139439Y-71131142D01*
X165276084Y-70840758D01*
X165375256Y-70535538D01*
X165435392Y-70220294D01*
X165455543Y-69900000D01*
X165455543Y-69899994D01*
X214544457Y-69899994D01*
X214544457Y-69900005D01*
X214564606Y-70220283D01*
X214564607Y-70220290D01*
X214624745Y-70535542D01*
X214723916Y-70840759D01*
X214723918Y-70840764D01*
X214860558Y-71131138D01*
X214860562Y-71131144D01*
X215032520Y-71402108D01*
X215032522Y-71402111D01*
X215237087Y-71649388D01*
X215471034Y-71869078D01*
X215471044Y-71869086D01*
X215730660Y-72057708D01*
X215730666Y-72057711D01*
X215730672Y-72057716D01*
X216011903Y-72212324D01*
X216310294Y-72330466D01*
X216310293Y-72330466D01*
X216621135Y-72410276D01*
X216621139Y-72410277D01*
X216687935Y-72418715D01*
X216939524Y-72450499D01*
X216939533Y-72450499D01*
X216939536Y-72450500D01*
X216939538Y-72450500D01*
X217260462Y-72450500D01*
X217260464Y-72450500D01*
X217260467Y-72450499D01*
X217260475Y-72450499D01*
X217450463Y-72426497D01*
X217578861Y-72410277D01*
X217889706Y-72330466D01*
X218188097Y-72212324D01*
X218469328Y-72057716D01*
X218728964Y-71869080D01*
X218962911Y-71649390D01*
X219167478Y-71402110D01*
X219339439Y-71131142D01*
X219476084Y-70840758D01*
X219575256Y-70535538D01*
X219635392Y-70220294D01*
X219655543Y-69900000D01*
X219635392Y-69579706D01*
X219575256Y-69264462D01*
X219476084Y-68959242D01*
X219476081Y-68959235D01*
X219339441Y-68668861D01*
X219339437Y-68668855D01*
X219167479Y-68397891D01*
X219167477Y-68397888D01*
X218962912Y-68150611D01*
X218728965Y-67930921D01*
X218728955Y-67930913D01*
X218469339Y-67742291D01*
X218469321Y-67742280D01*
X218188096Y-67587675D01*
X218188093Y-67587674D01*
X217889703Y-67469533D01*
X217889706Y-67469533D01*
X217578864Y-67389723D01*
X217578851Y-67389721D01*
X217260475Y-67349500D01*
X217260464Y-67349500D01*
X216939536Y-67349500D01*
X216939524Y-67349500D01*
X216621148Y-67389721D01*
X216621135Y-67389723D01*
X216310294Y-67469533D01*
X216011906Y-67587674D01*
X216011903Y-67587675D01*
X215730678Y-67742280D01*
X215730660Y-67742291D01*
X215471044Y-67930913D01*
X215471034Y-67930921D01*
X215237087Y-68150611D01*
X215032522Y-68397888D01*
X215032520Y-68397891D01*
X214860562Y-68668855D01*
X214860558Y-68668861D01*
X214723918Y-68959235D01*
X214723916Y-68959240D01*
X214624745Y-69264457D01*
X214564607Y-69579709D01*
X214564606Y-69579716D01*
X214544457Y-69899994D01*
X165455543Y-69899994D01*
X165435392Y-69579706D01*
X165375256Y-69264462D01*
X165276084Y-68959242D01*
X165276081Y-68959235D01*
X165139441Y-68668861D01*
X165139437Y-68668855D01*
X164967479Y-68397891D01*
X164967477Y-68397888D01*
X164762912Y-68150611D01*
X164528965Y-67930921D01*
X164528955Y-67930913D01*
X164269339Y-67742291D01*
X164269321Y-67742280D01*
X163988096Y-67587675D01*
X163988093Y-67587674D01*
X163689703Y-67469533D01*
X163689706Y-67469533D01*
X163378864Y-67389723D01*
X163378851Y-67389721D01*
X163060475Y-67349500D01*
X163060464Y-67349500D01*
X162739536Y-67349500D01*
X162739524Y-67349500D01*
X162421148Y-67389721D01*
X162421135Y-67389723D01*
X162110294Y-67469533D01*
X161811906Y-67587674D01*
X161811903Y-67587675D01*
X161530678Y-67742280D01*
X161530660Y-67742291D01*
X161271044Y-67930913D01*
X161271034Y-67930921D01*
X161037087Y-68150611D01*
X160832522Y-68397888D01*
X160832520Y-68397891D01*
X160660562Y-68668855D01*
X160660558Y-68668861D01*
X160523918Y-68959235D01*
X160523916Y-68959240D01*
X160424745Y-69264457D01*
X160364607Y-69579709D01*
X160364606Y-69579716D01*
X160344457Y-69899994D01*
X160000000Y-69899994D01*
X160000000Y-67124000D01*
X160019685Y-67056961D01*
X160072489Y-67011206D01*
X160124000Y-67000000D01*
X219876000Y-67000000D01*
X219943039Y-67019685D01*
G37*
%TD.AperFunction*%
%TD*%
M02*
