%TF.GenerationSoftware,KiCad,Pcbnew,8.0.2-8.0.2-0~ubuntu22.04.1*%
%TF.CreationDate,2024-05-04T18:31:52-07:00*%
%TF.ProjectId,gps_interposer,6770735f-696e-4746-9572-706f7365722e,rev?*%
%TF.SameCoordinates,Original*%
%TF.FileFunction,Soldermask,Top*%
%TF.FilePolarity,Negative*%
%FSLAX46Y46*%
G04 Gerber Fmt 4.6, Leading zero omitted, Abs format (unit mm)*
G04 Created by KiCad (PCBNEW 8.0.2-8.0.2-0~ubuntu22.04.1) date 2024-05-04 18:31:52*
%MOMM*%
%LPD*%
G01*
G04 APERTURE LIST*
%ADD10R,1.700000X1.700000*%
%ADD11O,1.700000X1.700000*%
%ADD12C,3.900000*%
%ADD13C,4.100000*%
%ADD14R,0.750000X2.100000*%
G04 APERTURE END LIST*
D10*
%TO.C,J5*%
X212344000Y-110490000D03*
D11*
X209804000Y-110490000D03*
X207264000Y-110490000D03*
X204724000Y-110490000D03*
%TD*%
D12*
%TO.C,H8*%
X162900000Y-69900000D03*
D13*
X162900000Y-69900000D03*
%TD*%
D12*
%TO.C,H7*%
X162900000Y-104100000D03*
D13*
X162900000Y-104100000D03*
%TD*%
D12*
%TO.C,H6*%
X217100000Y-104100000D03*
D13*
X217100000Y-104100000D03*
%TD*%
D12*
%TO.C,H5*%
X217100000Y-69900000D03*
D13*
X217100000Y-69900000D03*
%TD*%
D12*
%TO.C,H4*%
X162900000Y-77900000D03*
D13*
X162900000Y-77900000D03*
%TD*%
D12*
%TO.C,H3*%
X162900000Y-112100000D03*
D13*
X162900000Y-112100000D03*
%TD*%
%TO.C,H2*%
X217100000Y-112100000D03*
D12*
X217100000Y-112100000D03*
%TD*%
%TO.C,H1*%
X217100000Y-77900000D03*
D13*
X217100000Y-77900000D03*
%TD*%
D14*
%TO.C,J1*%
X177180000Y-102610000D03*
X177180000Y-99010000D03*
X175910000Y-102610000D03*
X175910000Y-99010000D03*
X174640000Y-102610000D03*
X174640000Y-99010000D03*
X173370000Y-102610000D03*
X173370000Y-99010000D03*
X172100000Y-102610000D03*
X172100000Y-99010000D03*
%TD*%
D10*
%TO.C,U3*%
X185039000Y-112776000D03*
D11*
X185039000Y-110236000D03*
X185039000Y-107696000D03*
X185039000Y-105156000D03*
X185039000Y-102616000D03*
X185039000Y-100076000D03*
X185039000Y-97536000D03*
X185039000Y-94996000D03*
X185039000Y-92456000D03*
X187579000Y-92456000D03*
X190119000Y-92456000D03*
X192659000Y-92456000D03*
X195199000Y-92456000D03*
X197739000Y-92456000D03*
X200279000Y-92456000D03*
X200279000Y-94996000D03*
X200279000Y-97536000D03*
X200279000Y-100076000D03*
X200279000Y-102616000D03*
X200279000Y-105156000D03*
X200279000Y-107696000D03*
X200279000Y-110236000D03*
X200279000Y-112776000D03*
%TD*%
M02*
